<svg xmlns="http://www.w3.org/2000/svg" xmlns:xlink="http://www.w3.org/1999/xlink" fill="none" version="1.1" width="114" height="114" viewBox="0 0 114 114"><g><g><path d="M114,57Q114,58.399269,113.93134,59.796856Q113.86269,61.194443,113.72553,62.586975Q113.58838,63.979507,113.38306,65.363632Q113.17774,66.747757,112.90475,68.12014Q112.63177,69.492523,112.29178,70.849861Q111.95178,72.207199,111.54559,73.546219Q111.1394,74.885239,110.66801,76.202713Q110.19661,77.520187,109.66113,78.812943Q109.12565,80.105698,108.52739,81.370628Q107.92912,82.635559,107.26951,83.869606Q106.60989,85.103653,105.89053,86.303841Q105.17116,87.504036,104.39376,88.667488Q103.61636,89.83094,102.78282,90.954849Q101.94928,92.078758,101.0616,93.160416Q100.1739,94.242065,99.234207,95.278854Q98.294518,96.315651,97.305084,97.305084Q96.315651,98.294518,95.278854,99.234207Q94.242065,100.1739,93.160416,101.06158Q92.078758,101.94927,90.954849,102.78282Q89.830948,103.61636,88.667496,104.39375Q87.504044,105.17114,86.303848,105.89052Q85.103653,106.60989,83.869614,107.2695Q82.635559,107.92912,81.370628,108.52738Q80.105698,109.12565,78.812943,109.66113Q77.520187,110.19661,76.202713,110.668Q74.885239,111.1394,73.546219,111.54559Q72.207199,111.95178,70.849861,112.29178Q69.492523,112.63177,68.12014,112.90475Q66.747757,113.17774,65.363632,113.38306Q63.979507,113.58838,62.586975,113.72553Q61.194443,113.86269,59.796856,113.93134Q58.399269,114,57,114Q55.600723,114,54.20314,113.93134Q52.805557,113.86269,51.413025,113.72553Q50.020489,113.58838,48.63636,113.38306Q47.252232,113.17774,45.879845,112.90475Q44.507462,112.63177,43.150124,112.29178Q41.792789,111.95178,40.453773,111.54559Q39.11475,111.1394,37.797272,110.66801Q36.479797,110.19661,35.187042,109.66113Q33.894283,109.12565,32.629356,108.52739Q31.364429,107.92912,30.130383,107.26951Q28.896336,106.60989,27.696138,105.89053Q26.495945,105.17116,25.332493,104.39376Q24.169041,103.61636,23.045137,102.78282Q21.921232,101.94928,20.839582,101.0616Q19.757931,100.1739,18.721138,99.234207Q17.684345,98.294518,16.694912,97.305084Q15.705477,96.315651,14.765783,95.278854Q13.82609,94.242065,12.938402,93.160416Q12.050713,92.078758,11.217168,90.954849Q10.383623,89.830948,9.6062307,88.667496Q8.8288374,87.504044,8.1094685,86.303848Q7.390099,85.103653,6.7304869,83.869614Q6.0708752,82.635559,5.4726095,81.370628Q4.8743439,80.105698,4.3388658,78.812943Q3.8033876,77.520187,3.3319874,76.202713Q2.8605874,74.885239,2.4544005,73.546219Q2.0482135,72.207199,1.7082182,70.849861Q1.3682231,69.492523,1.0952388,68.12014Q0.82225454,66.747757,0.61693883,65.363632Q0.41162312,63.979507,0.27447054,62.586975Q0.13731797,61.194443,0.068658985,59.796856Q0,58.399269,0,57Q0,55.600723,0.068658985,54.20314Q0.13731797,52.805557,0.27447054,51.413025Q0.41162312,50.020489,0.61693883,48.63636Q0.82225454,47.252232,1.0952388,45.879845Q1.3682231,44.507462,1.7082183,43.150124Q2.0482135,41.792789,2.4544005,40.453773Q2.8605874,39.11475,3.3319876,37.797272Q3.8033876,36.479797,4.3388658,35.187042Q4.8743439,33.894283,5.4726095,32.629356Q6.0708752,31.364429,6.7304869,30.130383Q7.390099,28.896336,8.1094685,27.696138Q8.8288364,26.495945,9.6062298,25.332493Q10.383623,24.169041,11.217168,23.045137Q12.050713,21.921232,12.938402,20.839582Q13.82609,19.757931,14.765783,18.721138Q15.705477,17.684345,16.694912,16.694912Q17.684345,15.705477,18.721138,14.765783Q19.757929,13.82609,20.839581,12.938402Q21.92123,12.050713,23.045135,11.217168Q24.169041,10.383623,25.332493,9.6062307Q26.495945,8.8288374,27.696138,8.1094685Q28.896336,7.390099,30.130383,6.7304869Q31.364429,6.0708752,32.629356,5.4726095Q33.894283,4.8743439,35.187042,4.3388658Q36.479797,3.8033876,37.797272,3.3319874Q39.11475,2.8605874,40.453773,2.4544005Q41.792793,2.0482135,43.150127,1.7082182Q44.507465,1.3682231,45.879848,1.0952388Q47.252235,0.82225454,48.63636,0.61693883Q50.020489,0.41162312,51.413025,0.27447054Q52.805557,0.13731797,54.20314,0.068658985Q55.600723,0,57,0Q58.399269,0,59.796856,0.068658985Q61.194443,0.13731797,62.586975,0.27447054Q63.979507,0.41162312,65.363632,0.61693883Q66.747757,0.82225454,68.12014,1.0952388Q69.492523,1.3682231,70.849861,1.7082183Q72.207199,2.0482135,73.546219,2.4544005Q74.885239,2.8605874,76.202713,3.3319876Q77.520187,3.8033876,78.812943,4.3388658Q80.105698,4.8743439,81.370628,5.4726095Q82.635559,6.0708752,83.869606,6.7304869Q85.103653,7.390099,86.303841,8.1094685Q87.504036,8.8288364,88.667488,9.6062298Q89.83094,10.383623,90.954849,11.217168Q92.078758,12.050713,93.160416,12.938402Q94.242065,13.82609,95.278854,14.765783Q96.315651,15.705477,97.305084,16.694912Q98.294518,17.684345,99.234207,18.721138Q100.1739,19.757929,101.06158,20.839581Q101.94927,21.92123,102.78282,23.045135Q103.61636,24.169041,104.39375,25.332493Q105.17114,26.495945,105.89052,27.696138Q106.60989,28.896336,107.2695,30.130383Q107.92912,31.364429,108.52738,32.629356Q109.12565,33.894283,109.66113,35.187042Q110.19661,36.479797,110.668,37.797272Q111.1394,39.11475,111.54559,40.453773Q111.95178,41.792793,112.29178,43.150127Q112.63177,44.507465,112.90475,45.879848Q113.17774,47.252235,113.38306,48.63636Q113.58838,50.020489,113.72553,51.413025Q113.86269,52.805557,113.93134,54.20314Q114,55.600723,114,57ZM104,57Q104,55.846214,103.94338,54.693817Q103.88678,53.541424,103.77369,52.393196Q103.66059,51.244965,103.49129,50.103664Q103.32199,48.962368,103.0969,47.83075Q102.87181,46.699135,102.59147,45.579926Q102.31113,44.460716,101.9762,43.356617Q101.64127,42.25251,101.25257,41.166172Q100.86387,40.07983,100.42233,39.01387Q99.980797,37.94791,99.487488,36.9049Q98.994186,35.861893,98.450294,34.844349Q97.906403,33.826797,97.313232,32.837166Q96.720062,31.84753,96.079056,30.888193Q95.438049,29.928856,94.750748,29.002129Q94.063438,28.075401,93.331482,27.183514Q92.599533,26.291626,91.824692,25.436728Q91.049858,24.581829,90.234009,23.76598Q89.418159,22.95013,88.563263,22.175295Q87.708366,21.400461,86.816483,20.668509Q85.924591,19.936554,84.997864,19.249245Q84.071136,18.561935,83.111794,17.920927Q82.152458,17.279919,81.162827,16.686756Q80.173187,16.09359,79.155647,15.549701Q78.138092,15.005809,77.095085,14.512502Q76.052078,14.019195,74.986115,13.577661Q73.920158,13.136126,72.833817,12.747429Q71.747482,12.35873,70.643372,12.023804Q69.539268,11.688877,68.420059,11.40853Q67.30085,11.128183,66.169235,10.903091Q65.037621,10.677999,63.896324,10.508705Q62.755028,10.339409,61.606804,10.226318Q60.458572,10.113228,59.306179,10.056614Q58.153782,10,57,10Q55.846214,10,54.693817,10.056614Q53.541424,10.113228,52.393196,10.226318Q51.244965,10.339409,50.103664,10.508704Q48.962368,10.677999,47.83075,10.903091Q46.699135,11.128183,45.579926,11.408531Q44.460716,11.688878,43.356617,12.023805Q42.25251,12.35873,41.166172,12.747428Q40.07983,13.136126,39.01387,13.577661Q37.94791,14.019195,36.9049,14.512502Q35.861893,15.005808,34.844349,15.5497Q33.826797,16.09359,32.837166,16.686752Q31.84753,17.279917,30.888193,17.920925Q29.928856,18.561934,29.002129,19.249243Q28.075401,19.936554,27.183514,20.668509Q26.291626,21.400461,25.436728,22.175297Q24.581829,22.95013,23.76598,23.76598Q22.95013,24.581829,22.175295,25.436726Q21.400461,26.291626,20.668509,27.183514Q19.936554,28.075401,19.249245,29.002129Q18.561935,29.928858,17.920927,30.888195Q17.279919,31.84753,16.686756,32.837166Q16.09359,33.826797,15.549701,34.844349Q15.005809,35.861893,14.512502,36.904903Q14.019195,37.947914,13.577661,39.013874Q13.136126,40.079834,12.747429,41.166172Q12.35873,42.252514,12.023804,43.356621Q11.688877,44.460724,11.40853,45.579929Q11.128183,46.699139,10.903091,47.830753Q10.677999,48.962372,10.508705,50.103668Q10.339409,51.244965,10.226318,52.393196Q10.113228,53.541424,10.056614,54.693821Q10,55.846214,10,57Q10,58.153782,10.056614,59.306175Q10.113228,60.458572,10.226318,61.606804Q10.339409,62.755032,10.508704,63.896324Q10.677999,65.037628,10.903091,66.169243Q11.128183,67.300858,11.408531,68.420059Q11.688878,69.539276,12.023805,70.643379Q12.35873,71.747482,12.747428,72.833824Q13.136126,73.920158,13.577661,74.986115Q14.019195,76.052078,14.512502,77.095093Q15.005808,78.1381,15.5497,79.155655Q16.09359,80.173195,16.686752,81.162827Q17.279917,82.152466,17.920925,83.111801Q18.561934,84.071136,19.249243,84.997871Q19.936554,85.924591,20.668509,86.816483Q21.400461,87.708374,22.175297,88.563271Q22.95013,89.418167,23.76598,90.234016Q24.581829,91.049866,25.436726,91.824699Q26.291626,92.599533,27.183514,93.33149Q28.075401,94.063446,29.002129,94.750748Q29.928858,95.438057,30.888195,96.079063Q31.84753,96.720078,32.837166,97.31324Q33.826797,97.906403,34.844349,98.450294Q35.861893,98.994186,36.904903,99.487488Q37.947914,99.980797,39.013874,100.42233Q40.079834,100.86387,41.166172,101.25257Q42.252514,101.64127,43.356621,101.9762Q44.460724,102.31113,45.579929,102.59147Q46.699139,102.87181,47.830753,103.0969Q48.962372,103.32199,50.103668,103.49129Q51.244965,103.66059,52.393196,103.77369Q53.541424,103.88677,54.693821,103.94339Q55.846214,104,57,104Q58.153782,104,59.306175,103.94338Q60.458572,103.88677,61.606804,103.77369Q62.755032,103.66059,63.896324,103.49129Q65.037628,103.32199,66.169243,103.0969Q67.300858,102.87181,68.420059,102.59147Q69.539276,102.31113,70.643379,101.9762Q71.747482,101.64127,72.833824,101.25257Q73.920158,100.86387,74.986115,100.42233Q76.052078,99.980797,77.095093,99.487488Q78.1381,98.994186,79.155655,98.450294Q80.173195,97.906403,81.162827,97.313232Q82.152466,96.720062,83.111801,96.079056Q84.071136,95.438049,84.997871,94.750748Q85.924591,94.063438,86.816483,93.331482Q87.708374,92.599533,88.563271,91.824692Q89.418167,91.049858,90.234016,90.234009Q91.049866,89.418159,91.824699,88.563263Q92.599533,87.708366,93.33149,86.816483Q94.063446,85.924591,94.750748,84.997864Q95.438057,84.071136,96.079063,83.111794Q96.720078,82.152458,97.31324,81.162827Q97.906403,80.173187,98.450294,79.155647Q98.994186,78.138092,99.487488,77.095085Q99.980797,76.052078,100.42233,74.986115Q100.86387,73.920158,101.25257,72.833817Q101.64127,71.747482,101.9762,70.643372Q102.31113,69.539268,102.59147,68.420059Q102.87181,67.30085,103.0969,66.169235Q103.32199,65.037621,103.49129,63.896324Q103.66059,62.755028,103.77369,61.606804Q103.88678,60.458572,103.94339,59.306179Q104,58.153782,104,57Z" fill="#FFFFFF" fill-opacity="1"/></g><g><path d="M76.140625,68.59375Q76.140625,71.75,75,73.921875Q73.859375,76.09375,72.15625,77.453125Q70.453125,78.8125,68.453125,79.40625Q66.453125,80,64.734375,80L38.671875,80L38.671875,71.875L64.734375,71.875Q66.390625,71.875,67.1875,71.03125Q67.984375,70.1875,67.984375,68.59375L67.984375,61.6875L38.671875,61.6875L38.671875,53.5L67.984375,53.5L67.984375,46.65625Q67.984375,43.3125,64.734375,43.3125L38.671875,43.3125L38.671875,35.1875L64.734375,35.1875Q66.828125,35.1875,68.484375,35.71875Q70.140625,36.25,71.40625,37.140625Q72.671875,38.03125,73.578125,39.1875Q74.484375,40.34375,75.046875,41.609375Q75.609375,42.875,75.875,44.171875Q76.140625,45.46875,76.140625,46.59375L76.140625,68.59375Z" fill="#FFFFFF" fill-opacity="1"/></g></g></svg>