<svg xmlns="http://www.w3.org/2000/svg" xmlns:xlink="http://www.w3.org/1999/xlink" fill="none" version="1.1" width="100" height="100" viewBox="0 0 100 100"><defs><clipPath id="master_svg0_24_208"><rect x="0" y="0" width="100" height="100" rx="0"/></clipPath></defs><g clip-path="url(#master_svg0_24_208)"><g><path d="M50.00001901171875,58.33316790625L50.00001901171875,91.66650390625L16.66668701171875,91.66650390625C16.66668701171875,73.25691190625,31.59051901171875,58.33316790625,50.00001901171875,58.33316790625ZM50.00001901171875,54.16650390625C36.18752101171875,54.16650390625,25.00002001171875,42.97899990625,25.00002001171875,29.16650390625C25.00002001171875,15.35400290625,36.18752101171875,4.16650390625,50.00001901171875,4.16650390625C63.81251501171875,4.16650390625,75.00001901171875,15.35400290625,75.00001901171875,29.16650390625C75.00001901171875,42.97899990625,63.81251501171875,54.16650390625,50.00001901171875,54.16650390625ZM87.50001501171874,70.83316790625L91.66668701171875,70.83316790625L91.66668701171875,91.66650390625L58.33335101171875,91.66650390625L58.33335101171875,70.83316790625L62.50001901171875,70.83316790625L62.50001901171875,66.66649990625001C62.50001901171875,59.76274890625,68.09626801171875,54.16650390625,75.00001901171875,54.16650390625C81.90377001171875,54.16650390625,87.50001501171874,59.76274890625,87.50001501171874,66.66649990625001L87.50001501171874,70.83316790625ZM79.16668301171876,70.83316790625L79.16668301171876,66.66649990625001C79.16668301171876,64.36524990625,77.30126601171875,62.49983590625,75.00001901171875,62.49983590625C72.69876901171875,62.49983590625,70.83335101171875,64.36524990625,70.83335101171875,66.66649990625001L70.83335101171875,70.83316790625L79.16668301171876,70.83316790625Z" fill="#FFFFFF" fill-opacity="1" style="mix-blend-mode:passthrough"/></g></g></svg>