<svg xmlns="http://www.w3.org/2000/svg" xmlns:xlink="http://www.w3.org/1999/xlink" fill="none" version="1.1" width="100" height="100" viewBox="0 0 100 100"><defs><clipPath id="master_svg0_35_172"><rect x="0" y="0" width="100" height="100" rx="0"/></clipPath></defs><g clip-path="url(#master_svg0_35_172)"><g><path d="M50.00000750585937,91.66682409375C26.988134505859374,91.66682409375,8.333343505859375,73.01182509375,8.333343505859375,50.00016009375C8.333343505859375,26.98828709375,26.988134505859374,8.33349609375,50.00000750585937,8.33349609375C73.01167250585938,8.33349609375,91.66667150585937,26.98828709375,91.66667150585937,50.00016009375C91.66667150585937,73.01182509375,73.01167250585938,91.66682409375,50.00000750585937,91.66682409375ZM70.37958950585937,35.513204093750005C69.58208850585937,34.394287093749995,68.68167850585937,33.32632809375,67.67750550585937,32.322494093749995C66.67375550585938,31.31866109375,65.60584250585939,30.41803709375,64.48709150585938,29.62062109375L29.620468505859375,64.48724409375001C30.417884505859377,65.60599509375001,31.318508505859374,66.67390809375,32.32234150585937,67.67765809375C33.326175505859375,68.68183109374999,34.39413450585937,69.58224109375,35.51305150585938,70.37974209375L70.37958950585937,35.513204093750005Z" fill="#E93B66" fill-opacity="1" style="mix-blend-mode:passthrough"/></g></g></svg>