<svg xmlns="http://www.w3.org/2000/svg" xmlns:xlink="http://www.w3.org/1999/xlink" fill="none" version="1.1" width="209" height="113" viewBox="0 0 209 113"><defs><clipPath id="master_svg0_9_275"><rect x="38" y="7" width="98" height="98" rx="0"/></clipPath></defs><g><g><rect x="0" y="0" width="108" height="84" rx="0" fill="#3D3D3D" fill-opacity="1"/></g><g><rect x="33" y="29" width="108" height="84" rx="0" fill="#3D3D3D" fill-opacity="1"/></g><g><rect x="101" y="84" width="108" height="13" rx="0" fill="#3BB8E9" fill-opacity="1"/></g><g><rect x="33" y="9" width="108" height="62" rx="0" fill="#3BB8E9" fill-opacity="1"/></g><g clip-path="url(#master_svg0_9_275)"><g><path d="M112.41057549414063,19.6015578828125C114.40406049414062,21.5948366828125,114.40406049414062,24.8266310828125,112.41057549414063,26.8199109828125L107.74332449414062,31.4845893828125L112.52082849414063,31.4862233828125C120.97782149414063,31.4862233828125,127.83332849414063,38.341852382812505,127.83332849414063,46.7987253828125L127.83332849414063,77.42364138281249C127.83332849414063,85.8806303828125,120.97782149414063,92.7361373828125,112.52082849414063,92.7361373828125L61.47915749414062,92.7361373828125C53.022287894140625,92.7361373828125,46.166656494140625,85.8806303828125,46.166656494140625,77.42364138281249L46.166656494140625,46.7987253828125C46.166656494140625,38.341852382812505,53.022287894140625,31.4862233828125,61.47915749414062,31.4862233828125L66.24134649414063,31.4845893828125L61.579852494140624,26.8238324828125C59.586572494140626,24.8305115828125,59.586572494140626,21.5987569828125,61.579852494140624,19.6054364828125C63.573171494140624,17.6121576728125,66.80492549414063,17.6121576728125,68.79824649414063,19.6054364828125L79.62590049414062,30.433007382812498C79.94766649414063,30.754938382812497,80.21757549414062,31.1091683828125,80.43562349414063,31.4852423828125L93.55210849414063,31.4861823828125C93.77056849414063,31.108308382812503,94.04129049414063,30.752405382812498,94.36469249414063,30.4291283828125L105.19246249414063,19.6015578828125C107.18553949414063,17.6082372328125,110.41749549414062,17.6082372328125,112.41057549414063,19.6015578828125ZM112.52082849414063,41.7353913828125L61.47915749414062,41.7353913828125C58.78832249414062,41.7353913828125,56.583851494140625,43.8175623828125,56.38899549414062,46.4586243828125L56.374990494140626,46.839559382812496L56.374990494140626,77.4644733828125C56.374990494140626,80.1553913828125,58.45716349414062,82.3599853828125,61.098223494140626,82.5547633828125L61.47915749414062,82.5686413828125L112.52082849414063,82.5686413828125C115.21174649414063,82.5686413828125,117.41633649414062,80.4865533828125,117.61110649414063,77.8454473828125L117.62499249414063,77.4644733828125L117.62499249414063,46.839559382812496C117.62499249414063,44.020588382812505,115.33995849414063,41.7353913828125,112.52082849414063,41.7353913828125ZM71.68749049414063,51.9436453828125C74.50646249414062,51.9436453828125,76.79165849414062,54.2290843828125,76.79165849414062,57.0478093828125L76.79165849414062,62.1519773828125C76.79165849414062,64.9711073828125,74.50646249414062,67.25614538281249,71.68749049414063,67.25614538281249C68.86852049414063,67.25614538281249,66.58332449414063,64.9711073828125,66.58332449414063,62.1519773828125L66.58332449414063,57.0478093828125C66.58332449414063,54.2290843828125,68.86852049414063,51.9436453828125,71.68749049414063,51.9436453828125ZM102.31249249414063,51.9436453828125C105.13162249414063,51.9436453828125,107.41666049414061,54.2290843828125,107.41666049414061,57.0478093828125L107.41666049414061,62.1519773828125C107.41666049414061,64.9711073828125,105.13162249414063,67.25614538281249,102.31249249414063,67.25614538281249C99.49335849414062,67.25614538281249,97.20832449414063,64.9711073828125,97.20832449414063,62.1519773828125L97.20832449414063,57.0478093828125C97.20832449414063,54.2290843828125,99.49335849414062,51.9436453828125,102.31249249414063,51.9436453828125Z" fill="#FFFFFF" fill-opacity="1" style="mix-blend-mode:passthrough"/></g></g></g></svg>