<svg xmlns="http://www.w3.org/2000/svg" xmlns:xlink="http://www.w3.org/1999/xlink" fill="none" version="1.1" width="442" height="113" viewBox="0 0 442 113"><defs><clipPath id="master_svg0_4_069"><rect x="38" y="7" width="98" height="98" rx="0"/></clipPath></defs><g><g><rect x="0" y="0" width="108" height="84" rx="0" fill="#3D3D3D" fill-opacity="1"/></g><g><rect x="33" y="29" width="108" height="84" rx="0" fill="#3D3D3D" fill-opacity="1"/></g><g><rect x="173" y="29" width="108" height="62" rx="0" fill="#3D3D3D" fill-opacity="1"/></g><g><rect x="101" y="84" width="108" height="13" rx="0" fill="#E93B66" fill-opacity="1"/></g><g><rect x="33" y="9" width="108" height="62" rx="0" fill="#E93B66" fill-opacity="1"/></g><g><rect x="204" y="11" width="207" height="72" rx="0" fill="#3D3D3D" fill-opacity="1"/></g><g><rect x="411" y="29" width="28" height="62" rx="0" fill="#3D3D3D" fill-opacity="1"/></g><g><path d="M222.4375,63.15625Q222.4375,64.65625,221.921875,66.375Q221.40625,68.09375,220.234375,69.5625Q219.0625,71.03125,217.1875,72.015625Q215.3125,73,212.59375,73L181.75,73Q180.875,73,180.125,72.6875Q179.375,72.375,178.828125,71.828125Q178.28125,71.28125,177.96875,70.53125Q177.65625,69.78125,177.65625,68.90625L177.65625,32.28125Q177.65625,31.4375,177.96875,30.6875Q178.28125,29.9375,178.828125,29.375Q179.375,28.8125,180.125,28.5Q180.875,28.1875,181.75,28.1875L208.9375,28.1875Q210.4375,28.1875,212.15625,28.71875Q213.875,29.25,215.359375,30.421875Q216.84375,31.59375,217.828125,33.46875Q218.8125,35.34375,218.8125,38.0625L218.8125,39.59375Q218.8125,41.75,218.09375,44.234375Q217.375,46.71875,215.78125,48.9375Q217.15625,49.78125,218.359375,50.96875Q219.5625,52.15625,220.46875,53.71875Q221.375,55.28125,221.90625,57.25Q222.4375,59.21875,222.4375,61.59375L222.4375,63.15625ZM214.3125,61.59375Q214.3125,60,213.8125,58.734375Q213.3125,57.46875,212.40625,56.5625Q211.5,55.65625,210.21875,55.171875Q208.9375,54.6875,207.34375,54.6875L189.03125,54.6875L189.03125,46.5L203.6875,46.5Q205.28125,46.5,206.5625,46.015625Q207.84375,45.53125,208.75,44.625Q209.65625,43.71875,210.140625,42.453125Q210.625,41.1875,210.625,39.59375L210.625,38.0625Q210.625,36.3125,208.9375,36.3125L185.78125,36.3125L185.78125,64.875L212.59375,64.875Q212.8125,64.875,213.125,64.84375Q213.4375,64.8125,213.6875,64.65625Q213.9375,64.5,214.125,64.125Q214.3125,63.75,214.3125,63.09375L214.3125,61.59375ZM237.6875,73L229.5625,73L229.5625,28.1875L237.6875,28.1875L237.6875,73ZM288.34375,73L251.28125,73Q250.40625,73,249.65625,72.6875Q248.90625,72.375,248.359375,71.828125Q247.8125,71.28125,247.5,70.53125Q247.1875,69.78125,247.1875,68.90625L247.1875,28.1875L255.3125,28.1875L255.3125,64.875L288.34375,64.875L288.34375,73ZM302.5,73L294.375,73L294.375,28.1875L302.5,28.1875L302.5,73ZM356.71875,63.15625Q356.71875,64.65625,356.20312,66.375Q355.6875,68.09375,354.51562,69.5625Q353.34375,71.03125,351.46875,72.015625Q349.59375,73,346.875,73L316.03125,73Q315.15625,73,314.40625,72.6875Q313.65625,72.375,313.10938,71.828125Q312.5625,71.28125,312.25,70.53125Q311.9375,69.78125,311.9375,68.90625L311.9375,32.28125Q311.9375,31.4375,312.25,30.6875Q312.5625,29.9375,313.10938,29.375Q313.65625,28.8125,314.40625,28.5Q315.15625,28.1875,316.03125,28.1875L343.21875,28.1875Q344.71875,28.1875,346.4375,28.71875Q348.15625,29.25,349.64062,30.421875Q351.125,31.59375,352.10938,33.46875Q353.09375,35.34375,353.09375,38.0625L353.09375,39.59375Q353.09375,41.75,352.375,44.234375Q351.65625,46.71875,350.0625,48.9375Q351.4375,49.78125,352.64062,50.96875Q353.84375,52.15625,354.75,53.71875Q355.65625,55.28125,356.1875,57.25Q356.71875,59.21875,356.71875,61.59375L356.71875,63.15625ZM348.59375,61.59375Q348.59375,60,348.09375,58.734375Q347.59375,57.46875,346.6875,56.5625Q345.78125,55.65625,344.5,55.171875Q343.21875,54.6875,341.625,54.6875L323.3125,54.6875L323.3125,46.5L337.96875,46.5Q339.5625,46.5,340.84375,46.015625Q342.125,45.53125,343.03125,44.625Q343.9375,43.71875,344.42188,42.453125Q344.90625,41.1875,344.90625,39.59375L344.90625,38.0625Q344.90625,36.3125,343.21875,36.3125L320.0625,36.3125L320.0625,64.875L346.875,64.875Q347.09375,64.875,347.40625,64.84375Q347.71875,64.8125,347.96875,64.65625Q348.21875,64.5,348.40625,64.125Q348.59375,63.75,348.59375,63.09375L348.59375,61.59375ZM371.96875,73L363.84375,73L363.84375,28.1875L371.96875,28.1875L371.96875,73ZM422.625,73L385.5625,73Q384.6875,73,383.9375,72.6875Q383.1875,72.375,382.64062,71.828125Q382.09375,71.28125,381.78125,70.53125Q381.46875,69.78125,381.46875,68.90625L381.46875,28.1875L389.59375,28.1875L389.59375,64.875L422.625,64.875L422.625,73ZM436.78125,73L428.65625,73L428.65625,28.1875L436.78125,28.1875L436.78125,73Z" fill="#FFFFFF" fill-opacity="1"/></g><g clip-path="url(#master_svg0_4_069)"><g><path d="M112.41057549414063,19.6015578828125C114.40406049414062,21.5948366828125,114.40406049414062,24.8266310828125,112.41057549414063,26.8199109828125L107.74332449414062,31.4845893828125L112.52082849414063,31.4862233828125C120.97782149414063,31.4862233828125,127.83332849414063,38.341852382812505,127.83332849414063,46.7987253828125L127.83332849414063,77.42364138281249C127.83332849414063,85.8806303828125,120.97782149414063,92.7361373828125,112.52082849414063,92.7361373828125L61.47915749414062,92.7361373828125C53.022287894140625,92.7361373828125,46.166656494140625,85.8806303828125,46.166656494140625,77.42364138281249L46.166656494140625,46.7987253828125C46.166656494140625,38.341852382812505,53.022287894140625,31.4862233828125,61.47915749414062,31.4862233828125L66.24134649414063,31.4845893828125L61.579852494140624,26.8238324828125C59.586572494140626,24.8305115828125,59.586572494140626,21.5987569828125,61.579852494140624,19.6054364828125C63.573171494140624,17.6121576728125,66.80492549414063,17.6121576728125,68.79824649414063,19.6054364828125L79.62590049414062,30.433007382812498C79.94766649414063,30.754938382812497,80.21757549414062,31.1091683828125,80.43562349414063,31.4852423828125L93.55210849414063,31.4861823828125C93.77056849414063,31.108308382812503,94.04129049414063,30.752405382812498,94.36469249414063,30.4291283828125L105.19246249414063,19.6015578828125C107.18553949414063,17.6082372328125,110.41749549414062,17.6082372328125,112.41057549414063,19.6015578828125ZM112.52082849414063,41.7353913828125L61.47915749414062,41.7353913828125C58.78832249414062,41.7353913828125,56.583851494140625,43.8175623828125,56.38899549414062,46.4586243828125L56.374990494140626,46.839559382812496L56.374990494140626,77.4644733828125C56.374990494140626,80.1553913828125,58.45716349414062,82.3599853828125,61.098223494140626,82.5547633828125L61.47915749414062,82.5686413828125L112.52082849414063,82.5686413828125C115.21174649414063,82.5686413828125,117.41633649414062,80.4865533828125,117.61110649414063,77.8454473828125L117.62499249414063,77.4644733828125L117.62499249414063,46.839559382812496C117.62499249414063,44.020588382812505,115.33995849414063,41.7353913828125,112.52082849414063,41.7353913828125ZM71.68749049414063,51.9436453828125C74.50646249414062,51.9436453828125,76.79165849414062,54.2290843828125,76.79165849414062,57.0478093828125L76.79165849414062,62.1519773828125C76.79165849414062,64.9711073828125,74.50646249414062,67.25614538281249,71.68749049414063,67.25614538281249C68.86852049414063,67.25614538281249,66.58332449414063,64.9711073828125,66.58332449414063,62.1519773828125L66.58332449414063,57.0478093828125C66.58332449414063,54.2290843828125,68.86852049414063,51.9436453828125,71.68749049414063,51.9436453828125ZM102.31249249414063,51.9436453828125C105.13162249414063,51.9436453828125,107.41666049414061,54.2290843828125,107.41666049414061,57.0478093828125L107.41666049414061,62.1519773828125C107.41666049414061,64.9711073828125,105.13162249414063,67.25614538281249,102.31249249414063,67.25614538281249C99.49335849414062,67.25614538281249,97.20832449414063,64.9711073828125,97.20832449414063,62.1519773828125L97.20832449414063,57.0478093828125C97.20832449414063,54.2290843828125,99.49335849414062,51.9436453828125,102.31249249414063,51.9436453828125Z" fill="#FFFFFF" fill-opacity="1" style="mix-blend-mode:passthrough"/></g></g></g></svg>