<svg xmlns="http://www.w3.org/2000/svg" xmlns:xlink="http://www.w3.org/1999/xlink" fill="none" version="1.1" width="100" height="100" viewBox="0 0 100 100"><defs><clipPath id="master_svg0_24_196"><rect x="0" y="0" width="100" height="100" rx="0"/></clipPath></defs><g clip-path="url(#master_svg0_24_196)"><g><path d="M83.333328,91.666579953125L25,91.666579953125C18.096458900000002,91.666579953125,12.5,86.070334953125,12.5,79.166579953125L12.5,20.833251953125C12.5,13.929709453125,18.096458900000002,8.333251953125,25,8.333251953125L83.333328,8.333251953125C85.634575,8.333251953125,87.5,10.198752053125,87.5,12.499918453125L87.5,87.499915953125C87.5,89.801162953125,85.634575,91.666579953125,83.333328,91.666579953125ZM79.166664,83.333251953125L79.166664,74.999915953125L25,74.999915953125C22.698833,74.999915953125,20.833333,76.865333953125,20.833333,79.166579953125C20.833333,81.467826953125,22.698833,83.333251953125,25,83.333251953125L79.166664,83.333251953125ZM50,41.666583953125C54.602497,41.666583953125,58.333332,37.935626953124995,58.333332,33.333251953125C58.333332,28.730876953125,54.602497,24.999917953125,50,24.999917953125C45.397499,24.999917953125,41.666666,28.730876953125,41.666666,33.333251953125C41.666666,37.935626953124995,45.397499,41.666583953125,50,41.666583953125ZM37.5,58.333251953125L62.5,58.333251953125C62.5,51.429496953125,56.903751,45.833251953125,50,45.833251953125C43.096247000000005,45.833251953125,37.5,51.429496953125,37.5,58.333251953125Z" fill="#FFFFFF" fill-opacity="1" style="mix-blend-mode:passthrough"/></g></g></svg>