<svg xmlns="http://www.w3.org/2000/svg" xmlns:xlink="http://www.w3.org/1999/xlink" fill="none" version="1.1" width="100" height="100" viewBox="0 0 100 100"><defs><clipPath id="master_svg0_24_216"><rect x="0" y="0" width="100" height="100" rx="0"/></clipPath></defs><g clip-path="url(#master_svg0_24_216)"><g><path d="M50.0000380234375,91.66682409375C26.9881650234375,91.66682409375,8.3333740234375,73.01182509375,8.3333740234375,50.00016009375C8.3333740234375,26.98828709375,26.9881650234375,8.33349609375,50.0000380234375,8.33349609375C73.0117030234375,8.33349609375,91.6667020234375,26.98828709375,91.6667020234375,50.00016009375C91.6667020234375,73.01182509375,73.0117030234375,91.66682409375,50.0000380234375,91.66682409375ZM34.7027050234375,51.26516309375C34.537916023437504,54.81099309375,34.860249023437504,58.33974409375,35.194580023437496,61.86849609375C35.2185400234375,62.12016309375,35.309792023437495,62.17390809375,35.5310400234375,62.20307909375C37.222624023437504,62.42516309375,38.916122023437495,62.62432909375,40.6189160234375,62.73141109375C44.6379590234375,62.98349409375,48.6546250234375,63.30682709375,52.6862910234375,63.08266109375C54.9754560234375,62.95515809375,57.2692070234375,62.88515809375,59.5521200234375,62.68599309375C62.8050380234375,62.40266009375,66.05170402343751,62.03974109375,69.2600400234375,61.38891209375C73.2558750234375,60.57849509375,77.2075420234375,59.61641309375,80.9325330234375,57.86682509375C82.6208720234375,57.07349409375,84.2233730234375,56.13724509375,85.5708770234375,54.80057509375C86.5604550234375,53.81974409375,87.2700350234375,52.68557709375,87.2800450234375,51.22057709375C87.2887880234375,49.91182709375,87.2221220234375,48.60266109375,87.0925370234375,47.30182609375C86.7837910234375,44.19183009375,86.1450420234375,41.15261809375,85.0854570234375,38.21670509375C82.6529540234375,31.47695309375,78.7979580234375,25.76328609375,73.3146290234375,21.26070409375C68.5733720234375,17.36774639375,63.2296220234375,14.74849559375,57.2667080234375,13.49628739375C55.1854550234375,13.05928799375,53.0754550234375,12.89745429375,50.9579580234375,12.74537129375C48.5712890234375,12.573870693749999,46.5258710234375,13.24987079375,44.7575420234375,14.88591289375C42.6967050234375,16.793121293749998,41.2700810234375,19.15641209375,40.084164023437495,21.69224509375C37.3045810234375,27.63587009375,36.0303330234375,33.99991009375,35.2264560234375,40.47449109375C34.782915023437496,44.04724109375,34.5329170234375,47.64599609375,34.7027050234375,51.26516309375ZM49.5783730234375,30.30761909375C53.5742030234375,30.43707809375,56.9529570234375,31.65953609375,59.9692040234375,33.874868093749996C63.7012860234375,36.61582709375,66.0937880234375,40.241911093750005,67.1117060234375,44.75849109375C67.3967020234375,46.02391009375,67.51628502343749,47.30724309375,67.54336902343749,48.59891109375C67.5617030234375,49.46974209375,67.0854570234375,50.10765809375,66.44920302343749,50.64224609375C65.1717070234375,51.71516009375,63.6554570234375,52.31349209375,62.0750390234375,52.75641209375C58.9887890234375,53.62182609375,55.8421210234375,54.11890809375,52.6367070234375,54.28349309375C50.5525400234375,54.39057909375,48.4712870234375,54.42849709375,46.3875390234375,54.32516109375C45.5858730234375,54.28557609375,44.7854540234375,54.22349509375,43.9837880234375,54.19224209375C43.7350390234375,54.18266309375,43.6492040234375,54.10891309375,43.6354560234375,53.85266109375C43.5379520234375,52.04557809375,43.3967060234375,50.23849509375,43.4246220234375,48.42849309375C43.4900400234375,44.15391109375,43.8179550234375,39.90895309375,45.0792080234375,35.78891209375C45.4987870234375,34.41703609375,46.0096240234375,33.082121093750004,46.8317070234375,31.88849609375C47.5492060234375,30.84711809375,48.4062920234375,30.06553809375,49.5783730234375,30.30761909375Z" fill="#FFFFFF" fill-opacity="1" style="mix-blend-mode:passthrough"/></g></g></svg>