<svg xmlns="http://www.w3.org/2000/svg" xmlns:xlink="http://www.w3.org/1999/xlink" fill="none" version="1.1" width="100" height="100" viewBox="0 0 100 100"><defs><clipPath id="master_svg0_32_183"><rect x="0" y="0" width="100" height="100" rx="0"/></clipPath></defs><g clip-path="url(#master_svg0_32_183)"><g><path d="M29.1667060234375,25.00016209375L29.1667060234375,12.50016259375C29.1667060234375,10.19899619375,31.0322070234375,8.33349609375,33.3333740234375,8.33349609375L66.6667060234375,8.33349609375C68.9679530234375,8.33349609375,70.83337002343751,10.19899619375,70.83337002343751,12.50016259375L70.83337002343751,25.00016209375L91.6667020234375,25.00016209375L91.6667020234375,33.33349609375L83.3333740234375,33.33349609375L83.3333740234375,87.50016009375C83.3333740234375,89.80140709375,81.4679490234375,91.66682409375,79.1667020234375,91.66682409375L20.8333740234375,91.66682409375C18.5322070234375,91.66682409375,16.6667070234375,89.80140709375,16.6667070234375,87.50016009375L16.6667070234375,33.33349609375L8.3333740234375,33.33349609375L8.3333740234375,25.00016209375L29.1667060234375,25.00016209375ZM55.8925400234375,58.33224109375L63.2583730234375,50.96682709375L57.3658750234375,45.07432509375L50.0000380234375,52.43974309375L42.6342050234375,45.07432509375L36.741789023437505,50.96682709375L44.1075400234375,58.33224109375L36.741789023437505,65.69807809375L42.6342050234375,71.59057609375L50.0000380234375,64.22474709375L57.3658750234375,71.59057609375L63.2583730234375,65.69807809375L55.8925400234375,58.33224109375ZM37.5000400234375,16.66682909375L37.5000400234375,25.00016209375L62.5000380234375,25.00016209375L62.5000380234375,16.66682909375L37.5000400234375,16.66682909375Z" fill="#E93B66" fill-opacity="1" style="mix-blend-mode:passthrough"/></g></g></svg>