<svg xmlns="http://www.w3.org/2000/svg" xmlns:xlink="http://www.w3.org/1999/xlink" fill="none" version="1.1" width="100" height="100" viewBox="0 0 100 100"><defs><clipPath id="master_svg0_25_176"><rect x="0" y="0" width="100" height="100" rx="0"/></clipPath></defs><g clip-path="url(#master_svg0_25_176)"><g><path d="M16.66664598828125,79.166664L83.33331298828125,79.166664L83.33331298828125,50L91.66664098828124,50L91.66664098828124,83.333328C91.66664098828124,85.634575,89.80122398828125,87.5,87.49997698828125,87.5L12.49997948828125,87.5C10.19881308828125,87.5,8.33331298828125,85.634575,8.33331298828125,83.333328L8.33331298828125,50L16.66664598828125,50L16.66664598828125,79.166664ZM58.33331298828125,37.5L79.16664098828124,37.5L49.99997698828125,66.666664L20.83331298828125,37.5L41.66664498828125,37.5L41.66664498828125,12.5L58.33331298828125,12.5L58.33331298828125,37.5Z" fill="#FFFFFF" fill-opacity="1" style="mix-blend-mode:passthrough"/></g><g><path d="M62.398438,97L45.875,97Q44.609375,97,43.109375,96.554688Q41.609375,96.109375,40.3320312,95.089844Q39.0546875,94.070312,38.1992188,92.441406Q37.34375,90.8125,37.34375,88.445312L37.34375,80.195312Q37.34375,79.328125,37.5429688,78.367188Q37.7421875,77.40625,38.1640625,76.457031Q38.5859375,75.507812,39.2539062,74.640625Q39.921875,73.773438,40.8710938,73.117188Q41.8203125,72.460938,43.0625,72.0625Q44.3046875,71.664062,45.875,71.664062L62.398438,71.664062L62.398438,77.757812L45.875,77.757812Q44.6796875,77.757812,44.0585938,78.367188Q43.4375,78.976562,43.4375,80.242188L43.4375,88.445312Q43.4375,89.640625,44.0703125,90.273438Q44.703125,90.90625,45.921875,90.90625L62.398438,90.90625L62.398438,97ZM95.515625,97L89.421875,97L89.421875,82.9375Q89.421875,81.742188,89.011719,80.792969Q88.601562,79.84375,87.898438,79.164062Q87.195312,78.484375,86.246094,78.121094Q85.296875,77.757812,84.195312,77.757812L73.53125,77.757812L73.53125,97L67.4375,97L67.4375,74.6875Q67.4375,74.054688,67.671875,73.503906Q67.90625,72.953125,68.328125,72.542969Q68.75,72.132812,69.3125,71.898438Q69.875,71.664062,70.507812,71.664062L84.242188,71.664062Q85.390625,71.664062,86.667969,71.921875Q87.945312,72.179688,89.199219,72.753906Q90.453125,73.328125,91.589844,74.207031Q92.726562,75.085938,93.605469,76.339844Q94.484375,77.59375,95,79.234375Q95.515625,80.875,95.515625,82.9375L95.515625,97Z" fill="#E93B66" fill-opacity="1"/></g></g></svg>