<svg xmlns="http://www.w3.org/2000/svg" xmlns:xlink="http://www.w3.org/1999/xlink" fill="none" version="1.1" width="127" height="134" viewBox="0 0 127 134"><defs><clipPath id="master_svg0_14_195"><rect x="0" y="0" width="127" height="134" rx="0"/></clipPath></defs><g clip-path="url(#master_svg0_14_195)"><g transform="matrix(0.7071067690849304,-0.7071067690849304,0.7071067690849304,0.7071067690849304,-45.83634058161266,29.344884277863514)"><path d="M53.50423717498779,73.53134153710937L45.03402217498779,70.00180053710938L37.96029217498779,98.98739653710938L16.042811374987792,98.99349953710937L12.504237174987793,114.53134153710937L39.016932174987794,117.01815753710937L41.50423717498779,143.53134153710937L57.04281117498779,139.99349953710936L56.69832917498779,117.72543353710938L86.0340221749878,111.00180053710938L82.5042371749878,102.53134153710937L57.048426174987796,98.98666353710938L53.50423717498779,73.53134153710937Z" fill-rule="evenodd" fill="#E93B66" fill-opacity="1"/></g><g transform="matrix(0.7071067690849304,-0.7071067690849304,0.7071067690849304,0.7071067690849304,-43.3345821146213,30.376179551676614)"><path d="M56,67.49755859375L44,67.49755859375L40.456055,92.95361359374999L15,96.49755859375L15,108.49755859375L41.512695,110.98437459375L44,137.49755859375L56,137.49755859375L59.194092,111.69165059375L85,108.49755859375L85,96.49755859375L59.544189,92.95288059375L56,67.49755859375Z" fill-rule="evenodd" fill="#FFFFFF" fill-opacity="1"/></g></g></svg>