<svg xmlns="http://www.w3.org/2000/svg" xmlns:xlink="http://www.w3.org/1999/xlink" fill="none" version="1.1" width="100" height="100" viewBox="0 0 100 100"><defs><clipPath id="master_svg0_31_189"><rect x="0" y="0" width="100" height="100" rx="0"/></clipPath></defs><g clip-path="url(#master_svg0_31_189)"><g><path d="M74.99999987646484,29.166666L91.66666387646484,29.166666L91.66666387646484,37.5L66.66666787646484,37.5L66.66666787646484,12.5L74.99999987646484,12.5L74.99999987646484,29.166666ZM33.333335876464844,37.5L8.333335876464844,37.5L8.333335876464844,29.166666L25.000001876464843,29.166666L25.000001876464843,12.5L33.333335876464844,12.5L33.333335876464844,37.5ZM74.99999987646484,70.833332L74.99999987646484,87.5L66.66666787646484,87.5L66.66666787646484,62.5L91.66666387646484,62.5L91.66666387646484,70.833332L74.99999987646484,70.833332ZM33.333335876464844,62.5L33.333335876464844,87.5L25.000001876464843,87.5L25.000001876464843,70.833332L8.333335876464844,70.833332L8.333335876464844,62.5L33.333335876464844,62.5Z" fill="#232323" fill-opacity="1" style="mix-blend-mode:passthrough"/></g></g></svg>