<svg xmlns="http://www.w3.org/2000/svg" xmlns:xlink="http://www.w3.org/1999/xlink" fill="none" version="1.1" width="100" height="100" viewBox="0 0 100 100"><defs><clipPath id="master_svg0_31_185"><rect x="0" y="0" width="100" height="100" rx="0"/></clipPath></defs><g clip-path="url(#master_svg0_31_185)"><g><path d="M66.66666787646484,12.5L91.66666387646484,12.5L91.66666387646484,37.5L83.33333587646484,37.5L83.33333587646484,20.833333L66.66666787646484,20.833333L66.66666787646484,12.5ZM8.333335876464844,12.5L33.333335876464844,12.5L33.333335876464844,20.833333L16.666668876464843,20.833333L16.666668876464843,37.5L8.333335876464844,37.5L8.333335876464844,12.5ZM83.33333587646484,79.166664L83.33333587646484,62.5L91.66666387646484,62.5L91.66666387646484,87.5L66.66666787646484,87.5L66.66666787646484,79.166664L83.33333587646484,79.166664ZM16.666668876464843,79.166664L33.333335876464844,79.166664L33.333335876464844,87.5L8.333335876464844,87.5L8.333335876464844,62.5L16.666668876464843,62.5L16.666668876464843,79.166664Z" fill="#232323" fill-opacity="1" style="mix-blend-mode:passthrough"/></g></g></svg>