<svg xmlns="http://www.w3.org/2000/svg" xmlns:xlink="http://www.w3.org/1999/xlink" fill="none" version="1.1" width="100" height="100" viewBox="0 0 100 100"><defs><clipPath id="master_svg0_24_176"><rect x="0" y="0" width="100" height="100" rx="0"/></clipPath></defs><g clip-path="url(#master_svg0_24_176)"><g><path d="M83.333328,91.666579953125L16.666666499999998,91.666579953125C14.3655001,91.666579953125,12.5,89.801162953125,12.5,87.499915953125L12.5,12.499918453125C12.5,10.198752053125,14.3655001,8.333251953125,16.666666499999998,8.333251953125L83.333328,8.333251953125C85.634575,8.333251953125,87.5,10.198752053125,87.5,12.499918453125L87.5,87.499915953125C87.5,89.801162953125,85.634575,91.666579953125,83.333328,91.666579953125ZM29.166666,24.999917953125L29.166666,41.666583953125L45.833332,41.666583953125L45.833332,24.999917953125L29.166666,24.999917953125ZM29.166666,49.999915953125L29.166666,58.333251953125L70.833332,58.333251953125L70.833332,49.999915953125L29.166666,49.999915953125ZM29.166666,66.666583953125L29.166666,74.999915953125L70.833332,74.999915953125L70.833332,66.666583953125L29.166666,66.666583953125ZM54.166664,29.166583953125L54.166664,37.499917953125L70.833332,37.499917953125L70.833332,29.166583953125L54.166664,29.166583953125Z" fill="#FFFFFF" fill-opacity="1" style="mix-blend-mode:passthrough"/></g></g></svg>