<svg xmlns="http://www.w3.org/2000/svg" xmlns:xlink="http://www.w3.org/1999/xlink" fill="none" version="1.1" width="200" height="200" viewBox="0 0 200 200"><defs><clipPath id="master_svg0_8_2807"><rect x="0" y="0" width="200" height="200" rx="0"/></clipPath></defs><g clip-path="url(#master_svg0_8_2807)"><g transform="matrix(0.9557051658630371,-0.29432570934295654,0.29432570934295654,0.9557051658630371,-18.416907985927537,11.199443793855608)"><path d="M28,178.787109375L136,178.787109375L110.023438,75.960937475L28,66.787109375L28,178.787109375Z" fill="#E93B66" fill-opacity="1"/></g><g transform="matrix(0.9557051658630371,-0.29432570934295654,0.29432570934295654,0.9557051658630371,-15.752238472225145,12.9053650861606)"><path d="M35,170.787109375L143,170.787109375L117.023438,67.960937475L35,58.787109375L35,170.787109375Z" fill="#FFFFFF" fill-opacity="1"/></g><g transform="matrix(0.9556752443313599,-0.2944229543209076,0.2944229543209076,0.9556752443313599,-18.740188083182147,16.97280563370441)"><path d="M47,70.726318359375L48.3867188,79.811035159375L116.099579,80.790771359375L116.432648,74.615478559375L47,70.726318359375Z" fill="#D8D8D8" fill-opacity="1"/></g><g transform="matrix(0.9556752443313599,-0.2944229543209076,0.2944229543209076,0.9556752443313599,-22.895918344453094,18.802862638473016)"><path d="M51.0001220703125,85.443359375L52.2610760703125,94.527401875L113.8328970703125,95.507064375L114.1357610703125,89.332230775L51.0001220703125,85.443359375Z" fill="#D8D8D8" fill-opacity="1"/></g></g></svg>