<svg xmlns="http://www.w3.org/2000/svg" xmlns:xlink="http://www.w3.org/1999/xlink" fill="none" version="1.1" width="100" height="100" viewBox="0 0 100 100"><defs><clipPath id="master_svg0_31_173"><rect x="0" y="0" width="100" height="100" rx="0"/></clipPath></defs><g clip-path="url(#master_svg0_31_173)"><g><path d="M16.666656494140625,8.33349609375L83.33332049414062,8.33349609375L83.33332049414062,26.91657809375L56.40248849414063,50.00016009375L83.33332049414062,73.08390809375L83.33332049414062,91.66682409375L16.666656494140625,91.66682409375L16.666656494140625,73.08390809375L43.59748849414062,50.00016009375L16.666656494140625,26.91657809375L16.666656494140625,8.33349609375ZM67.90290049414062,29.16682809375L74.99998849414062,23.08378709375L74.99998849414062,16.66682909375L24.999989494140625,16.66682909375L24.999989494140625,23.08378709375L32.09690549414063,29.16682809375L67.90290049414062,29.16682809375ZM49.999988494140624,55.48807509375L24.999989494140625,76.91641209375L24.999989494140625,83.33349609375L29.166656494140625,83.33349609375L49.999988494140624,70.83349209375001L70.83332049414062,83.33349609375L74.99998849414062,83.33349609375L74.99998849414062,76.91641209375L49.999988494140624,55.48807509375Z" fill="#FFFFFF" fill-opacity="1" style="mix-blend-mode:passthrough"/></g></g></svg>