<svg xmlns="http://www.w3.org/2000/svg" xmlns:xlink="http://www.w3.org/1999/xlink" fill="none" version="1.1" width="127" height="134" viewBox="0 0 127 134"><defs><clipPath id="master_svg0_14_458"><rect x="0" y="0" width="127" height="134" rx="0"/></clipPath></defs><g clip-path="url(#master_svg0_14_458)"><g><path d="M54,34L74,34L74,41.5L74,49L54,49L54,34ZM54,54L74,54L74,103L54,103L54,54Z" fill="#3BB8E9" fill-opacity="1"/></g><g style="opacity:0.10000000149011612;"><path d="M48,40L65.5,35.5L70.5,51.5L51.5,56.5L48,40ZM50,67.5L65.5,64.5L75.5,105.5L63.5,110.5L50,67.5Z" fill="#FFFFFF" fill-opacity="1"/></g><g style="opacity:0.20000000298023224;"><path d="M51,38L71,35L71,49.5L51,53L51,38ZM51,58L71,58L77.5,101.5L56.5,108L51,58Z" fill="#FFFFFF" fill-opacity="1"/></g></g></svg>