<svg xmlns="http://www.w3.org/2000/svg" xmlns:xlink="http://www.w3.org/1999/xlink" fill="none" version="1.1" width="100" height="100" viewBox="0 0 100 100"><defs><clipPath id="master_svg0_39_445"><rect x="0" y="0" width="100" height="100" rx="0"/></clipPath></defs><g clip-path="url(#master_svg0_39_445)"><g><path d="M91.66667150585937,54.162498L91.66667150585937,83.333328C91.66667150585937,85.634575,89.80125450585938,87.5,87.50000750585937,87.5L54.166675505859374,87.5L54.166675505859374,54.162498L91.66667150585937,54.162498ZM45.833343505859375,54.162498L45.833343505859375,87.5L12.500010005859375,87.5C10.198843605859375,87.5,8.333343505859375,85.634575,8.333343505859375,83.333328L8.333343505859375,54.162498L45.833343505859375,54.162498ZM45.833343505859375,12.5L45.833343505859375,45.829163L8.333343505859375,45.829163L8.333343505859375,16.666666499999998C8.333343505859375,14.3655001,10.198843605859375,12.5,12.500010005859375,12.5L45.833343505859375,12.5ZM87.50000750585937,12.5C89.80125450585938,12.5,91.66667150585937,14.3655001,91.66667150585937,16.666666499999998L91.66667150585937,45.829163L54.166675505859374,45.829163L54.166675505859374,12.5L87.50000750585937,12.5Z" fill="#FFFFFF" fill-opacity="1" style="mix-blend-mode:passthrough"/></g></g></svg>