<svg xmlns="http://www.w3.org/2000/svg" xmlns:xlink="http://www.w3.org/1999/xlink" fill="none" version="1.1" width="100" height="100" viewBox="0 0 100 100"><defs><clipPath id="master_svg0_39_449"><rect x="0" y="0" width="100" height="100" rx="0"/></clipPath></defs><g clip-path="url(#master_svg0_39_449)"><g><path d="M33.333332,41.666666L33.333332,87.5L16.666666499999998,87.5C14.3655001,87.5,12.5,85.634575,12.5,83.333328L12.5,41.666666L33.333332,41.666666ZM87.5,41.666666L87.5,83.333328C87.5,85.634575,85.634575,87.5,83.333328,87.5L41.666666,87.5L41.666666,41.666666L87.5,41.666666ZM83.333328,12.5C85.634575,12.5,87.5,14.3655001,87.5,16.666666499999998L87.5,33.333332L12.5,33.333332L12.5,16.666666499999998C12.5,14.3655001,14.3655001,12.5,16.666666499999998,12.5L83.333328,12.5Z" fill="#FFFFFF" fill-opacity="1" style="mix-blend-mode:passthrough"/></g></g></svg>