<svg xmlns="http://www.w3.org/2000/svg" xmlns:xlink="http://www.w3.org/1999/xlink" fill="none" version="1.1" width="100" height="100" viewBox="0 0 100 100"><defs><clipPath id="master_svg0_25_184"><rect x="0" y="0" width="100" height="100" rx="0"/></clipPath></defs><g clip-path="url(#master_svg0_25_184)"><g><path d="M54.4195939140625,33.794620281250005L60.3120959140625,39.68716428125C71.7025109140625,51.07766328125,71.7025109140625,69.54474628125,60.3120959140625,80.93516528125L58.8391759140625,82.40808128125C47.4487609140625,93.79850028125,28.9814719140625,93.79850028125,17.5911798140625,82.40808128125C6.200888914062499,71.01807828125,6.200888914062499,52.55058328125,17.5911798140625,41.16033128125L23.483762914062503,47.05307728125C15.3478470140625,55.18891528125,15.3478470140625,68.37974928125,23.483762914062503,76.51557928125C31.6196789140625,84.65142028125,44.8104289140625,84.65142028125,52.9466779140625,76.51557928125L54.4195939140625,75.04266328125C62.5554309140625,66.90641828125,62.5554309140625,53.71558428125,54.4195939140625,45.57974628125L48.5270959140625,39.68716428125L54.4195939140625,33.794620281250005ZM82.4091799140625,58.83807728125L76.5166779140625,52.94557928125C84.6525189140625,44.80933028125,84.6525189140625,31.61858028125,76.5166779140625,23.482664281250003C68.3808479140625,15.34674838125,55.1900139140625,15.34674838125,47.0541759140625,23.482664281250003L45.5808449140625,24.95578828125C37.444930914062496,33.09170528125,37.444930914062496,46.28266128125,45.5808449140625,54.41849528125L51.4733469140625,60.31099728125L45.5808449140625,66.20349528125L39.6882629140625,60.31099728125C28.2979719140625,48.92099428125,28.2979719140625,30.45354128125,39.6882629140625,19.06324728125L41.1614299140625,17.59008118125C52.5516819140625,6.199790281249999,71.0191769140625,6.199790281249999,82.4091799140625,17.59008118125C93.7995989140625,28.98037328125,93.7995989140625,47.44766228125,82.4091799140625,58.83807728125Z" fill="#2C2C2C" fill-opacity="1" style="mix-blend-mode:passthrough"/></g></g></svg>