<svg xmlns="http://www.w3.org/2000/svg" xmlns:xlink="http://www.w3.org/1999/xlink" fill="none" version="1.1" width="439" height="113" viewBox="0 0 439 113"><defs><clipPath id="master_svg0_5_085"><rect x="38" y="1" width="98" height="98" rx="0"/></clipPath></defs><g><g><rect x="0" y="0" width="108" height="84" rx="0" fill="#3D3D3D" fill-opacity="1"/></g><g><rect x="33" y="29" width="108" height="84" rx="0" fill="#3D3D3D" fill-opacity="1"/></g><g><rect x="173" y="29" width="108" height="62" rx="0" fill="#3D3D3D" fill-opacity="1"/></g><g><rect x="101" y="84" width="108" height="13" rx="0" fill="#E93B66" fill-opacity="1"/></g><g><rect x="33" y="9" width="108" height="62" rx="0" fill="#E93B66" fill-opacity="1"/></g><g><rect x="204" y="11" width="207" height="72" rx="0" fill="#3D3D3D" fill-opacity="1"/></g><g><rect x="411" y="29" width="28" height="62" rx="0" fill="#3D3D3D" fill-opacity="1"/></g><g><path d="M218.875,73L181.8125,73Q180.9375,73,180.1875,72.6875Q179.4375,72.375,178.890625,71.828125Q178.34375,71.28125,178.03125,70.53125Q177.71875,69.78125,177.71875,68.90625L177.71875,28.1875L185.84375,28.1875L185.84375,64.875L218.875,64.875L218.875,73ZM233.03125,73L224.90625,73L224.90625,28.1875L233.03125,28.1875L233.03125,73ZM287.375,28.1875L266.15625,71.40625Q265.65625,72.40625,264.671875,73.015625Q263.6875,73.625,262.5,73.625Q261.34375,73.625,260.359375,73.015625Q259.375,72.40625,258.84375,71.40625L237.65625,28.1875L246.75,28.1875L262.5,60.46875L278.3125,28.1875L287.375,28.1875ZM328.8125,54.6875L303.15625,54.6875L303.15625,46.5L328.8125,46.5L328.8125,54.6875ZM332.46875,73L303.15625,73Q301.46875,73,299.46875,72.40625Q297.46875,71.8125,295.76562,70.453125Q294.0625,69.09375,292.92188,66.921875Q291.78125,64.75,291.78125,61.59375L291.78125,32.28125Q291.78125,31.4375,292.09375,30.6875Q292.40625,29.9375,292.95312,29.375Q293.5,28.8125,294.25,28.5Q295,28.1875,295.875,28.1875L332.46875,28.1875L332.46875,36.3125L299.90625,36.3125L299.90625,61.59375Q299.90625,63.1875,300.75,64.03125Q301.59375,64.875,303.21875,64.875L332.46875,64.875L332.46875,73Z" fill="#FFFFFF" fill-opacity="1"/></g><g clip-path="url(#master_svg0_5_085)"><g><path d="M103.33334750585936,17.3333740234375C105.58856950585937,17.3333740234375,107.41667950585938,19.1615643234375,107.41667950585938,21.416707523437502L107.41667950585938,38.5667080234375L128.70432250585938,23.665441023437502C129.62797550585935,23.0188040234375,130.90116150585936,23.243468723437502,131.54754650585937,24.1672415234375C131.78764350585936,24.5104036234375,131.91667950585938,24.9191456234375,131.91667950585938,25.338055623437498L131.91667950585938,74.6621510234375C131.91667950585938,75.78955802343751,131.00242650585938,76.7038150234375,129.87501550585938,76.7038150234375C129.4560625058594,76.7038150234375,129.04732550585936,76.5747870234375,128.70432250585938,76.3346860234375L107.41667950585938,61.4333760234375L107.41667950585938,78.58337802343749C107.41667950585938,80.8386000234375,105.58856950585937,82.6667100234375,103.33334750585936,82.6667100234375L46.16667700585938,82.6667100234375C43.91153380585938,82.6667100234375,42.083343505859375,80.8386000234375,42.083343505859375,78.58337802343749L42.083343505859375,21.416707523437502C42.083343505859375,19.1615643234375,43.91153380585938,17.3333740234375,46.16667700585938,17.3333740234375L103.33334750585936,17.3333740234375ZM68.21667850585938,37.0504420234375C67.42736850585938,37.0504420234375,66.76885050585938,37.610311023437504,66.61654250585937,38.354620023437505L66.58334350585938,38.683779023437495L66.58334350585938,61.3161850234375C66.58334350585938,61.6269260234375,66.67191150585937,61.9311330234375,66.83871650585937,62.1932830234375C67.26244350585938,62.8592760234375,68.08837850585937,63.1140780234375,68.79806150585938,62.8429410234375L69.09357250585937,62.6943090234375L86.87628550585937,51.3781660234375C87.07800250585937,51.2495420234375,87.24909550585937,51.0784490234375,87.37731150585938,50.8771400234375C87.80116250585937,50.2111470234375,87.68233450585937,49.3548740234375,87.13599050585938,48.8269000234375L86.87628550585937,48.6219180234375L69.09357250585937,37.305775023437505C68.83150450585937,37.139011023437504,68.52729650585937,37.0504420234375,68.21667850585938,37.0504420234375Z" fill="#FFFFFF" fill-opacity="1" style="mix-blend-mode:passthrough"/></g></g></g></svg>