<svg xmlns="http://www.w3.org/2000/svg" xmlns:xlink="http://www.w3.org/1999/xlink" fill="none" version="1.1" width="100" height="100" viewBox="0 0 100 100"><defs><clipPath id="master_svg0_32_298"><rect x="0" y="0" width="100" height="100" rx="0"/></clipPath><radialGradient cx="0" cy="0" r="1" gradientUnits="userSpaceOnUse" id="master_svg1_32_1789" gradientTransform="translate(50.5 50.5) rotate(71.29787454038782) scale(38.534694140049005 38.534694140049005)"><stop offset="0%" stop-color="#FFFFFF" stop-opacity="1"/><stop offset="50%" stop-color="#FFFFFF" stop-opacity="0"/><stop offset="89.28571343421936%" stop-color="#FFFFFF" stop-opacity="0"/></radialGradient></defs><g clip-path="url(#master_svg0_32_298)"><g style="opacity:0.20000000298023224;"><ellipse cx="50.5" cy="50.5" rx="36.5" ry="36.5" fill-opacity="0" stroke-opacity="0.20000000298023224" stroke="#FFFFFF" fill="none" stroke-width="17"/></g><g><path d="M18.6801939,82.319809Q31.860386,95.5,50.5,95.5L50.5,95.498299Q50.708622,95.498291,50.916992,95.48806Q51.125362,95.477821,51.332981,95.457375Q51.540596,95.436928,51.746956,95.406311Q51.95332,95.375702,52.157932,95.334999Q52.362545,95.294296,52.564919,95.243607Q52.767288,95.192917,52.966927,95.132362Q53.166565,95.0718,53.362991,95.001518Q53.559418,94.931229,53.752155,94.851395Q53.944897,94.771561,54.133492,94.682365Q54.322083,94.59317,54.506069,94.494827Q54.690056,94.396484,54.868996,94.28923Q55.047935,94.181976,55.221397,94.066071Q55.394859,93.950165,55.562428,93.82589Q55.729996,93.701614,55.891262,93.569275Q56.052528,93.43692,56.207108,93.296814Q56.361683,93.156715,56.509201,93.009201Q56.656719,92.861679,56.796822,92.707108Q56.936924,92.552528,57.069271,92.391266Q57.201622,92.229996,57.325897,92.062424Q57.450172,91.894859,57.566074,91.721397Q57.681976,91.547935,57.78923,91.368996Q57.896484,91.190056,57.994827,91.006073Q58.09317,90.822083,58.182369,90.633492Q58.271561,90.444901,58.351398,90.252151Q58.431236,90.05941,58.501518,89.862984Q58.571804,89.666557,58.632366,89.466919Q58.692924,89.267281,58.743614,89.064911Q58.794304,88.862541,58.835007,88.657928Q58.87571,88.453316,58.906319,88.246956Q58.936932,88.040588,58.957382,87.832977Q58.977829,87.625366,58.988068,87.416992Q58.998299,87.208618,58.998299,87Q58.998299,86.791382,58.98806,86.583008Q58.977829,86.374634,58.957382,86.167023Q58.936932,85.959404,58.906319,85.753036Q58.875706,85.546677,58.835003,85.342056Q58.794304,85.137444,58.74361,84.935074Q58.692924,84.732712,58.632362,84.533073Q58.5718,84.333435,58.501518,84.137001Q58.431236,83.940575,58.351398,83.747833Q58.271561,83.555092,58.182365,83.366501Q58.09317,83.17791,57.994827,82.993927Q57.896484,82.809937,57.78923,82.630997Q57.681976,82.452057,57.566071,82.278595Q57.450169,82.105133,57.325893,81.937569Q57.201622,81.770004,57.069271,81.608742Q56.936924,81.447472,56.796822,81.292892Q56.656719,81.138306,56.509201,80.990791Q56.361683,80.843277,56.207104,80.703178Q56.052528,80.56308,55.891258,80.430725Q55.729996,80.29837,55.562428,80.174103Q55.394859,80.04982,55.221397,79.933914Q55.047935,79.818008,54.868996,79.710762Q54.690056,79.603508,54.506065,79.505165Q54.322079,79.406822,54.133488,79.317627Q53.944893,79.228424,53.752151,79.14859Q53.55941,79.068756,53.362988,78.998474Q53.166565,78.928192,52.966927,78.86763Q52.767288,78.807076,52.564915,78.756386Q52.362545,78.705696,52.157932,78.664993Q51.95332,78.62429,51.746956,78.593681Q51.540592,78.563065,51.332977,78.542625Q51.125359,78.522179,50.916992,78.511948Q50.708622,78.501709,50.5,78.501701L50.5,78.5Q38.902016,78.5,30.701008,70.298992Q22.5,62.097984,22.5,50.5Q22.5,38.902018,30.70101,30.701008Q38.902018,22.5,50.5,22.5Q62.097984,22.5,70.298992,30.70101Q78.5,38.902018,78.5,50.5L78.501701,50.5Q78.501701,50.708622,78.511932,50.916992Q78.522171,51.125362,78.542618,51.332981Q78.563065,51.540596,78.593674,51.746956Q78.62429,51.95332,78.664993,52.157932Q78.705696,52.362545,78.756386,52.564919Q78.807076,52.767288,78.86763,52.966927Q78.928192,53.166565,78.998474,53.362991Q79.068756,53.559418,79.14859,53.752155Q79.228424,53.944897,79.317619,54.133492Q79.406815,54.322083,79.505165,54.506069Q79.6035,54.690056,79.710754,54.868996Q79.818008,55.047935,79.933914,55.221397Q80.04982,55.394859,80.174095,55.562428Q80.29837,55.729996,80.430725,55.891262Q80.563072,56.052528,80.703171,56.207108Q80.843277,56.361683,80.990791,56.509201Q81.138306,56.656719,81.292892,56.796822Q81.447472,56.936924,81.608742,57.069271Q81.770004,57.201622,81.937569,57.325897Q82.105133,57.450172,82.278595,57.566074Q82.452057,57.681976,82.630997,57.78923Q82.809937,57.896484,82.993927,57.994827Q83.17791,58.09317,83.366501,58.182369Q83.555092,58.271561,83.747833,58.351398Q83.940575,58.431236,84.137009,58.501518Q84.333435,58.571804,84.533073,58.632366Q84.732712,58.692924,84.935074,58.743614Q85.137444,58.794304,85.342056,58.835007Q85.546677,58.87571,85.753036,58.906319Q85.959404,58.936932,86.167023,58.957382Q86.374634,58.977829,86.583008,58.98806Q86.791382,58.998299,87,58.998299Q87.208618,58.998299,87.416992,58.98806Q87.625366,58.977829,87.832977,58.957382Q88.040588,58.936932,88.246956,58.906319Q88.453316,58.875706,88.657928,58.835003Q88.862541,58.794304,89.064911,58.74361Q89.267281,58.692924,89.466919,58.632362Q89.666557,58.5718,89.862984,58.501518Q90.05941,58.431236,90.252151,58.351398Q90.444901,58.271561,90.633484,58.182365Q90.822083,58.09317,91.006073,57.994827Q91.190056,57.896484,91.368996,57.78923Q91.547935,57.681976,91.721397,57.566071Q91.894859,57.450169,92.062424,57.325893Q92.229996,57.201622,92.391266,57.069271Q92.552528,56.936924,92.707108,56.796822Q92.861679,56.656719,93.009201,56.509201Q93.156715,56.361683,93.296822,56.207104Q93.43692,56.052528,93.569275,55.891258Q93.701614,55.729996,93.82589,55.562428Q93.950165,55.394859,94.066071,55.221397Q94.181976,55.047935,94.28923,54.868996Q94.396484,54.690056,94.494827,54.506065Q94.59317,54.322079,94.682365,54.133488Q94.771561,53.944893,94.851395,53.752151Q94.931229,53.55941,95.001518,53.362988Q95.0718,53.166565,95.132362,52.966927Q95.192917,52.767288,95.243607,52.564915Q95.294296,52.362545,95.334999,52.157932Q95.375702,51.95332,95.406319,51.746956Q95.436935,51.540592,95.457382,51.332977Q95.477829,51.125359,95.48806,50.916992Q95.498291,50.708622,95.498299,50.5L95.5,50.5Q95.5,31.860386,82.319809,18.6801949Q69.139614,5.5,50.5,5.5Q31.86039,5.5,18.6801949,18.6801939Q5.5,31.860388,5.5,50.5Q5.5,69.139614,18.6801939,82.319809Z" fill-rule="evenodd" fill="url(#master_svg1_32_1789)" fill-opacity="1"/></g></g></svg>