<svg xmlns="http://www.w3.org/2000/svg" xmlns:xlink="http://www.w3.org/1999/xlink" fill="none" version="1.1" width="100" height="100" viewBox="0 0 100 100"><defs><clipPath id="master_svg0_32_298"><rect x="0" y="0" width="100" height="100" rx="0"/></clipPath></defs><g clip-path="url(#master_svg0_32_298)"><g><ellipse cx="50.5" cy="50.5" rx="36.5" ry="36.5" fill-opacity="0" stroke-opacity="0.6000000238418579" stroke="#FFFFFF" fill="none" stroke-width="17"/></g><g><path d="M50.5,95.5Q31.860386,95.5,18.680194,82.319809Q5.5,69.139614,5.5,50.5Q5.5,31.860388,18.680194999999998,18.680194Q31.86039,5.5,50.5,5.5Q69.139614,5.5,82.319809,18.680194999999998Q95.5,31.860386,95.5,50.5L95.498299,50.5C95.498299,55.193481,91.693481,58.998299,87,58.998299C82.306519,58.998299,78.501701,55.193481,78.501701,50.5L78.5,50.5Q78.5,38.902016,70.298996,30.70101Q62.097984,22.5,50.5,22.5Q38.902016,22.5,30.70101,30.701008Q22.5,38.902016,22.5,50.5Q22.5,62.097984,30.701008,70.298996Q38.902016,78.5,50.5,78.5L50.5,78.501701C55.193481,78.501701,58.998299,82.306519,58.998299,87C58.998299,91.693481,55.193481,95.498299,50.5,95.498299L50.5,95.5Z" fill-rule="evenodd" fill="#FFFFFF" fill-opacity="1"/></g></g></svg>