<svg xmlns="http://www.w3.org/2000/svg" xmlns:xlink="http://www.w3.org/1999/xlink" fill="none" version="1.1" width="100" height="100" viewBox="0 0 100 100"><defs><clipPath id="master_svg0_24_184"><rect x="0" y="0" width="100" height="100" rx="0"/></clipPath></defs><g clip-path="url(#master_svg0_24_184)"><g><path d="M47.91664498828125,8.333251953125C69.77789698828124,8.333251953125,87.49997698828125,26.055293953125,87.49997698828125,47.916583953125C87.49997698828125,54.287833953125,85.99455998828125,60.307830953125,83.32039598828125,65.639915953125L93.58413698828124,75.906165953125C95.21122698828125,77.533248953125,95.21122698828125,80.171577953125,93.58413698828124,81.798667953125L81.79872898828125,93.584075953125C80.17163898828125,95.211165953125,77.53330998828125,95.211165953125,75.90622698828125,93.584075953125L65.63997698828125,83.320334953125C60.30789198828125,85.994498953125,54.28789498828125,87.499915953125,47.91664498828125,87.499915953125C26.05535498828125,87.499915953125,8.33331298828125,69.77783595312499,8.33331298828125,47.916583953125C8.33331298828125,26.055293953125,26.05535498828125,8.333251953125,47.91664498828125,8.333251953125ZM70.01372898828126,64.115333953125L64.12122698828125,70.007834953125L78.85247798828125,84.739493953125L84.74497998828124,78.846999953125L70.01372898828126,64.115333953125ZM77.77873198828125,38.679290953125005L38.679351988281255,77.778670953125C41.59876998828125,78.680747953125,44.70081298828125,79.166579953125,47.91664498828125,79.166579953125C51.94622798828125,79.166579953125,55.79747798828125,78.404082953125,59.33455998828125,77.014915953125L55.28247798828125,72.959922953125C53.65497998828125,71.33283195312501,53.65497998828125,68.694499953125,55.28247798828125,67.06742095312501L67.06748198828126,55.282416953125C68.69456098828125,53.654918953125,71.33289298828126,53.654918953125,72.95998398828125,55.282416953125L77.01497698828125,59.334498953125C78.40414398828125,55.797416953125,79.16664098828124,51.946166953125,79.16664098828124,47.916583953125C79.16664098828124,44.700751953125,78.68080898828126,41.598708953125,77.77873198828125,38.679290953125005Z" fill="#FFFFFF" fill-opacity="1" style="mix-blend-mode:passthrough"/></g></g></svg>