<svg xmlns="http://www.w3.org/2000/svg" xmlns:xlink="http://www.w3.org/1999/xlink" fill="none" version="1.1" width="200" height="200" viewBox="0 0 200 200"><defs><clipPath id="master_svg0_8_2809"><rect x="0" y="0" width="200" height="200" rx="0"/></clipPath></defs><g clip-path="url(#master_svg0_8_2809)"><g><path d="M39,77L140.5,71.5L140.5,51.5L39,47L39,77Z" fill="#E93B66" fill-opacity="1"/></g><g><path d="M45,153.5L140.5,138L140.5,118L45,123.5L45,153.5Z" fill="#E93B66" fill-opacity="1"/></g><g><path d="M51,76L152.5,70.5L152.5,50.5L51,46L51,76Z" fill="#FFFFFF" fill-opacity="1"/></g><g><path d="M65,116L160.5,100.5L160.5,80.5L65,86L65,116Z" fill="#D8D8D8" fill-opacity="1"/></g><g><path d="M65,116L160.5,100.5L160.5,80.5L65,86L65,116Z" fill="#E93B66" fill-opacity="1"/></g><g><path d="M57,152.5L152.5,137L152.5,117L57,122.5L57,152.5Z" fill="#FFFFFF" fill-opacity="1"/></g></g></svg>