<svg xmlns="http://www.w3.org/2000/svg" xmlns:xlink="http://www.w3.org/1999/xlink" fill="none" version="1.1" width="100" height="100" viewBox="0 0 100 100"><defs><clipPath id="master_svg0_24_172"><rect x="0" y="0" width="100" height="100" rx="0"/></clipPath></defs><g clip-path="url(#master_svg0_24_172)"><g><path d="M12.49997948828125,12.5C10.19881308828125,12.5,8.33331298828125,14.3655001,8.33331298828125,16.666666499999998L8.33331298828125,83.333328C8.33331298828125,85.634575,10.19881308828125,87.5,12.49997948828125,87.5L87.49997698828125,87.5C89.80122398828125,87.5,91.66664098828124,85.634575,91.66664098828124,83.333328L91.66664098828124,16.666666499999998C91.66664098828124,14.3655001,89.80122398828125,12.5,87.49997698828125,12.5L12.49997948828125,12.5ZM24.99997898828125,29.166666L49.99997698828125,29.166666L49.99997698828125,54.166664L24.99997898828125,54.166664L24.99997898828125,29.166666ZM33.33331298828125,37.5L33.33331298828125,45.833332L41.66664498828125,45.833332L41.66664498828125,37.5L33.33331298828125,37.5ZM74.99997698828125,37.5L58.33331298828125,37.5L58.33331298828125,29.166666L74.99997698828125,29.166666L74.99997698828125,37.5ZM58.33331298828125,54.166664L58.33331298828125,45.833332L74.99997698828125,45.833332L74.99997698828125,54.166664L58.33331298828125,54.166664ZM24.99997898828125,70.833332L24.99997898828125,62.5L74.99997698828125,62.5L74.99997698828125,70.833332L24.99997898828125,70.833332Z" fill="#FFFFFF" fill-opacity="1" style="mix-blend-mode:passthrough"/></g></g></svg>