<svg xmlns="http://www.w3.org/2000/svg" xmlns:xlink="http://www.w3.org/1999/xlink" fill="none" version="1.1" width="209" height="113" viewBox="0 0 209 113"><defs><clipPath id="master_svg0_9_294"><rect x="38" y="7" width="98" height="98" rx="0"/></clipPath></defs><g><g><rect x="0" y="0" width="108" height="84" rx="0" fill="#3D3D3D" fill-opacity="1"/></g><g><rect x="33" y="29" width="108" height="84" rx="0" fill="#3D3D3D" fill-opacity="1"/></g><g><rect x="101" y="84" width="108" height="13" rx="0" fill="#E93B66" fill-opacity="1"/></g><g><rect x="33" y="9" width="108" height="62" rx="0" fill="#E93B66" fill-opacity="1"/></g><g clip-path="url(#master_svg0_9_294)"><g><path d="M114.45420475742188,42.77001953125C115.69850655742188,42.77001953125,116.55179595742187,43.69435614125,116.55179595742187,44.97423603125L116.55179595742187,56.81293153125C116.55179595742187,58.09280853125,115.69850655742188,59.01714353125,114.45420475742188,59.01714353125C113.17442055742187,59.01714353125,112.35670923742188,58.09280853125,112.35670923742188,56.81293153125L112.35670923742188,44.97423603125C112.35670923742188,43.69435614125,113.17442055742187,42.77001953125,114.45420475742188,42.77001953125ZM114.45420475742188,66.55402753125C112.92550275742188,66.55402753125,111.71676635742188,65.34529853125,111.71676635742188,63.81659653125C111.71676635742188,62.323472531250005,112.92550275742188,61.11463953125,114.45420475742188,61.11463953125C115.98300215742188,61.11463953125,117.19173285742187,62.323472531250005,117.19173285742187,63.81659653125C117.19173285742187,65.34529853125,115.98300215742188,66.55402753125,114.45420475742188,66.55402753125Z" fill="#FFFFFF" fill-opacity="1" style="mix-blend-mode:passthrough"/></g><g><path d="M106.79287370996094,48.4937744140625C108.07275370996093,48.4937744140625,108.89046470996094,49.4181110240625,108.89046470996094,50.6624160140625L108.89046470996094,58.519369414062496C108.89046470996094,64.3143084140625,105.31767570996094,66.5539934140625,100.98029660996093,66.5539934140625C96.60743550996094,66.5539934140625,93.03465270996094,64.3143084140625,93.03465270996094,58.519369414062496L93.03465270996094,50.6624160140625C93.03465270996094,49.4181110240625,93.85236405996093,48.4937744140625,95.13224360996094,48.4937744140625C96.37655160996094,48.4937744140625,97.22973870996094,49.4181110240625,97.22973870996094,50.6624160140625L97.22973870996094,58.2349758140625C97.22973870996094,61.3990004140625,98.56282950996093,62.643305414062496,100.98029660996093,62.643305414062496C103.36228070996094,62.643305414062496,104.69537870996093,61.3990004140625,104.69537870996093,58.2349758140625L104.69537870996093,50.6624160140625C104.69537870996093,49.4181110240625,105.54856570996094,48.4937744140625,106.79287370996094,48.4937744140625Z" fill="#FFFFFF" fill-opacity="1" style="mix-blend-mode:passthrough"/></g><g><path d="M81.139618834375,53.2932977859375C81.139618834375,54.4664539859375,82.348349534375,54.8931460859375,84.659286534375,55.4263648859375C87.858890234375,56.2085017859375,90.916394234375,57.0262126859375,90.916394234375,60.9724785859375C90.916394234375,64.8120215859375,88.072237234375,66.5540695859375,83.983772234375,66.5540695859375C80.606400034375,66.5540695859375,78.153262834375,65.3808155859375,77.015678704375,64.0298815859375C76.126820984375,62.963348585937496,76.233541924375,62.039010585937504,77.086729284375,61.2213005859375C78.153262834375,60.190338585937496,79.077599534375,60.6169355859375,79.682063334375,61.1501515859375C80.641876234375,62.039010585937504,81.815130734375,62.963348585937496,84.090397834375,62.963348585937496C85.796871234375,62.963348585937496,86.863503234375,62.3944575859375,86.863503234375,61.2568765859375C86.863503234375,60.1191945859375,85.725820534375,59.728176585937504,82.739467134375,58.9104585859375C79.788688634375,58.0927466859375,77.157878574375,57.3106126859375,77.157878574375,53.7910380859375C77.157878574375,49.8447733859375,80.357479134375,48.2093505859375,83.912626234375,48.2093505859375C85.93907073437501,48.2093505859375,88.250008234375,48.7426682759375,89.672085234375,50.2713701859375C90.27644923437501,50.8757352859375,90.738617234375,51.729021085937504,89.672085234375,52.902180185937496C88.605456234375,54.0042852859375,87.823315234375,53.6843170859375,87.076751234375,53.1155233859375C86.401335234375,52.6177835859375,85.228080734375,51.7645961859375,83.450458034375,51.7645961859375C82.241727334375,51.7645961859375,81.139618834375,52.1556150859375,81.139618834375,53.2932977859375Z" fill="#FFFFFF" fill-opacity="1" style="mix-blend-mode:passthrough"/></g><g><path d="M65.61787892148438,66.554157484375C60.49189162148438,66.554157484375,56.816009521484375,62.630825484375,56.816009521484375,57.352151884375C56.816009521484375,52.037807984375,60.49189162148438,48.150146484375,65.61787892148438,48.150146484375C70.74396552148437,48.150146484375,74.41984752148437,52.037807984375,74.41984752148437,57.352151884375C74.41984752148437,62.630825484375,70.74396552148437,66.554157484375,65.61787892148438,66.554157484375ZM65.61787892148438,62.630825484375C68.58561152148438,62.630825484375,70.44045952148437,60.348108484375004,70.44045952148437,57.352151884375C70.44045952148437,54.356096784375,68.58561152148438,52.037807984375,65.61787892148438,52.037807984375C62.650243321484375,52.037807984375,60.795397521484375,54.356096784375,60.795397521484375,57.352151884375C60.795397521484375,60.348108484375004,62.650243321484375,62.630825484375,65.61787892148438,62.630825484375Z" fill="#FFFFFF" fill-opacity="1" style="mix-blend-mode:passthrough"/></g><g><path d="M131.09999089648437,56.0000224140625C131.09999089648437,80.3557744140625,111.35574389648437,100.1000214140625,86.99999189648437,100.1000214140625C62.64424889648437,100.1000214140625,42.899993896484375,80.3557744140625,42.899993896484375,56.0000224140625C42.899993896484375,31.6442794140625,62.64424889648437,11.9000244140625,86.99999189648437,11.9000244140625C111.35574389648437,11.9000244140625,131.09999089648437,31.6442794140625,131.09999089648437,56.0000224140625ZM47.309993696484376,56.0000224140625C47.309993696484376,77.9201734140625,65.07984589648437,95.6900254140625,86.99999189648437,95.6900254140625C108.92014289648438,95.6900254140625,126.68999489648438,77.9201734140625,126.68999489648438,56.0000224140625C126.68999489648438,34.0798764140625,108.92014289648438,16.3100242140625,86.99999189648437,16.3100242140625C65.07984589648437,16.3100242140625,47.309993696484376,34.0798764140625,47.309993696484376,56.0000224140625Z" fill="#FFFFFF" fill-opacity="1" style="mix-blend-mode:passthrough"/></g></g></g></svg>