<svg xmlns="http://www.w3.org/2000/svg" xmlns:xlink="http://www.w3.org/1999/xlink" fill="none" version="1.1" width="133" height="133" viewBox="0 0 133 133"><defs><clipPath id="master_svg0_30_176"><rect x="0" y="0" width="133" height="133" rx="0"/></clipPath></defs><g clip-path="url(#master_svg0_30_176)"><g><path d="M103.759284453125,48.5450439453125C105.447979953125,48.5450439453125,106.606015653125,49.7995008453125,106.606015653125,51.5364806453125L106.606015653125,67.60328094531249C106.606015653125,69.3402579453125,105.447979953125,70.5947129453125,103.759284453125,70.5947129453125C102.022434453125,70.5947129453125,100.912683363125,69.3402579453125,100.912683363125,67.60328094531249L100.912683363125,51.5364806453125C100.912683363125,49.7995008453125,102.022434453125,48.5450439453125,103.759284453125,48.5450439453125ZM103.759284453125,80.82334094531251C101.684617553125,80.82334094531251,100.044189453125,79.1829219453125,100.044189453125,77.1082549453125C100.044189453125,75.0818729453125,101.684617553125,73.4413149453125,103.759284453125,73.4413149453125C105.834081153125,73.4413149453125,107.474501153125,75.0818729453125,107.474501153125,77.1082549453125C107.474501153125,79.1829219453125,105.834081153125,80.82334094531251,103.759284453125,80.82334094531251Z" fill="#FFFFFF" fill-opacity="1" style="mix-blend-mode:passthrough"/></g><g><path d="M93.36175137109375,56.31298828125C95.09873237109375,56.31298828125,96.20848237109375,57.56744518125,96.20848237109375,59.25614478125L96.20848237109375,69.91915328125C96.20848237109375,77.78371228125,91.35969737109374,80.82328628125,85.47325437109374,80.82328628125C79.53865717109375,80.82328628125,74.68988037109375,77.78371228125,74.68988037109375,69.91915328125L74.68988037109375,59.25614478125C74.68988037109375,57.56744518125,75.79963147109375,56.31298828125,77.53661107109374,56.31298828125C79.22531457109375,56.31298828125,80.38321157109375,57.56744518125,80.38321157109375,59.25614478125L80.38321157109375,69.53319028125C80.38321157109375,73.82722328125,82.19240617109375,75.51592428125,85.47325437109374,75.51592428125C88.70594837109375,75.51592428125,90.51515137109375,73.82722328125,90.51515137109375,69.53319028125L90.51515137109375,59.25614478125C90.51515137109375,57.56744518125,91.67304837109376,56.31298828125,93.36175137109375,56.31298828125Z" fill="#FFFFFF" fill-opacity="1" style="mix-blend-mode:passthrough"/></g><g><path d="M58.546604176953124,62.826644853125C58.546604176953124,64.41878505312499,60.18702407695312,64.997867553125,63.323295376953126,65.721521353125C67.66561537695313,66.782992953125,71.81508437695312,67.892743953125,71.81508437695312,73.248389953125C71.81508437695312,78.459197953125,67.95515737695312,80.823405953125,62.406526376953124,80.823405953125C57.822949876953125,80.823405953125,54.493692176953125,79.231132953125,52.94982784695313,77.397721953125C51.743520946953126,75.95028495312499,51.888356516953124,74.695827953125,53.04625367695313,73.586076953125C54.493692176953125,72.186913953125,55.748148876953124,72.765866953125,56.56849287695312,73.489516953125C57.871096176953124,74.695827953125,59.463369876953124,75.95028495312499,62.55123237695312,75.95028495312499C64.86716037695312,75.95028495312499,66.31473337695313,75.178218953125,66.31473337695313,73.634358953125C66.31473337695313,72.090362953125,64.77073437695313,71.559692953125,60.717826876953126,70.449933953125C56.71319867695313,69.340182953125,53.14281347695312,68.278714953125,53.14281347695312,63.502149153125C53.14281347695312,58.146504353125,57.48512837695313,55.927001953125,62.309970376953125,55.927001953125C65.06014537695313,55.927001953125,68.19641837695312,56.650790213125,70.12637937695312,58.725457153125C70.94658837695313,59.545666953125,71.57381637695312,60.703697653125,70.12637937695312,62.295842153125C68.67881237695312,63.791556353125,67.61733537695312,63.357313653125,66.60414037695313,62.585379553125C65.68750337695312,61.909875353125,64.09523137695312,60.751978353125,61.68274307695312,60.751978353125C60.04232267695313,60.751978353125,58.546604176953124,61.282646653125,58.546604176953124,62.826644853125Z" fill="#FFFFFF" fill-opacity="1" style="mix-blend-mode:passthrough"/></g><g><path d="M37.4814057421875,80.8234286171875C30.5247082421875,80.8234286171875,25.5360107421875,75.4989066171875,25.5360107421875,68.33499361718751C25.5360107421875,61.1226697171875,30.5247082421875,55.8465576171875,37.4814057421875,55.8465576171875C44.438237742187496,55.8465576171875,49.4269347421875,61.1226697171875,49.4269347421875,68.33499361718751C49.4269347421875,75.4989066171875,44.438237742187496,80.8234286171875,37.4814057421875,80.8234286171875ZM37.4814057421875,75.4989066171875C41.5090437421875,75.4989066171875,44.026336742187496,72.4009346171875,44.026336742187496,68.33499361718751C44.026336742187496,64.2689190171875,41.5090437421875,61.1226697171875,37.4814057421875,61.1226697171875C33.4539003421875,61.1226697171875,30.9366092421875,64.2689190171875,30.9366092421875,68.33499361718751C30.9366092421875,72.4009346171875,33.4539003421875,75.4989066171875,37.4814057421875,75.4989066171875Z" fill="#FFFFFF" fill-opacity="1" style="mix-blend-mode:passthrough"/></g><g><path d="M126.34999389648438,66.5000224140625C126.34999389648438,99.5542524140625,99.55422189648438,126.3500244140625,66.49999189648437,126.3500244140625C33.44576989648438,126.3500244140625,6.649993896484375,99.5542524140625,6.649993896484375,66.5000224140625C6.649993896484375,33.445800414062504,33.44576989648438,6.6500244140625,66.49999189648437,6.6500244140625C99.55422189648438,6.6500244140625,126.34999389648438,33.445800414062504,126.34999389648438,66.5000224140625ZM12.634993996484376,66.5000224140625C12.634993996484376,96.2487944140625,36.75122089648438,120.3650244140625,66.49999189648437,120.3650244140625C96.24876389648438,120.3650244140625,120.36499389648438,96.2487944140625,120.36499389648438,66.5000224140625C120.36499389648438,36.7512514140625,96.24876389648438,12.6350245140625,66.49999189648437,12.6350245140625C36.75122089648438,12.6350245140625,12.634993996484376,36.7512514140625,12.634993996484376,66.5000224140625Z" fill="#FFFFFF" fill-opacity="1" style="mix-blend-mode:passthrough"/></g></g></svg>