<svg xmlns="http://www.w3.org/2000/svg" xmlns:xlink="http://www.w3.org/1999/xlink" fill="none" version="1.1" width="133" height="133" viewBox="0 0 133 133"><defs><clipPath id="master_svg0_32_169"><rect x="0" y="0" width="133" height="133" rx="0"/></clipPath></defs><g clip-path="url(#master_svg0_32_169)"><g><g><g><path d="M103.759284453125,48.5450439453125C105.447979953125,48.5450439453125,106.606015653125,49.7995008453125,106.606015653125,51.5364806453125L106.606015653125,67.60328094531249C106.606015653125,69.3402579453125,105.447979953125,70.5947129453125,103.759284453125,70.5947129453125C102.022434453125,70.5947129453125,100.912683363125,69.3402579453125,100.912683363125,67.60328094531249L100.912683363125,51.5364806453125C100.912683363125,49.7995008453125,102.022434453125,48.5450439453125,103.759284453125,48.5450439453125ZM103.759284453125,80.82334094531251C101.684617553125,80.82334094531251,100.044189453125,79.1829219453125,100.044189453125,77.1082549453125C100.044189453125,75.0818729453125,101.684617553125,73.4413149453125,103.759284453125,73.4413149453125C105.834081153125,73.4413149453125,107.474501153125,75.0818729453125,107.474501153125,77.1082549453125C107.474501153125,79.1829219453125,105.834081153125,80.82334094531251,103.759284453125,80.82334094531251Z" fill="#232323" fill-opacity="1" style="mix-blend-mode:passthrough"/></g></g><g><g><path d="M93.36175137109375,56.31298828125C95.09873237109375,56.31298828125,96.20848237109375,57.56744518125,96.20848237109375,59.25614478125L96.20848237109375,69.91915328125C96.20848237109375,77.78371228125,91.35969737109374,80.82328628125,85.47325437109374,80.82328628125C79.53865717109375,80.82328628125,74.68988037109375,77.78371228125,74.68988037109375,69.91915328125L74.68988037109375,59.25614478125C74.68988037109375,57.56744518125,75.79963147109375,56.31298828125,77.53661107109374,56.31298828125C79.22531457109375,56.31298828125,80.38321157109375,57.56744518125,80.38321157109375,59.25614478125L80.38321157109375,69.53319028125C80.38321157109375,73.82722328125,82.19240617109375,75.51592428125,85.47325437109374,75.51592428125C88.70594837109375,75.51592428125,90.51515137109375,73.82722328125,90.51515137109375,69.53319028125L90.51515137109375,59.25614478125C90.51515137109375,57.56744518125,91.67304837109376,56.31298828125,93.36175137109375,56.31298828125Z" fill="#232323" fill-opacity="1" style="mix-blend-mode:passthrough"/></g></g><g><g><path d="M58.546604176953124,62.826644853125C58.546604176953124,64.41878505312499,60.187023176953126,64.997863753125,63.323295376953126,65.721519453125C67.66561937695312,66.782989953125,71.81508637695313,67.892745953125,71.81508637695313,73.248389953125C71.81508637695313,78.459197953125,67.95515437695312,80.823401953125,62.40652437695313,80.823401953125C57.82294847695312,80.823401953125,54.49369047695313,79.231132953125,52.949829096953124,77.397719953125C51.743522646953124,75.950286953125,51.888355256953126,74.695830953125,53.046253206953125,73.586074953125C54.49369047695313,72.186912953125,55.74814987695312,72.765868953125,56.56849287695312,73.489516953125C57.871097576953126,74.695830953125,59.463371276953126,75.950286953125,62.551231376953126,75.950286953125C64.86715737695313,75.950286953125,66.31473537695312,75.178222953125,66.31473537695312,73.634360953125C66.31473537695312,72.090362953125,64.77073637695312,71.559691953125,60.717826876953126,70.44993595312499C56.71319957695312,69.340178953125,53.14281467695312,68.278716953125,53.14281467695312,63.502147653125C53.14281467695312,58.146503453125,57.48512647695313,55.927001953125,62.309970376953125,55.927001953125C65.06014237695312,55.927001953125,68.19641837695312,56.650791173125,70.12638137695312,58.725456253125C70.94658637695312,59.545665753125,71.57381437695312,60.703697253125,70.12638137695312,62.295841253125C68.67881037695312,63.791557353125,67.61733237695313,63.357315053125,66.60414137695312,62.585380553125C65.68750037695312,61.909873953125,64.09523037695313,60.751979853125,61.68274307695312,60.751979853125C60.04232407695312,60.751979853125,58.546604176953124,61.282646153125,58.546604176953124,62.826644853125Z" fill="#232323" fill-opacity="1" style="mix-blend-mode:passthrough"/></g></g><g><g><path d="M37.4814067421875,80.8234256171875C30.5247078421875,80.8234256171875,25.5360107421875,75.4989086171875,25.5360107421875,68.3349916171875C25.5360107421875,61.1226692171875,30.5247078421875,55.8465576171875,37.4814067421875,55.8465576171875C44.4382357421875,55.8465576171875,49.4269337421875,61.1226692171875,49.4269337421875,68.3349916171875C49.4269337421875,75.4989086171875,44.4382357421875,80.8234256171875,37.4814067421875,80.8234256171875ZM37.4814067421875,75.4989086171875C41.5090447421875,75.4989086171875,44.026336742187496,72.4009326171875,44.026336742187496,68.3349916171875C44.026336742187496,64.2689209171875,41.5090447421875,61.1226692171875,37.4814067421875,61.1226692171875C33.4538993421875,61.1226692171875,30.9366092421875,64.2689209171875,30.9366092421875,68.3349916171875C30.9366092421875,72.4009326171875,33.4538993421875,75.4989086171875,37.4814067421875,75.4989086171875Z" fill="#232323" fill-opacity="1" style="mix-blend-mode:passthrough"/></g></g><g><g><path d="M126.34999389648438,66.5000224140625C126.34999389648438,99.5542524140625,99.55422189648438,126.3500244140625,66.49999189648437,126.3500244140625C33.44576989648438,126.3500244140625,6.649993896484375,99.5542524140625,6.649993896484375,66.5000224140625C6.649993896484375,33.445800414062504,33.44576989648438,6.6500244140625,66.49999189648437,6.6500244140625C99.55422189648438,6.6500244140625,126.34999389648438,33.445800414062504,126.34999389648438,66.5000224140625ZM12.634993996484376,66.5000224140625C12.634993996484376,96.2487944140625,36.75122089648438,120.3650244140625,66.49999189648437,120.3650244140625C96.24876389648438,120.3650244140625,120.36499389648438,96.2487944140625,120.36499389648438,66.5000224140625C120.36499389648438,36.7512514140625,96.24876389648438,12.6350245140625,66.49999189648437,12.6350245140625C36.75122089648438,12.6350245140625,12.634993996484376,36.7512514140625,12.634993996484376,66.5000224140625Z" fill="#232323" fill-opacity="1" style="mix-blend-mode:passthrough"/></g></g></g></g></svg>