<svg xmlns="http://www.w3.org/2000/svg" xmlns:xlink="http://www.w3.org/1999/xlink" fill="none" version="1.1" width="100" height="100" viewBox="0 0 100 100"><defs><clipPath id="master_svg0_24_200"><rect x="0" y="0" width="100" height="100" rx="0"/></clipPath></defs><g clip-path="url(#master_svg0_24_200)"><g><path d="M70.8362505625,5.034423828125L76.3312455625,15.337881828125L86.6345745625,20.833047828125L76.3312455625,26.328214828125L70.8362505625,36.631671828125L65.3408315625,26.328214828125L55.0374945625,20.833047828125L65.3408315625,15.337881828125L70.8362505625,5.034423828125ZM33.3360445625,18.055256828125L44.4470825625,38.888587828125L65.2804145625,49.999629828125L44.4470825625,61.110881828125L33.3360445625,81.944205828125L22.2249185625,61.110881828125L1.3916015625,49.999629828125L22.2249185625,38.888587828125L33.3360445625,18.055256828125ZM81.9470745625,68.055461828125L75.0029145625,55.034629828125L68.0583265625,68.055461828125L55.0374945625,74.999633828125L68.0583265625,81.944205828125L75.0029145625,94.965041828125L81.9470745625,81.944205828125L94.9679105625,74.999633828125L81.9470745625,68.055461828125Z" fill="#FFFFFF" fill-opacity="1" style="mix-blend-mode:passthrough"/></g></g></svg>