<svg xmlns="http://www.w3.org/2000/svg" xmlns:xlink="http://www.w3.org/1999/xlink" fill="none" version="1.1" width="439" height="113" viewBox="0 0 439 113"><defs><clipPath id="master_svg0_4_065"><rect x="33" y="9" width="98" height="98" rx="0"/></clipPath></defs><g><g><rect x="0" y="0" width="108" height="84" rx="0" fill="#3D3D3D" fill-opacity="1"/></g><g><rect x="33" y="29" width="108" height="84" rx="0" fill="#3D3D3D" fill-opacity="1"/></g><g><rect x="173" y="29" width="108" height="62" rx="0" fill="#3D3D3D" fill-opacity="1"/></g><g><rect x="101" y="84" width="108" height="13" rx="0" fill="#E93B66" fill-opacity="1"/></g><g><rect x="33" y="9" width="108" height="62" rx="0" fill="#E93B66" fill-opacity="1"/></g><g><rect x="204" y="11" width="207" height="72" rx="0" fill="#3D3D3D" fill-opacity="1"/></g><g><rect x="411" y="29" width="28" height="62" rx="0" fill="#3D3D3D" fill-opacity="1"/></g><g><path d="M224.75,64.875Q224.75,68,223.921875,70.765625Q223.09375,73.53125,221.578125,75.78125Q220.0625,78.03125,217.921875,79.71875Q215.78125,81.40625,213.15625,82.375L222.65625,89.90625L210.875,89.90625L203.0625,83.625L195.0625,83.625Q191.03125,83.625,187.59375,82.234375Q184.15625,80.84375,181.65625,78.34375Q179.15625,75.84375,177.734375,72.40625Q176.3125,68.96875,176.3125,64.875L176.3125,56.3125Q176.3125,52.25,177.734375,48.796875Q179.15625,45.34375,181.65625,42.859375Q184.15625,40.375,187.59375,38.96875Q191.03125,37.5625,195.0625,37.5625L206.0625,37.5625Q210.09375,37.5625,213.515625,38.96875Q216.9375,40.375,219.4375,42.859375Q221.9375,45.34375,223.34375,48.796875Q224.75,52.25,224.75,56.3125L224.75,64.875ZM216.625,56.3125Q216.625,53.90625,215.859375,51.953125Q215.09375,50,213.703125,48.609375Q212.3125,47.21875,210.359375,46.453125Q208.40625,45.6875,206.0625,45.6875L195.0625,45.6875Q192.6875,45.6875,190.734375,46.453125Q188.78125,47.21875,187.375,48.609375Q185.96875,50,185.203125,51.953125Q184.4375,53.90625,184.4375,56.3125L184.4375,64.875Q184.4375,67.28125,185.203125,69.234375Q185.96875,71.1875,187.375,72.578125Q188.78125,73.96875,190.734375,74.734375Q192.6875,75.5,195.0625,75.5L206,75.5Q208.375,75.5,210.328125,74.734375Q212.28125,73.96875,213.6875,72.578125Q215.09375,71.1875,215.859375,69.234375Q216.625,67.28125,216.625,64.875L216.625,56.3125ZM279.8125,64.875Q279.8125,68,278.98438,70.765625Q278.15625,73.53125,276.64062,75.78125Q275.125,78.03125,272.984375,79.71875Q270.84375,81.40625,268.21875,82.375L277.71875,89.90625L265.9375,89.90625L258.125,83.625L250.125,83.625Q246.09375,83.625,242.65625,82.234375Q239.21875,80.84375,236.71875,78.34375Q234.21875,75.84375,232.796875,72.40625Q231.375,68.96875,231.375,64.875L231.375,56.3125Q231.375,52.25,232.796875,48.796875Q234.21875,45.34375,236.71875,42.859375Q239.21875,40.375,242.65625,38.96875Q246.09375,37.5625,250.125,37.5625L261.125,37.5625Q265.15625,37.5625,268.578125,38.96875Q272,40.375,274.5,42.859375Q277,45.34375,278.40625,48.796875Q279.8125,52.25,279.8125,56.3125L279.8125,64.875ZM271.6875,56.3125Q271.6875,53.90625,270.921875,51.953125Q270.15625,50,268.765625,48.609375Q267.375,47.21875,265.421875,46.453125Q263.46875,45.6875,261.125,45.6875L250.125,45.6875Q247.75,45.6875,245.796875,46.453125Q243.84375,47.21875,242.4375,48.609375Q241.03125,50,240.265625,51.953125Q239.5,53.90625,239.5,56.3125L239.5,64.875Q239.5,67.28125,240.265625,69.234375Q241.03125,71.1875,242.4375,72.578125Q243.84375,73.96875,245.796875,74.734375Q247.75,75.5,250.125,75.5L261.0625,75.5Q263.4375,75.5,265.390625,74.734375Q267.34375,73.96875,268.75,72.578125Q270.15625,71.1875,270.921875,69.234375Q271.6875,67.28125,271.6875,64.875L271.6875,56.3125ZM334.709,28.215996C334.06899999999996,31.607998,332.597,36.151997,331.381,39.159996L336.757,40.503997999999996L324.02099999999996,40.503997999999996L327.86100999999996,39.095997C327.28499999999997,36.151997,325.621,31.863998,323.701,28.663998L316.27701,31.223999C317.813,34.039997,319.09299999999996,37.688,319.733,40.503997999999996L316.597,40.503997999999996L316.597,48.887997L325.429,48.887997L325.429,53.112L317.36501,53.112L317.36501,61.559998L325.429,61.559998L325.429,66.807999L315.25301,66.807999L315.25301,75.512001L325.429,75.512001L325.429,89.015999L334.38901,89.015999L334.38901,75.512001L345.52499,75.512001L345.52499,66.807999L334.38901,66.807999L334.38901,61.559998L343.02900999999997,61.559998L343.02900999999997,53.112L334.38901,53.112L334.38901,48.887997L344.30901,48.887997L344.30901,40.503997999999996L339.317,40.503997999999996C340.66101000000003,37.751999,342.19701,34.039997,343.733,30.199997L334.709,28.215996ZM304.629,49.335999L304.629,52.023998L300.853,52.023998L301.173,49.335999L304.629,49.335999ZM288.437,31.095997L288.437,38.839996L293.365,38.839996L293.23699999999997,41.655998L284.725,41.655998L284.725,49.335999L292.597,49.335999L292.21299999999997,52.023998L288.117,52.023998L288.117,59.767998L290.35699999999997,59.767998C288.949,63.928001,286.96500000000003,67.447998,284.085,70.200001C285.877,71.799999,289.01300000000003,75.575996,290.03700000000003,77.367996L291.253,76.024002L291.253,89.080002L299.637,89.080002L299.637,86.199997L314.485,86.199997L314.485,63.736L298.101,63.736C298.549,62.456001,298.933,61.112,299.253,59.767998L313.20500000000004,59.767998L313.20500000000004,49.335999L315.89301,49.335999L315.89301,41.655998L313.20500000000004,41.655998L313.20500000000004,31.095997L288.437,31.095997ZM304.629,41.655998L301.877,41.655998L302.06899999999996,38.839996L304.629,38.839996L304.629,41.655998ZM299.637,71.672001L305.461,71.672001L305.461,78.264L299.637,78.264L299.637,71.672001Z" fill="#FFFFFF" fill-opacity="1"/></g><g clip-path="url(#master_svg0_4_065)"><g><path d="M114.315086296875,68.3267139765625C113.578865296875,65.9828759765625,112.574768296875,63.2494929765625,111.557205296875,60.6255419765625L107.842594296875,51.4539679765625C107.845455296875,51.3482129765625,107.891590296875,49.5416639765625,107.891590296875,48.6104579765625C107.891590296875,32.9278849765625,100.40847729687499,17.1681369145625,82.003669296875,17.1666259765625C63.600616296875,17.1681369145625,56.116273896875,32.9278849765625,56.116273896875,48.6104579765625C56.116273896875,49.5416639765625,56.162170396875,51.3482129765625,56.165233596875,51.4539679765625L52.452136496875,60.6255419765625C51.434324696875,63.2494929765625,50.428762396875,65.9828759765625,49.692577396875,68.3267139765625C46.183034296875,79.5015679765625,47.320243062875,84.1259379765625,48.186522666875,84.2304759765625C50.044602596875,84.4513859765625,55.418351196875,75.81758897656249,55.418351196875,75.81758897656249C55.418351196875,80.8172229765625,58.020251296875,87.3419799765625,63.651127296875,92.0541459765625C61.545108296875,92.6964569765625,58.964602296875,93.6833949765625,57.305505296875,94.8949199765625C55.814760196875,95.9851679765625,56.001491496875,97.0950239765625,56.269316696875,97.5433659765625C57.449360296875,99.5115359765625,76.504642296875,98.7998119765625,82.006935296875,98.1869049765625C87.507591296875,98.7998119765625,106.56451429687499,99.5115359765625,107.742958296875,97.5433659765625C108.012459296875,97.0950239765625,108.197441296875,95.9851679765625,106.707016296875,94.8949199765625C105.047554296875,93.6833949765625,102.465656296875,92.6964569765625,100.358249296875,92.0529249765625C105.98753729687499,87.3419799765625,108.589435296875,80.8172229765625,108.589435296875,75.81758897656249C108.589435296875,75.81758897656249,113.964737296875,84.4513859765625,115.822654296875,84.2304759765625C116.687500296875,84.1259379765625,117.824707296875,79.5015679765625,114.315086296875,68.3267139765625Z" fill="#FFFFFF" fill-opacity="1" style="mix-blend-mode:passthrough"/></g></g></g></svg>