<svg xmlns="http://www.w3.org/2000/svg" xmlns:xlink="http://www.w3.org/1999/xlink" fill="none" version="1.1" width="100" height="100" viewBox="0 0 100 100"><defs><clipPath id="master_svg0_24_188"><rect x="0" y="0" width="100" height="100" rx="0"/></clipPath></defs><g clip-path="url(#master_svg0_24_188)"><g><path d="M59.39914698828125,90.600745953125L49.99997698828125,99.999915953125L40.60064298828125,90.600745953125C22.122520988281252,86.334914953125,8.33331298828125,69.767837953125,8.33331298828125,49.999915953125C8.33331298828125,26.999917953125,26.99997898828125,8.333251953125,49.99997698828125,8.333251953125C72.99997698828125,8.333251953125,91.66664098828124,26.999917953125,91.66664098828124,49.999915953125C91.66664098828124,69.767837953125,77.87747198828124,86.334914953125,59.39914698828125,90.600745953125ZM25.09714698828125,64.234500953125C31.21177098828125,73.361999953125,40.39627098828125,79.166579953125,50.66539798828125,79.166579953125C60.93456298828125,79.166579953125,70.11914398828125,73.361999953125,76.23372698828125,64.234500953125C69.53539298828125,57.988250953125,60.54664598828125,54.166583953125,50.66539798828125,54.166583953125C40.78418698828125,54.166583953125,31.79560298828125,57.988250953125,25.09714698828125,64.234500953125ZM49.99997698828125,45.833251953125C56.90372798828125,45.833251953125,62.49997698828125,40.236791953125,62.49997698828125,33.333251953125C62.49997698828125,26.429709953125,56.90372798828125,20.833251953125,49.99997698828125,20.833251953125C43.09622598828125,20.833251953125,37.49997898828125,26.429709953125,37.49997898828125,33.333251953125C37.49997898828125,40.236791953125,43.09622598828125,45.833251953125,49.99997698828125,45.833251953125Z" fill="#FFFFFF" fill-opacity="1" style="mix-blend-mode:passthrough"/></g></g></svg>