<svg xmlns="http://www.w3.org/2000/svg" xmlns:xlink="http://www.w3.org/1999/xlink" fill="none" version="1.1" width="255" height="255" viewBox="0 0 255 255"><defs><clipPath id="master_svg0_9_406"><rect x="0" y="0" width="255" height="255" rx="0"/></clipPath></defs><g clip-path="url(#master_svg0_9_406)"><rect x="0" y="0" width="255" height="255" rx="0" fill="#383838" fill-opacity="1"/><g transform="matrix(0.7071067690849304,0.7071067690849304,-0.7071067690849304,0.7071067690849304,88.59544773535163,-69.88832740350335)"><g><rect x="128.660400390625" y="72" width="106" height="31" rx="0" fill="#E93B66" fill-opacity="1"/></g><g transform="matrix(0,1,-1,0,232.660400390625,-86.660400390625)"><rect x="159.660400390625" y="73" width="106" height="31" rx="0" fill="#E93B66" fill-opacity="1"/></g></g><g transform="matrix(0.7071067690849304,0.7071067690849304,-0.7071067690849304,0.7071067690849304,74.45331235365302,-75.74619202180475)"><g><rect x="128.660400390625" y="52" width="106" height="31" rx="0" fill="#FFFFFF" fill-opacity="1"/></g><g transform="matrix(0,1,-1,0,212.660400390625,-106.660400390625)"><rect x="159.660400390625" y="53" width="106" height="31" rx="0" fill="#FFFFFF" fill-opacity="1"/></g></g><g transform="matrix(0.7071067690849304,0.7071067690849304,-0.7071067690849304,0.7071067690849304,132.93249628692502,-50.92743244022495)"><rect x="127.94110107421875" y="135" width="48" height="48" rx="0" fill="#E93B66" fill-opacity="1"/></g><g transform="matrix(0.7071067690849304,0.7071067690849304,-0.7071067690849304,0.7071067690849304,123.03300151973599,-55.02793767303592)" style="opacity:0.4000000059604645;"><rect x="127.94110107421875" y="121" width="48" height="48" rx="0" fill="#FFFFFF" fill-opacity="1"/></g></g></svg>