<svg xmlns="http://www.w3.org/2000/svg" xmlns:xlink="http://www.w3.org/1999/xlink" fill="none" version="1.1" width="200" height="200" viewBox="0 0 200 200"><defs><clipPath id="master_svg0_8_2808"><rect x="0" y="0" width="200" height="200" rx="0"/></clipPath></defs><g clip-path="url(#master_svg0_8_2808)"><g><path d="M51,149L145,153L155,52L65,57.5L51,149Z" fill="#E93B66" fill-opacity="1"/></g><g><path d="M45,145L139,149L149,48L59,53.5L45,145Z" fill="#FFFFFF" fill-opacity="1"/></g><g><path d="M57,66.445621L145.500031,66.44555700000001L148,48.5L58.8846154,53.7624512L57,66.445621Z" fill="#E93B66" fill-opacity="1"/></g><g><path d="M59,88.945621L70,88.94555700000001L72.5,75L60.8846154,76.2624512L59,88.945621Z" fill="#E93B66" fill-opacity="1"/></g><g><path d="M75,102.945621L86,102.94555700000001L88.5,89L76.8846154,90.2624512L75,102.945621Z" fill="#E93B66" fill-opacity="1"/></g><g><path d="M96,88.945621L107,88.94555700000001L109.5,75L98.5,77L96,88.945621Z" fill="#E93B66" fill-opacity="1"/></g><g><path d="M115,88.945621L126,88.94555700000001L128.5,75L116.8846154,76.2624512L115,88.945621Z" fill="#757575" fill-opacity="1"/></g></g></svg>