<svg xmlns="http://www.w3.org/2000/svg" xmlns:xlink="http://www.w3.org/1999/xlink" fill="none" version="1.1" width="100" height="100" viewBox="0 0 100 100"><defs><clipPath id="master_svg0_31_181"><rect x="0" y="0" width="100" height="100" rx="0"/></clipPath></defs><g clip-path="url(#master_svg0_31_181)"><g><path d="M41.47503118896485,9.2109072775C47.03165418896484,8.0477410875,52.836239188964846,8.0110325775,58.520405188964844,9.1994492975C59.257904188964844,14.0309071875,62.103325188964845,18.4955741875,66.66540518896485,21.1293661875C71.22707018896484,23.7631151875,76.51665518896485,23.9952411875,81.06915318896485,22.217991187499997C84.94081118896484,26.5466571875,87.81123318896485,31.5918651875,89.58206918896484,36.985573187499995C85.77164418896484,40.0399891875,83.33206918896484,44.7334061875,83.33206918896484,49.9967381875C83.33206918896484,55.2634051875,85.77456618896484,59.9592361875,89.58873718896484,63.0134051875C88.70832018896485,65.6817401875,87.54332018896484,68.3009071875,86.08290118896484,70.8300741875C84.62249018896485,73.3596571875,82.93706518896484,75.6779941875,81.06623818896485,77.7746501875C76.51415218896484,75.9983981875,71.22623418896484,76.2313231875,66.66540518896485,78.8642421875C62.107071188964845,81.4959031875,59.262485188964845,85.9559021875,58.52207218896484,90.7829891875C52.96582018896484,91.9459001875,47.16123918896484,91.9825671875,41.476780188964845,90.7942351875C40.739490188964844,85.9629821875,37.893781188964844,81.4979861875,33.33194718896485,78.8642421875C28.770155188964843,76.2304841875,23.480779188964846,75.9983981875,18.92798898896484,77.7759091875C15.056530988964845,73.4471591875,12.186072688964844,68.4017411875,10.415156244764844,63.0079881875C14.225489388964844,59.9538191875,16.665322788964843,55.2600711875,16.665322788964843,49.9967381875C16.665322788964843,44.7304881875,14.222655988964844,40.0345291875,10.408531188964844,36.9802401875C11.288864908964843,34.3118251875,12.453906288964843,31.6929471875,13.914239888964843,29.1635321875C15.374614188964845,26.6341131875,17.060114388964845,24.315740187499998,18.930863388964845,22.2191161875C23.483031188964844,23.995115187499998,28.771112188964842,23.7625741875,33.33194718896485,21.1293661875C37.89015818896485,18.4976591875,40.734987188964844,14.0379910875,41.47503118896485,9.2109072775ZM49.998737188964846,62.4967381875C56.90207318896484,62.4967381875,62.498737188964846,56.9004901875,62.498737188964846,49.9967381875C62.498737188964846,43.0934031875,56.90207318896484,37.496866187500004,49.998737188964846,37.496866187500004C43.09499018896484,37.496866187500004,37.49861518896485,43.0934031875,37.49861518896485,49.9967381875C37.49861518896485,56.9004901875,43.09499018896484,62.4967381875,49.998737188964846,62.4967381875Z" fill="#FFFFFF" fill-opacity="1" style="mix-blend-mode:passthrough"/></g></g></svg>