<svg xmlns="http://www.w3.org/2000/svg" xmlns:xlink="http://www.w3.org/1999/xlink" fill="none" version="1.1" width="100" height="100" viewBox="0 0 100 100"><defs><clipPath id="master_svg0_25_267"><rect x="0" y="0" width="100" height="100" rx="0"/></clipPath></defs><g clip-path="url(#master_svg0_25_267)"><g><path d="M41.666666,12.5L41.666666,20.833333L20.833333,20.833333L20.833333,79.166664L79.166664,79.166664L79.166664,58.333332L87.5,58.333332L87.5,83.333328C87.5,85.634575,85.634575,87.5,83.333328,87.5L16.666666499999998,87.5C14.3655001,87.5,12.5,85.634575,12.5,83.333328L12.5,16.666666499999998C12.5,14.3655001,14.3655001,12.5,16.666666499999998,12.5L41.666666,12.5ZM73.779579,32.112957L50,55.892498L44.1075,50L67.887081,26.220375L54.166664,12.5L87.5,12.5L87.5,45.833332L73.779579,32.112957Z" fill="#2C2C2C" fill-opacity="1" style="mix-blend-mode:passthrough"/></g></g></svg>