<svg xmlns="http://www.w3.org/2000/svg" xmlns:xlink="http://www.w3.org/1999/xlink" fill="none" version="1.1" width="100" height="100" viewBox="0 0 100 100"><defs><clipPath id="master_svg0_24_180"><rect x="0" y="0" width="100" height="100" rx="0"/></clipPath></defs><g clip-path="url(#master_svg0_24_180)"><g><path d="M62.49997698828125,87.5L37.49997898828125,87.5L37.49997898828125,41.666666L62.49997698828125,41.666666L62.49997698828125,87.5ZM70.83330898828126,87.5L70.83330898828126,41.666666L91.66664098828124,41.666666L91.66664098828124,83.333328C91.66664098828124,85.634575,89.80122398828125,87.5,87.49997698828125,87.5L70.83330898828126,87.5ZM29.16664498828125,87.5L12.49997948828125,87.5C10.19881308828125,87.5,8.33331298828125,85.634575,8.33331298828125,83.333328L8.33331298828125,41.666666L29.16664498828125,41.666666L29.16664498828125,87.5ZM91.66664098828124,33.333332L8.33331298828125,33.333332L8.33331298828125,16.666666499999998C8.33331298828125,14.3655001,10.19881308828125,12.5,12.49997948828125,12.5L87.49997698828125,12.5C89.80122398828125,12.5,91.66664098828124,14.3655001,91.66664098828124,16.666666499999998L91.66664098828124,33.333332Z" fill="#FFFFFF" fill-opacity="1" style="mix-blend-mode:passthrough"/></g></g></svg>