<svg xmlns="http://www.w3.org/2000/svg" xmlns:xlink="http://www.w3.org/1999/xlink" fill="none" version="1.1" width="100" height="100" viewBox="0 0 100 100"><defs><clipPath id="master_svg0_24_204"><rect x="0" y="0" width="100" height="100" rx="0"/></clipPath></defs><g clip-path="url(#master_svg0_24_204)"><g><path d="M70.83335101171875,63.522579046875L70.83335101171875,92.153824046875C70.83335101171875,93.304245046875,69.90043601171875,94.237579046875,68.75001901171875,94.237579046875C68.37252001171875,94.237579046875,68.00209801171874,94.134666046875,67.67835201171874,93.940498046875L50.00001901171875,83.333412046875L32.321894011718754,93.940498046875C31.335270011718748,94.532165046875,30.05556101171875,94.212166046875,29.463561011718753,93.225914046875C29.26931201171875,92.901749046875,29.16668701171875,92.531326046875,29.16668701171875,92.153824046875L29.16668701171875,63.522579046875C21.54614541171875,57.413830046875,16.66668701171875,48.026745046875,16.66668701171875,37.500080046875C16.66668701171875,19.090580046875,31.59051901171875,4.166748046875,50.00001901171875,4.166748046875C68.40960301171876,4.166748046875,83.33335101171875,19.090580046875,83.33335101171875,37.500080046875C83.33335101171875,48.026745046875,78.45376601171876,57.413830046875,70.83335101171875,63.522579046875ZM50.00001901171875,62.500080046875C63.80710201171875,62.500080046875,75.00001901171875,51.307163046875,75.00001901171875,37.500080046875C75.00001901171875,23.692955046875,63.80710201171875,12.500081046875,50.00001901171875,12.500081046875C36.19289401171875,12.500081046875,25.00002001171875,23.692955046875,25.00002001171875,37.500080046875C25.00002001171875,51.307163046875,36.19289401171875,62.500080046875,50.00001901171875,62.500080046875ZM50.00001901171875,54.166748046875C40.795271011718754,54.166748046875,33.33335301171875,46.704662046875,33.33335301171875,37.500080046875C33.33335301171875,28.295332046875,40.795271011718754,20.833414046875,50.00001901171875,20.833414046875C59.20460101171875,20.833414046875,66.66668701171875,28.295332046875,66.66668701171875,37.500080046875C66.66668701171875,46.704662046875,59.20460101171875,54.166748046875,50.00001901171875,54.166748046875Z" fill="#FFFFFF" fill-opacity="1" style="mix-blend-mode:passthrough"/></g></g></svg>