<svg xmlns="http://www.w3.org/2000/svg" xmlns:xlink="http://www.w3.org/1999/xlink" fill="none" version="1.1" width="24" height="24" viewBox="0 0 24 24"><defs><clipPath id="master_svg0_62_577"><rect x="-1" y="-1" width="26" height="26" rx="0"/></clipPath></defs><g clip-path="url(#master_svg0_62_577)"><path d="M10.54289323,17.95710677L11.292893216,18.7071068Q11.43354549,18.847759,11.617316540000001,18.9238796Q11.80108762,19,11.99999994,19Q12.19891232,19,12.3826834,18.9238796Q12.5664545,18.847759,12.7071068,18.7071068L13.4571068,17.95710677Q13.597759,17.81645441,13.6738794,17.6326834Q13.75,17.44891235,13.75,17.25Q13.75,17.1515086,13.7307851,17.05490969Q13.7115703,16.95831078,13.6738794,16.8673166Q13.6361885,16.77632242,13.5814695,16.69442987Q13.5267508,16.61253726,13.4571068,16.54289329Q13.3874629,16.47324938,13.3055701,16.41853052Q13.2236774,16.36381161,13.1326833,16.32612056Q13.0416892,16.2884295,12.9450902,16.26921481Q12.8484914,16.25000006,12.75,16.25L11.25,16.25Q11.05108762,16.25000012,10.86731657,16.32612062Q10.68354553,16.40224099,10.54289323,16.54289323Q10.47324932,16.61253721,10.41853046,16.69442981Q10.363811609999999,16.77632242,10.32612062,16.8673166Q10.28842956,16.95831078,10.26921487,17.05490969Q10.25000012,17.1515086,10.25000006,17.25Q10.25000012,17.3484914,10.26921481,17.44509031Q10.28842956,17.54168922,10.32612062,17.6326834Q10.363811609999999,17.72367758,10.4185304,17.80557019Q10.47324932,17.88746279,10.54289323,17.95710677Z" fill-rule="evenodd" fill="#000000" fill-opacity="1" style="mix-blend-mode:passthrough"/><path d="M14.29303461,12.70696539Q14.15241045,12.56634122,14.07630527,12.38260692Q14.00019997,12.19887258,14.00019997,12Q14.00020003,11.901528291,14.01941091,11.8049487Q14.03862178,11.70836911,14.07630527,11.61739314Q14.11398876,11.52641714,14.1686967,11.44454092Q14.223404649999999,11.3626647,14.29303467,11.29303467Q14.3626647,11.223404649999999,14.44454092,11.16869676Q14.52641714,11.11398882,14.61739314,11.07630533Q14.70836911,11.03862178,14.8049487,11.01941091Q14.901528291,11.00020003,15,11.00019997Q15.19887258,11.00019997,15.38260692,11.07630527Q15.56634122,11.15241045,15.70696539,11.29303461L15.70710677,11.29289323L17.7071068,13.2928932L17.7069654,13.2930347Q17.8475895,13.4336588,17.9236946,13.617393Q17.9998,13.8011274,17.9998,14Q17.9997997,14.0984716,17.9805889,14.1950512Q17.9613779,14.291630699999999,17.9236944,14.3826067Q17.8860106,14.4735827,17.8313029,14.5554588Q17.7765951,14.6373351,17.7069652,14.706965199999999Q17.6373351,14.7765951,17.555459,14.8313029Q17.4735827,14.8860106,17.3826067,14.9236944Q17.2916307,14.9613779,17.1950512,14.9805889Q17.0984716,14.9997997,17,14.9998Q16.8011274,14.9998,16.6173933,14.9236948Q16.4336588,14.8475895,16.2930347,14.7069654L16.2928932,14.7071068L14.29289323,12.70710677L14.29303461,12.70696539Z" fill-rule="evenodd" fill="#000000" fill-opacity="1" style="mix-blend-mode:passthrough"/><path d="M18.08417434,5.11828792Q17.80451015,5,17.5,5L17.5,5.00019997Q17.401528291,5.00020003,17.3049487,5.0194109099999995Q17.20836911,5.03862178,17.11739314,5.07630527Q17.02641714,5.11398876,16.94454092,5.1686967Q16.8626647,5.22340465,16.79303467,5.29303467Q16.72340465,5.3626647,16.66869676,5.44454092Q16.61398882,5.52641714,16.57630533,5.61739314Q16.53862178,5.70836911,16.51941091,5.8049487Q16.50020003,5.901528291,16.50019997,6Q16.50019991,6.14431639,16.54101241,6.2827417Q16.58182478,6.42116702,16.66011769,6.54240006Q16.73841059,6.66363305,16.84779203,6.7577762Q16.95717347,6.85191929,17.08871335,6.91128665Q17.14808065,7.0428265,17.24222377,7.152208Q17.33636691,7.2615893,17.457599938,7.3398823Q17.578832954,7.4181751,17.71725824,7.4589876Q17.85568357,7.4998000000000005,17.99999997,7.4998000000000005Q18.09847164,7.4998000000000005,18.19505119,7.480589Q18.29163074,7.4613782,18.38260674,7.4236947Q18.47358274,7.3860112,18.555459,7.3313033999999995Q18.6373353,7.2765954,18.7069652,7.2069653Q18.7765952,7.1373353,18.8313031,7.0554591Q18.8860111,6.9735828600000005,18.9236946,6.8826068Q18.9613781,6.79163074,18.9805892,6.69505119Q18.9998,6.59847164,18.9998,6.49999997L19,6.5Q19,6.19548956,18.8817118,5.915825099Q18.7677795,5.64645898,18.5606599,5.43933952Q18.3535403,5.2322200500000005,18.08417434,5.11828792ZM17.00019997,6.49999997Q17.00019997,6.51166099,17.00047195,6.52331883Q17,6.51175714,17,6.5L17.00019997,6.5L17.00019997,6.49999997ZM17.476681201,6.99952805Q17.488339014,6.99980003,17.5,6.99980003L17.5,7Q17.488242892,7,17.476681201,6.99952805Z" fill-rule="evenodd" fill="#000000" fill-opacity="1" style="mix-blend-mode:passthrough"/><path d="M19.875502089302064,10.249818679362487Q19.785105089302064,10.122832179362488,19.737654089302062,9.974354579362487Q19.690203089302063,9.825876079362487,19.690201089302064,9.669999979362487Q19.690203089302063,9.471327179362488,19.766161089302063,9.287747779362487Q19.842119089302063,9.104168779362489,19.982492089302063,8.963577579362488L19.982351089302064,8.963436979362488Q21.095785089302062,7.8482874793624875,20.998961089302064,6.275416279362488Q20.902134089302063,4.702545079362488,19.660328089302062,3.7323839793624876Q18.418520089302064,2.762222049362488,16.868959089302063,3.048852579362488Q15.319397089302063,3.3354831793624875,14.506795089302063,4.685659979362487Q14.467142089302063,4.751544879362488,14.417883089302062,4.8105922793624885Q14.368624089302063,4.869639779362488,14.310915089302062,4.920461779362488Q14.253206089302063,4.971284079362488,14.188407089302062,5.012685679362487Q14.123608089302063,5.054087479362488,14.053239089302062,5.085095079362487Q13.982872089302063,5.116103079362488,13.908590089302063,5.135987379362488Q13.834309089302064,5.155872179362488,13.757860089302063,5.164165879362487Q13.681412089302063,5.172459979362488,13.604595089302062,5.168968579362488Q13.527777089302063,5.165476879362488,13.452396089302063,5.150281779362488Q12.000002089302063,4.857508979362487,10.547605589302062,5.150281779362488Q10.472225289302063,5.165477179362488,10.395406889302063,5.168968579362488Q10.318590289302064,5.172460179362488,10.242141889302063,5.164165879362487Q10.165693389302064,5.155872179362488,10.091412689302063,5.135987679362488Q10.017130989302062,5.116103079362488,9.946763189302063,5.085095279362488Q9.876395389302063,5.054087479362488,9.811595089302063,5.012685879362488Q9.746795289302064,4.971284279362488,9.689086989302062,4.9204619793624875Q9.631379289302064,4.869640279362487,9.582120089302062,4.810592579362488Q9.532860889302063,4.751544879362488,9.493208089302062,4.685660279362487Q8.680605989302062,3.335485579362488,7.131044989302063,3.048855579362488Q5.581484689302063,2.762225629362488,4.339678689302064,3.732385079362488Q3.0978720893020633,4.702547479362488,3.001045389302063,6.275418179362488Q2.904218499302063,7.848287979362488,4.017651689302063,8.963437879362488Q4.0741473893020625,9.020020379362489,4.120933889302063,9.084861679362488Q4.1677206893020635,9.149702479362489,4.203609789302063,9.221154579362487Q4.239498689302064,9.292606279362488,4.263578089302063,9.368852479362488Q4.287657389302063,9.445098779362489,4.299315089302063,9.524203179362488Q4.310972789302063,9.603307079362487,4.309912589302063,9.683258379362488Q4.308852589302063,9.763210179362488,4.295101489302063,9.841976979362489Q4.281350289302063,9.920743779362489,4.255257689302063,9.996325379362489Q4.229165389302063,10.071905979362487,4.191394689302063,10.142381579362487Q2.9999999893020632,12.365347979362488,2.999998189302063,14.500000979362488Q2.999998889302063,17.56040697936249,5.499416489302063,19.29170097936249Q7.965636889302063,21.00000297936249,12.000001089302064,21.00000297936249Q16.034364089302063,21.00000297936249,18.500584089302063,19.29170097936249Q21.000002089302065,17.56040697936249,21.000002089302065,14.500000979362488Q21.000002089302065,12.399180979362487,19.875502089302064,10.249818679362487ZM21.893778089302064,9.816790979362487Q23.000002089302065,12.155059979362488,23.000002089302065,14.500000979362488Q23.000002089302065,18.60799297936249,19.639418089302062,20.935800979362487Q16.659395089302063,23.00000297936249,12.000001089302064,23.00000297936249Q7.340606289302063,23.00000297936249,4.360583189302063,20.935800979362487Q0.999999169302063,18.60799297936249,0.999998209302063,14.500000979362488Q0.999999759302063,12.173419979362487,2.112217619302063,9.824453279362487Q0.875908489302063,8.246655779362488,1.004824159302063,6.152529579362488Q1.156980519302063,3.6808768793624878,3.1083899893020632,2.1563368293624876Q5.059799989302062,0.6317990793624877,7.494823589302063,1.0822175693624878Q9.580472089302063,1.468010489362488,10.816523689302063,3.079904679362488Q12.000001089302064,2.927092489362488,13.183480089302064,3.079904679362488Q14.419529089302063,1.468008219362488,16.505178089302063,1.0822145293624876Q18.940203089302063,0.6317950793624878,20.891615089302064,2.1563347593624878Q22.843025089302063,3.680875579362488,22.995180089302064,6.152528679362487Q23.123783089302062,8.241572779362489,21.893778089302064,9.816790979362487Z" fill-rule="evenodd" fill="#000000" fill-opacity="1" style="mix-blend-mode:passthrough"/><path d="M6.513562143956299,6.999708053956299Q6.501804293956299,7.000069873956299,6.489848193956298,6.999948503956299L6.4898502239562985,6.999748523956299L6.500000003956298,6.999800023956299L6.513562143956299,6.999708053956299ZM6.9112866539562985,6.9112866539562985Q6.851919353956299,7.042826573956299,6.757776263956298,7.152207873956299Q6.663633103956299,7.261589273956298,6.542400123956298,7.339882273956299Q6.4211670739562985,7.418175073956299,6.282741753956299,7.458987573956299Q6.144316393956299,7.499799973956299,6.000000000000298,7.499799973956299Q5.902168772956299,7.499799973956299,5.8061932039562985,7.480835773956299Q5.710217653956299,7.461871673956299,5.619738633956299,7.424662873956299Q5.529259653956299,7.387454073956299,5.447709623956299,7.333411973956299Q5.366159613956299,7.279369873956298,5.296632233956299,7.210544873956299Q5.227104903956299,7.141719773956298,5.172237753956299,7.060722573956299Q5.1173706039562985,6.979725363956299,5.079245093956299,6.889628763956299Q5.041119573956299,6.799532173956299,5.0211820639562985,6.703754063956299Q5.001244663956299,6.6079759639562985,5.000251473956299,6.510149833956299L5.000051493956299,6.510151863956299Q4.996927873956299,6.2024745039562985,5.115083393956299,5.919353842956299Q5.228778483956299,5.646921153956299,5.437849883956299,5.437849823956299Q5.646921153956299,5.2287786039562985,5.919353901956299,5.115083453956299Q6.202474563956299,4.996927873956299,6.510151863956299,5.000051553956299L6.510149833956299,5.000251473956299Q6.6079759639562985,5.001244663956299,6.703754063956299,5.021182123956299Q6.799532173956299,5.041119573956299,6.889628763956299,5.0792450339562984Q6.979725363956299,5.117370543956299,7.060722573956299,5.172237693956299Q7.141719773956298,5.227104903956299,7.210544873956299,5.296632233956299Q7.279369873956298,5.366159613956299,7.333411973956299,5.447709623956299Q7.387454073956299,5.529259683956299,7.424662873956299,5.619738663956299Q7.461871673956299,5.710217653956299,7.480835873956298,5.8061932039562985Q7.499799973956299,5.902168772956299,7.499799973956299,6.000000000000298Q7.499799973956299,6.144316393956299,7.458987473956299,6.282741723956299Q7.418175073956299,6.421167013956299,7.339882273956299,6.542400063956299Q7.261589273956298,6.663633103956299,7.152207973956299,6.757776203956299Q7.042826573956299,6.851919353956299,6.9112866539562985,6.9112866539562985ZM6.999748523956299,6.4898500739562985L6.999948443956299,6.489848043956298Q7.000069873956299,6.501801373956299,6.999708053956299,6.513558803956299Q6.999800023956299,6.506779733956299,6.999800023956299,6.500000003956298L6.999748523956299,6.4898500739562985Z" fill-rule="evenodd" fill="#000000" fill-opacity="1" style="mix-blend-mode:passthrough"/><path d="M9.7069654,12.70696533Q9.8475895,12.56634116,9.923694600000001,12.38260686Q9.9997997,12.19887257,9.9998,12Q9.9997997,11.901528291,9.9805889,11.8049487Q9.9613779,11.70836911,9.9236944,11.61739314Q9.8860106,11.52641714,9.8313029,11.44454092Q9.7765951,11.3626647,9.706965199999999,11.29303467Q9.6373351,11.223404649999999,9.555458999999999,11.16869676Q9.4735827,11.11398882,9.3826067,11.07630533Q9.291630699999999,11.03862178,9.1950512,11.01941091Q9.0984716,11.00020003,9,11.00019997Q8.8011274,11.00019997,8.617393,11.07630527Q8.4336587,11.15241051,8.2930346,11.29303467L8.2928932,11.29289323L6.29289323,13.2928932L6.29303467,13.2930346Q6.15241051,13.4336587,6.07630527,13.617393Q6.00019997,13.8011274,6.00019997,14Q6.00020003,14.0984716,6.0194109099999995,14.1950512Q6.03862178,14.291630699999999,6.07630527,14.3826067Q6.11398876,14.4735827,6.1686967,14.5554588Q6.22340465,14.6373351,6.29303467,14.706965199999999Q6.3626647,14.7765951,6.44454092,14.8313029Q6.52641714,14.8860106,6.61739314,14.9236944Q6.70836911,14.9613779,6.8049487,14.9805889Q6.901528291,14.9997997,7,14.9998Q7.19887257,14.9997997,7.38260686,14.923694600000001Q7.56634116,14.8475895,7.70696533,14.7069654L7.70710677,14.7071068L9.7071068,12.70710677L9.7069654,12.70696533Z" fill-rule="evenodd" fill="#000000" fill-opacity="1" style="mix-blend-mode:passthrough"/></g></svg>