<svg xmlns="http://www.w3.org/2000/svg" xmlns:xlink="http://www.w3.org/1999/xlink" fill="none" version="1.1" width="100" height="100" viewBox="0 0 100 100"><defs><clipPath id="master_svg0_24_212"><rect x="0" y="0" width="100" height="100" rx="0"/></clipPath></defs><g clip-path="url(#master_svg0_24_212)"><g><path d="M66.66668301171876,16.66650390625C68.96793401171875,16.66650390625,70.83335101171875,18.53200400625,70.83335101171875,20.833170406249998L70.83335101171875,38.33316790625L92.55543501171876,23.12779620625C93.49794001171875,22.46796270625,94.79710401171874,22.69721220625,95.45668001171875,23.63983770625C95.70168301171876,23.99000310625,95.83335101171875,24.40708680625,95.83335101171875,24.834545106249998L95.83335101171875,75.16524890625C95.83335101171875,76.31566590624999,94.90043601171875,77.24858490625,93.75001501171874,77.24858490625C93.32251701171874,77.24858490625,92.90543401171875,77.11692090625,92.55543501171876,76.87192190625001L70.83335101171875,61.66650390625L70.83335101171875,79.16649990625001C70.83335101171875,81.46775090625,68.96793401171875,83.33316790625,66.66668301171876,83.33316790625L8.33335351171875,83.33316790625C6.03218711171875,83.33316790625,4.16668701171875,81.46775090625,4.16668701171875,79.16649990625001L4.16668701171875,20.833170406249998C4.16668701171875,18.53200400625,6.03218711171875,16.66650390625,8.33335351171875,16.66650390625L66.66668301171876,16.66650390625ZM37.50001901171875,33.33316990625L20.83335301171875,49.99983590625L33.33335301171875,49.99983590625L33.33335301171875,66.66650390625L41.66668701171875,66.66650390625L41.66668701171875,49.99983590625L54.16668701171875,49.99983590625L37.50001901171875,33.33316990625Z" fill="#FFFFFF" fill-opacity="1" style="mix-blend-mode:passthrough"/></g></g></svg>