<svg xmlns="http://www.w3.org/2000/svg" xmlns:xlink="http://www.w3.org/1999/xlink" fill="none" version="1.1" width="733" height="141" viewBox="0 0 733 141"><defs><clipPath id="master_svg0_5_089"><rect x="40" y="0" width="133" height="133" rx="0"/></clipPath></defs><g><g><rect x="0" y="28" width="108" height="84" rx="0" fill="#3D3D3D" fill-opacity="1"/></g><g><rect x="33" y="57" width="108" height="84" rx="0" fill="#3D3D3D" fill-opacity="1"/></g><g><rect x="173" y="57" width="108" height="62" rx="0" fill="#3D3D3D" fill-opacity="1"/></g><g><rect x="227" y="50" width="108" height="62" rx="0" fill="#E93B66" fill-opacity="1"/></g><g><rect x="33" y="37" width="108" height="62" rx="0" fill="#E93B66" fill-opacity="1"/></g><g><rect x="354" y="57" width="108" height="62" rx="0" fill="#3D3D3D" fill-opacity="1"/></g><g><rect x="476" y="57" width="129" height="62" rx="0" fill="#3D3D3D" fill-opacity="1"/></g><g><rect x="108" y="9" width="153" height="62" rx="0" fill="#3D3D3D" fill-opacity="1"/></g><g><rect x="551" y="40" width="153" height="62" rx="0" fill="#3D3D3D" fill-opacity="1"/></g><g><rect x="45" y="40" width="332" height="50" rx="0" fill="#3D3D3D" fill-opacity="1"/></g><g><path d="M205.552001,54.087997C202.224001,62.919998,196.4640002,71.751999,190.57600003,77.32C192.112,79.62400099999999,194.5440001,84.743999,195.3120003,86.984001C196.7840004,85.575996,198.1920004,83.975998,199.6000004,82.183998L199.6000004,115.143997L208.432001,115.143997L208.432001,68.935997C209.584002,66.887997,210.672001,64.839996,211.632002,62.727997L211.632002,68.487999L226.864002,68.487999L226.864002,72.007999L212.720001,72.007999L212.720001,91.463997L226.352001,91.463997C226.032001,93.512001,225.52,95.368,224.624001,97.16C222.768002,95.55999800000001,221.168001,93.767998,219.888,91.783997L212.336,94.023998C214.384001,97.47999999999999,216.688002,100.487999,219.440001,103.047997C216.880001,104.839996,213.360001,106.248001,208.752001,107.208C210.736,109.127998,213.488001,112.903999,214.576,114.952003C219.888,113.351997,223.920002,111.176003,226.99200100000002,108.552002C232.688004,111.751999,239.66400099999998,113.800003,248.048004,114.888C249.200005,112.391998,251.568005,108.615997,253.488003,106.632004C245.168003,105.928001,238.064003,104.391998,232.432003,101.895996C234.16000400000001,98.759998,235.120003,95.239998,235.632004,91.463997L250.800003,91.463997L250.800003,72.007999L236.080002,72.007999L236.080002,68.487999L252.27200299999998,68.487999L252.27200299999998,60.103995999999995L236.080002,60.103995999999995L236.080002,54.791996L226.864002,54.791996L226.864002,60.103995999999995L212.848001,60.103995999999995L214.192001,56.903999L205.552001,54.087997ZM221.104002,79.495998L226.864002,79.495998L226.864002,83.975998L221.104002,83.975998L221.104002,79.495998ZM236.080002,79.495998L241.904003,79.495998L241.904003,83.975998L236.080002,83.975998L236.080002,79.495998ZM262.639999,58.439999L262.639999,81.287998C262.639999,90.311996,262.127998,101.832001,255.152,109.447998C257.199997,110.599998,261.040001,113.736,262.512001,115.463997C266.992004,110.664001,269.42400399999997,103.816002,270.639999,96.84L282.160004,96.84L282.160004,114.183998L291.568,114.183998L291.568,96.84L302.96001,96.84L302.96001,104.519997C302.96001,105.608002,302.512,105.991997,301.36,105.991997C300.20801,105.991997,296.048,106.056,292.91200000000003,105.800003C294.12801,108.167999,295.536,112.199997,295.856,114.695999C301.552,114.760002,305.52,114.568001,308.464,113.096001C311.28,111.688004,312.24001,109.255997,312.24001,104.648003L312.24001,58.439999L262.639999,58.439999ZM271.856003,67.271999L282.160004,67.271999L282.160004,73.095997L271.856003,73.095997L271.856003,67.271999ZM302.96001,67.271999L302.96001,73.095997L291.568,73.095997L291.568,67.271999L302.96001,67.271999ZM271.856003,81.73599999999999L282.160004,81.73599999999999L282.160004,88.071999L271.664001,88.071999C271.79200000000003,85.83200099999999,271.856003,83.720001,271.856003,81.73599999999999ZM302.96001,81.73599999999999L302.96001,88.071999L291.568,88.071999L291.568,81.73599999999999L302.96001,81.73599999999999ZM369.75,90.875Q369.75,94.96875,368.34375,98.40625Q366.9375,101.84375,364.4375,104.34375Q361.9375,106.84375,358.51562,108.234375Q355.09375,109.625,351.0625,109.625L340.0625,109.625Q336.03125,109.625,332.59375,108.234375Q329.15625,106.84375,326.65625,104.34375Q324.15625,101.84375,322.73438,98.40625Q321.3125,94.96875,321.3125,90.875L321.3125,82.3125Q321.3125,78.25,322.73438,74.796875Q324.15625,71.34375,326.65625,68.859375Q329.15625,66.375,332.59375,64.96875Q336.03125,63.5625,340.0625,63.5625L351.0625,63.5625Q355.09375,63.5625,358.51562,64.96875Q361.9375,66.375,364.4375,68.859375Q366.9375,71.34375,368.34375,74.796875Q369.75,78.25,369.75,82.3125L369.75,90.875ZM361.625,82.3125Q361.625,79.90625,360.85938,77.953125Q360.09375,76,358.70312,74.609375Q357.3125,73.21875,355.35938,72.453125Q353.40625,71.6875,351.0625,71.6875L340.0625,71.6875Q337.6875,71.6875,335.73438,72.453125Q333.78125,73.21875,332.375,74.609375Q330.96875,76,330.20312,77.953125Q329.4375,79.90625,329.4375,82.3125L329.4375,90.875Q329.4375,93.28125,330.20312,95.234375Q330.96875,97.1875,332.375,98.578125Q333.78125,99.96875,335.73438,100.734375Q337.6875,101.5,340.0625,101.5L351,101.5Q353.375,101.5,355.32812,100.734375Q357.28125,99.96875,358.6875,98.578125Q360.09375,97.1875,360.85938,95.234375Q361.625,93.28125,361.625,90.875L361.625,82.3125ZM420.84375,95.8125Q420.84375,98.21875,420.23438,100.140625Q419.625,102.0625,418.625,103.53125Q417.625,105,416.28125,106.03125Q414.9375,107.0625,413.5,107.71875Q412.0625,108.375,410.57812,108.6875Q409.09375,109,407.78125,109L376.4375,109L376.4375,100.875L407.78125,100.875Q410.125,100.875,411.42188,99.5Q412.71875,98.125,412.71875,95.8125Q412.71875,94.6875,412.375,93.75Q412.03125,92.8125,411.39062,92.125Q410.75,91.4375,409.82812,91.0625Q408.90625,90.6875,407.78125,90.6875L389.09375,90.6875Q387.125,90.6875,384.84375,89.984375Q382.5625,89.28125,380.60938,87.71875Q378.65625,86.15625,377.35938,83.625Q376.0625,81.09375,376.0625,77.4375Q376.0625,73.78125,377.35938,71.265625Q378.65625,68.75,380.60938,67.171875Q382.5625,65.59375,384.84375,64.890625Q387.125,64.1875,389.09375,64.1875L416.75,64.1875L416.75,72.3125L389.09375,72.3125Q386.78125,72.3125,385.48438,73.71875Q384.1875,75.125,384.1875,77.4375Q384.1875,79.78125,385.48438,81.140625Q386.78125,82.5,389.09375,82.5L407.78125,82.5L407.84375,82.5Q409.15625,82.53125,410.625,82.859375Q412.09375,83.1875,413.54688,83.875Q415,84.5625,416.3125,85.609375Q417.625,86.65625,418.64062,88.125Q419.65625,89.59375,420.25,91.5Q420.84375,93.40625,420.84375,95.8125ZM471.5,104.90625Q471.5,105.78125,471.1875,106.53125Q470.875,107.28125,470.3125,107.828125Q469.75,108.375,469,108.6875Q468.25,109,467.40625,109L449.09375,109Q446.5,109,443.84375,108.4375Q441.1875,107.875,438.70312,106.703125Q436.21875,105.53125,434.03125,103.71875Q431.84375,101.90625,430.20312,99.421875Q428.5625,96.9375,427.625,93.734375Q426.6875,90.53125,426.6875,86.59375L426.6875,64.1875L434.8125,64.1875L434.8125,86.59375Q434.8125,90.03125,435.76562,92.40625Q436.71875,94.78125,438.1875,96.375Q439.65625,97.96875,441.40625,98.875Q443.15625,99.78125,444.73438,100.21875Q446.3125,100.65625,447.51562,100.765625Q448.71875,100.875,449.09375,100.875L463.375,100.875L463.375,64.1875L471.5,64.1875L471.5,104.90625ZM480.12274,56.391998L480.12274,97.608002L486.65076,97.608002C485.24274,102.087997,482.61874,106.248001,477.69073,109C479.29074,110.216003,481.46674,112.711998,482.42676,114.183998C487.09875,111.176003,490.10675,107.208,491.96274,102.856003C494.45874,106.183998,497.27475,110.344002,498.49075,113.031998L504.25076,108.552002C502.71475,105.608002,499.19476,101.127998,496.50674,97.86399800000001L492.85876,100.487999C494.52277,95.55999800000001,494.97076,90.248001,494.97076,85.383999L494.97076,65.927998L488.12274,65.927998L488.12274,85.383999C488.12274,88.96799899999999,487.93076,93.12799799999999,486.77875,97.096001L486.77875,63.688L496.31476,63.688L496.31476,97.22399899999999L503.22675,97.22399899999999L503.22675,56.391998L480.12274,56.391998ZM507.57874,115.208C509.05075,114.056,511.54675,112.968002,523.64276,108.232002C523.2587599999999,106.183998,522.93875,102.344002,523.00275,99.783997L516.02676,102.216003L516.02676,85.767998L518.90674,85.767998C521.59476,97.47999999999999,525.81876,107.592003,533.05075,113.736C534.39474,111.431999,537.21075,108.103996,539.2587599999999,106.503998C533.5627400000001,102.087997,529.65875,94.21600000000001,527.48276,85.767998L537.65875,85.767998L537.65875,77.383999L516.02676,77.383999L516.02676,55.431999000000005L507.51474,55.431999000000005L507.51474,77.383999L504.18674,77.383999L504.18674,85.767998L507.51474,85.767998L507.51474,102.856003C507.51474,105.736,505.72275,107.335999,504.25076,108.103996C505.53076,109.704002,507.06674,113.160004,507.57874,115.208ZM528.0587499999999,56.583996C525.5627400000001,61.831997,521.14676,67.143997,516.66675,70.47199599999999C518.52277,72.071999,521.72275,75.591999,523.1307400000001,77.383999C528.0587499999999,73.095997,533.43475,66.056,536.69876,59.335999L528.0587499999999,56.583996ZM560.0587499999999,64.327999L583.73874,64.327999L583.73874,68.807999L560.0587499999999,68.807999L560.0587499999999,64.327999ZM550.77875,56.263996L550.77875,76.807999L593.65875,76.807999L593.65875,56.263996L550.77875,56.263996ZM543.22675,79.81599800000001L543.22675,88.199997L554.61874,88.199997C553.27475,92.487999,551.73874,96.903999,550.45874,100.040001L582.9707599999999,100.040001C582.3307500000001,103.176003,581.49875,105.031998,580.60275,105.736C579.70676,106.311996,578.8107600000001,106.375999,577.4667400000001,106.375999C575.41876,106.375999,570.61874,106.311996,566.45874,105.928001C568.18674,108.424004,569.53076,112.071999,569.72275,114.760002C574.07477,114.952003,578.29877,114.888,580.9227599999999,114.695999C584.25076,114.503998,586.61874,113.928001,588.79474,111.879997C591.09875,109.704002,592.57074,104.839996,593.65875,95.43199899999999C593.91476,94.21600000000001,594.1067499999999,91.655998,594.1067499999999,91.655998L564.02676,91.655998L565.11475,88.199997L600.89075,88.199997L600.89075,79.81599800000001L543.22675,79.81599800000001ZM625.78674,88.711998L645.81876,88.711998L645.81876,92.807999L625.78674,92.807999L625.78674,88.711998ZM625.65875,76.551998L625.65875,78.66399799999999L647.61075,78.66399799999999L647.61075,77C649.08276,78.599998,650.74677,80.071999,652.41077,81.416L620.2827500000001,81.416C622.13876,79.944,623.9947500000001,78.279999,625.65875,76.551998ZM630.26675,70.983997C632.7627600000001,67.52799999999999,634.8107600000001,63.623997,636.34674,59.399998C638.20276,63.559998,640.31476,67.463997,642.74677,70.983997L630.26675,70.983997ZM620.53876,101.575996C621.37076,102.856003,622.07474,104.584,622.58676,106.056L607.93076,106.056L607.93076,113.863998L664.69876,113.863998L664.69876,106.056L649.53076,106.056L651.96277,101.32L645.81876,100.103996L655.86676,100.103996L655.86676,83.91199900000001C657.65875,85.12799799999999,659.5787700000001,86.152,661.6267399999999,87.112C663.03476,84.68,665.85077,80.96799899999999,667.96277,79.17599899999999C664.25076,77.70399900000001,660.79474,75.719997,657.78674,73.415997C660.41077,71.55999800000001,663.29074,69.32,665.85077,67.079998L659.06674,62.343998C657.40274,64.26399599999999,654.90674,66.56799699999999,652.4747600000001,68.551998L650.36276,66.119999C653.05075,64.327999,656.0587499999999,62.087997,658.8107600000001,59.848L651.83475,54.919998C650.4267600000001,56.583996,648.4427499999999,58.503997999999996,646.39474,60.231998000000004C645.37076,58.375999,644.4747600000001,56.519997000000004,643.70676,54.535999000000004L635.38675,57.031998L636.2827500000001,59.207996L630.13876,56.199996999999996L628.60275,56.583996L610.04276,56.583996L610.04276,64.007999L624.12274,64.007999C622.9707599999999,65.799999,621.69073,67.591999,620.21875,69.25599700000001C618.4907499999999,67.655998,615.86676,65.927998,613.69073,64.711998L608.69876,69.831997C610.68274,71.17599899999999,613.11475,73.031998,614.77875,74.56799699999999C611.70676,77.063999,608.3787500000001,79.112,604.98676,80.584C606.84274,82.248001,609.4667400000001,85.447998,610.68274,87.495998C612.60275,86.535999,614.52277,85.383999,616.3787500000001,84.231998L616.3787500000001,100.103996L625.21075,100.103996L620.53876,101.575996ZM629.3067599999999,106.056L631.93076,105.160004C631.54675,103.688004,630.71475,101.767998,629.6907699999999,100.103996L642.74677,100.103996C642.17075,101.959999,641.21075,104.199997,640.31476,106.056L629.3067599999999,106.056ZM695.09875,85.95999900000001L695.09875,95.048L687.86676,97.799999L693.11475,92.743999C690.74677,90.56800100000001,686.26675,87.879997,682.55475,85.95999900000001L695.09875,85.95999900000001ZM704.63477,85.95999900000001L717.17877,85.95999900000001C714.87476,88.26400000000001,711.86676,90.759998,709.05078,92.87200200000001C707.38678,90.952,705.85077,88.96799899999999,704.63477,86.792L704.63477,85.95999900000001ZM675.5147400000001,57.159996L675.5147400000001,65.607998L712.12274,65.607998L712.05878,67.591999L677.75476,67.591999L677.75476,75.848L711.61078,75.848L711.48273,77.895996L671.93076,77.895996L671.93076,85.95999900000001L680.4427499999999,85.95999900000001L675.00275,90.952C678.65076,93,683.38675,96.13600199999999,685.88275,98.503998C680.18674,100.552002,674.8747599999999,102.472,670.9707599999999,103.688004L676.09076,112.071999L686.45874,107.783997C687.6747399999999,109.896004,688.89075,113.096001,689.40274,115.400002C694.20276,115.400002,697.85074,115.272003,700.79474,114.120003C703.73877,112.903999,704.63477,110.919998,704.63477,106.695999L704.63477,100.552002C709.49878,106.120003,715.64276,110.279999,723.32275,112.903999C724.66675,110.344002,727.41876,106.568001,729.46674,104.648003C724.09076,103.239998,719.35474,101.064003,715.32275,98.312C718.84277,96.13600199999999,722.81073,93.32,726.39478,90.56800100000001L720.12274,85.95999900000001L728.69873,85.95999900000001L728.69873,77.895996L721.40277,77.895996C722.04272,71.30399700000001,722.49072,64.199997,722.55475,57.223999L715.00275,56.839996L713.33875,57.159996L675.5147400000001,57.159996ZM695.09875,104.008003L695.09875,106.440002C695.09875,107.335999,694.71475,107.592003,693.6907699999999,107.592003C692.79474,107.655998,689.59476,107.655998,687.09875,107.528L695.09875,104.008003Z" fill="#FFFFFF" fill-opacity="1"/></g><g clip-path="url(#master_svg0_5_089)"><g><path d="M143.759284453125,48.5450439453125C145.447979953125,48.5450439453125,146.606015653125,49.7995008453125,146.606015653125,51.5364806453125L146.606015653125,67.60328094531249C146.606015653125,69.3402579453125,145.447979953125,70.5947129453125,143.759284453125,70.5947129453125C142.022434453125,70.5947129453125,140.912683363125,69.3402579453125,140.912683363125,67.60328094531249L140.912683363125,51.5364806453125C140.912683363125,49.7995008453125,142.022434453125,48.5450439453125,143.759284453125,48.5450439453125ZM143.759284453125,80.82334094531251C141.684617553125,80.82334094531251,140.044189453125,79.1829219453125,140.044189453125,77.1082549453125C140.044189453125,75.0818729453125,141.684617553125,73.4413149453125,143.759284453125,73.4413149453125C145.834081153125,73.4413149453125,147.474501153125,75.0818729453125,147.474501153125,77.1082549453125C147.474501153125,79.1829219453125,145.834081153125,80.82334094531251,143.759284453125,80.82334094531251Z" fill="#FFFFFF" fill-opacity="1" style="mix-blend-mode:passthrough"/></g><g><path d="M133.36175137109376,56.31298828125C135.09873237109375,56.31298828125,136.20848237109374,57.56744518125,136.20848237109374,59.25614478125L136.20848237109374,69.91915328125C136.20848237109374,77.78371228125,131.35969737109374,80.82328628125,125.47325437109374,80.82328628125C119.53865717109375,80.82328628125,114.68988037109375,77.78371228125,114.68988037109375,69.91915328125L114.68988037109375,59.25614478125C114.68988037109375,57.56744518125,115.79963147109375,56.31298828125,117.53661107109374,56.31298828125C119.22531457109375,56.31298828125,120.38321157109375,57.56744518125,120.38321157109375,59.25614478125L120.38321157109375,69.53319028125C120.38321157109375,73.82722328125,122.19240617109375,75.51592428125,125.47325437109374,75.51592428125C128.70594837109374,75.51592428125,130.51515137109374,73.82722328125,130.51515137109374,69.53319028125L130.51515137109374,59.25614478125C130.51515137109374,57.56744518125,131.67304837109376,56.31298828125,133.36175137109376,56.31298828125Z" fill="#FFFFFF" fill-opacity="1" style="mix-blend-mode:passthrough"/></g><g><path d="M98.54660417695312,62.826644853125C98.54660417695312,64.41878505312499,100.18702407695312,64.997867553125,103.32329537695313,65.721521353125C107.66561537695313,66.782992953125,111.81508437695312,67.892743953125,111.81508437695312,73.248389953125C111.81508437695312,78.459197953125,107.95515737695312,80.823405953125,102.40652637695312,80.823405953125C97.82294987695312,80.823405953125,94.49369217695312,79.231132953125,92.94982784695313,77.397721953125C91.74352094695313,75.95028495312499,91.88835651695312,74.695827953125,93.04625367695313,73.586076953125C94.49369217695312,72.186913953125,95.74814887695312,72.765866953125,96.56849287695313,73.489516953125C97.87109617695313,74.695827953125,99.46336987695312,75.95028495312499,102.55123237695312,75.95028495312499C104.86716037695312,75.95028495312499,106.31473337695313,75.178218953125,106.31473337695313,73.634358953125C106.31473337695313,72.090362953125,104.77073437695313,71.559692953125,100.71782687695313,70.449933953125C96.71319867695313,69.340182953125,93.14281347695312,68.278714953125,93.14281347695312,63.502149153125C93.14281347695312,58.146504353125,97.48512837695313,55.927001953125,102.30997037695312,55.927001953125C105.06014537695313,55.927001953125,108.19641837695312,56.650790213125,110.12637937695312,58.725457153125C110.94658837695313,59.545666953125,111.57381637695312,60.703697653125,110.12637937695312,62.295842153125C108.67881237695312,63.791556353125,107.61733537695312,63.357313653125,106.60414037695313,62.585379553125C105.68750337695312,61.909875353125,104.09523137695312,60.751978353125,101.68274307695313,60.751978353125C100.04232267695312,60.751978353125,98.54660417695312,61.282646653125,98.54660417695312,62.826644853125Z" fill="#FFFFFF" fill-opacity="1" style="mix-blend-mode:passthrough"/></g><g><path d="M77.4814057421875,80.8234286171875C70.5247082421875,80.8234286171875,65.5360107421875,75.4989066171875,65.5360107421875,68.33499361718751C65.5360107421875,61.1226697171875,70.5247082421875,55.8465576171875,77.4814057421875,55.8465576171875C84.4382377421875,55.8465576171875,89.4269347421875,61.1226697171875,89.4269347421875,68.33499361718751C89.4269347421875,75.4989066171875,84.4382377421875,80.8234286171875,77.4814057421875,80.8234286171875ZM77.4814057421875,75.4989066171875C81.5090437421875,75.4989066171875,84.0263367421875,72.4009346171875,84.0263367421875,68.33499361718751C84.0263367421875,64.2689190171875,81.5090437421875,61.1226697171875,77.4814057421875,61.1226697171875C73.4539003421875,61.1226697171875,70.9366092421875,64.2689190171875,70.9366092421875,68.33499361718751C70.9366092421875,72.4009346171875,73.4539003421875,75.4989066171875,77.4814057421875,75.4989066171875Z" fill="#FFFFFF" fill-opacity="1" style="mix-blend-mode:passthrough"/></g><g><path d="M166.34999389648436,66.5000224140625C166.34999389648436,99.5542524140625,139.55422189648436,126.3500244140625,106.49999189648437,126.3500244140625C73.44576989648438,126.3500244140625,46.649993896484375,99.5542524140625,46.649993896484375,66.5000224140625C46.649993896484375,33.445800414062504,73.44576989648438,6.6500244140625,106.49999189648437,6.6500244140625C139.55422189648436,6.6500244140625,166.34999389648436,33.445800414062504,166.34999389648436,66.5000224140625ZM52.634993996484376,66.5000224140625C52.634993996484376,96.2487944140625,76.75122089648437,120.3650244140625,106.49999189648437,120.3650244140625C136.24876389648438,120.3650244140625,160.36499389648438,96.2487944140625,160.36499389648438,66.5000224140625C160.36499389648438,36.7512514140625,136.24876389648438,12.6350245140625,106.49999189648437,12.6350245140625C76.75122089648437,12.6350245140625,52.634993996484376,36.7512514140625,52.634993996484376,66.5000224140625Z" fill="#FFFFFF" fill-opacity="1" style="mix-blend-mode:passthrough"/></g></g></g></svg>