<svg xmlns="http://www.w3.org/2000/svg" xmlns:xlink="http://www.w3.org/1999/xlink" fill="none" version="1.1" width="704" height="132" viewBox="0 0 704 132"><g><g><rect x="0" y="19" width="108" height="84" rx="0" fill="#3D3D3D" fill-opacity="1"/></g><g><rect x="33" y="48" width="108" height="84" rx="0" fill="#3D3D3D" fill-opacity="1"/></g><g><rect x="173" y="48" width="108" height="62" rx="0" fill="#3D3D3D" fill-opacity="1"/></g><g><rect x="227" y="41" width="108" height="62" rx="0" fill="#E93B66" fill-opacity="1"/></g><g><rect x="33" y="28" width="108" height="62" rx="0" fill="#E93B66" fill-opacity="1"/></g><g><rect x="354" y="48" width="108" height="62" rx="0" fill="#3D3D3D" fill-opacity="1"/></g><g><rect x="476" y="48" width="129" height="62" rx="0" fill="#3D3D3D" fill-opacity="1"/></g><g><rect x="108" y="0" width="153" height="62" rx="0" fill="#3D3D3D" fill-opacity="1"/></g><g><rect x="551" y="31" width="153" height="62" rx="0" fill="#3D3D3D" fill-opacity="1"/></g><g><rect x="45" y="31" width="332" height="50" rx="0" fill="#3D3D3D" fill-opacity="1"/></g><g><path d="M208.240002,72.351997L235.376003,72.351997L235.376003,78.751999L208.240002,78.751999L208.240002,72.351997ZM209.71200199999998,91.807999C210.48000100000002,96.351997,210.992001,102.239998,210.992001,105.760002L220.400002,104.608002C220.272001,101.087997,219.504002,95.328003,218.544001,90.912003L209.71200199999998,91.807999ZM222.832001,91.872002C224.624001,96.160004,226.544003,101.856003,227.184002,105.311996L236.27200299999998,103.008003C235.440002,99.487999,233.264004,94.047997,231.344002,89.952L222.832001,91.872002ZM235.824001,91.552002C238.768002,95.968002,242.224003,101.919998,243.504002,105.695999L252.528004,102.239998C250.928001,98.400002,247.216003,92.704002,244.20800400000002,88.543999L235.824001,91.552002ZM199.0880003,89.119999C197.3600001,93.792,194.3520002,98.848,191.4080001,101.536003L200.048,105.760002C203.312,102.239998,206.384001,96.608002,208.048,91.360001L199.0880003,89.119999ZM199.3440008,63.775997L199.3440008,87.327999L244.912003,87.327999L244.912003,63.775997L226.544003,63.775997L226.544003,58.911999L248.816002,58.911999L248.816002,50.271999L226.544003,50.271999L226.544003,45.279999000000004L217.072001,45.279999000000004L217.072001,63.775997L199.3440008,63.775997ZM299.12,51.807998999999995C302.448,54.879997,306.288,59.295998,307.76,62.303997L315.248,57.119999C313.456,54.047996999999995,309.424,49.951996,306.096,47.071999000000005L299.12,51.807998999999995ZM305.52,73.503998C304.176,76,302.512,78.367996,300.72,80.543999C300.144,77.855999,299.696,74.91199900000001,299.248,71.839996L315.18401,71.839996L315.18401,63.071999L298.35201,63.071999C297.90400999999997,57.375999,297.71201,51.487999,297.84000000000003,45.791996L288.11199999999997,45.791996C288.11199999999997,51.423996,288.367996,57.311996,288.816002,63.071999L277.615997,63.071999L277.615997,55.839996C281.264,55.135998,284.848,54.367996000000005,288.11199999999997,53.407997L281.840004,45.471996000000004C275.056,47.647999,265.264,49.567997,256.239998,50.655998C257.264,52.703998999999996,258.480003,56.223999,258.863998,58.463997C261.872002,58.207996,265.00800300000003,57.823997,268.20799999999997,57.375999L268.20799999999997,63.071999L256.944,63.071999L256.944,71.839996L268.20799999999997,71.839996L268.20799999999997,78.944C263.472,79.711998,259.056,80.287998,255.599998,80.73599999999999L257.776001,90.143997L268.20799999999997,88.22399899999999L268.20799999999997,95.391998C268.20799999999997,96.416,267.823997,96.736,266.67199700000003,96.736C265.520004,96.800003,261.807999,96.800003,258.480003,96.608002C259.823997,99.167999,261.360001,103.391998,261.744003,106.015999C266.928001,106.015999,270.959999,105.695999,273.839996,104.223999C276.720001,102.751999,277.615997,100.255997,277.615997,95.519997L277.615997,86.43199899999999L287.472,84.512001L286.832001,76.063999L277.615997,77.535999L277.615997,71.839996L289.648003,71.839996C290.35201,77.792,291.37601,83.360001,292.72,88.287998C288.367996,91.68,283.632004,94.496002,278.768005,96.671997C281.071999,98.783997,283.632004,101.919998,284.975998,104.223999C288.751999,102.176003,292.4,99.872002,295.856,97.248001C298.54401,102.879997,302.06399999999996,106.335999,306.48,106.335999C312.88,106.335999,315.696,103.711998,317.104,92C314.672,90.975998,311.536,88.799999,309.552,86.62400099999999C309.23199999999997,93.856003,308.528,96.863998,307.44,96.863998C306.096,96.863998,304.624,94.559998,303.28,90.720001C307.248,86.688,310.832,82.143997,313.71201,77.023998L305.52,73.503998ZM339.56799,79.711998L359.60001,79.711998L359.60001,83.807999L339.56799,83.807999L339.56799,79.711998ZM339.44,67.551998L339.44,69.66399799999999L361.392,69.66399799999999L361.392,68C362.86400000000003,69.599998,364.528,71.071999,366.192,72.416L334.06399999999996,72.416C335.91999999999996,70.944,337.776,69.279999,339.44,67.551998ZM344.048,61.983997C346.54400999999996,58.528,348.592,54.623997,350.12801,50.399998C351.98401,54.559998,354.09601,58.463997,356.528,61.983997L344.048,61.983997ZM334.32001,92.575996C335.15201,93.856003,335.856,95.584,336.368,97.056L321.71200999999996,97.056L321.71200999999996,104.863998L378.48001,104.863998L378.48001,97.056L363.312,97.056L365.744,92.32L359.60001,91.103996L369.64801,91.103996L369.64801,74.91199900000001C371.44,76.12799799999999,373.36,77.152,375.408,78.112C376.81601,75.68,379.632,71.96799899999999,381.744,70.17599899999999C378.03200000000004,68.70399900000001,374.576,66.719997,371.56799,64.415997C374.192,62.559998,377.07201,60.32,379.632,58.079998L372.84801,53.343998C371.18401,55.263996,368.688,57.567997,366.256,59.551998L364.144,57.119999C366.832,55.327999,369.84000000000003,53.087997,372.59200999999996,50.848L365.616,45.919998C364.20801,47.583996,362.224,49.503997999999996,360.17599,51.231998000000004C359.15201,49.375999,358.256,47.519997000000004,357.48801000000003,45.535999000000004L349.168,48.031998L350.06399999999996,50.207996L343.91999999999996,47.199996999999996L342.384,47.583996L323.82401,47.583996L323.82401,55.007999L337.90400999999997,55.007999C336.752,56.799999,335.472,58.591999,334,60.255997C332.272,58.655998,329.64799,56.927998,327.472,55.711998L322.48,60.831997C324.464,62.175999,326.89599999999996,64.031998,328.56,65.56799699999999C325.48801000000003,68.063999,322.15999999999997,70.112,318.76801,71.584C320.62399,73.248001,323.248,76.447998,324.464,78.495998C326.384,77.535999,328.304,76.383999,330.15999999999997,75.231998L330.15999999999997,91.103996L338.99199999999996,91.103996L334.32001,92.575996ZM343.08799999999997,97.056L345.71200999999996,96.160004C345.328,94.688004,344.496,92.767998,343.472,91.103996L356.528,91.103996C355.952,92.959999,354.99199999999996,95.199997,354.09601,97.056L343.08799999999997,97.056ZM408.88,76.95999900000001L408.88,86.048L401.64799,88.799999L406.89599999999996,83.743999C404.528,81.56800100000001,400.048,78.879997,396.336,76.95999900000001L408.88,76.95999900000001ZM418.416,76.95999900000001L430.96001,76.95999900000001C428.65601000000004,79.26400000000001,425.64801,81.759998,422.832,83.87200200000001C421.168,81.952,419.632,79.96799899999999,418.416,77.792L418.416,76.95999900000001ZM389.29601,48.159996L389.29601,56.607997999999995L425.90400999999997,56.607997999999995L425.84000000000003,58.591999L391.536,58.591999L391.536,66.848L425.392,66.848L425.26401,68.895996L385.71200999999996,68.895996L385.71200999999996,76.95999900000001L394.224,76.95999900000001L388.784,81.952C392.43201,84,397.168,87.13600199999999,399.664,89.503998C393.96799999999996,91.552002,388.65601000000004,93.472,384.752,94.688004L389.87199,103.071999L400.24001,98.783997C401.45599000000004,100.896004,402.672,104.096001,403.18401,106.400002C407.98401,106.400002,411.632,106.272003,414.576,105.120003C417.52,103.903999,418.416,101.919998,418.416,97.695999L418.416,91.552002C423.28,97.120003,429.42401,101.279999,437.10400000000004,103.903999C438.448,101.344002,441.20001,97.568001,443.248,95.648003C437.87201,94.239998,433.13599999999997,92.064003,429.10400000000004,89.312C432.62399,87.13600199999999,436.59200999999996,84.32,440.17599,81.56800100000001L433.90400999999997,76.95999900000001L442.48001,76.95999900000001L442.48001,68.895996L435.18401,68.895996C435.82401,62.303997,436.272,55.199996999999996,436.336,48.223999L428.784,47.839996L427.12,48.159996L389.29601,48.159996ZM408.88,95.008003L408.88,97.440002C408.88,98.335999,408.496,98.592003,407.472,98.592003C406.576,98.655998,403.37601,98.655998,400.88,98.528L408.88,95.008003ZM489.328,78.43199899999999L496.43201,78.43199899999999C495.728,81.183998,494.70401,83.743999,493.48801,86.112C491.82401,83.743999,490.41602,81.183998,489.328,78.43199899999999ZM471.728,47.583996L471.728,105.760002L480.944,105.760002L480.944,101.407997C482.48001,103.008003,483.952,104.863998,484.91199,106.400002C488.23999,104.736,491.18399,102.688004,493.74402,100.32C496.30402,102.624001,499.18399,104.543999,502.448,106.080002C503.85602,103.648003,506.672,99.935997,508.784,98.143997C505.392,96.863998,502.448,95.136002,499.82401,92.959999C503.47202,87.13600199999999,505.776,80.031998,506.86401,71.647999L500.91199,69.91999799999999L499.31201,70.17599899999999L480.944,70.17599899999999L480.944,56.159996L495.79199,56.159996C495.60001,58.848,495.34399,60.32,494.832,60.831997C494.19202,61.407997,493.552,61.471996,492.336,61.471996C490.92801,61.471996,487.728,61.407997,484.336,61.151997C485.48801,63.135998,486.57599,66.399998,486.64001,68.639999C490.48001,68.767998,494.19202,68.767998,496.496,68.575996C498.92801,68.32,501.29599,67.807999,502.95999,65.952C504.56,64.095997,505.26401,59.935997,505.52002,50.911999C505.58401,49.823997,505.64801,47.583996,505.64801,47.583996L471.728,47.583996ZM487.728,93.472C485.80801,95.264,483.504,96.863998,480.944,98.208L480.944,79.839996C482.73599,84.896,484.97601,89.503998,487.728,93.472ZM455.53601,45.279999000000004L455.53601,57.056L448.048,57.056L448.048,66.079998L455.53601,66.079998L455.53601,75.360001L447.216,77.023998L449.13599,86.55999800000001L455.53601,85.023998L455.53601,95.903999C455.53601,96.928001,455.216,97.248001,454.12799,97.248001C453.168,97.248001,449.96799,97.248001,447.34399,97.120003C448.56,99.615997,449.776,103.519997,450.09601,105.952003C455.216,106.015999,458.92801,105.760002,461.616,104.288002C464.23999,102.879997,465.07199,100.512001,465.07199,95.968002L465.07199,82.720001L471.28,81.119999L470.12799,72.031998L465.07199,73.183998L465.07199,66.079998L470.57599,66.079998L470.57599,57.056L465.07199,57.056L465.07199,45.279999000000004L455.53601,45.279999000000004ZM524.07999,68.767998C526.19202,70.43199899999999,528.62399,72.543999,530.86401,74.591999C524.784,77.344002,518.0640000000001,79.391998,511.08801,80.799999C512.81601,82.848,514.92801,86.81599800000001,515.8879999999999,89.37599900000001C518.896,88.672001,521.8399999999999,87.84,524.72,86.879997L524.72,106.015999L534.0640000000001,106.015999L534.0640000000001,103.584L555.63202,103.584L555.63202,106.080002L565.2959900000001,106.080002L565.2959900000001,76.12799799999999L546.86401,76.12799799999999C554.73599,70.62400099999999,561.13599,63.584,565.2959900000001,54.815998L558.76801,51.039997L557.23199,51.487999L540.72,51.487999C541.87201,50.079998,543.02399,48.607997999999995,544.048,47.071999000000005L533.552,44.831997C529.64801,50.848,522.73599,56.927998,512.17599,61.279999C514.28799,62.879997,517.23199,66.463997,518.57599,68.767998C523.8879999999999,66.079998,528.43201,63.135998,532.39999,59.871998L551.0880099999999,59.871998C548.08002,63.647999,544.17599,66.975998,539.63199,69.855999C536.944,67.615997,533.87201,65.247997,531.37601,63.455997L524.07999,68.767998ZM555.63202,95.199997L534.0640000000001,95.199997L534.0640000000001,84.512001L555.63202,84.512001L555.63202,95.199997Z" fill="#FFFFFF" fill-opacity="1"/></g></g></svg>