<svg xmlns="http://www.w3.org/2000/svg" xmlns:xlink="http://www.w3.org/1999/xlink" fill="none" version="1.1" width="594" height="224" viewBox="0 0 594 224"><defs><filter id="master_svg0_34_170" filterUnits="objectBoundingBox" color-interpolation-filters="sRGB" x="-0.036101083032490974" y="-0.08695652173913043" width="1.0722021660649819" height="1.2173913043478262"><feFlood flood-opacity="0" result="BackgroundImageFix"/><feColorMatrix in="SourceAlpha" type="matrix" values="0 0 0 0 0 0 0 0 0 0 0 0 0 0 0 0 0 0 127 0"/><feOffset dy="4" dx="0"/><feGaussianBlur stdDeviation="5"/><feColorMatrix type="matrix" values="0 0 0 0 0.9725490212440491 0 0 0 0 0.8235294222831726 0 0 0 0 0.06666667014360428 0 0 0 1 0"/><feBlend mode="normal" in2="BackgroundImageFix" result="effect1_dropShadow"/><feBlend mode="normal" in="SourceGraphic" in2="effect1_dropShadow" result="shape"/></filter></defs><g filter="url(#master_svg0_34_170)"><path d="M159.35938,58.171875L142.48438,152.67188Q141.92188,155.48438,139.95312,157.52344Q137.98438,159.5625,135.17188,160.125Q132.28906,160.61719,129.72266000000002,159.49219Q127.15625,158.36719,125.67969,155.97656L92.210938,100.992188L58.671875,155.97656Q57.476562,158.01562,55.402344,159.14062Q53.328125,160.26562,50.9375,160.26562Q47.632812,160.26562,45.101562,158.15625Q42.570312,156.04688,42.007812,152.67188L24.9921875,58.171875L43.554688,58.171875L55.648438,124.75781L84.476562,78.773438Q85.671875,76.734375,87.746094,75.609375Q89.820312,74.484375,92.210938,74.484375Q94.601562,74.484375,96.640625,75.609375Q98.679688,76.734375,100.015625,78.773438L128.70312,124.75781L140.79688,58.171875L159.35938,58.171875ZM191,67.382812L172.71875,67.382812L172.71875,50.859375L191,50.859375L191,67.382812ZM191,159L172.71875,159L172.71875,82.992188L191,82.992188L191,159ZM292.74219,159L274.46094,159L274.46094,116.8125Q274.46094,113.226562,273.23046999999997,110.378906Q272,107.53125,269.89062,105.492188Q267.78125,103.453125,264.93359,102.363281Q262.08594,101.273438,258.78125,101.273438L226.78906,101.273438L226.78906,159L208.50781,159L208.50781,92.0625Q208.50781,90.164062,209.21094,88.511719Q209.91406,86.859375,211.17969,85.628906Q212.44531,84.398438,214.13281,83.695312Q215.82031,82.992188,217.71875,82.992188L258.92188,82.992188Q262.36719,82.992188,266.19921999999997,83.765625Q270.03125,84.539062,273.79296999999997,86.261719Q277.55469,87.984375,280.96484,90.621094Q284.375,93.257812,287.01172,97.019531Q289.64844,100.78125,291.19531,105.703125Q292.74219,110.625,292.74219,116.8125L292.74219,159ZM393.00781,159L374.72656,159L374.72656,116.8125Q374.72656,113.226562,373.49609,110.378906Q372.26562,107.53125,370.15625,105.492188Q368.04688,103.453125,365.19922,102.363281Q362.35156,101.273438,359.04688,101.273438L327.05469,101.273438L327.05469,159L308.77344,159L308.77344,92.0625Q308.77344,90.164062,309.47656,88.511719Q310.17969,86.859375,311.44531,85.628906Q312.71094,84.398438,314.39844,83.695312Q316.08594,82.992188,317.98438,82.992188L359.1875,82.992188Q362.63281,82.992188,366.46484,83.765625Q370.29688,84.539062,374.05859,86.261719Q377.82031,87.984375,381.23047,90.621094Q384.64062,93.257812,387.27734,97.019531Q389.91406,100.78125,391.46094,105.703125Q393.00781,110.625,393.00781,116.8125L393.00781,159ZM490.8125,108.164062Q490.8125,111.960938,489.47656,116.35547Q488.14062,120.75,485.15234,124.51172Q482.16406,128.27344,477.34766,130.80469Q472.53125,133.33594,465.64062,133.33594L432.66406,133.33594L432.66406,115.96875L465.64062,115.96875Q469.36719,115.96875,471.40625,113.683594Q473.44531,111.398438,473.44531,108.023438Q473.44531,104.4375,471.16016,102.398438Q468.875,100.359375,465.64062,100.359375L432.66406,100.359375Q428.9375,100.359375,426.89844,102.644531Q424.85938,104.929688,424.85938,108.304688L424.85938,133.82812Q424.85938,137.48438,427.14453,139.52344Q429.42969,141.5625,432.80469,141.5625L465.64062,141.5625L465.64062,159L432.66406,159Q428.86719,159,424.47266,157.66406Q420.07812,156.32812,416.31641,153.33984Q412.55469,150.35156,410.02344,145.53516Q407.49219,140.71875,407.49219,133.82812L407.49219,108.164062Q407.49219,104.367188,408.82812,99.972656Q410.16406,95.578125,413.15234,91.816406Q416.14062,88.054688,420.95703,85.523438Q425.77344,82.992188,432.66406,82.992188L465.64062,82.992188Q469.4375,82.992188,473.83203,84.328125Q478.22656,85.664062,481.98828,88.652344Q485.75,91.640625,488.28125,96.457031Q490.8125,101.273438,490.8125,108.164062ZM569.63281,101.273438L528.5,101.273438Q524.7734399999999,101.273438,522.875,103.136719Q520.9765600000001,105,520.9765600000001,108.585938L520.9765600000001,159L502.69531,159L502.69531,108.585938Q502.69531,103.875,503.89062,100.148438Q505.08594,96.421875,507.08984,93.574219Q509.09375,90.726562,511.69531,88.722656Q514.29688,86.71875,517.14453,85.453125Q519.9921899999999,84.1875,522.91016,83.589844Q525.82812,82.992188,528.35938,82.992188L569.63281,82.992188L569.63281,101.273438Z" fill="#F8D211" fill-opacity="1"/></g></svg>