<svg xmlns="http://www.w3.org/2000/svg" xmlns:xlink="http://www.w3.org/1999/xlink" fill="none" version="1.1" width="776" height="121" viewBox="0 0 776 121"><g><path d="M14,11.5L21.5,0L103,0L103,78L193,78L200,89.5L193,100L81,100L81,76L22,76L22,100L0,100L0,27L22,27L22,54L81,54L81,22L21.5,22L14,11.5ZM246,100L224,100L224,44L197,44L190,34L197,22L224,22L224,11L246,0L246,22L338,22L338,78L352,78L352,22L479,22L479,78L503,78L503,100L419,100L419,92L410,92L410,44L374,44L374,100L278,100L278,44L246,44L246,100ZM602,0L510,0L510,100L602,100L602,78L532,78L532,22L602,22L602,0ZM109.5,33L117,22L183,22L175.5,33L183,44L117,44L109.5,33ZM655,22L677,22L677,78L690,78L690,100L606,100L606,22L628,22L628,78L655,78L655,22ZM754,22L694,22L694,121L716,121L716,44L754,44L754,78L720,78L720,100L776,100L776,22L754,22ZM300,78L316,78L316,44L300,44L300,78ZM432,44L457,44L457,78L432,78L432,44ZM133,61L127,50L193,50L198.5,61L193,72L127,72L133,61Z" fill-rule="evenodd" fill="#FFFFFF" fill-opacity="1"/></g></svg>