<svg xmlns="http://www.w3.org/2000/svg" xmlns:xlink="http://www.w3.org/1999/xlink" fill="none" version="1.1" width="776" height="133" viewBox="0 0 776 133"><g><g><path d="M14,23.5L21.5,12L103,12L103,90L193,90L200,101.5L193,112L81,112L81,88L22,88L22,112L0,112L0,39L22,39L22,66L81,66L81,34L21.5,34L14,23.5ZM246,112L224,112L224,56L197,56L190,46L197,34L224,34L224,23L246,12L246,34L338,34L338,90L352,90L352,34L479,34L479,90L503,90L503,112L419,112L419,104L410,104L410,56L374,56L374,112L278,112L278,56L246,56L246,112ZM602,12L510,12L510,112L602,112L602,90L532,90L532,34L602,34L602,12ZM109.5,45L117,34L183,34L175.5,45L183,56L117,56L109.5,45ZM655,34L677,34L677,90L690,90L690,112L606,112L606,34L628,34L628,90L655,90L655,34ZM754,34L694,34L694,133L716,133L716,56L754,56L754,90L720,90L720,112L776,112L776,34L754,34ZM300,90L316,90L316,56L300,56L300,90ZM432,56L457,56L457,90L432,90L432,56ZM133,73L127,62L193,62L198.5,73L193,84L127,84L133,73Z" fill-rule="evenodd" fill="#E93B66" fill-opacity="1"/></g><g><path d="M14,11.5L21.5,0L103,0L103,78L193,78L200,89.5L193,100L81,100L81,76L22,76L22,100L0,100L0,27L22,27L22,54L81,54L81,22L21.5,22L14,11.5ZM246,100L224,100L224,44L197,44L190,34L197,22L224,22L224,11L246,0L246,22L338,22L338,78L352,78L352,22L479,22L479,78L503,78L503,100L419,100L419,92L410,92L410,44L374,44L374,100L278,100L278,44L246,44L246,100ZM602,0L510,0L510,100L602,100L602,78L532,78L532,22L602,22L602,0ZM109.5,33L117,22L183,22L175.5,33L183,44L117,44L109.5,33ZM655,22L677,22L677,78L690,78L690,100L606,100L606,22L628,22L628,78L655,78L655,22ZM754,22L694,22L694,121L716,121L716,44L754,44L754,78L720,78L720,100L776,100L776,22L754,22ZM300,78L316,78L316,44L300,44L300,78ZM432,44L457,44L457,78L432,78L432,44ZM133,61L127,50L193,50L198.5,61L193,72L127,72L133,61Z" fill-rule="evenodd" fill="#FFFFFF" fill-opacity="1"/></g></g></svg>