<svg xmlns="http://www.w3.org/2000/svg" xmlns:xlink="http://www.w3.org/1999/xlink" fill="none" version="1.1" width="773.3526611328125" height="173" viewBox="0 0 773.3526611328125 173"><g><g transform="matrix(0.7071067690849304,0.7071067690849304,-0.7071067690849304,0.7071067690849304,175.37123330008035,-419.3835853778219)"><rect x="593.9263916015625" y="2" width="60" height="60" rx="0" fill="#EAFFD0" fill-opacity="1"/></g><g transform="matrix(0.7071067690849304,0.7071067690849304,-0.7071067690849304,0.7071067690849304,275.60164555409574,-491.36120179793215)"><rect x="730.92626953125" y="87" width="60" height="60" rx="0" fill="#95E1D3" fill-opacity="1"/></g><g><path d="M92.396034,125.624Q93.980034,130.088,91.784035,133.54401Q89.588028,137,84.908035,137L84.332031,137Q79.508034,137,76.736031,134.192Q73.964035,131.384,72.092033,125.912L44.156033,49.016006L52.220032,49.016006L24.284035,125.912Q22.268034,131.384,19.568035,134.192Q16.868034,137,12.044035,137L11.468035,137Q6.7880349,137,4.5920353,133.54401Q2.3960352,130.088,3.9800353,125.624L35.698284,38.648003Q38.866283,30.296005,48.044033,30.296005L48.332035,30.296005Q57.509785,30.296005,60.677784,38.648003L92.396034,125.624ZM71.948029,90.919998L71.948029,109.64L24.428034,109.64L24.428034,90.919998L71.948029,90.919998ZM106.22003,126.488Q103.34003,122.888,104.49203,119.576Q105.64404,116.264,109.67603,114.968L110.54003,114.68Q113.99603,113.528,116.37203,114.536Q118.74803,115.544,122.34803,118.712Q125.37203,121.304,129.54803,122.168Q133.72403,123.032,137.75603,121.808Q141.78802,120.584,144.66803,117.416Q146.68402,115.256,146.82803,112.736Q146.97203,110.216,144.81203,108.344Q142.65204,106.472,138.33203,105.896L126.38004,104.312Q116.87603,103.01601,111.47603,96.824005Q106.07603,90.632004,106.00403,82.568001Q105.93203,74.503998,111.11603,68.600006Q116.73203,61.976006,124.43604,60.032005Q132.14003,58.088005,139.91603,60.176003Q147.69203,62.264,153.59604,67.016006Q157.19603,70.040001,156.83603,73.352005Q156.47603,76.664001,152.87604,78.824005L152.30003,79.112Q149.13203,80.984001,146.39603,80.552002Q143.66003,80.120003,139.77203,77.671997Q137.32404,76.087997,134.58803,75.656006Q131.85204,75.223999,129.18803,76.160004Q126.52403,77.096001,124.36403,79.544006Q122.78003,81.416,122.70803,83.648003Q122.63603,85.880005,124.14803,87.608002Q125.66003,89.335999,128.68404,89.768005L140.63603,91.352005Q151.72403,92.792007,157.55603,99.416Q163.38803,106.04,163.24402,114.392Q163.10004,122.744,157.62802,128.936Q151.43604,135.84801,141.64403,137.864Q131.85204,139.88,122.06003,136.784Q112.26804,133.688,106.22003,126.488ZM214.10303,118.568Q218.55353,119.288,220.70677,121.448Q222.86002,123.608,222.86002,127.64L222.86002,127.928Q222.86002,132.248,220.41202,134.62399Q217.96402,137,213.64403,136.56799Q198.66803,134.84,191.61203,127.136Q184.55603,119.432,184.55603,106.328L184.55603,45.393501Q184.55603,40.940758,186.86003,38.643501Q189.16403,36.344002,193.62802,36.344002L193.91603,36.344002Q198.38002,36.344002,200.68402,38.639008Q202.98802,40.934006,202.98802,45.382256L202.98802,103.4165Q202.98802,108.344,203.92403,111.368Q204.86002,114.392,207.23602,116.12Q209.61203,117.848,214.10303,118.568ZM214.35052,60.68Q218.53328,60.68,220.69553,62.840004Q222.86002,65,222.86002,69.176003L222.86002,69.32Q222.86002,73.352005,220.69553,75.584Q218.53328,77.816002,214.35052,77.816002L178.81178,77.816002Q174.77078,77.816002,172.53427,75.584Q170.30002,73.352005,170.30002,69.32L170.30002,69.176003Q170.30002,65,172.53427,62.840004Q174.77078,60.68,178.81178,60.68L214.35052,60.68ZM310.26801,127.784Q310.26801,132.248,307.89203,134.62399Q305.51602,137,301.052,137L300.62003,137Q296.15601,137,293.78003,134.62399Q291.40402,132.248,291.40402,127.784L291.40402,112.376L295.43604,99.416L291.40402,85.736008L291.40402,69.896004Q291.40402,65.432007,293.78003,63.056Q296.15601,60.68,300.62003,60.68L301.052,60.68Q305.51602,60.68,307.89203,63.056Q310.26801,65.432007,310.26801,69.896004L310.26801,127.784ZM270.66803,122.024Q277.436,122.024,282.47601,119.144Q287.51602,116.264,290.25201,111.008Q292.98801,105.752,292.98801,98.839996Q292.98801,91.928001,290.25201,86.600006Q287.51602,81.272003,282.47601,78.391998Q277.436,75.512001,270.66803,75.512001Q265.34003,75.512001,260.80402,78.464005Q256.26801,81.416,253.67603,86.744003Q251.08401,92.072006,251.08401,98.839996Q251.08401,105.608,253.67603,110.864Q256.26801,116.12,260.73203,119.072Q265.19601,122.024,270.66803,122.024ZM269.22803,138.584Q258.42801,138.584,249.78802,133.256Q241.14801,127.928,236.25201,118.784Q231.35602,109.64,231.35602,98.839996Q231.35602,88.040001,236.25201,78.896004Q241.14801,69.752007,249.78802,64.424004Q258.42801,59.096001,269.22803,59.096001Q279.88403,59.096001,287.44403,65.216003Q295.00403,71.336006,298.74802,80.552002Q302.492,89.768005,302.492,98.839996Q302.492,107.912,298.74802,117.128Q295.00403,126.344,287.44403,132.464Q279.88403,138.584,269.22803,138.584ZM345.98001,127.928Q345.98001,132.392,343.67603,134.696Q341.37201,137,336.90802,137L336.62003,137Q332.15601,137,329.85202,134.696Q327.54803,132.392,327.54803,127.928L327.54803,69.749756Q327.54803,65.288002,329.85202,62.984001Q332.15601,60.68,336.62003,60.68L336.90802,60.68Q341.37201,60.68,343.67603,62.984001Q345.98001,65.288002,345.98001,69.749756L345.98001,127.928ZM327.54803,113.384Q327.54803,100.568,331.50803,89.408005Q335.46802,78.248001,342.88403,70.544006Q350.30002,62.840004,360.02676,60.248001Q364.41202,59.240005,367.00403,61.472Q369.59601,63.704002,369.59601,68.024002L369.59601,68.312004Q369.59601,72.488007,367.57101,74.720001Q365.54828,76.952003,361.35651,77.671997Q356.06003,78.680008,352.67603,81.272003Q349.29202,83.863998,347.63602,88.544006Q345.98001,93.223999,345.98001,100.424L327.54803,113.384ZM455.564,127.784Q455.564,132.248,453.18799,134.62399Q450.81201,137,446.34802,137L445.91602,137Q441.452,137,439.07599,134.62399Q436.70001,132.248,436.70001,127.784L436.70001,112.376L440.73199,99.416L436.70001,85.736008L436.70001,69.896004Q436.70001,65.432007,439.07599,63.056Q441.452,60.68,445.91602,60.68L446.34802,60.68Q450.81201,60.68,453.18799,63.056Q455.564,65.432007,455.564,69.896004L455.564,127.784ZM415.96402,122.024Q422.73199,122.024,427.772,119.144Q432.81201,116.264,435.548,111.008Q438.284,105.752,438.284,98.839996Q438.284,91.928001,435.548,86.600006Q432.81201,81.272003,427.772,78.391998Q422.73199,75.512001,415.96402,75.512001Q410.63602,75.512001,406.10001,78.464005Q401.564,81.416,398.97202,86.744003Q396.38,92.072006,396.38,98.839996Q396.38,105.608,398.97202,110.864Q401.564,116.12,406.02802,119.072Q410.492,122.024,415.96402,122.024ZM414.52402,138.584Q403.724,138.584,395.08401,133.256Q386.444,127.928,381.548,118.784Q376.65201,109.64,376.65201,98.839996Q376.65201,88.040001,381.548,78.896004Q386.444,69.752007,395.08401,64.424004Q403.724,59.096001,414.52402,59.096001Q425.17999,59.096001,432.73999,65.216003Q440.29999,71.336006,444.04401,80.552002Q447.78802,89.768005,447.78802,98.839996Q447.78802,107.912,444.04401,117.128Q440.29999,126.344,432.73999,132.464Q425.17999,138.584,414.52402,138.584ZM524.10803,138.584Q509.13202,138.584,496.82001,131.168Q484.508,123.752,477.52402,111.152Q470.54001,98.552002,470.54001,83.576004Q470.54001,68.744003,477.52402,56.144005Q484.508,43.544006,496.82001,36.128006Q509.13202,28.712006,524.10803,28.712006Q534.62,28.712006,543.54797,32.456001Q552.47601,36.200005,559.82001,43.112007Q563.276,46.424004,562.98804,49.808006Q562.70001,53.192001,558.95599,56.216003L558.52399,56.504005Q555.06799,59.240005,551.90002,58.952003Q548.73199,58.664001,545.276,55.496002Q540.66803,51.176003,535.62799,49.088005Q530.58801,47.000008,524.10803,47.000008Q513.88403,47.000008,506.03601,51.68Q498.18802,56.360001,493.79602,64.712006Q489.40402,73.064003,489.40402,83.576004Q489.40402,94.232002,493.724,102.584Q498.04401,110.936,505.96402,115.616Q513.88403,120.29601,524.10803,120.29601L524.10803,138.584ZM545.41998,112.232Q548.87598,109.208,551.97198,108.848Q555.06799,108.488,558.52399,111.08L558.95599,111.368Q562.84399,114.248,563.20398,117.776Q563.56403,121.304,560.10803,124.472Q552.90802,130.952,543.69202,134.76801Q534.47601,138.584,524.10803,138.584Q509.13202,138.584,496.82001,131.168Q484.508,123.752,477.52402,111.152Q470.54001,98.552002,470.54001,83.576004Q470.54001,68.744003,477.52402,56.144005Q484.508,43.544006,496.82001,36.128006Q509.13202,28.712006,524.10803,28.712006L524.10803,47.000008Q513.88403,47.000008,506.03601,51.68Q498.18802,56.360001,493.79602,64.712006Q489.40402,73.064003,489.40402,83.576004Q489.40402,94.232002,493.724,102.584Q498.04401,110.936,505.96402,115.616Q513.88403,120.29601,524.10803,120.29601Q530.44403,120.29601,535.70001,118.208Q540.95599,116.12,545.41998,112.232ZM630.09204,69.73175Q630.09204,65.351006,632.43201,63.015503Q634.77203,60.68,639.16406,60.68L639.45203,60.68Q643.84399,60.68,646.18402,63.015503Q648.52405,65.351006,648.52405,69.73175L648.52405,99.272003Q648.52405,110.80775,644.06006,119.729Q639.59601,128.64799,631.46002,133.616Q623.32404,138.584,612.95605,138.584Q602.30005,138.584,594.66803,133.54401Q587.03601,128.504,583.00403,119.576Q578.97205,110.648,578.97205,99.272003L578.97205,69.73175Q578.97205,65.351006,581.31201,63.015503Q583.65204,60.68,588.04401,60.68L588.33203,60.68Q592.724,60.68,595.06403,63.015503Q597.40405,65.351006,597.40405,69.73175L597.40405,99.272003Q597.40405,107.048,598.98804,111.728Q600.57202,116.408,603.95605,118.568Q607.34003,120.728,613.02802,120.728Q618.716,120.728,622.53204,118.496Q626.34802,116.264,628.22003,111.512Q630.09204,106.76,630.09204,99.272003L630.09204,69.73175ZM704.97192,75.656006Q698.20392,75.656006,693.16394,78.536003Q688.12396,81.416,685.38794,86.671997Q682.65192,91.928001,682.65192,98.839996Q682.65192,105.752,685.38794,111.08Q688.12396,116.408,693.16394,119.288Q698.20392,122.168,704.97192,122.168Q710.29993,122.168,714.83594,119.216Q719.37195,116.264,721.96393,110.936Q724.55591,105.608,724.55591,98.839996Q724.55591,92.072006,721.96393,86.816002Q719.37195,81.559998,714.90796,78.608002Q710.44397,75.656006,704.97192,75.656006ZM706.41193,59.096001Q717.21191,59.096001,725.85193,64.424004Q734.49194,69.752007,739.38794,78.896004Q744.28394,88.040001,744.28394,98.839996Q744.28394,109.64,739.38794,118.784Q734.49194,127.928,725.85193,133.256Q717.21191,138.584,706.41193,138.584Q695.75592,138.584,688.19592,132.464Q680.63593,126.344,676.89197,117.128Q673.14795,107.912,673.14795,98.839996Q673.14795,89.768005,676.89197,80.552002Q680.63593,71.336006,688.19592,65.216003Q695.75592,59.096001,706.41193,59.096001ZM684.23596,160.75999Q684.23596,165.15199,681.89594,167.492Q679.55591,169.832,675.16394,169.832L674.87592,169.832Q670.48395,169.832,668.14392,167.492Q665.80396,165.15199,665.80396,160.75999L665.80396,69.752007Q665.80396,65.360001,668.14392,63.020004Q670.48395,60.68,674.87592,60.68L675.16394,60.68Q679.55591,60.68,681.89594,63.020004Q684.23596,65.360001,684.23596,69.752007L684.23596,85.304001L680.20392,98.264L684.23596,111.944L684.23596,160.75999Z" fill="#F38181" fill-opacity="1"/></g></g></svg>