<svg xmlns="http://www.w3.org/2000/svg" xmlns:xlink="http://www.w3.org/1999/xlink" fill="none" version="1.1" width="2362" height="392" viewBox="0 0 2362 392"><g><g transform="matrix(-1,0,0,1,3368,0)"><g><rect x="2039" y="83" width="170" height="153" rx="0" fill="#E93B66" fill-opacity="1"/></g><g><rect x="2240" y="117" width="140" height="125" rx="0" fill="#E93B66" fill-opacity="1"/></g><g><rect x="2419" y="152" width="459" height="94" rx="0" fill="#E93B66" fill-opacity="1"/></g><g><rect x="2909" y="75" width="459" height="94" rx="0" fill="#E93B66" fill-opacity="1"/></g><g><rect x="1733" y="262" width="417" height="11" rx="0" fill="#E93B66" fill-opacity="1"/></g><g><rect x="2960" y="49" width="221" height="73" rx="0" fill="#3D3D3D" fill-opacity="1"/></g><g><rect x="2774" y="86" width="297" height="146" rx="0" fill="#3D3D3D" fill-opacity="1"/></g><g><rect x="2581" y="159" width="297" height="48" rx="0" fill="#3D3D3D" fill-opacity="1"/></g><g><rect x="2340" y="62" width="59" height="60" rx="0" fill="#3D3D3D" fill-opacity="1"/></g><g><rect x="1815" y="45" width="59" height="60" rx="0" fill="#3D3D3D" fill-opacity="1"/></g><g><rect x="1989" y="122" width="501" height="60" rx="0" fill="#3D3D3D" fill-opacity="1"/></g><g><rect x="2370" y="232" width="120" height="42" rx="0" fill="#3D3D3D" fill-opacity="1"/></g><g><rect x="2473" y="211" width="220" height="42" rx="0" fill="#3D3D3D" fill-opacity="1"/></g><g><rect x="2150" y="213" width="73" height="168" rx="0" fill="#3D3D3D" fill-opacity="1"/></g><g><rect x="2058" y="99" width="262" height="168" rx="0" fill="#3D3D3D" fill-opacity="1"/></g><g><rect x="1684" y="174" width="262" height="32" rx="0" fill="#3D3D3D" fill-opacity="1"/></g><g><rect x="2603" y="152" width="58" height="168" rx="0" fill="#3D3D3D" fill-opacity="1"/></g><g><rect x="3123" y="190" width="181" height="65" rx="0" fill="#3D3D3D" fill-opacity="1"/></g><g><rect x="2730" y="209" width="181" height="65" rx="0" fill="#3D3D3D" fill-opacity="1"/></g></g><g><g><rect x="1033" y="94" width="170" height="153" rx="0" fill="#E93B66" fill-opacity="1"/></g><g><rect x="1234" y="128" width="140" height="125" rx="0" fill="#E93B66" fill-opacity="1"/></g><g><rect x="1413" y="163" width="459" height="94" rx="0" fill="#E93B66" fill-opacity="1"/></g><g><rect x="1903" y="86" width="459" height="94" rx="0" fill="#E93B66" fill-opacity="1"/></g><g><rect x="727" y="273" width="417" height="11" rx="0" fill="#E93B66" fill-opacity="1"/></g><g><rect x="1954" y="60" width="221" height="73" rx="0" fill="#3D3D3D" fill-opacity="1"/></g><g><rect x="1768" y="97" width="297" height="146" rx="0" fill="#3D3D3D" fill-opacity="1"/></g><g><rect x="1575" y="170" width="297" height="48" rx="0" fill="#3D3D3D" fill-opacity="1"/></g><g><rect x="1334" y="73" width="59" height="60" rx="0" fill="#3D3D3D" fill-opacity="1"/></g><g><rect x="1059" y="0" width="59" height="60" rx="0" fill="#3D3D3D" fill-opacity="1"/></g><g><rect x="983" y="133" width="501" height="60" rx="0" fill="#3D3D3D" fill-opacity="1"/></g><g><rect x="1364" y="243" width="120" height="42" rx="0" fill="#3D3D3D" fill-opacity="1"/></g><g><rect x="1467" y="222" width="220" height="42" rx="0" fill="#3D3D3D" fill-opacity="1"/></g><g><rect x="1144" y="224" width="73" height="168" rx="0" fill="#3D3D3D" fill-opacity="1"/></g><g><rect x="678" y="185" width="262" height="32" rx="0" fill="#3D3D3D" fill-opacity="1"/></g><g><rect x="1597" y="163" width="58" height="168" rx="0" fill="#3D3D3D" fill-opacity="1"/></g><g><rect x="2117" y="201" width="181" height="65" rx="0" fill="#3D3D3D" fill-opacity="1"/></g><g><rect x="1724" y="220" width="181" height="65" rx="0" fill="#3D3D3D" fill-opacity="1"/></g></g></g></svg>