<svg xmlns="http://www.w3.org/2000/svg" xmlns:xlink="http://www.w3.org/1999/xlink" fill="none" version="1.1" width="2362" height="378.8944091796875" viewBox="0 0 2362 378.8944091796875"><g><g transform="matrix(-1,0,0,1,4487.24072265625,0)"><g><rect x="3158.24072265625" y="110.03764343261719" width="170" height="153" rx="0" fill="#E93B66" fill-opacity="1"/></g><g><rect x="3359.24072265625" y="144.0376434326172" width="140" height="125" rx="0" fill="#E93B66" fill-opacity="1"/></g><g><rect x="3538.24072265625" y="179.0376434326172" width="459" height="94" rx="0" fill="#E93B66" fill-opacity="1"/></g><g><rect x="4028.24072265625" y="102.03764343261719" width="459" height="94" rx="0" fill="#E93B66" fill-opacity="1"/></g><g><rect x="2852.2408447265625" y="289.0376281738281" width="417" height="11" rx="0" fill="#E93B66" fill-opacity="1"/></g><g><rect x="4079.24072265625" y="76.03764343261719" width="221" height="73" rx="0" fill="#3D3D3D" fill-opacity="1"/></g><g><rect x="3893.24072265625" y="113.03764343261719" width="297" height="146" rx="0" fill="#3D3D3D" fill-opacity="1"/></g><g><rect x="3700.24072265625" y="186.0376434326172" width="297" height="48" rx="0" fill="#3D3D3D" fill-opacity="1"/></g><g><rect x="3459.24072265625" y="89.03764343261719" width="59" height="60" rx="0" fill="#3D3D3D" fill-opacity="1"/></g><g><rect x="2934.2407836914062" y="72.03764343261719" width="59" height="60" rx="0" fill="#3D3D3D" fill-opacity="1"/></g><g><rect x="3108.24072265625" y="149.0376434326172" width="501" height="60" rx="0" fill="#3D3D3D" fill-opacity="1"/></g><g><rect x="3489.24072265625" y="259.0376281738281" width="120" height="42" rx="0" fill="#3D3D3D" fill-opacity="1"/></g><g><rect x="3592.24072265625" y="238.0376434326172" width="220" height="42" rx="0" fill="#3D3D3D" fill-opacity="1"/></g><g><rect x="3255.24072265625" y="186.0380859375" width="73" height="168" rx="0" fill="#3D3D3D" fill-opacity="1"/></g><g><rect x="3177.24072265625" y="126.03764343261719" width="262" height="168" rx="0" fill="#3D3D3D" fill-opacity="1"/></g><g transform="matrix(0.7071067690849304,0.7071067690849304,0.7071067690849304,-0.7071067690849304,606.3978134661756,-1463.9737005173683)"><rect x="2884.8841552734375" y="337.6750793457031" width="57.99999237060547" height="475.78436279296875" rx="0" fill-opacity="0" stroke-opacity="1" stroke="#FFFFFF" fill="none" stroke-width="1"/></g><g transform="matrix(0.7071067690849304,-0.7071067094802856,-0.7071067094802856,-0.7071067690849304,1004.0619743857787,2424.019759435698)"><rect x="3014.1599731445312" y="171.45208740234375" width="59.0001335144043" height="183.46966552734375" rx="0" fill="#FFFFFF" fill-opacity="1"/></g><g transform="matrix(0.7071067690849304,-0.7071067094802856,-0.7071067094802856,-0.7071067690849304,939.5469885537459,2268.2668838202226)"><rect x="2460.232421875" y="309.658447265625" width="8.497149467468262" height="306.3355712890625" rx="0" fill="#FFFFFF" fill-opacity="1"/></g><g transform="matrix(0.7071067690849304,-0.7071067094802856,-0.7071067094802856,-0.7071067690849304,1019.0781590706974,2460.2720681781284)"><rect x="2843.5213623046875" y="263.3690185546875" width="59.00013732910156" height="306.3356018066406" rx="0" fill="#FFFFFF" fill-opacity="1"/></g><g transform="matrix(0.7071067690849304,-0.7071067094802856,-0.7071067094802856,-0.7071067690849304,947.219113958352,2286.7890136850256)"><rect x="2586.0333251953125" y="268.4000244140625" width="59.00013732910156" height="306.3356018066406" rx="0" fill="#FFFFFF" fill-opacity="1"/></g><g><rect x="2803.2408447265625" y="201.0376434326172" width="262" height="32" rx="0" fill="#3D3D3D" fill-opacity="1"/></g><g><rect x="3722.24072265625" y="179.0376434326172" width="58" height="168" rx="0" fill="#3D3D3D" fill-opacity="1"/></g><g><rect x="4242.24072265625" y="217.0376434326172" width="181" height="65" rx="0" fill="#3D3D3D" fill-opacity="1"/></g><g><rect x="3849.24072265625" y="236.0376434326172" width="181" height="65" rx="0" fill="#3D3D3D" fill-opacity="1"/></g></g><g><g><rect x="1033" y="121.03764343261719" width="170" height="153" rx="0" fill="#E93B66" fill-opacity="1"/></g><g><rect x="1234" y="155.0376434326172" width="140" height="125" rx="0" fill="#E93B66" fill-opacity="1"/></g><g><rect x="1413" y="190.0376434326172" width="459" height="94" rx="0" fill="#E93B66" fill-opacity="1"/></g><g><rect x="1903" y="113.03764343261719" width="459" height="94" rx="0" fill="#E93B66" fill-opacity="1"/></g><g><rect x="727" y="300.0376434326172" width="417" height="11" rx="0" fill="#E93B66" fill-opacity="1"/></g><g><rect x="1954" y="87.03764343261719" width="221" height="73" rx="0" fill="#3D3D3D" fill-opacity="1"/></g><g><rect x="1768" y="124.03764343261719" width="297" height="146" rx="0" fill="#3D3D3D" fill-opacity="1"/></g><g><rect x="1575" y="197.0376434326172" width="297" height="48" rx="0" fill="#3D3D3D" fill-opacity="1"/></g><g><rect x="1334" y="100.03764343261719" width="59" height="60" rx="0" fill="#3D3D3D" fill-opacity="1"/></g><g><rect x="1059" y="27.037643432617188" width="59" height="60" rx="0" fill="#3D3D3D" fill-opacity="1"/></g><g><rect x="983" y="160.0376434326172" width="501" height="60" rx="0" fill="#3D3D3D" fill-opacity="1"/></g><g><rect x="1364" y="270.0376434326172" width="120" height="42" rx="0" fill="#3D3D3D" fill-opacity="1"/></g><g><rect x="1467" y="249.0376434326172" width="220" height="42" rx="0" fill="#3D3D3D" fill-opacity="1"/></g><g><rect x="1055" y="175.0381317138672" width="73" height="168" rx="0" fill="#3D3D3D" fill-opacity="1"/></g><g><rect x="678" y="212.0376434326172" width="262" height="32" rx="0" fill="#3D3D3D" fill-opacity="1"/></g><g><rect x="1597" y="190.0376434326172" width="58" height="168" rx="0" fill="#3D3D3D" fill-opacity="1"/></g><g><rect x="2117" y="228.0376434326172" width="181" height="65" rx="0" fill="#3D3D3D" fill-opacity="1"/></g><g><rect x="1724" y="247.0376434326172" width="181" height="65" rx="0" fill="#3D3D3D" fill-opacity="1"/></g></g><g><g><path d="M638,312.0381164550781L643.6119404,318.1631164550781L638,324.0381164550781L648.38806,324.0381164550781L654,318.1631164550781L648.38806,312.0381164550781L638,312.0381164550781Z" fill="#FFFFFF" fill-opacity="1"/></g><g><path d="M655,312.0381164550781L660.6119404,318.1631164550781L655,324.0381164550781L665.38806,324.0381164550781L671,318.1631164550781L665.38806,312.0381164550781L655,312.0381164550781Z" fill="#FFFFFF" fill-opacity="1"/></g><g><path d="M673,312.0381164550781L678.6119404,318.1631164550781L673,324.0381164550781L683.38806,324.0381164550781L689,318.1631164550781L683.38806,312.0381164550781L673,312.0381164550781Z" fill="#FFFFFF" fill-opacity="1"/></g><g><path d="M690,312.0381164550781L695.6119404,318.1631164550781L690,324.0381164550781L700.38806,324.0381164550781L706,318.1631164550781L700.38806,312.0381164550781L690,312.0381164550781Z" fill="#FFFFFF" fill-opacity="1"/></g></g></g></svg>