<svg xmlns="http://www.w3.org/2000/svg" xmlns:xlink="http://www.w3.org/1999/xlink" fill="none" version="1.1" width="2362" height="3288" viewBox="0 0 2362 3288"><defs><clipPath id="master_svg0_17_137"><rect x="0" y="0" width="2362" height="3288" rx="0"/></clipPath></defs><g clip-path="url(#master_svg0_17_137)"><g transform="matrix(0.7071067690849304,-0.7071067094802856,-0.7071067094802856,-0.7071067690849304,717.5844777172606,1732.4022764121182)"><rect x="389.22216796875" y="853.5966796875" width="59.00012969970703" height="24.225635528564453" rx="0" fill="#FFFFFF" fill-opacity="1"/></g><g transform="matrix(1,-4.2146844236867764e-8,-4.2146844236867764e-8,-1,0.00007299833418983326,3464.000034573048)"><rect x="820.2998046875" y="1732" width="461.00225830078125" height="78.53595733642578" rx="0" fill="#FFFFFF" fill-opacity="1"/></g><g transform="matrix(1,4.214684778958144e-8,4.214684778958144e-8,-1,-0.00009531660884931625,4523.071759178459)"><rect x="431" y="2261.535888671875" width="461.00225830078125" height="78.53595733642578" rx="0" fill="#FFFFFF" fill-opacity="1"/></g><g transform="matrix(0.7071067690849304,-0.7071067094802856,-0.7071067094802856,-0.7071067690849304,699.1928346742352,1688.0009288827569)"><rect x="325.22265625" y="854.096435546875" width="147.03057861328125" height="24.22563362121582" rx="0" fill="#FFFFFF" fill-opacity="1"/></g><g transform="matrix(1,-4.2146844236867764e-8,-4.2146844236867764e-8,-1,0.00007528473884121922,3572.4971161682665)"><rect x="1088" y="1786.24853515625" width="1148.8316650390625" height="81.2484359741211" rx="0" fill="#FFFFFF" fill-opacity="1"/></g><g transform="matrix(1,4.214684778958144e-8,4.214684778958144e-8,-1,-0.00012197719632922599,5788.2001830266945)"><rect x="291.5" y="2894.10009765625" width="1148.8316650390625" height="81.2484359741211" rx="0" fill="#FFFFFF" fill-opacity="1"/></g><g transform="matrix(0.7071067690849304,-0.7071067094802856,-0.7071067094802856,-0.7071067690849304,711.4911014055542,1717.6915971661074)"><rect x="187.1298828125" y="928.688720703125" width="163.78343200683594" height="24.22563362121582" rx="0" fill="#FFFFFF" fill-opacity="1"/></g><g transform="matrix(1,-4.2146844236867764e-8,-4.2146844236867764e-8,-1,0.0000534112108852014,2534.5295458203655)"><rect x="114" y="1267.2647705078125" width="1279.73095703125" height="41.264705657958984" rx="0" fill="#FFFFFF" fill-opacity="1"/></g><g transform="matrix(-1,0,0,1,652,0)"><rect x="326" y="1949.968994140625" width="181" height="65" rx="0" fill="#3D3D3D" fill-opacity="1"/></g><g><rect x="974" y="1565" width="221" height="73" rx="0" fill="#3D3D3D" fill-opacity="1"/></g><g><rect x="1662" y="2250" width="181" height="65" rx="0" fill="#3D3D3D" fill-opacity="1"/></g><g><g><path d="M1530,1128L1540.38806,1128L1546,1122.125L1540.38806,1116L1530,1116L1535.6119404,1122.125L1530,1128Z" fill="#FFFFFF" fill-opacity="1"/></g><g><path d="M1547,1128L1557.38806,1128L1563,1122.125L1557.38806,1116L1547,1116L1552.6119404,1122.125L1547,1128Z" fill="#FFFFFF" fill-opacity="1"/></g><g><path d="M1565,1128L1575.38806,1128L1581,1122.125L1575.38806,1116L1565,1116L1570.6119404,1122.125L1565,1128Z" fill="#FFFFFF" fill-opacity="1"/></g><g><path d="M1582,1128L1592.38806,1128L1598,1122.125L1592.38806,1116L1582,1116L1587.6119404,1122.125L1582,1128Z" fill="#FFFFFF" fill-opacity="1"/></g></g><g><g><path d="M145,1746L155.38806,1746L161,1740.125L155.38806,1734L145,1734L150.6119404,1740.125L145,1746Z" fill="#FFFFFF" fill-opacity="1"/></g><g><path d="M162,1746L172.38806,1746L178,1740.125L172.38806,1734L162,1734L167.6119404,1740.125L162,1746Z" fill="#FFFFFF" fill-opacity="1"/></g><g><path d="M180,1746L190.38806,1746L196,1740.125L190.38806,1734L180,1734L185.6119404,1740.125L180,1746Z" fill="#FFFFFF" fill-opacity="1"/></g><g><path d="M197,1746L207.38806,1746L213,1740.125L207.38806,1734L197,1734L202.6119404,1740.125L197,1746Z" fill="#FFFFFF" fill-opacity="1"/></g></g></g></svg>