<svg xmlns="http://www.w3.org/2000/svg" xmlns:xlink="http://www.w3.org/1999/xlink" fill="none" version="1.1" width="2362" height="3288" viewBox="0 0 2362 3288"><defs><clipPath id="master_svg0_9_356"><rect x="0" y="0" width="2362" height="3288" rx="0"/></clipPath></defs><g style="opacity:0.5;" clip-path="url(#master_svg0_9_356)"><g><path d="M1008,1670.4757L2082.4492,2744.9248L3504.9248,1322.4491L2430.4755999999998,248L1458,1220.4756499999999L1458,1783L1277,1783L1277,1401.4757L1008,1670.4757Z" fill-rule="evenodd" fill="#3D3D3D" fill-opacity="1"/></g><g transform="matrix(-1,0,0,1,2820,0)"><rect x="1410" y="1842.968994140625" width="170" height="153" rx="0" fill="#E93B66" fill-opacity="1"/></g><g transform="matrix(-1,0,0,1,2418,0)"><rect x="1209" y="1876.968994140625" width="140" height="125" rx="0" fill="#E93B66" fill-opacity="1"/></g><g transform="matrix(-1,0,0,1,2060,0)"><rect x="1030" y="1911.968994140625" width="459" height="94" rx="0" fill="#E93B66" fill-opacity="1"/></g><g transform="matrix(-1,0,0,1,2036,0)"><rect x="1018" y="2844" width="182" height="94" rx="0" fill="#E93B66" fill-opacity="1"/></g><g transform="matrix(-1,0,0,1,3434,0)"><rect x="1717" y="3041" width="179" height="94" rx="0" fill="#E93B66" fill-opacity="1"/></g><g transform="matrix(-1,0,0,1,1080,0)"><rect x="540" y="1834.968994140625" width="459" height="94" rx="0" fill="#E93B66" fill-opacity="1"/></g><g transform="matrix(-1,0,0,1,3076,0)"><rect x="1538" y="2426" width="459" height="94" rx="0" fill="#E93B66" fill-opacity="1"/></g><g transform="matrix(-1,0,0,1,2590,0)"><rect x="1295" y="2184" width="37" height="555" rx="0" fill="#E93B66" fill-opacity="1"/></g><g transform="matrix(-1,0,0,1,3614,0)"><rect x="1807" y="2023" width="417" height="11" rx="0" fill="#E93B66" fill-opacity="1"/></g><g transform="matrix(-1,0,0,1,962,0)"><rect x="481" y="1835" width="221" height="73" rx="0" fill="#3D3D3D" fill-opacity="1"/></g><g transform="matrix(-1,0,0,1,2958,0)"><rect x="1479" y="2426" width="221" height="73" rx="0" fill="#3D3D3D" fill-opacity="1"/></g><g transform="matrix(-1,0,0,1,3218,0)"><rect x="1609" y="2645" width="221" height="73" rx="0" fill="#3D3D3D" fill-opacity="1"/></g><g transform="matrix(-1,0,0,1,1258,0)"><rect x="629" y="1266" width="297" height="146" rx="0" fill="#3D3D3D" fill-opacity="1"/></g><g transform="matrix(-1,0,0,1,1678,0)"><rect x="839" y="1388" width="297" height="48" rx="0" fill="#3D3D3D" fill-opacity="1"/></g><g transform="matrix(-1,0,0,1,2218,0)"><rect x="1109" y="1821.968994140625" width="59" height="60" rx="0" fill="#3D3D3D" fill-opacity="1"/></g><g transform="matrix(-1,0,0,1,3268,0)"><rect x="1634" y="1804.968994140625" width="59" height="60" rx="0" fill="#3D3D3D" fill-opacity="1"/></g><g transform="matrix(-1,0,0,1,2920,0)"><rect x="1460" y="1881.968994140625" width="501" height="60" rx="0" fill="#3D3D3D" fill-opacity="1"/><rect x="1460.5" y="1882.468994140625" width="500" height="59" rx="0" fill-opacity="0" stroke-opacity="1" stroke="#7B7B7B" fill="none" stroke-width="1"/></g><g transform="matrix(-1,0,0,1,2158,0)"><rect x="1079" y="1991.968994140625" width="120" height="42" rx="0" fill="#3D3D3D" fill-opacity="1"/></g><g transform="matrix(-1,0,0,1,1952,0)"><rect x="976" y="1970.968994140625" width="220" height="42" rx="0" fill="#3D3D3D" fill-opacity="1"/></g><g transform="matrix(-1,0,0,1,2626,0)"><rect x="1313" y="1918.969482421875" width="73" height="168" rx="0" fill="#3D3D3D" fill-opacity="1"/></g><g transform="matrix(-1,0,0,1,2108,0)"><rect x="1054" y="1412" width="262" height="168" rx="0" fill="#3D3D3D" fill-opacity="1"/></g><g transform="matrix(-0.7071067690849304,-0.7071067094802856,0.7071067094802856,-0.7071067690849304,-1314.4436309124576,3629.389136936574)"><rect x="94.44921875" y="2086.9248046875" width="1519.5006103515625" height="2011.6844482421875" rx="0" fill="#FFFFFF" fill-opacity="1"/></g><g transform="matrix(-0.7071067690849304,-0.7071067094802856,0.7071067094802856,-0.7071067690849304,-1388.2842486883746,3662.803352262883)"><rect x="64.44921875" y="2118.9248046875" width="1519.5006103515625" height="2011.6844482421875" rx="0" fill="#3D3D3D" fill-opacity="1"/></g><g transform="matrix(-0.7071067690849304,-0.7071067094802856,0.7071067094802856,-0.7071067690849304,105.64416549778252,3688.421957282182)"><rect x="816.71923828125" y="1822.3314208984375" width="59.00013732910156" height="306.3356018066406" rx="0" fill="#FFFFFF" fill-opacity="1"/></g><g transform="matrix(-0.7071067690849304,-0.7071067094802856,0.7071067094802856,-0.7071067690849304,-143.59342278861732,3585.1843776980604)"><rect x="671.21923828125" y="1822.8314208984375" width="58.00013732910156" height="305.3356018066406" rx="0" fill-opacity="0" stroke-opacity="1" stroke="#FFFFFF" fill="none" stroke-width="1"/></g><g transform="matrix(-0.7071067690849304,-0.7071067094802856,0.7071067094802856,-0.7071067690849304,-2840.3609339450923,5983.499466537702)"><rect x="-180.457275390625" y="3580.5078125" width="58.0004997253418" height="1468.77587890625" rx="0" fill-opacity="0" stroke-opacity="1" stroke="#FFFFFF" fill="none" stroke-width="1"/></g><g transform="matrix(-0.7071067690849304,-0.7071067094802856,0.7071067094802856,-0.7071067690849304,501.4717084973745,3691.3414864232254)"><rect x="1015.2376708984375" y="1741.8126220703125" width="59.0001335144043" height="188.22225952148438" rx="0" fill="#FFFFFF" fill-opacity="1"/></g><g transform="matrix(-0.7071067690849304,-0.7071067094802856,0.7071067094802856,-0.7071067690849304,493.95476903959207,3861.402911262412)"><rect x="1046.7000732421875" y="1828.400146484375" width="59.00012969970703" height="111.03276824951172" rx="0" fill="#FFFFFF" fill-opacity="1"/></g><g transform="matrix(-0.7071067690849304,-0.7071067094802856,0.7071067094802856,-0.7071067690849304,688.1503611449589,3947.8406190485184)"><rect x="1161.69970703125" y="1831.3997802734375" width="59.00058364868164" height="200.37020874023438" rx="0" fill="#FFFFFF" fill-opacity="1"/></g><g transform="matrix(-0.7071067690849304,-0.7071067094802856,0.7071067094802856,-0.7071067690849304,882.346060511074,4034.2798361071764)"><rect x="1276.69970703125" y="1834.400146484375" width="59.0007438659668" height="47.898460388183594" rx="0" fill="#FFFFFF" fill-opacity="1"/></g><g transform="matrix(0.7071067690849304,-0.7071067094802856,-0.7071067094802856,-0.7071067690849304,754.4135420188832,1821.3154898564098)"><rect x="517.30322265625" y="852.6279296875" width="59.00012969970703" height="24.225635528564453" rx="0" fill="#FFFFFF" fill-opacity="1"/></g><g transform="matrix(0.7071067690849304,-0.7071067094802856,-0.7071067094802856,-0.7071067690849304,736.0345604578615,1776.9447098516684)"><rect x="453.302734375" y="853.14599609375" width="59.00012969970703" height="24.225635528564453" rx="0" fill="#FFFFFF" fill-opacity="1"/></g><g transform="matrix(0.7071067690849304,-0.7071067094802856,-0.7071067094802856,-0.7071067690849304,717.5844777172606,1732.4022764121182)"><rect x="389.22216796875" y="853.5966796875" width="59.00012969970703" height="24.225635528564453" rx="0" fill="#FFFFFF" fill-opacity="1"/></g><g transform="matrix(0.7071067690849304,-0.7071067094802856,-0.7071067094802856,-0.7071067690849304,699.1928346742352,1688.0009288827569)"><rect x="325.22265625" y="854.096435546875" width="147.03057861328125" height="24.22563362121582" rx="0" fill="#FFFFFF" fill-opacity="1"/></g><g transform="matrix(0.7071067690849304,-0.7071067094802856,-0.7071067094802856,-0.7071067690849304,711.4911014055542,1717.6915971661074)"><rect x="187.1298828125" y="928.688720703125" width="163.78343200683594" height="24.22563362121582" rx="0" fill="#FFFFFF" fill-opacity="1"/></g><g transform="matrix(-0.7071067690849304,-0.7071067094802856,0.7071067094802856,-0.7071067690849304,2104.7652509504987,4521.422201288617)"><rect x="1988.7998046875" y="1824.800048828125" width="59.00012969970703" height="24.225635528564453" rx="0" fill="#FFFFFF" fill-opacity="1"/></g><g transform="matrix(-1,0,0,1,3530,0)"><rect x="1765" y="1933.968994140625" width="262" height="32" rx="0" fill="#3D3D3D" fill-opacity="1"/><rect x="1765.5" y="1934.468994140625" width="261" height="31" rx="0" fill-opacity="0" stroke-opacity="1" stroke="#7C7C7C" fill="none" stroke-width="1"/></g><g transform="matrix(-1,0,0,1,1692,0)"><rect x="846" y="1911.968994140625" width="58" height="168" rx="0" fill="#3D3D3D" fill-opacity="1"/></g><g transform="matrix(-1,0,0,1,652,0)"><rect x="326" y="1949.968994140625" width="181" height="65" rx="0" fill="#3D3D3D" fill-opacity="1"/></g><g transform="matrix(-1,0,0,1,1438,0)"><rect x="719" y="1968.968994140625" width="181" height="65" rx="0" fill="#3D3D3D" fill-opacity="1"/></g><g transform="matrix(-1,0,0,1,3434,0)"><rect x="1717" y="2560" width="181" height="65" rx="0" fill="#3D3D3D" fill-opacity="1"/></g><g transform="matrix(-1,0,0,1,3694,0)"><rect x="1847" y="2779" width="181" height="65" rx="0" fill="#3D3D3D" fill-opacity="1"/></g><g transform="matrix(-1,0,0,1,3158,0)"><rect x="1579" y="3023" width="181" height="65" rx="0" fill="#3D3D3D" fill-opacity="1"/></g><g transform="matrix(-1,0,0,1,2494,0)"><rect x="1247" y="3180" width="181" height="65" rx="0" fill="#3D3D3D" fill-opacity="1"/></g><g transform="matrix(-1,0,0,1,1874,0)"><rect x="937" y="2859" width="181" height="65" rx="0" fill="#3D3D3D" fill-opacity="1"/></g><g transform="matrix(-1,0,0,1,2400,0)"><rect x="1200" y="2344" width="1200" height="15" rx="0" fill="#3D3D3D" fill-opacity="1"/></g><g><rect x="923" y="412" width="170" height="153" rx="0" fill="#E93B66" fill-opacity="1"/></g><g><rect x="934" y="-320" width="51" height="1158" rx="0" fill="#E93B66" fill-opacity="1"/></g><g><rect x="1124" y="446" width="140" height="125" rx="0" fill="#E93B66" fill-opacity="1"/></g><g><rect x="1398" y="632" width="397" height="110" rx="0" fill="#E93B66" fill-opacity="1"/></g><g><rect x="2082" y="404" width="170" height="1401" rx="0" fill="#E93B66" fill-opacity="1"/></g><g><rect x="617" y="591" width="417" height="11" rx="0" fill="#E93B66" fill-opacity="1"/></g><g><rect x="923" y="865" width="1561" height="11" rx="0" fill="#E93B66" fill-opacity="1"/></g><g><rect x="2113" y="948" width="221" height="73" rx="0" fill="#3D3D3D" fill-opacity="1"/></g><g><rect x="1891" y="660" width="297" height="146" rx="0" fill="#3D3D3D" fill-opacity="1"/></g><g><rect x="1465" y="488" width="297" height="48" rx="0" fill="#3D3D3D" fill-opacity="1"/></g><g><rect x="1224" y="391" width="59" height="60" rx="0" fill="#3D3D3D" fill-opacity="1"/></g><g><rect x="949" y="318" width="59" height="60" rx="0" fill="#3D3D3D" fill-opacity="1"/></g><g transform="matrix(1,0,0,-1,0,1740)"><rect x="1044" y="870" width="501" height="128" rx="0" fill="#3D3D3D" fill-opacity="1"/></g><g><rect x="1254" y="561" width="120" height="42" rx="0" fill="#3D3D3D" fill-opacity="1"/></g><g><rect x="1357" y="540" width="220" height="42" rx="0" fill="#3D3D3D" fill-opacity="1"/></g><g><rect x="945" y="466.00048828125" width="73" height="168" rx="0" fill="#3D3D3D" fill-opacity="1"/></g><g><rect x="568" y="503" width="262" height="32" rx="0" fill="#3D3D3D" fill-opacity="1"/></g><g><rect x="1487" y="481" width="58" height="168" rx="0" fill="#3D3D3D" fill-opacity="1"/></g><g><rect x="2007" y="519" width="181" height="65" rx="0" fill="#3D3D3D" fill-opacity="1"/></g><g><rect x="1675" y="565" width="181" height="65" rx="0" fill="#3D3D3D" fill-opacity="1"/></g><g><rect x="1966" y="1234" width="181" height="65" rx="0" fill="#3D3D3D" fill-opacity="1"/></g><g><rect x="2167" y="895" width="181" height="798" rx="0" fill="#3D3D3D" fill-opacity="1"/></g><g><rect x="1949" y="1496" width="181" height="798" rx="0" fill="#3D3D3D" fill-opacity="1"/></g><g><g><path d="M638,311.9994201660156L643.6119404,318.1244201660156L638,323.9994201660156L648.38806,323.9994201660156L654,318.1244201660156L648.38806,311.9994201660156L638,311.9994201660156Z" fill="#FFFFFF" fill-opacity="1"/></g><g><path d="M655,311.9994201660156L660.6119404,318.1244201660156L655,323.9994201660156L665.38806,323.9994201660156L671,318.1244201660156L665.38806,311.9994201660156L655,311.9994201660156Z" fill="#FFFFFF" fill-opacity="1"/></g><g><path d="M673,311.9994201660156L678.6119404,318.1244201660156L673,323.9994201660156L683.38806,323.9994201660156L689,318.1244201660156L683.38806,311.9994201660156L673,311.9994201660156Z" fill="#FFFFFF" fill-opacity="1"/></g><g><path d="M690,311.9994201660156L695.6119404,318.1244201660156L690,323.9994201660156L700.38806,323.9994201660156L706,318.1244201660156L700.38806,311.9994201660156L690,311.9994201660156Z" fill="#FFFFFF" fill-opacity="1"/></g></g><g><g><path d="M145,1734L150.6119404,1740.125L145,1746L155.38806,1746L161,1740.125L155.38806,1734L145,1734Z" fill="#FFFFFF" fill-opacity="1"/></g><g><path d="M162,1734L167.6119404,1740.125L162,1746L172.38806,1746L178,1740.125L172.38806,1734L162,1734Z" fill="#FFFFFF" fill-opacity="1"/></g><g><path d="M180,1734L185.6119404,1740.125L180,1746L190.38806,1746L196,1740.125L190.38806,1734L180,1734Z" fill="#FFFFFF" fill-opacity="1"/></g><g><path d="M197,1734L202.6119404,1740.125L197,1746L207.38806,1746L213,1740.125L207.38806,1734L197,1734Z" fill="#FFFFFF" fill-opacity="1"/></g></g><g transform="matrix(0,1,1,0,234,-234)" style="opacity:0.20000000298023224;"><g><path d="M1340,1106L1450.50571,1223.39583L1340,1336L1544.55313,1336L1655.05884,1223.39583L1544.55313,1106L1340,1106Z" fill="#FFFFFF" fill-opacity="1"/></g><g><path d="M1674.75,1106L1785.25571,1223.39583L1674.75,1336L1879.30313,1336L1989.80884,1223.39583L1879.30313,1106L1674.75,1106Z" fill="#FFFFFF" fill-opacity="1"/></g><g><path d="M2029.1912231445312,1106L2139.696933144531,1223.39583L2029.1912231445312,1336L2233.7443531445315,1336L2344.2500631445314,1223.39583L2233.7443531445315,1106L2029.1912231445312,1106Z" fill="#FFFFFF" fill-opacity="1"/></g><g><path d="M2363.9412231445312,1106L2474.446933144531,1223.39583L2363.9412231445312,1336L2568.4943531445315,1336L2679.0000631445314,1223.39583L2568.4943531445315,1106L2363.9412231445312,1106Z" fill="#FFFFFF" fill-opacity="1"/></g></g><g><path d="M1278.7017,1507.6769689208984Q1343.1001,1464.1702689208985,1398.1351,1409.1350689208984L1397.4281,1408.4280689208983Q1342.4615,1463.3947689208985,1278.142,1506.8482689208984Q1213.2056,1550.7183689208985,1141.2314,1581.1608689208983Q1067.9274,1612.1658689208984,989.93762,1628.1248689208985Q909.91418,1644.5000689208985,827.5,1644.5000689208985Q745.08582,1644.5000689208985,665.06238,1628.1248689208985Q587.07275,1612.1658689208984,513.76862,1581.1608689208983Q441.79456,1550.7184689208984,376.85812,1506.8482689208984Q312.53867,1463.3947689208985,257.57195,1408.4280689208983Q202.60497,1353.4611689208984,159.15186,1289.1420689208985Q115.281853,1224.2058689208984,84.839245,1152.2315689208983Q53.833984,1078.9267989208984,37.875102999999996,1000.9377289208984Q21.49999875,920.9145989208985,21.5,838.5000489208984Q21.5,756.0853089208985,37.875063,676.0623589208984Q53.833874,598.0735589208984,84.839272,524.7685989208985Q115.281822,452.79435892089845,159.15186,387.85813892089845Q202.60521,323.53872892089845,257.57195,268.57200892089844Q312.5387,213.60516892089845,376.85809,170.15184792089843Q441.79425,126.28184092089845,513.76862,95.83927119089844L513.3790300000001,94.91826665089843Q441.31503,125.39876392089843,376.29828,169.32322692089843Q311.89938,212.83026892089845,256.86483999999996,267.86489892089844Q201.83032,322.89937892089847,158.32324,387.2983289208984Q114.398705,452.31516892089843,83.91827,524.3790089208985Q52.87413,597.7755889208984,36.895365,675.8619189208985Q20.5,755.9840589208984,20.5,838.5000489208984Q20.5,921.0159189208985,36.895405,1001.1382289208984Q52.874189,1079.2245989208984,83.91824299999999,1152.6209689208983Q114.398743,1224.6849689208984,158.32324,1289.7017689208985Q201.83008,1354.1004689208985,256.86483999999996,1409.1350689208984Q311.90005,1464.1702689208985,376.29831,1507.6769689208984Q441.31439,1551.6009689208984,513.3790300000001,1582.0817689208984Q586.77582,1613.1260689208984,664.86194,1629.1047689208986Q744.98401,1645.5000689208985,827.5,1645.5000689208985Q910.01605,1645.5000689208985,990.13812,1629.1047689208986Q1068.2241,1613.1260689208984,1141.621,1582.0817689208984Q1213.6857,1551.6009689208984,1278.7017,1507.6769689208984Z" fill-rule="evenodd" fill="#FFFFFF" fill-opacity="1"/></g><g transform="matrix(-1,0,0,-1,4265.5634765625,7337.2421875)"><path d="M3390.48343828125,5080.91929375Q3454.88183828125,5037.41259375,3509.91683828125,4982.37739375L3509.20983828125,4981.67039375Q3454.24323828125,5036.63709375,3389.92373828125,5080.09059375Q3324.9873382812502,5123.96069375,3253.0131382812497,5154.40319375Q3179.70913828125,5185.40819375,3101.71935828125,5201.36719375Q3021.6959182812498,5217.74239375,2939.28173828125,5217.74239375Q2856.8675582812502,5217.74239375,2776.84411828125,5201.36719375Q2698.8544882812503,5185.40819375,2625.55035828125,5154.40319375Q2553.57629828125,5123.96079375,2488.63985828125,5080.09059375Q2424.32040828125,5036.63709375,2369.35368828125,4981.67039375Q2314.38670828125,4926.70349375,2270.93359828125,4862.3843937500005Q2227.06359128125,4797.44819375,2196.62098328125,4725.47389375Q2165.61572228125,4652.16912375,2149.65684128125,4574.18005375Q2133.28173703125,4494.15692375,2133.28173828125,4411.74237375Q2133.28173828125,4329.32763375,2149.65680128125,4249.30468375Q2165.61561228125,4171.31588375,2196.62101028125,4098.01092375Q2227.06356028125,4026.03668375,2270.93359828125,3961.10046375Q2314.38694828125,3896.78105375,2369.35368828125,3841.81433375Q2424.32043828125,3786.84749375,2488.63982828125,3743.39417275Q2553.57598828125,3699.52416575,2625.55035828125,3669.08159602L2625.16076828125,3668.16059148Q2553.0967682812498,3698.64108875,2488.08001828125,3742.56555175Q2423.68111828125,3786.07259375,2368.64657828125,3841.1072237500002Q2313.61205828125,3896.14170375,2270.10497828125,3960.54065375Q2226.18044328125,4025.55749375,2195.70000828125,4097.62133375Q2164.65586828125,4171.01791375,2148.67710328125,4249.10424375Q2132.28173828125,4329.2263837499995,2132.28173828125,4411.74237375Q2132.28173828125,4494.2582437500005,2148.67714328125,4574.38055375Q2164.65592728125,4652.46692375,2195.69998128125,4725.86329375Q2226.18048128125,4797.92729375,2270.10497828125,4862.94409375Q2313.61181828125,4927.34279375,2368.64657828125,4982.37739375Q2423.68178828125,5037.41259375,2488.08004828125,5080.91929375Q2553.09612828125,5124.84329375,2625.16076828125,5155.3240937499995Q2698.55755828125,5186.36839375,2776.64367828125,5202.347093750001Q2856.76574828125,5218.74239375,2939.28173828125,5218.74239375Q3021.79778828125,5218.74239375,3101.91985828125,5202.347093750001Q3180.00583828125,5186.36839375,3253.40273828125,5155.3240937499995Q3325.46743828125,5124.84329375,3390.48343828125,5080.91929375Z" fill-rule="evenodd" fill="#FFFFFF" fill-opacity="1"/></g><g><path d="M1022.77795,1326.90179Q1115.4341399999998,1287.69037,1186.89014,1216.19568L1179.10986,1208.41956Q1109.17078,1278.3964799999999,1018.49097,1316.77155Q924.61304,1356.5,821.80579,1356.5Q718.99854,1356.5,625.12064,1316.77155Q534.44078,1278.3964799999999,464.50165000000004,1208.41956Q394.562187,1138.44232,356.207542,1047.71271Q316.4999542,953.78265,316.499939,850.91809Q316.5,748.05377,356.207588,654.12378Q394.562225,563.39426,464.50169,493.41700000000003Q534.4407699999999,423.440178,625.12064,385.0651016L620.83359,374.9348831Q528.17747,414.146294,456.72141999999997,485.64092Q385.265579,557.13541,346.07570599999997,649.8407Q305.5,745.82425,305.499939,850.91809Q305.4999504,956.01221,346.07566099999997,1051.99579Q385.26559399999996,1144.70129,456.72137,1216.19568Q528.17746,1287.69037,620.83359,1326.90179Q716.7667200000001,1367.5,821.80579,1367.5Q926.84485,1367.5,1022.77795,1326.90179Z" fill-rule="evenodd" fill="#FFFFFF" fill-opacity="1"/></g><g transform="matrix(0,1,-1,0,2423.0009765625,-1591.0009765625)"><line x1="2007.0009765625" y1="415.5" x2="4785.0009765625" y2="415.5" fill-opacity="0" stroke-opacity="1" stroke="#D8D8D8" fill="none" stroke-width="1"/></g></g></svg>