<svg xmlns="http://www.w3.org/2000/svg" xmlns:xlink="http://www.w3.org/1999/xlink" fill="none" version="1.1" width="397.91064453125" height="146.4990234375" viewBox="0 0 397.91064453125 146.4990234375"><path d="M0.7421875,45.15087859375Q-1.6237793,34.39453159375,3.5515137,26.30029259375Q8.7268066,18.20605459375,19.48291,15.84033159375L72.362793,4.20849609375Q83.118896,1.84228519375,91.212891,7.01757809375Q99.307129,12.19287109375,101.67334,22.94921859375L103.20854,29.92841359375Q104.9538,29.27409959375,106.91333,28.86962859375L107.28931,28.79199259375Q116.05371,26.98291059375,122.86084,31.46044959375Q124.60669,32.60888659375,126.02393,34.03955059375Q127.05762,33.729492593749995,128.1604,33.50195359375L143.84741,30.26367159375Q144.60596,28.17529259375,145.87646,26.24414059375Q150.2981,19.52197259375,158.92163,17.74218759375L159.29761,17.66455059375Q165.5354,16.376953593750002,170.77832,18.33398459375Q172.68213,17.54833959375,174.8645,17.09765659375L175.24048,17.02001959375Q183.48779,15.31738259375,189.98315,19.59033159375Q191.55089,20.62158159375,192.8394,21.88439359375Q193.77269,20.86792559375,194.87036,19.96484359375Q199.82178,15.89111359375,206.39258,15.54492159375Q208.21655,11.22656249375,211.90649,8.19091799375Q218.19849,3.01464843375,227.10571,3.88085937375L227.48779,3.91796875375Q234.32837,4.58349609375,238.96826,8.44873049375Q242.5813,7.50830079375,246.77539,7.91650389375L288.81689,12.00634769375Q297.67627,12.86816409375,302.8313,19.133788593749998Q307.98608,25.39990259375,307.12427,34.25927759375L307.08716,34.641601593749996Q306.22534,43.50097659375,299.95947,48.65576159375Q298.00806,50.26123059375,295.80518,51.28320359375Q296.21313,52.31982459375,296.54248,53.43603559375L303.27026,76.97119159375Q305.75439,85.39111359375,301.87329,92.51953159375Q298.14966,99.35937459375,290.13623,101.95605459375L289.625,102.15234359375L289.05029,102.32177759375Q284.13623,103.77148859375,279.68994,103.10205059375L279.28467,107.26659859375Q278.41357,116.22167859375,272.09521,121.41991859375Q265.77686,126.61767859375,256.82202,125.74657859375L256.4397,125.70946859375Q247.48486,124.83837859375,242.28662,118.52001859375Q238.12085,113.45605859375,237.85303,106.69872859375Q236.32104,113.36083859375,231.21265,117.56347859375Q224.92041,122.73974859375,216.01318,121.87353859375L215.6311,121.83593859375Q213.52878,121.63148859375,211.63429,121.12475859375Q211.14087,121.77186859375,210.5896,122.40526859375L209.66406,123.46874859375L209.11255,123.90331859375Q203.63525,129.44628859375,196.28857,129.87255859375Q191.7478,130.13573859375,187.68237,128.37157859375Q184.1875,132.24511859375,179.13232,133.74218859375Q172.3269,135.75683859375,165.65527,132.63915859375L164.79639,132.41064859375L163.25391,131.48681859375L148.33594,134.56591859375Q140.02856,136.28075859375,133.48584,132.24023859375L120.9436,134.82909859375Q112.13208,136.64794859375,105.29663,132.15136859375Q98.461182,127.65526859375,96.642334,118.84374859375L96.564697,118.46776859375Q96.436165,117.84508859375,96.339188,117.23241859375L33.521729,131.05028859375Q25.062744,132.91112859375,18.369629,128.63183859375Q11.676514,124.35204859375,9.815918,115.89306859375L9.7539062,115.61181859375Q8.0568848,107.89696859375,11.467529,101.65087859375Q11.214111,100.80029259375,11.016357,99.90185559375L10.934082,99.52685559375Q9.869873,94.68945359375,10.853271,90.43066359375Q7.6933594,86.13525359375,6.362793,80.08691359375L6.3010254,79.80566359375Q5.0854492,74.27929659375,6.7958984,69.64697259375Q5.5163574,66.85400359375001,4.7844238,63.52734359375L0.7421875,45.15087859375ZM30.872559,67.61816359375Q26.184809,68.64939159375,23.325275,66.82113659375Q20.823061,65.22133259374999,19.720715,61.43202959375Q22.070042,69.50846059375,30.778809,67.63867159375Q30.825439,67.62890659375,30.872559,67.61816359375ZM234.42888,68.32217359375Q234.82179,67.78414959375,235.09814,67.26220659375Q235.31229,66.85790659375,235.45663,66.46348159375Q235.12573,67.36715659375,234.42888,68.32217359375ZM226.0354,18.84765659375Q226.37579,18.88076759375,226.69284,18.93308459375Q226.56863,18.91255859375,226.44092,18.89501959375Q226.24268,18.86767559375,226.0354,18.84765659375ZM235.60631,43.02498959375Q234.93277,43.72090959375,233.96042,44.05360759375Q234.31631,43.93200259375,234.63208,43.76171859375Q235.17931,43.46640759375,235.60631,43.02498959375ZM228.6949,57.59077459375Q229.20178,57.87608359375,229.72388,58.27001959375Q229.57251,58.15576159375,229.42212,58.05029259375Q229.05472,57.79306059375,228.6949,57.59077459375ZM268.45166,37.92382859375Q264.90314,46.27398659375,260.88196,53.96483259375Q261.70844,52.38438459375,262.51416,50.77783159375Q263.98096,47.85205059375,265.38208,44.83398459375Q266.19971,43.07226559375,266.99487,41.27978559375Q267.26099,40.67968759375,267.52441,40.07666059375Q267.68848,39.70068359375,267.85278,39.32128859375Q268.15405,38.62451159375,268.45166,37.92382859375ZM263.16907,109.21786859375Q262.42917,110.15633859375,261.24924,110.56000859375Q261.99533,110.30505859375,262.56546,109.83603859375Q262.89713,109.56318859375,263.16907,109.21786859375ZM257.1636,60.76014359375L257.1637,60.75918159375Q256.75626,61.47070359375,256.34381,62.17713959375Q256.7561,61.47167959375,257.1636,60.76014359375ZM256.00488,62.75537059375Q249.18701,74.34179659375,242.79688,81.53271459375Q243.02368,81.27783159375,243.25098,81.01708959375Q244.71753,79.33496059375,246.20654,77.42236359375Q246.59595,76.92236359375,246.98608,76.40722659375Q247.23511,76.07861359375,247.48486,75.74365259375Q247.58105,75.61425759375,247.67749,75.48437459375Q250.30078,71.94091759375,252.99292,67.69287059375Q254.14966,65.86767559375,255.31909,63.91210959375Q255.66162,63.33935559375,256.00488,62.75537059375ZM241.83217,82.55472559375Q241.05861,83.24143959375,240.24689,83.54931659375Q240.27965,83.53702559375,240.3125,83.52392559375Q241.0899,83.21390559375,241.83217,82.55472559375ZM239.77725,83.69496959375Q239.52773,83.75533259375,239.27467,83.78084559375Q239.45996,83.76220659375,239.64355,83.72509759375Q239.71037,83.71123459375,239.77725,83.69496959375ZM26.684326,39.64111359375L27.674242,44.14141859375L50.101845,39.20788959375L27.674316,44.14111359375L26.684326,39.64111359375ZM185.6631,59.49327059375Q186.08151,59.50268159375,186.46045,59.55183459375L186.46048,59.55156359375Q186.08157,59.50247959375,185.6631,59.49327059375ZM178.74728,77.84772459375Q178.86771,78.11831659375,178.99016,78.38745159375L178.99019,78.38719959375Q178.86754,78.11759159375,178.74728,77.84772459375ZM179.78036,70.05072059375Q179.89145,68.10677359375,179.93724,66.14007159375001Q179.90712,67.42731859375,179.84912,68.70556659375Q179.81857,69.37950159375,179.78036,70.05072059375ZM179.96313,64.59179659374999Q180.00438,61.41036959375,182.02266,60.24464759375Q180.19009,61.30291359375,179.9873,64.02294959375Q179.9668,64.29882859375,179.96313,64.59179659374999ZM174.54816,65.59209059375Q174.9424,67.17813459375,175.39972,68.73211659375Q175.21167,68.09265159375,175.03418,67.44775359375001Q174.78035,66.52555459375,174.54816,65.59209059375ZM181.73943,32.12178259375Q182.39172,32.55077359375,182.82948,33.30597459375Q181.76291,31.46646159375,179.42319,31.56251159375Q180.80257,31.50564159375,181.73943,32.12178259375ZM176.89732,32.064844593749996Q175.52011,32.560422593750005,174.87657,33.53864859375Q174.79279,33.66601959375,174.72141,33.80161259375Q175.34091,32.625160593749996,176.89732,32.064844593749996ZM168.31567,35.79980459375Q168.39258,36.08056659375,168.45483,36.38378859375Q167.54555,31.97846959375,163.60237,32.18494559375Q167.2746,31.99220259375,168.31567,35.79980459375ZM128.9939,49.01318359375Q129.76999,48.53167759375,130.87151,48.26438159375Q129.41464,48.61832059375,128.52661,49.34640859375Q128.74327,49.16861359375,128.9939,49.01318359375ZM174.30119,98.41155959375Q175.00352,96.34738159375,175.62047,94.25237259375L175.62032,94.25212859375Q175.00343,96.34712959375,174.30119,98.41155959375ZM166.95923,104.67724859375Q168.28833,104.76659859375,169.21411,105.46972859375Q169.11517,105.39474859375,169.01173,105.32670859375Q167.55333,104.36750859375,165.18134,104.79735859375Q166.14581,104.62201859375,166.95923,104.67724859375ZM170.69556,107.57275859375Q171.34839,106.11767859375,171.95581,104.64648859375Q172.2215,104.00304859375,172.47849,103.35647559375Q171.63412,105.48135859375,170.69556,107.57275859375ZM170.2242,106.60422859375Q170.49199,107.03960859375,170.69556,107.57275859375L170.69548,107.57305859375Q170.49194,107.03980859375,170.2242,106.60422859375ZM139.44348,111.63361859375Q139.50974,111.51459859375,139.58434,111.40118859375Q140.3398,110.25280859375,141.95657,109.67103859375Q140.34003,110.25249859375,139.58456,111.40060859375Q139.50972,111.51433859375,139.44348,111.63361859375ZM29.654087,53.14208259375L29.654058,53.14195659375L50.238487,48.61407459375L29.654053,53.14208959375L29.654087,53.14208259375ZM78.783485,42.33513659375L78.783691,42.33509059375L79.773682,46.83544959375L78.783485,42.33513659375ZM106.35923,45.50915559375Q107.29341,44.28411459375,109.24754,43.72994259375Q107.2934,44.28389359375,106.35921,45.50893759375L106.35923,45.50915859375L106.35923,45.50915559375ZM110.89273,43.38115359375Q115.16149,42.75344459375,116.48255,46.60677359375Q115.76637,44.51719659375,114.18335,43.74511759375Q112.84692,43.09356659375,110.89273,43.38115359375ZM136.69086,109.57723859375Q136.08414,107.31130859375,134.6203,106.34842859375Q134.2551,106.10819859375,133.83652,105.94907859375Q135.39754,106.54231859375,136.21655,108.26366859375Q136.43213,108.71679859375,136.59644,109.24853859375Q136.64609,109.40938859375,136.69086,109.57723859375ZM123.73975,63.25439459375Q123.10773,63.20343059375,122.3894,63.28369159375Q126.86799,62.78358059375,127.99168,67.38360959375001Q127.78477,66.53578959375,127.46387,65.86181659375Q126.32251,63.46240259375,123.73975,63.25439459375ZM32.201904,74.10839859375L53.863651,69.34328459375L53.863674,69.34341459375L32.201904,74.10839859375ZM54.687489,64.76848559375Q55.737362,63.50402059375,57.906242,62.95504359375Q56.725647,63.25376559375,55.876465,63.76464859375Q55.165817,64.19229459375,54.687489,64.76848559375ZM88.065239,72.04275559375L67.443573,76.57888059375L67.443611,76.57904859375L88.065247,72.04280059375L88.065239,72.04275559375ZM21.260195,74.28498059375Q21.017302,74.68576059375,20.920654,75.14013659375Q20.845858,75.49211859375,20.858858,75.87634259375Q20.838907,75.28314959375,21.028181,74.76664759375Q21.119724,74.51684559375,21.260195,74.28498059375ZM32.56543,84.25097659375Q29.049438,85.02441359375,26.52977,84.16885359375Q28.965702,84.99610159375,32.333008,84.30078159375Q32.448486,84.27685559375,32.56543,84.25097659375ZM57.22168,84.62695359375L56.004883,79.09521459375L32.56543,84.25097659375L56.004936,79.09501659375L57.221809,84.62687659375L57.221668,84.62690759375L57.22168,84.62695359375ZM25.443445,94.17472859375Q25.766365,91.65473959375,28.818319,90.87927959375Q28.126987,91.05478659375,27.575684,91.31982459375Q25.693069,92.22525759375,25.443445,94.17472859375ZM30.529146,100.30368059375Q26.983549,100.80098759375,25.882736,97.47478459375Q26.330679,98.82875059375,27.183838,99.54931659375Q28.426563,100.59885359375,30.529146,100.30368059375ZM31.156738,100.18994159375L59.284245,94.00263959375L60.356689,98.87792959375L59.28418,94.00292959375L31.156738,100.18994159375ZM60.495361,99.43749959375Q60.473145,99.35693359375,60.45166,99.27490259375Q60.401123,99.08105459375,60.356689,98.87792959375Q60.420238,99.16683159375,60.495567,99.43736259375L60.495338,99.43741559375L60.495361,99.43749959375ZM30.299316,116.40038859375Q25.667009,117.41927859375,24.535198,112.96402859375Q24.835278,114.14617859375,25.38208,114.94286859375Q26.895996,117.14941859375,30.299316,116.40038859375ZM70.722816,91.48677859375L70.722748,91.48647259375L93.597466,86.45464359375L70.722816,91.48677859375ZM157.5074,63.18996859375Q159.76453,65.04011559375,160.57886,68.98535159375Q160.48193,68.51416059375,160.36426,68.07373059375Q159.87451,66.23925759375,159.02954,64.92138659375Q158.37511,63.90084859375,157.5074,63.18996859375ZM164.95935,93.40563959375Q165.20386,91.75097659375,164.85107,89.72167959375Q164.80615,89.46337859375,164.75146,89.19921859375Q165.23477,91.54047359375,164.95935,93.40563959375Z" fill-rule="evenodd" fill="#FFFFFF" fill-opacity="1"/><g transform="matrix(0.861200213432312,-0.5082657933235168,0.5082657933235168,0.861200213432312,12.191279003978707,154.5138564517256)"><path d="M332.992138,70.527141875Q333.17994699999997,70.791736875,333.407951,71.02260187499999Q333.635956,71.253467875,333.89819,71.44456687499999Q334.160423,71.635663875,334.450027,71.781997875Q334.73963200000003,71.928331875,335.049038,72.026074875L347.901764,76.086331875Q348.01507200000003,76.122127875,348.126049,76.16458287500001Q348.237026,76.207038875,348.345284,76.256003875Q348.453548,76.304973875,348.558712,76.360280875Q348.663876,76.415588875,348.76556800000003,76.477038875Q348.867268,76.538493875,348.965134,76.605872875Q349.063004,76.673253875,349.156696,76.746322875Q349.250404,76.819396875,349.3396,76.89789987500001Q349.428795,76.976403875,349.513165,77.060062875Q349.597546,77.143724875,349.676807,77.23224487499999Q349.756073,77.320766875,349.829933,77.413833875Q349.903809,77.506904875,349.972023,77.604194875Q350.040234,77.701484875,350.102547,77.802650875Q350.164871,77.903819875,350.221077,78.008508875Q350.277279,78.113196875,350.327164,78.221034875Q350.37706000000003,78.328878875,350.42046,78.439490875Q350.46386,78.550101875,350.500614,78.663093875Q350.537376,78.776088875,350.567364,78.891063875Q350.597351,79.006038875,350.620453,79.122588875Q350.64357,79.239142875,350.659721,79.356860875Q350.675873,79.474580875,350.685001,79.593047875Q350.694138,79.711520875,350.696228,79.830321875Q350.698311,79.949124875,350.693336,80.067840875Q350.68837,80.186559875,350.676365,80.304772875Q350.664356,80.42298687499999,350.645348,80.540277875Q350.626347,80.65756987500001,350.600414,80.773528875Q350.574482,80.889484875,350.54171,81.003696875Q350.508945,81.117910875,350.469452,81.229976875Q350.429962,81.342044875,350.383884,81.451566875Q350.337814,81.561093875,350.28532,81.66768987500001Q350.232822,81.774287875,350.174088,81.877578875Q350.115364,81.980872875,350.050613,82.08049787499999Q349.985855,82.180122875,349.915295,82.275725875L341.882759,93.16005687500001Q341.690842,93.42010487499999,341.54317100000003,93.70759187499999Q341.395496,93.99507887499999,341.295895,94.302543875Q341.19629299999997,94.61000787500001,341.14734599999997,94.929481875Q341.098404,95.24895087499999,341.101387,95.572135875L341.226173,109.10258487499999Q341.227276,109.22165687500001,341.221287,109.340575875Q341.215302,109.459495875,341.202248,109.577842875Q341.189201,109.696204875,341.169136,109.81357187500001Q341.149071,109.930942875,341.122055,110.046905875Q341.095047,110.16287187500001,341.061184,110.27702687499999Q341.02732100000003,110.391181875,340.986725,110.503112875Q340.946136,110.615058875,340.89896,110.72438087500001Q340.85178,110.833709875,340.79818,110.940028875Q340.744583,111.046363875,340.684757,111.149310875Q340.624928,111.252257875,340.559074,111.351459875Q340.493233,111.450671875,340.4216,111.545787875Q340.34997599999997,111.640906875,340.272808,111.731589875Q340.195648,111.82228087499999,340.113232,111.908218875Q340.03081099999997,111.99414787500001,339.94342,112.075027875Q339.856041,112.15591387500001,339.764,112.231452875Q339.671959,112.306991875,339.575584,112.37692287499999Q339.479218,112.446857875,339.378857,112.51093287500001Q339.278496,112.57500887500001,339.174496,112.632995875Q339.070507,112.690993875,338.963249,112.742698875Q338.855988,112.794402875,338.745838,112.839629875Q338.635696,112.884864875,338.523056,112.923469875Q338.410416,112.962066875,338.29567,112.99388887500001Q338.180939,113.025725875,338.06451400000003,113.050674875Q337.948086,113.075629875,337.830376,113.093604875Q337.712677,113.11159087499999,337.594109,113.122539875Q337.47554,113.133483875,337.356529,113.137355875Q337.237526,113.14123487500001,337.118496,113.138023875Q336.999466,113.13481487499999,336.880836,113.124526875Q336.76221499999997,113.114245875,336.644409,113.096923875Q336.526604,113.079600875,336.410034,113.05529787500001Q336.293472,113.031001875,336.178558,112.999812875Q336.063644,112.968619875,335.95079,112.930644875L323.200668,108.640815875Q322.89238,108.537086875,322.571384,108.48453487500001Q322.250385,108.431983875,321.925114,108.431983875Q321.599842,108.431983875,321.278843,108.48453487500001Q320.957848,108.537086875,320.649561,108.640815875L307.899437,112.930644875Q307.786583,112.968619875,307.671669,112.999808875Q307.556757,113.031001875,307.440189,113.05529787500001Q307.323626,113.07959787499999,307.205822,113.096919875Q307.088017,113.114242875,306.969391,113.124522875Q306.850765,113.134811875,306.731739,113.138023875Q306.612711,113.14123487500001,306.493702,113.13735187500001Q306.374695,113.133483875,306.256128,113.122535875Q306.137562,113.111587875,306.019854,113.09360087499999Q305.902149,113.075625875,305.785721,113.050674875Q305.669292,113.025725875,305.554554,112.99388887500001Q305.439819,112.962066875,305.327179,112.923465875Q305.214539,112.884864875,305.104391,112.839629875Q304.994247,112.794402875,304.886986,112.742698875Q304.779726,112.690993875,304.67573,112.632999875Q304.571737,112.575011875,304.471376,112.51093287500001Q304.371016,112.446857875,304.274643,112.37692287499999Q304.178272,112.306991875,304.086231,112.231452875Q303.994189,112.15591387500001,303.906803,112.075027875Q303.81942,111.99414787500001,303.737001,111.908214875Q303.654581,111.82228087499999,303.577419,111.731589875Q303.500258,111.640906875,303.428628,111.54579187499999Q303.356997,111.450675875,303.29115,111.35146287500001Q303.225306,111.252257875,303.165478,111.149310875Q303.10565,111.046363875,303.05205,110.940032875Q302.998452,110.833713875,302.951273,110.724383875Q302.904094,110.615058875,302.8635,110.503112875Q302.822908,110.391181875,302.789046,110.27703087500001Q302.755184,110.162875875,302.728171,110.046905875Q302.70116,109.930942875,302.681094,109.81357187500001Q302.661028,109.696204875,302.647977,109.577846875Q302.634928,109.459495875,302.628942,109.340575875Q302.622955,109.22165687500001,302.624053,109.10258487499999L302.748837,95.572135875Q302.751818,95.24895087499999,302.702872,94.929481875Q302.653927,94.61000787500001,302.554326,94.302543875Q302.454725,93.99507887499999,302.307052,93.70759187499999Q302.159378,93.42010487499999,301.967465,93.16005687500001L293.934937,82.275727875Q293.8643818,82.180125875,293.7996254,82.080501875Q293.734869,81.980876875,293.6761398,81.877580875Q293.6174116,81.774289875,293.5649176,81.667691875Q293.5124235,81.561095875,293.4663496,81.45156887499999Q293.4202762,81.342046875,293.380785,81.229980875Q293.3412933,81.117911875,293.3085232,81.003697875Q293.275754,80.889487875,293.2498212,80.773532875Q293.2238889,80.657573875,293.204885,80.54028087500001Q293.1858816,80.422992875,293.1738739,80.304778875Q293.1618652,80.186565875,293.1568952,80.067845875Q293.151926,79.94913087500001,293.1540117,79.830327875Q293.1560974,79.711524875,293.1652308,79.593051875Q293.174365,79.474584875,293.190515,79.356864875Q293.206665,79.239146875,293.229774,79.122592875Q293.2528834,79.00604287499999,293.2828703,78.891067875Q293.3128567,78.776092875,293.3496151,78.663097875Q293.3863735,78.550105875,293.4297743,78.43949487500001Q293.473175,78.328883875,293.5230651,78.221042875Q293.5729556,78.113202875,293.629159,78.008514875Q293.6853619,77.903823875,293.7476797,77.802655875Q293.8099985,77.701490875,293.8782115,77.604199875Q293.9464254,77.506909875,294.0202932,77.413838875Q294.094162,77.320769875,294.1734247,77.23224987500001Q294.2526875,77.14372987499999,294.3370638,77.06006587499999Q294.4214416,76.976407875,294.5106359,76.897903875Q294.5998297,76.819400875,294.6935263,76.746326875Q294.7872238,76.673257875,294.8850927,76.605876875Q294.9829617,76.538495875,295.0846572,76.477040875Q295.1863537,76.415589875,295.2915182,76.360280875Q295.3966827,76.304973875,295.5049438,76.256003875Q295.6132064,76.207038875,295.724184,76.164584875Q295.8351622,76.122129875,295.9484634,76.08633387500001L308.801189,72.026074875Q309.110592,71.928331875,309.400198,71.781997875Q309.6898,71.635663875,309.952034,71.44456687499999Q310.214266,71.253467875,310.442268,71.022603875Q310.670273,70.791738875,310.858088,70.527142875L318.663284,59.530920475Q318.732296,59.433697675,318.806974,59.340757875Q318.88165300000003,59.247817475,318.961729,59.159489675Q319.041813,59.071162175,319.127012,58.987761475Q319.212212,58.904360275,319.302223,58.826181675Q319.392242,58.748003475,319.486753,58.675324875Q319.581264,58.602646375,319.679934,58.535725375Q319.77861,58.468805275,319.881094,58.407880575Q319.983578,58.346955975,320.089504,58.292242975Q320.195436,58.237530675,320.304438,58.189223975Q320.413437,58.140917775,320.52512,58.099188775Q320.636806,58.057460275,320.750778,58.022457575Q320.86475,57.987454875,320.980602,57.959302475Q321.096458,57.931150175,321.213783,57.909947875Q321.331108,57.888745575,321.449482,57.874568475Q321.567863,57.860392075,321.686874,57.853291075Q321.805889,57.846189975,321.925114,57.846189775Q322.04434200000003,57.846189975,322.16335300000003,57.853291075Q322.282368,57.860392075,322.40074500000003,57.874568475Q322.519127,57.888745575,322.636452,57.909947875Q322.753777,57.931150175,322.86962900000003,57.959302475Q322.985481,57.987454875,323.09945700000003,58.022457575Q323.21342500000003,58.057460275,323.325108,58.099188575Q323.436798,58.140917575,323.545795,58.189223975Q323.65479700000003,58.237530675,323.760723,58.292242975Q323.866653,58.346955975,323.969139,58.407880775Q324.071617,58.468805275,324.170288,58.535725375Q324.268967,58.602646075,324.36348,58.675324475Q324.457993,58.748002975,324.548004,58.826181375Q324.638023,58.904360275,324.723221,58.987761475Q324.808418,59.071162175,324.88849600000003,59.159489675Q324.96858199999997,59.247817475,325.043259,59.340757875Q325.117935,59.433697675,325.186943,59.530920475L332.992138,70.527141875Z" fill="#3BB8E9" fill-opacity="1"/><path d="M345.572273,55.424903695L340.680634,48.533392475Q333.804585,38.846189875,321.925114,38.846189875Q310.045643,38.846189875,303.169597,48.533390475L298.2779493,55.424906195L290.2250404,57.968872075Q278.942163,61.533205975,275.281662,72.785249875Q271.62116100000003,84.037295875,278.647263,93.557883875L283.7034192,100.40913387500001L283.6248598,108.927363875Q283.5154734,120.788398875,293.1157503,127.754798875Q302.716035,134.721206875,313.958317,130.938697875L321.925114,128.258231875L329.891911,130.938697875Q341.134193,134.721206875,350.734474,127.754798875Q360.334755,120.788398875,360.225365,108.927360875L360.146805,100.409137875L365.202965,93.557883875Q372.22907299999997,84.037280875,368.56856500000004,72.785234875Q364.908058,61.533198375,353.625175,57.968868275L345.572273,55.424903695ZM333.631756,71.232471875Q333.269672,70.918141875,332.992138,70.527141875L325.186943,59.530920475Q325.048798,59.336301775,324.88849600000003,59.159489675Q324.728195,58.982677475,324.548004,58.826181675Q324.367813,58.669685375,324.170288,58.535725375Q323.972771,58.401765575,323.760723,58.292242975Q323.548676,58.182720175,323.325108,58.099188775Q323.10154,58.015657175,322.86962900000003,57.959302475Q322.637714,57.902947475,322.40074500000003,57.874568475Q322.163773,57.846189775,321.925114,57.846189775Q321.686447,57.846189775,321.449482,57.874568475Q321.212509,57.902947475,320.980598,57.959302475Q320.748684,58.015657175,320.525116,58.099188575Q320.30155,58.182720175,320.089502,58.292242975Q319.877453,58.401765575,319.679932,58.535725375Q319.482412,58.669685175,319.302223,58.826181375Q319.122032,58.982677475,318.961729,59.159489675Q318.801426,59.336301775,318.663284,59.530920475L312.039017,68.863409875L310.858088,70.527142875Q310.580553,70.918142875,310.21847,71.232471875Q310.210585,71.239316875,310.20266300000003,71.246120875Q309.959673,71.454846875,309.686563,71.622241875Q309.679554,71.626538875,309.672525,71.630807875Q309.260666,71.88092387500001,308.801189,72.026074875L295.9484634,76.08633387500001Q295.7216592,76.157983875,295.5049438,76.256003875Q295.2882285,76.354026875,295.0846567,76.477038875Q294.8810854,76.60005187499999,294.6935263,76.746322875Q294.5059671,76.892593875,294.3370638,77.060062875Q294.1681604,77.227531875,294.0202932,77.413833875Q293.8724265,77.600137875,293.7476802,77.802651875Q293.6229334,78.005166875,293.5230651,78.221038875Q293.4231968,78.436908875,293.3496151,78.663095875Q293.2760329,78.889278875,293.229774,79.122590875Q293.1835146,79.355899875,293.1652308,79.59304987499999Q293.1469464,79.830197875,293.1568947,80.067842875Q293.1668434,80.305486875,293.2048845,80.540277875Q293.2429256,80.775066875,293.3085232,81.003696875Q293.3741202,81.232324875,293.4663491,81.45156887499999Q293.5585785,81.670810875,293.6761394,81.877580875Q293.7937007,82.084348875,293.934937,82.275727875L300.874158,91.678588875L301.967465,93.16005687500001Q302.239549,93.528739875,302.42121099999997,93.949397875Q302.424571,93.95717587499999,302.427896,93.96496987500001Q302.569873,94.297591875,302.649886,94.650291875Q302.652062,94.659881875,302.654191,94.669482875Q302.75305,95.115405875,302.748837,95.572135875L302.730435,97.567458875L302.624053,109.10258487499999Q302.621855,109.34092687500001,302.647977,109.577842875Q302.674098,109.814765875,302.72817,110.046905875Q302.782242,110.279044875,302.8635,110.50312087500001Q302.944757,110.727195875,303.05205,110.940032875Q303.159342,111.152869875,303.29115,111.35146287500001Q303.422959,111.550056875,303.57742,111.731589875Q303.731879,111.913119875,303.906804,112.075027875Q304.081729,112.236930875,304.274644,112.37692287499999Q304.467558,112.51690687499999,304.675732,112.632995875Q304.883904,112.749084875,305.104391,112.839629875Q305.324877,112.930171875,305.554554,112.99388887500001Q305.784233,113.057609875,306.019854,113.093604875Q306.255474,113.129600875,306.493702,113.137359875Q306.73193,113.14511887500001,306.969393,113.124530875Q307.206856,113.103942875,307.440191,113.05529787500001Q307.673529,113.006652875,307.899437,112.930644875L318.832806,109.252071875L320.649561,108.640815875Q321.118725,108.482963875,321.612217,108.44424087499999Q321.621578,108.443507875,321.630947,108.442817875Q321.925114,108.421123875,322.21928,108.442817875Q322.228649,108.443507875,322.23801000000003,108.44424087499999Q322.731503,108.482963875,323.200668,108.640815875L325.017426,109.252071875L335.95079,112.930644875Q336.176697,113.006652875,336.410038,113.05529787500001Q336.643375,113.103942875,336.88084,113.124530875Q337.118301,113.14511887500001,337.356529,113.137359875Q337.594757,113.129600875,337.830376,113.093608875Q338.065994,113.05761287499999,338.295673,112.99389687499999Q338.525352,112.930175875,338.745838,112.839629875Q338.966324,112.749084875,339.174492,112.632999875Q339.382668,112.51690687499999,339.575581,112.37692287499999Q339.768494,112.236930875,339.943417,112.075027875Q340.11834,111.913119875,340.272804,111.731589875Q340.427261,111.550052875,340.559067,111.351459875Q340.69088,111.152865875,340.798172,110.940024875Q340.905464,110.727187875,340.986721,110.503112875Q341.067978,110.279037875,341.122055,110.046897875Q341.176125,109.814757875,341.202248,109.577842875Q341.228371,109.34092687500001,341.226173,109.10258487499999L341.11978899999997,97.56747387499999L341.101387,95.572135875Q341.097176,95.115405875,341.196033,94.669482875Q341.198162,94.659881875,341.20034,94.650291875Q341.280354,94.297591875,341.422329,93.96496587499999Q341.425655,93.957172875,341.429016,93.949393875Q341.610676,93.528735875,341.882759,93.16005687500001L349.915295,82.275725875Q350.05653,82.084346875,350.174088,81.877580875Q350.291653,81.670810875,350.383884,81.451566875Q350.476112,81.232324875,350.54171,81.003696875Q350.607307,80.775069875,350.645351,80.540279875Q350.683392,80.30548887500001,350.693336,80.06784487499999Q350.703289,79.830197875,350.685005,79.59304987499999Q350.666718,79.355899875,350.620461,79.122590875Q350.5742,78.889278875,350.50061800000003,78.663095875Q350.427036,78.436910875,350.32716800000003,78.221038875Q350.227303,78.005168875,350.102554,77.802655875Q349.977806,77.60014187499999,349.829937,77.413837875Q349.682068,77.22753287500001,349.51316099999997,77.060063875Q349.344261,76.892596875,349.1567,76.746326875Q348.969147,76.600053875,348.765575,76.477038875Q348.562004,76.354026875,348.345287,76.256003875Q348.128571,76.157981875,347.901764,76.086331875L336.758434,72.566083875L335.049038,72.026074875Q334.589561,71.88092387500001,334.177704,71.630809875Q334.170677,71.626540875,334.163666,71.622243875Q333.890553,71.454846875,333.647564,71.246120875Q333.639641,71.239316875,333.631756,71.232471875Z" fill-rule="evenodd" fill="#FFFFFF" fill-opacity="1"/></g><g transform="matrix(0.9496436715126038,-0.3133319616317749,0.3133319616317749,0.9496436715126038,-24.79223561839899,73.41218651513918)"><rect x="216" y="113.83837890625" width="80.9756851196289" height="13.710700035095215" rx="6.855350017547607" fill="#3BB8E9" fill-opacity="1"/><rect x="209" y="106.83837890625" width="94.9756851196289" height="27.710700035095215" rx="13.855350017547607" fill-opacity="0" stroke-opacity="1" stroke="#FFFFFF" fill="none" stroke-width="14"/></g><g transform="matrix(0.9766508340835571,-0.21483272314071655,0.21483272314071655,0.9766508340835571,-4.527326903335052,0.49205402919324115)"><path d="M11.328,45.06572746875Q11.328,35.46572846875,20.927999,35.46572846875L75.071999,35.46572846875Q84.671997,35.46572846875,84.671997,45.06572746875L84.671997,63.88172946875Q84.671997,73.48173146875,75.071999,73.48173146875L20.927999,73.48173146875Q11.328,73.48173146875,11.328,63.88172946875L11.328,45.06572746875ZM73.152,45.25772846875L22.848,45.25772846875L22.848,63.68973146875L73.152,63.68973146875L73.152,45.25772846875ZM74.496002,49.86573046875Q78.912003,49.86573046875,78.912003,54.28173046875L78.912003,54.66572946875Q78.912003,59.08172946875,74.496002,59.08172946875L21.504,59.08172946875Q17.087999,59.08172946875,17.087999,54.66572946875L17.087999,54.28173046875Q17.087999,49.86573046875,21.504,49.86573046875L74.496002,49.86573046875ZM86.208,110.92173046875Q91.008003,110.92173046875,91.008003,115.72173346875L91.008003,116.20172846875Q91.008003,121.00173146875,86.208,121.00173146875L9.8880005,121.00173146875Q4.9920001,121.00173146875,4.9920001,116.10572846875L4.9920001,115.81773346875Q4.9920001,110.92173046875,9.8880005,110.92173046875L86.208,110.92173046875ZM81.792,95.75373046875Q86.400002,95.75373046875,86.400002,100.36173246875L86.400002,100.74572746875Q86.400002,105.35372946875,81.792,105.35372946875L14.208,105.35372946875Q9.6000004,105.35372946875,9.6000004,100.74572746875L9.6000004,100.36173246875Q9.6000004,95.75373046875,14.208,95.75373046875L81.792,95.75373046875ZM49.056,74.72972846875Q54.720001,74.72972846875,54.720001,80.39373046875L54.720001,110.34573346875Q54.720001,116.00972746875,49.056,116.00972746875L48.672001,116.00972746875Q43.007999,116.00972746875,43.007999,110.34573346875L43.007999,80.39373046875Q43.007999,74.72972846875,48.672001,74.72972846875L49.056,74.72972846875ZM15.264,76.55373046874999Q20.832001,76.55373046874999,20.832001,80.09523046875L20.832001,80.10572846875L83.615997,80.10572846875Q88.416,80.10572846875,88.416,84.90573146874999L88.416,85.28973346875Q88.416,90.08972946875,83.615997,90.08972946875L19.007999,90.08972946875Q14.208,90.08972946875,11.76,87.64173146875Q9.3120003,85.19372546875,9.3120003,80.39373046875L9.3120003,80.10572846875Q9.3120003,76.55373046874999,14.88,76.55373046874999L15.264,76.55373046874999Z" fill="#FF4D6D" fill-opacity="1"/></g><g transform="matrix(0.9793528914451599,-0.20215825736522675,0.20215825736522675,0.9793528914451599,-4.968927959496796,19.09579197774292)"><path d="M125.848,82.63353315625Q125.848,78.12153615625,128.152,75.81753515625Q130.45600100000001,73.51353415625,134.967999,73.51353415625L143.703999,73.51353415625Q148.216,73.51353415625,150.52,75.81753515625Q152.824001,78.12153615625,152.824001,82.63353315625L152.824001,103.27353715625Q152.824001,107.78553815625,150.52,110.08953815625Q148.216,112.39353215625,143.703999,112.39353215625L134.967999,112.39353215625Q130.45600100000001,112.39353215625,128.152,110.08953815625Q125.848,107.78553815625,125.848,103.27353715625L125.848,82.63353315625ZM142.647999,83.68953315625001L136.024002,83.68953315625001L136.024002,102.21753715625L142.647999,102.21753715625L142.647999,83.68953315625001ZM115.672001,112.58553315625Q121.24,112.58553315625,121.24,118.15353415625L121.24,118.53753615625Q121.24,124.10553715625,115.672001,124.10553715625L100.69600009999999,124.10553715625Q95.1280003,124.10553715625,95.1280003,118.53753615625L95.1280003,118.15353415625Q95.1280003,112.58553315625,100.69600009999999,112.58553315625L115.672001,112.58553315625ZM149.848,118.63353715625Q155.031998,118.63353715625,155.031998,123.81753515625L155.031998,124.20153815625Q155.031998,129.38553615625,149.848,129.38553615625L127.576,129.38553615625Q122.392,129.38553615625,122.392,124.20153815625L122.392,123.81753515625Q122.392,118.63353715625,127.576,118.63353715625L149.848,118.63353715625ZM108.76,47.49753615625Q114.232,47.49753615625,114.232,52.96953615625L114.232,112.58553315625Q114.232,118.05753315625,108.76,118.05753315625L108.37599900000001,118.05753315625Q102.904,118.05753315625,102.904,112.58553315625L102.904,52.96953615625Q102.904,47.49753615625,108.37599900000001,47.49753615625L108.76,47.49753615625ZM115.672001,69.28953515625Q121.24,69.28953515625,121.24,74.85753615625L121.24,75.24153515625Q121.24,80.80953615625,115.672001,80.80953615625L101.464,80.80953615625Q95.89599989999999,80.80953615625,95.89599989999999,75.24153515625L95.89599989999999,74.85753615625Q95.89599989999999,69.28953515625,101.464,69.28953515625L115.672001,69.28953515625ZM178.840004,78.31353415625Q183.736,79.17753615625,182.68,83.97753515625Q179.512001,99.04953815625,173.416,111.72153515625Q167.32,124.39353215625,159.928001,132.74553715625Q156.760002,136.68153515625,153.112,133.32153315624998L152.728001,133.12953215624998Q149.175999,129.86553215625,152.248001,126.02553515625Q159.736,116.52153815625,164.872002,105.57753715625Q170.008003,94.63353715625,172.695999,82.24953415625001Q173.751999,77.44953515625,178.45600100000001,78.31353415625L178.840004,78.31353415625ZM161.94400000000002,47.11353315625Q167.127998,47.11353315625,167.127998,52.29753115625L167.127998,78.98553515625Q167.127998,91.36953315625,170.968002,102.69753215625Q174.807999,114.02553515625,182.968002,125.73753315625Q185.94400000000002,130.05753315625,181.912003,133.12953215624998L181.52800000000002,133.32153315624998Q177.400002,136.48953515624999,174.328003,132.26553315625Q165.304001,119.20953415625,160.840004,106.05753315625Q156.37599899999998,92.90553315625,156.37599899999998,78.98553515625L156.37599899999998,52.29753115625Q156.37599899999998,47.11353315625,161.559998,47.11353315625L161.94400000000002,47.11353315625ZM172.888,54.12153615625Q172.888,49.70553615625,177.304001,49.70553615625L177.688004,49.70553615625Q182.104004,49.70553615625,182.104004,54.12153615625L182.104004,57.86553215625Q182.104004,62.18553515625,179.896004,64.44153615625Q177.688004,66.69753615625001,173.27200299999998,66.69753615625001L128.248001,66.69753615625001Q123.256001,66.69753615625001,123.256001,61.705536156250005L123.256001,61.32153315625Q123.256001,56.32953615625,128.248001,56.32953615625L172.888,56.32953615625L172.888,54.12153615625Z" fill="#3D3D3D" fill-opacity="1"/></g><g transform="matrix(0.9953016042709351,0.09682308882474899,-0.09682308882474899,0.9953016042709351,1.290026220103755,-19.651849366011447)"><path d="M268.702766625,24.86631059375Q273.886764625,26.30630459375,272.350768625,31.49030659375Q268.030769625,45.21830759375,262.366767625,57.41030859375Q256.702766625,69.60231059375,251.038764625,77.37831159375Q248.062766625,81.89030459375,243.550765625,78.72230559375L243.166766625,78.53031159375Q238.84676762499998,75.45831259375,241.822765625,70.85031159375Q247.966766625,61.53830759375,252.910766625,50.78630859375Q257.854766625,40.03430959375,261.598766625,28.41830459375Q263.134765625,23.23430659375,268.318763625,24.67430859375L268.702766625,24.86631059375ZM280.894767625,46.85030759375Q285.886764625,44.83430859375,287.90276362500003,49.82630959375L296.83076462500003,72.48230759375Q298.846763625,77.47430459375,293.854766625,79.49031059375L293.470764625,79.68231159375Q288.478767625,81.69831059375,286.46276862499997,76.70630659375L277.534767625,54.05030859375Q275.518768625,49.05830759375,280.510764625,47.04230859375L280.894767625,46.85030759375ZM290.110763625,18.72230559375Q295.486762625,18.72230559375,295.486762625,24.09830459375L295.486762625,24.48230759375Q295.486762625,29.85830659375,290.110763625,29.85830659375L247.870765625,29.85830659375Q242.494766625,29.85830659375,242.494766625,24.48230759375L242.494766625,24.09830459375Q242.494766625,18.72230559375,247.870765625,18.72230559375L290.110763625,18.72230559375ZM269.278762625,47.81030659375Q274.846763625,47.81030659375,274.846763625,53.37830759375L274.846763625,99.45830559375Q274.846763625,105.02630859375,269.278762625,105.02630859375L268.894767625,105.02630859375Q263.326766625,105.02630859375,263.326766625,99.45830559375L263.326766625,53.37830759375Q263.326766625,47.81030659375,268.894767625,47.81030659375L269.278762625,47.81030659375ZM212.92676542499999,46.94630859375Q217.630765625,46.94630859375,217.630765625,51.65030659375L217.630765625,61.05830759375Q217.630765625,68.83430459375,217.102765625,76.22631059375Q216.574766625,83.61830859375,215.51876562500001,90.62631259375Q214.654765625,95.42630759375,210.046765825,94.37030759375L209.662765525,94.37030759375Q205.150765625,93.41030859375,205.822765625,88.70630659375Q206.878765625,82.37030759375,207.358765625,75.50630959375Q207.838765625,68.64231159375,207.838765625,61.05830759375L207.838765625,51.65030659375Q207.838765625,46.94630859375,212.542765625,46.94630859375L212.92676542499999,46.94630859375ZM235.67876462499999,29.95430759375Q241.246765625,29.95430759375,241.246765625,35.52230859375L241.246765625,35.90630759375Q241.246765625,41.47430759375,235.67876462499999,41.47430759375L212.158765825,41.47430759375Q206.590765725,41.47430759375,206.590765725,35.90630759375L206.590765725,35.52230859375Q206.590765725,29.95430759375,212.158765825,29.95430759375L235.67876462499999,29.95430759375ZM228.286765625,16.61030559375Q233.758766625,16.61030559375,233.758766625,22.08230559375L233.758766625,99.65030659375Q233.758766625,105.12230859375,228.286765625,105.12230859375L227.902765625,105.12230859375Q222.430765625,105.12230859375,222.430765625,99.65030659375L222.430765625,22.08230559375Q222.430765625,16.61030559375,227.902765625,16.61030559375L228.286765625,16.61030559375ZM239.51876462500002,57.60231059375Q244.222766625,60.48230759375,241.342765625,65.18630959375L241.150764625,65.57030859375Q238.270767625,70.27430759375,233.566766625,67.39430959375L229.822765625,65.28231059375Q225.118764625,62.40230959375,227.998765625,57.69830659375L228.190765625,57.31430859375Q231.070766625,52.61030959375,235.774764625,55.49030659375L239.51876462500002,57.60231059375Z" fill="#3D3D3D" fill-opacity="1"/></g></svg>