<svg xmlns="http://www.w3.org/2000/svg" xmlns:xlink="http://www.w3.org/1999/xlink" fill="none" version="1.1" width="2362" height="465" viewBox="0 0 2362 465"><defs><clipPath id="master_svg0_52_268"><rect x="-76" y="-76" width="2514" height="617" rx="0"/></clipPath></defs><g clip-path="url(#master_svg0_52_268)"><ellipse cx="421.5" cy="624.5" rx="381.5" ry="381.5" fill="#FFFFFF" fill-opacity="1"/><ellipse cx="799.5" cy="489.5" rx="381.5" ry="381.5" fill="#FFFFFF" fill-opacity="1"/><ellipse cx="1334.5" cy="504.5" rx="381.5" ry="381.5" fill="#FFFFFF" fill-opacity="1"/><g transform="matrix(0.9496436715126038,-0.3133319616317749,0.3133319616317749,0.9496436715126038,-48.20372209028574,419.17074025355396)"><rect x="1280" y="359.55419921875" width="454.9617004394531" height="13.710700035095215" rx="6.855350017547607" fill="#F8D211" fill-opacity="1"/><rect x="1273" y="352.55419921875" width="468.9617004394531" height="27.710700035095215" rx="13.855350017547607" fill-opacity="0" stroke-opacity="1" stroke="#FFFFFF" fill="none" stroke-width="14"/></g><g transform="matrix(0.9496436715126038,-0.3133319616317749,0.3133319616317749,0.9496436715126038,-64.42952115156731,221.22181913881286)"><rect x="656.0388793945312" y="311.06060791015625" width="86.36207580566406" height="13.710700988769531" rx="6.855350494384766" fill="#F8D211" fill-opacity="1"/><rect x="649.0388793945312" y="304.06060791015625" width="100.36207580566406" height="27.71070098876953" rx="13.855350494384766" fill-opacity="0" stroke-opacity="1" stroke="#FFFFFF" fill="none" stroke-width="14"/></g><ellipse cx="1960.5" cy="580.5" rx="381.5" ry="381.5" fill="#FFFFFF" fill-opacity="1"/><g transform="matrix(0.9526006579399109,0.30422350764274597,-0.30422350764274597,0.9526006579399109,123.1795015829266,-530.6039222957043)"><path d="M1823.2335048125,149.443878Q1823.5151598125,149.83919,1823.8278198125,150.210461Q1824.1404878125,150.581734,1824.4821168125,150.926542Q1824.8237458125,151.271349,1825.1921118125001,151.587439Q1825.5604708125,151.903526,1825.9531628125,152.188833Q1826.3458478125,152.474136,1826.7602958125,152.726793Q1827.1747438125,152.97944999999999,1827.6082458125,153.197809Q1828.0417478125,153.416166,1828.4914708125,153.59879899999999Q1828.9411928125,153.781433,1829.4041898125,153.927147L1836.1119688125,156.038187Q1836.4525068125,156.14535899999998,1836.7860718125,156.272587Q1837.1196368125,156.399815,1837.4450458125,156.546646Q1837.7704618125,156.693481,1838.0865788125,156.859402Q1838.4026798125,157.025322,1838.7083668125001,157.20973800000002Q1839.0140538125,157.394156,1839.3082428124999,157.59642Q1839.6024248125,157.798683,1839.8840558125,158.018076Q1840.1656948125,158.237473,1840.4337918125,158.473221Q1840.7018888125,158.708969,1840.9554898125,158.960239Q1841.2090988125,159.21151,1841.4473188125,159.477413Q1841.6855318125,159.743315,1841.9075238125,160.022907Q1842.1295168125,160.302502,1842.3344958124999,160.594799Q1842.5394748125,160.88709599999999,1842.7267148125,161.191059Q1842.9139558125,161.495026,1843.0827868125,161.809586Q1843.2516328125,162.124142,1843.4014668125,162.448181Q1843.5513148125,162.772224,1843.6816258125,163.10459500000002Q1843.8119358125,163.43697,1843.9222568125,163.776501Q1844.0325778125,164.116035,1844.1225208125,164.461525Q1844.2124638125001,164.807014,1844.2816998125,165.157238Q1844.3509448125,165.50746900000001,1844.3992458124999,165.861195Q1844.4475398125,166.21492,1844.4747318125,166.570885Q1844.5019228125,166.926853,1844.5079038125,167.283806Q1844.5138778125,167.640762,1844.4986188125,167.99743999999998Q1844.4833678125,168.354122,1844.4469378125,168.709267Q1844.4105068125,169.06440700000002,1844.3530278125,169.416756Q1844.2955478125,169.769104,1844.2172238125,170.117413Q1844.1389008125,170.465721,1844.0400008125,170.808754Q1843.9411168125,171.151794,1843.8219988125,171.488342Q1843.7028958125,171.824894,1843.5639798125,172.15376700000002Q1843.4250798125,172.482643,1843.2668608125,172.80267700000002Q1843.1086428125,173.122711,1842.9316788125,173.43276600000002Q1842.7547298125,173.742836,1842.5596538125,174.041828Q1842.3645778125,174.340828,1842.1520688125,174.627693L1837.9662018125,180.278301Q1837.6772768125,180.668331,1837.4207918125,181.080421Q1837.1643068125,181.492516,1836.9419398125,181.923973Q1836.7195738125,182.355434,1836.5327908125,182.803444Q1836.3460078125,183.25145700000002,1836.1960148125,183.713089Q1836.0460208125,184.174721,1835.9338078125,184.646957Q1835.8215788125,185.119194,1835.7478718125,185.598953Q1835.6741638125,186.078712,1835.6394348125,186.562859Q1835.6047138125,187.047005,1835.6092068125,187.532375L1835.6743088125,194.564209Q1835.6776118125,194.921204,1835.6596908125,195.277756Q1835.6417698125001,195.63431500000002,1835.6026688125,195.989166Q1835.5635838125,196.344032,1835.5034718125,196.695938Q1835.4433598125,197.047852,1835.3624268125,197.395561Q1835.2815018125,197.743271,1835.1800388125,198.085556Q1835.0785828125,198.427841,1834.9569548125,198.763489Q1834.8353268125,199.099144,1834.6939698125,199.42697099999998Q1834.5525968125,199.754799,1834.3919978125,200.07363900000001Q1834.2313918125,200.39248700000002,1834.0521168125001,200.70121Q1833.8728408125,201.009933,1833.6755298125,201.307457Q1833.4782258125,201.604988,1833.2635728125001,201.89025900000001Q1833.0489268125,202.17552899999998,1832.8176958125,202.44753300000002Q1832.5864718125,202.719543,1832.3394848125,202.977318Q1832.0924908125,203.235092,1831.8306118125,203.47773Q1831.5687408125,203.720375,1831.2928998125,203.947021Q1831.0170668125,204.17365999999998,1830.7282408125,204.383499Q1830.4394228125,204.59333800000002,1830.1386418125,204.785645Q1829.8378448125,204.977936,1829.5261538125,205.152016Q1829.2144618125,205.326096,1828.8929828125,205.481339Q1828.5714948125,205.636581,1828.2413478125,205.772438Q1827.9112048125,205.908295,1827.5735698125,206.024292Q1827.2359278125,206.140274,1826.8919868125,206.235985Q1826.5480578125,206.331703,1826.1990398125,206.406799Q1825.8500218125,206.481903,1825.4971538125,206.536118Q1825.1442908125,206.590332,1824.7888258125,206.623474Q1824.4333568125,206.65661599999999,1824.0765498125,206.668564Q1823.7197458125,206.680519,1823.3628618125,206.671234Q1823.0059778125,206.661957,1822.6502728125,206.63146999999998Q1822.2945708125,206.60099,1821.9413108125,206.549416Q1821.5880508125001,206.497849,1821.2384758125,206.425354Q1820.8889088125,206.35287499999998,1820.5442698125,206.25975Q1820.1996228125,206.166611,1819.8611258125,206.053154L1813.1935768125,203.818291Q1812.7333528125,203.66403200000002,1812.2621688125,203.547447Q1811.7909928125,203.430862,1811.3119358125,203.352707Q1810.8328778125,203.274559,1810.3490718125,203.23535900000002Q1809.8652728125,203.19615199999998,1809.3798828125,203.19615199999998Q1808.8944928125,203.19615199999998,1808.4106868125,203.235352Q1807.9268838125,203.274559,1807.4478298125,203.352707Q1806.9687728125,203.430862,1806.4975928125,203.54744Q1806.0264128125,203.66403200000002,1805.5661888125,203.818291L1798.8986358125,206.053154Q1798.5601388125,206.166611,1798.2154958125,206.25975Q1797.8708498125,206.352882,1797.5212788125,206.425362Q1797.1717108125,206.497849,1796.8184508125,206.549423Q1796.4651908125,206.60099,1796.1094858125,206.63146999999998Q1795.7537838125,206.661957,1795.3968998125,206.671234Q1795.0400128125,206.680511,1794.6832048125,206.668556Q1794.3264008125,206.65661599999999,1793.9709378125,206.623474Q1793.6154748125,206.590332,1793.2626078125,206.536118Q1792.9097438125,206.481903,1792.5607238125,206.406799Q1792.2117058125,206.331703,1791.8677678125,206.235985Q1791.5238328125,206.140274,1791.1861958125,206.024292Q1790.8485568125,205.908295,1790.5184098125,205.772438Q1790.1882648125,205.636581,1789.8667798125,205.481339Q1789.5452938125,205.326096,1789.2336048125,205.152016Q1788.9219168125,204.977936,1788.6211298125,204.785645Q1788.3203428125,204.59333800000002,1788.0315188125,204.383499Q1787.7426948125,204.17365999999998,1787.4668558125,203.947021Q1787.1910168125,203.720375,1786.9291398125,203.47773Q1786.6672628125,203.235092,1786.4202748125,202.977318Q1786.1732868125,202.719543,1785.9420568125,202.44753300000002Q1785.7108308125,202.17552899999998,1785.4961818125,201.89025900000001Q1785.2815318125,201.604996,1785.0842228125,201.30746499999998Q1784.8869128125,201.009941,1784.7076418125,200.70121799999998Q1784.5283658125,200.39248700000002,1784.3677638125,200.07363900000001Q1784.2071608125,199.754799,1784.0657958125,199.42697099999998Q1783.9244308125,199.099144,1783.8028028125,198.763489Q1783.6811788125,198.427841,1783.5797218125,198.085556Q1783.4782638125,197.743271,1783.3973348125,197.395561Q1783.3164058125,197.047852,1783.2562908125,196.695938Q1783.1961748125,196.344032,1783.1570858125,195.989166Q1783.1179998125,195.63431500000002,1783.1000768125,195.277756Q1783.0821538125,194.921204,1783.0854568125,194.564209L1783.1505548125,187.532375Q1783.1550488125,187.047005,1783.1203248125,186.562859Q1783.0856018125,186.078712,1783.0118908125,185.598953Q1782.9381788125,185.119194,1782.8259598125,184.646954Q1782.7137408125,184.174717,1782.5637478125,183.713085Q1782.4137538125,183.25145,1782.2269628125,182.80344Q1782.0401768125,182.355431,1781.8178138125,181.923965Q1781.5954518125,181.492508,1781.3389698125,181.080418Q1781.0824888125,180.668327,1780.7935598125,180.278297L1776.6076938125,174.627697Q1776.3951858125,174.340828,1776.2001078125,174.041832Q1776.0050298125,173.742836,1775.8280718125,173.43277Q1775.6511138125,173.122711,1775.4929018125,172.802673Q1775.3346898125,172.482643,1775.1957828125,172.15376700000002Q1775.0568758125,171.824894,1774.9377648125,171.488342Q1774.8186548125,171.151794,1774.7197618125,170.808754Q1774.6208708125,170.465721,1774.5425458125,170.117416Q1774.4642218125,169.769112,1774.4067418125,169.416759Q1774.3492632125,169.064415,1774.3128319125,168.70927Q1774.2763996125,168.354126,1774.2611446125,167.997444Q1774.2458916125,167.64077,1774.2518692125,167.283813Q1774.2578449125,166.92685699999998,1774.2850313125,166.570885Q1774.3122187125,166.21492,1774.3605184125,165.861195Q1774.4088188125,165.50746900000001,1774.4780608125,165.157242Q1774.5473038125,164.807018,1774.6372458125,164.461525Q1774.7271868125,164.116035,1774.8375068125,163.776501Q1774.9478278125,163.43697,1775.0781388125,163.10459500000002Q1775.2084488125,162.772224,1775.3582878125,162.448181Q1775.5081268125,162.124142,1775.6769658125,161.809584Q1775.8458038125,161.495026,1776.0330418125,161.191059Q1776.2202818125,160.88709599999999,1776.4252588125,160.594799Q1776.6302378125,160.302502,1776.8522278125,160.022905Q1777.0742208125,159.743313,1777.3124428125,159.477411Q1777.5506628125,159.21151,1777.8042698125,158.960239Q1778.0578778125,158.708969,1778.3259738125,158.473221Q1778.5940698125,158.237473,1778.8757058125,158.018076Q1779.1573428125,157.798683,1779.4515248125,157.59642Q1779.7457068125,157.394157,1780.0513918125,157.20974Q1780.3570768125,157.025322,1780.6731858125,156.859404Q1780.9892918125,156.693485,1781.3147048125,156.54665Q1781.6401178125,156.399818,1781.9736838125,156.272591Q1782.3072508125001,156.145363,1782.6477888125,156.038189L1789.3555718125,153.927145Q1789.8185708125,153.781429,1790.2682918125,153.598797Q1790.7180098125,153.416164,1791.1515118125,153.197809Q1791.5850108125,152.97944999999999,1791.9994588125,152.726793Q1792.4139078125,152.474136,1792.8065968125,152.188833Q1793.1992838125,151.903528,1793.5676458125,151.58744000000002Q1793.9360088125,151.271351,1794.2776378125,150.926544Q1794.6192668125,150.581738,1794.9319328125,150.210464Q1795.2445988125,149.839193,1795.5262568125,149.443882L1799.6067998125,143.716745Q1799.8139608125,143.425992,1800.0380398125,143.148067Q1800.2621158125,142.870142,1800.5023198125,142.60603Q1800.7425268125,142.341919,1800.9980088125,142.092554Q1801.2534868125,141.843189,1801.5233418125,141.609453Q1801.7931978125,141.375717,1802.0764658125,141.158437Q1802.3597408125,140.941156,1802.6554258125,140.7411Q1802.9511148125,140.541044,1803.2581708124999,140.358921Q1803.5652318125,140.176797,1803.8825688125,140.013248Q1804.1999088125,139.8497009,1804.5264128125,139.705307Q1804.8529128125,139.560914,1805.1874198125,139.4361858Q1805.5219308125,139.3114586,1805.8632618125,139.2068377Q1806.2045938125,139.10221669999999,1806.5515408125,139.0180721Q1806.8984908125,138.9339275,1807.2498248125,138.8705578Q1807.6011618125,138.8071871,1807.9556428125,138.7648144Q1808.3101268125,138.7224436,1808.6665038125,138.7012205Q1809.0228808125,138.6799965,1809.3798828125,138.6799965Q1809.7368848125,138.6799965,1810.0932618125,138.7012205Q1810.4496348125,138.7224436,1810.8041148125,138.7648144Q1811.1585998125,138.8071871,1811.5099408125,138.8705578Q1811.8612748125,138.9339275,1812.2082218125,139.0180721Q1812.5551758125,139.10221669999999,1812.8965068125,139.2068386Q1813.2378388125,139.3114595,1813.5723418125,139.4361868Q1813.9068528125,139.560915,1814.2333598125,139.7053089Q1814.5598598125,139.8497028,1814.8772008125,140.013249Q1815.1945418125,140.176798,1815.5016018125,140.358921Q1815.8086548125,140.541045,1816.1043398125,140.7411Q1816.4000318125,140.941157,1816.6832998125,141.158438Q1816.9665718125,141.375719,1817.2364238125,141.609454Q1817.5062788125,141.84319,1817.7617568125,142.092554Q1818.0172388125,142.34192,1818.2574428125,142.606031Q1818.4976498125,142.870144,1818.7217258125,143.148069Q1818.9458088125,143.425993,1819.1529658125,143.716746L1823.2335048125,149.443878Z" fill="#F8D211" fill-opacity="1"/><path d="M1837.3460698125,136.5078568L1834.6270138125,132.6916008Q1825.3563428125,119.679997,1809.3798828125,119.679996Q1793.4034268125,119.679995,1784.1327518125,132.6915989L1781.4136998125,136.5078506L1776.9439928125,137.9145374Q1761.7044306125,142.710664,1756.7674341125,157.905178Q1751.8304378125,173.099693,1761.3404131125,185.937435L1764.1296489225,189.70269L1764.0862712825,194.38832100000002Q1763.9383735625,210.364098,1776.8635998125,219.754822Q1789.7888218125,229.145546,1804.9369848125,224.06810000000002L1809.3798828125,222.578903L1813.8227848125,224.06810000000002Q1828.9709318125,229.145538,1841.8961558125,219.754822Q1854.8213808125,210.364098,1854.6734928125,194.38831299999998L1854.6301118125,189.702694L1857.4193568125,185.93742Q1866.9293328125,173.099689,1861.9923248125,157.905174Q1857.0553288125,142.71066,1841.8157578125,137.9145355L1837.3460698125,136.5078568ZM1829.4041898125,153.927147Q1828.9411928125,153.781433,1828.4914708125,153.59879899999999Q1828.0417478125,153.416166,1827.6082458125,153.197809Q1827.1747438125,152.97944999999999,1826.7602958125,152.726793Q1826.3458478125,152.474136,1825.9531628125,152.188833Q1825.5604708125,151.903526,1825.1921078125,151.587439Q1824.8237458125,151.271351,1824.4821168125,150.926544Q1824.1404878125,150.581736,1823.8278238125,150.210463Q1823.5151598125,149.83919,1823.2335048125,149.443878L1819.1529658125,143.716746Q1818.9458088125,143.425993,1818.7217288125,143.148067Q1818.4976498125,142.870144,1818.2574428125,142.606031Q1818.0172388125,142.34192,1817.7617568125,142.092554Q1817.5062788125,141.84319,1817.2364238125,141.609454Q1816.9665718125,141.375719,1816.6832998125,141.158438Q1816.4000278125,140.941158,1816.1043358125,140.74110100000001Q1815.8086508125,140.541046,1815.5015948125001,140.358922Q1815.1945378125,140.176798,1814.8771968125,140.013249Q1814.5598598125,139.8497028,1814.2333528125,139.7053089Q1813.9068528125,139.560915,1813.5723418125,139.4361868Q1813.2378388125,139.3114595,1812.8965068125,139.2068386Q1812.5551758125,139.10221669999999,1812.2082218125,139.0180721Q1811.8612748125,138.9339275,1811.5099408125,138.8705578Q1811.1585998125,138.8071871,1810.8041148125,138.7648144Q1810.4496348125,138.7224436,1810.0932618125,138.7012205Q1809.7368848125,138.6799965,1809.3798828125,138.6799965Q1809.0228808125,138.6799965,1808.6665038125,138.7012205Q1808.3101268125,138.7224436,1807.9556428125,138.7648144Q1807.6011658125,138.8071871,1807.2498288125,138.8705578Q1806.8984908125,138.9339275,1806.5515438125,139.0180721Q1806.2045978125,139.10221669999999,1805.8632658125,139.2068377Q1805.5219348125,139.3114586,1805.1874198125,139.4361858Q1804.8529128125,139.560914,1804.5264128125,139.705307Q1804.1999088125,139.8497009,1803.8825688125,140.013248Q1803.5652318125,140.176797,1803.2581708124999,140.358921Q1802.9511148125,140.541044,1802.6554258125,140.7411Q1802.3597408125,140.941156,1802.0764658125,141.158437Q1801.7931978125,141.375717,1801.5233418125,141.609453Q1801.2534868125,141.843189,1800.9980088125,142.092554Q1800.7425268125,142.341919,1800.5023198125,142.60603Q1800.2621158125,142.870142,1800.0380398125,143.148067Q1799.8139608125,143.425992,1799.6067998125,143.716745L1795.5262568125,149.443882Q1795.2445988125,149.839193,1794.9319348125,150.210466Q1794.6192688125,150.581738,1794.2776398125,150.926544Q1793.9360088125,151.271351,1793.5676478125,151.58744000000002Q1793.1992858125,151.90353,1792.8065988125,152.188835Q1792.4139098125,152.47414,1791.9994598125,152.726795Q1791.5850108125,152.97944999999999,1791.1515118125,153.197809Q1790.7180098125,153.416164,1790.2682918125,153.598797Q1789.8185708125,153.781429,1789.3555718125,153.927145L1782.6477888125,156.038189Q1782.3072508125001,156.145363,1781.9736838125,156.272591Q1781.6401178125,156.399818,1781.3147048125,156.54665Q1780.9892918125,156.693485,1780.6731858125,156.859402Q1780.3570768125,157.025322,1780.0513918125,157.20973800000002Q1779.7457068125,157.394156,1779.4515248125,157.59642Q1779.1573428125,157.798683,1778.8757058125,158.018076Q1778.5940698125,158.237473,1778.3259738125,158.473221Q1778.0578778125,158.708969,1777.8042698125,158.960239Q1777.5506628125,159.21151,1777.3124428125,159.477413Q1777.0742208125,159.743315,1776.8522278125,160.022907Q1776.6302378125,160.302502,1776.4252598125,160.594799Q1776.2202818125,160.88709599999999,1776.0330418125,161.191059Q1775.8458038125,161.495026,1775.6769658125,161.809586Q1775.5081268125,162.124142,1775.3582878125,162.448181Q1775.2084498125,162.772224,1775.0781388125,163.10459500000002Q1774.9478288125,163.43697,1774.8375078125,163.776501Q1774.7271878125,164.116035,1774.6372458125,164.461525Q1774.5473048125,164.807018,1774.4780618125,165.157242Q1774.4088188125,165.50746900000001,1774.3605194125,165.861195Q1774.3122187125,166.21492,1774.2850313125,166.570885Q1774.2578449125,166.92685699999998,1774.2518682125,167.283813Q1774.2458916125,167.64077,1774.2611446125,167.997444Q1774.2763996125,168.354126,1774.3128319125,168.70927Q1774.3492632125,169.064415,1774.4067418125,169.416759Q1774.4642218125,169.769112,1774.5425458125,170.117416Q1774.6208708125,170.465721,1774.7197618125,170.808754Q1774.8186548125,171.151794,1774.9377648125,171.488342Q1775.0568758125,171.824894,1775.1957828125,172.15376700000002Q1775.3346898125,172.482643,1775.4929018125,172.80267700000002Q1775.6511138125,173.122711,1775.8280718125,173.43277Q1776.0050298125,173.742836,1776.2001078125,174.041832Q1776.3951858125,174.340828,1776.6076938125,174.627697L1780.7935598125,180.278297Q1781.0824888125,180.668327,1781.3389698125,181.080418Q1781.5954528125,181.492508,1781.8178158125,181.923969Q1782.0401768125,182.355431,1782.2269648125,182.803444Q1782.4137538125,183.25145700000002,1782.5637478125,183.713089Q1782.7137408125,184.174721,1782.8259598125,184.646957Q1782.9381788125,185.119194,1783.0118908125,185.598953Q1783.0856018125,186.078712,1783.1203248125,186.562859Q1783.1550488125,187.047005,1783.1505548125,187.532375L1783.0854568125,194.564209Q1783.0821538125,194.921204,1783.1000768125,195.277756Q1783.1179998125,195.63431500000002,1783.1570858125,195.989166Q1783.1961748125,196.344032,1783.2562908125,196.695938Q1783.3164058125,197.047852,1783.3973348125,197.395561Q1783.4782638125,197.743271,1783.5797218125,198.085556Q1783.6811788125,198.427841,1783.8028028125,198.763489Q1783.9244308125,199.099144,1784.0657958125,199.42697099999998Q1784.2071608125,199.754799,1784.3677638125,200.07363900000001Q1784.5283658125,200.39248700000002,1784.7076398125,200.70121Q1784.8869128125,201.009933,1785.0842228125,201.307457Q1785.2815338125,201.604988,1785.4961838125,201.89025900000001Q1785.7108308125,202.17552899999998,1785.9420588125,202.44753300000002Q1786.1732868125,202.719543,1786.4202748125,202.977318Q1786.6672628125,203.235092,1786.9291398125,203.47773Q1787.1910168125,203.720375,1787.4668558125,203.947021Q1787.7426948125,204.17365999999998,1788.0315188125,204.383499Q1788.3203428125,204.59333800000002,1788.6211318125,204.785645Q1788.9219168125,204.977936,1789.2336048125,205.152016Q1789.5452938125,205.326096,1789.8667798125,205.481339Q1790.1882648125,205.636581,1790.5184098125,205.772438Q1790.8485568125,205.908295,1791.1861938125,206.024292Q1791.5238328125,206.140274,1791.8677678125,206.235985Q1792.2117058125,206.331703,1792.5607238125,206.406799Q1792.9097438125,206.481903,1793.2626078125,206.536118Q1793.6154748125,206.590332,1793.9709378125,206.623474Q1794.3264008125,206.65661599999999,1794.6832048125,206.668564Q1795.0400128125,206.680519,1795.3968998125,206.671234Q1795.7537838125,206.661957,1796.1094858125,206.63146999999998Q1796.4651908125,206.60099,1796.8184508125,206.549416Q1797.1717108125,206.497849,1797.5212788125,206.425354Q1797.8708498125,206.35287499999998,1798.2154958125,206.25975Q1798.5601388125,206.166611,1798.8986358125,206.053154L1805.5661888125,203.818291Q1806.0264128125,203.66403200000002,1806.4975928125,203.547447Q1806.9687728125,203.430862,1807.4478268125,203.352707Q1807.9268798125,203.274559,1808.4106868125,203.23535900000002Q1808.8944928125,203.19615199999998,1809.3798828125,203.19615199999998Q1809.8652728125,203.19615199999998,1810.3490718125,203.235352Q1810.8328778125,203.274559,1811.3119358125,203.352707Q1811.7909928125,203.430862,1812.2621688125,203.54744Q1812.7333528125,203.66403200000002,1813.1935768125,203.818291L1819.8611258125,206.053154Q1820.1996228125,206.166611,1820.5442698125,206.25975Q1820.8889088125,206.352882,1821.2384758125,206.425362Q1821.5880508125001,206.497849,1821.9413068125,206.549423Q1822.2945708125,206.60099,1822.6502728125,206.63146999999998Q1823.0059778125,206.661957,1823.3628618125,206.671234Q1823.7197458125,206.680511,1824.0765498125,206.668556Q1824.4333568125,206.65661599999999,1824.7888258125,206.623474Q1825.1442908125,206.590332,1825.4971538125,206.536118Q1825.8500218125,206.481903,1826.1990398125,206.406799Q1826.5480578125,206.331703,1826.8919908125,206.235985Q1827.2359318125,206.140274,1827.5735698125,206.024292Q1827.9112048125,205.908295,1828.2413478125,205.772438Q1828.5714948125,205.636581,1828.8929748125,205.481339Q1829.2144618125,205.326096,1829.5261538125,205.152016Q1829.8378448125,204.977936,1830.1386338125,204.785645Q1830.4394228125,204.59333800000002,1830.7282408125,204.383499Q1831.0170668125,204.17365999999998,1831.2929078125,203.947021Q1831.5687408125,203.720375,1831.8306118125,203.47773Q1832.0924908125,203.235092,1832.3394778125,202.977318Q1832.5864718125,202.719543,1832.8177028125,202.44753300000002Q1833.0489348125,202.17552899999998,1833.2635808125,201.89025900000001Q1833.4782258125,201.604996,1833.6755368125,201.30746499999998Q1833.8728488125,201.009941,1834.0521318125,200.70121799999998Q1834.2314068125,200.39248700000002,1834.3920058125,200.07363900000001Q1834.5526118125,199.754799,1834.6939698125,199.42697099999998Q1834.8353348125,199.099144,1834.9569548125,198.763489Q1835.0785828125,198.427841,1835.1800458124999,198.085556Q1835.2815018125,197.743271,1835.3624268125,197.395561Q1835.4433598125,197.047852,1835.5034718125,196.695938Q1835.5635838125,196.344032,1835.6026688125,195.989166Q1835.6417698125001,195.63431500000002,1835.6596908125,195.277756Q1835.6776118125,194.921204,1835.6743088125,194.564209L1835.6092068125,187.532375Q1835.6047138125,187.047005,1835.6394348125,186.562859Q1835.6741558125,186.078712,1835.7478638125,185.598953Q1835.8215788125,185.119194,1835.9337998125,184.646954Q1836.0460208125,184.174717,1836.1960148125,183.713085Q1836.3460078125,183.251453,1836.5327908125,182.803444Q1836.7195818125,182.355434,1836.9419478125,181.923973Q1837.1643068125,181.492516,1837.4207918125,181.080421Q1837.6772768125,180.668331,1837.9662018125,180.278301L1842.1520688125,174.627693Q1842.3645778125,174.340828,1842.5596468125,174.041832Q1842.7547298125,173.742836,1842.9316788125,173.43277Q1843.1086428125,173.122711,1843.2668538125,172.802673Q1843.4250638125,172.482643,1843.5639648125,172.15376700000002Q1843.7028808125,171.82489,1843.8219908125,171.488342Q1843.9410938125,171.151791,1844.0399778125,170.808754Q1844.1388778125,170.465721,1844.2172088125,170.117413Q1844.2955318125,169.769104,1844.3530118125,169.416756Q1844.4104918125,169.06440700000002,1844.4469218125,168.709263Q1844.4833528125,168.354118,1844.4986038125,167.997437Q1844.5138628125,167.640762,1844.5078888125,167.283806Q1844.5019078125,166.926849,1844.4747158125,166.57088099999999Q1844.4475328125,166.214912,1844.3992308125,165.861191Q1844.3509368125,165.50746900000001,1844.2816848125,165.157238Q1844.2124478125,164.807014,1844.1225048125,164.461525Q1844.0325698125,164.116035,1843.9222488125,163.776501Q1843.8119358125,163.43697,1843.6816178125,163.10459500000002Q1843.5513148125,162.772224,1843.4014668125,162.448181Q1843.2516328125,162.124142,1843.0827868125,161.809584Q1842.9139558125,161.495026,1842.7267148125,161.191059Q1842.5394748125,160.88709599999999,1842.3344958124999,160.594799Q1842.1295168125,160.302502,1841.9075238125,160.022905Q1841.6855318125,159.743313,1841.4473118125,159.477411Q1841.2090988125,159.21151,1840.9554898125,158.960239Q1840.7018888125,158.708969,1840.4337918125,158.473221Q1840.1656948125,158.237471,1839.8840558125,158.018074Q1839.6024248125,157.798679,1839.3082428124999,157.596416Q1839.0140608125,157.39415400000001,1838.7083738125,157.209736Q1838.4026868125,157.025318,1838.0865788125,156.8594Q1837.7704618125,156.693481,1837.4450458125,156.546646Q1837.1196368125,156.399815,1836.7860718125,156.272587Q1836.4525068125,156.14535899999998,1836.1119688125,156.038187L1829.4041898125,153.927147Z" fill-rule="evenodd" fill="#FFFFFF" fill-opacity="1"/></g><g transform="matrix(0.7960842251777649,-0.6051858067512512,0.6051858067512512,0.7960842251777649,-1.24403962562792,485.8293408023892)"><g transform="matrix(0.9526006579399109,0.30422350764274597,-0.30422350764274597,0.9526006579399109,109.901774511236,-215.86202154227067)"><path d="M806.539168875,264.2046201875Q806.820823875,264.5999321875,807.133483875,264.9712031875Q807.4461518749999,265.3424761875,807.787780875,265.6872841875Q808.129409875,266.0320911875,808.497775875,266.3481811875Q808.866134875,266.6642681875,809.258826875,266.9495751875Q809.651511875,267.2348781875,810.065959875,267.4875351875Q810.480407875,267.7401921875,810.913909875,267.9585511875Q811.347411875,268.1769081875,811.797134875,268.3595411875Q812.246856875,268.5421751875,812.709853875,268.6878891875L819.417632875,270.7989291875Q819.758170875,270.9061011875,820.091735875,271.0333291875Q820.425300875,271.1605571875,820.750709875,271.3073881875Q821.076125875,271.4542231875,821.392242875,271.6201441875Q821.708343875,271.7860641875,822.014030875,271.9704801875Q822.319717875,272.1548981875,822.613906875,272.3571621875Q822.908088875,272.5594251875,823.189719875,272.7788181875Q823.471358875,272.9982151875,823.739455875,273.2339631875Q824.007552875,273.4697111875,824.261153875,273.7209811875Q824.514762875,273.9722521875,824.752982875,274.2381551875Q824.991195875,274.5040571875,825.213187875,274.7836491875Q825.435180875,275.0632441875,825.640159875,275.3555411875Q825.845138875,275.6478381875,826.032378875,275.9518011875Q826.219619875,276.2557681875,826.388450875,276.5703281875Q826.557296875,276.8848841875,826.707130875,277.2089231875Q826.856978875,277.5329661875,826.987289875,277.8653371875Q827.117599875,278.1977121875,827.227920875,278.5372431875Q827.338241875,278.8767771875,827.4281848749999,279.2222671875Q827.518127875,279.5677561875,827.5873638749999,279.9179801875Q827.656608875,280.2682111875,827.704909875,280.6219371875Q827.753203875,280.9756621875,827.780395875,281.3316271875Q827.807586875,281.6875951875,827.813567875,282.0445481875Q827.819541875,282.4015041875,827.804282875,282.7581821875Q827.789031875,283.1148641875,827.752601875,283.4700091875Q827.716170875,283.8251491875,827.658691875,284.1774981875Q827.601211875,284.52984618749997,827.522887875,284.8781551875Q827.444564875,285.22646318750003,827.345664875,285.5694961875Q827.246780875,285.9125361875,827.1276628749999,286.2490841875Q827.008559875,286.5856361875,826.869643875,286.9145091875Q826.730743875,287.2433851875,826.572524875,287.5634191875Q826.414306875,287.8834531875,826.237342875,288.1935081875Q826.060393875,288.5035781875,825.865317875,288.8025701875Q825.670241875,289.1015701875,825.457732875,289.3884351875L821.271865875,295.0390431875Q820.9829408749999,295.4290731875,820.726455875,295.8411631875Q820.469970875,296.2532581875,820.247603875,296.6847151875Q820.025237875,297.1161761875,819.838454875,297.5641861875Q819.651671875,298.0121991875,819.501678875,298.47383118749997Q819.351684875,298.9354631875,819.239471875,299.4076991875Q819.127242875,299.8799361875,819.053535875,300.3596951875Q818.979827875,300.8394541875,818.945098875,301.3236011875Q818.910377875,301.8077471875,818.914870875,302.2931171875L818.979972875,309.3249511875Q818.983275875,309.6819461875,818.965354875,310.0384981875Q818.947433875,310.3950571875,818.908332875,310.7499081875Q818.869247875,311.10477418749997,818.809135875,311.4566801875Q818.749023875,311.80859418750003,818.668090875,312.1563031875Q818.587165875,312.5040131875,818.485702875,312.8462981875Q818.384246875,313.1885831875,818.262618875,313.5242311875Q818.1409908749999,313.8598861875,817.999633875,314.1877131875Q817.858260875,314.5155411875,817.697661875,314.8343811875Q817.537055875,315.1532291875,817.357780875,315.4619521875Q817.178504875,315.7706751875,816.981193875,316.0681991875Q816.783889875,316.3657301875,816.569236875,316.6510011875Q816.354590875,316.9362711875,816.123359875,317.2082751875Q815.892135875,317.4802851875,815.645148875,317.73806018749997Q815.398154875,317.9958341875,815.136275875,318.2384721875Q814.874404875,318.4811171875,814.598563875,318.7077631875Q814.322730875,318.9344021875,814.033904875,319.14424118750003Q813.745086875,319.3540801875,813.444305875,319.5463871875Q813.143508875,319.7386781875,812.831817875,319.9127581875Q812.520125875,320.0868381875,812.198646875,320.2420811875Q811.877158875,320.3973231875,811.547011875,320.53318018749997Q811.216868875,320.6690371875,810.879233875,320.7850341875Q810.541591875,320.9010161875,810.197650875,320.9967271875Q809.853721875,321.0924451875,809.504703875,321.1675411875Q809.155685875,321.2426451875,808.802817875,321.2968601875Q808.449954875,321.3510741875,808.094489875,321.3842161875Q807.739020875,321.4173581875,807.382213875,321.4293061875Q807.025409875,321.4412611875,806.668525875,321.4319761875Q806.311641875,321.42269918750003,805.955936875,321.3922121875Q805.600234875,321.3617321875,805.246974875,321.3101581875Q804.893714875,321.2585911875,804.544139875,321.18609618749997Q804.194572875,321.1136171875,803.849933875,321.0204921875Q803.505286875,320.9273531875,803.166789875,320.8138961875L796.4992408749999,318.5790331875Q796.039016875,318.4247741875,795.567832875,318.30818918750003Q795.096656875,318.1916041875,794.617599875,318.1134491875Q794.138541875,318.0353011875,793.654735875,317.9961011875Q793.170936875,317.9568941875,792.685546875,317.9568941875Q792.200156875,317.9568941875,791.716350875,317.99609418750003Q791.232547875,318.0353011875,790.753493875,318.1134491875Q790.274436875,318.1916041875,789.803256875,318.3081821875Q789.332076875,318.4247741875,788.8718528750001,318.5790331875L782.204299875,320.8138961875Q781.865802875,320.9273531875,781.521159875,321.0204921875Q781.176513875,321.1136241875,780.826942875,321.1861041875Q780.477374875,321.2585911875,780.124114875,321.3101651875Q779.7708548749999,321.3617321875,779.415149875,321.3922121875Q779.059447875,321.42269918750003,778.702563875,321.4319761875Q778.345676875,321.4412531875,777.988868875,321.42929818749997Q777.632064875,321.4173581875,777.276601875,321.3842161875Q776.921138875,321.3510741875,776.568271875,321.2968601875Q776.215407875,321.2426451875,775.866387875,321.1675411875Q775.517369875,321.0924451875,775.173431875,320.9967271875Q774.829496875,320.9010161875,774.491859875,320.7850341875Q774.154220875,320.6690371875,773.824073875,320.53318018749997Q773.493928875,320.3973231875,773.172443875,320.2420811875Q772.850957875,320.0868381875,772.539268875,319.9127581875Q772.2275808750001,319.7386781875,771.926793875,319.5463871875Q771.626006875,319.3540801875,771.337182875,319.14424118750003Q771.048358875,318.9344021875,770.772519875,318.7077631875Q770.496680875,318.4811171875,770.234803875,318.2384721875Q769.972926875,317.9958341875,769.725938875,317.73806018749997Q769.478950875,317.4802851875,769.247720875,317.2082751875Q769.016494875,316.9362711875,768.801845875,316.6510011875Q768.587195875,316.3657381875,768.389886875,316.0682071875Q768.192576875,315.7706831875,768.013305875,315.4619601875Q767.8340298749999,315.1532291875,767.673427875,314.8343811875Q767.512824875,314.5155411875,767.371459875,314.1877131875Q767.230094875,313.8598861875,767.108466875,313.5242311875Q766.986842875,313.1885831875,766.885385875,312.8462981875Q766.783927875,312.5040131875,766.702998875,312.1563031875Q766.622069875,311.80859418750003,766.561954875,311.4566801875Q766.501838875,311.10477418749997,766.462749875,310.7499081875Q766.423663875,310.3950571875,766.405740875,310.0384981875Q766.387817875,309.6819461875,766.391120875,309.3249511875L766.456218875,302.2931171875Q766.460712875,301.8077471875,766.425988875,301.3236011875Q766.391265875,300.8394541875,766.317554875,300.3596951875Q766.243842875,299.8799361875,766.131623875,299.4076961875Q766.019404875,298.9354591875,765.869411875,298.4738271875Q765.719417875,298.0121921875,765.532626875,297.5641821875Q765.345840875,297.1161731875,765.123477875,296.6847071875Q764.901115875,296.2532501875,764.644633875,295.8411601875Q764.388152875,295.4290691875,764.099223875,295.0390391875L759.913357875,289.3884391875Q759.700849875,289.1015701875,759.505771875,288.8025741875Q759.310693875,288.5035781875,759.133735875,288.1935121875Q758.956777875,287.8834531875,758.798565875,287.5634151875Q758.640353875,287.2433851875,758.501446875,286.9145091875Q758.362539875,286.5856361875,758.243428875,286.2490841875Q758.124318875,285.9125361875,758.025425875,285.5694961875Q757.926534875,285.22646318750003,757.848209875,284.8781581875Q757.769885875,284.5298541875,757.712405875,284.1775011875Q757.654927275,283.8251571875,757.618495975,283.4700121875Q757.582063675,283.1148681875,757.566808675,282.7581861875Q757.551555675,282.4015121875,757.557533275,282.0445551875Q757.563508975,281.6875991875,757.590695375,281.3316271875Q757.617882775,280.9756621875,757.666182475,280.6219371875Q757.714482875,280.2682111875,757.783724875,279.9179841875Q757.852967875,279.56776018749997,757.942909875,279.2222671875Q758.032850875,278.8767771875,758.143170875,278.5372431875Q758.253491875,278.1977121875,758.383802875,277.8653371875Q758.514112875,277.5329661875,758.663951875,277.2089231875Q758.813790875,276.8848841875,758.982629875,276.5703261875Q759.151467875,276.2557681875,759.338705875,275.9518011875Q759.525945875,275.6478381875,759.730922875,275.3555411875Q759.935901875,275.0632441875,760.157891875,274.7836471875Q760.379884875,274.5040551875,760.618106875,274.2381531875Q760.856326875,273.9722521875,761.109933875,273.7209811875Q761.363541875,273.4697111875,761.631637875,273.2339631875Q761.899733875,272.9982151875,762.181369875,272.7788181875Q762.463006875,272.5594251875,762.757188875,272.3571621875Q763.051370875,272.1548991875,763.357055875,271.9704821875Q763.662740875,271.7860641875,763.978849875,271.6201461875Q764.294955875,271.4542271875,764.620368875,271.3073921875Q764.945781875,271.1605601875,765.279347875,271.0333331875Q765.612914875,270.9061051875,765.953452875,270.7989311875L772.661235875,268.6878871875Q773.124234875,268.5421711875,773.573955875,268.3595391875Q774.023673875,268.1769061875,774.457175875,267.9585511875Q774.890674875,267.7401921875,775.305122875,267.4875351875Q775.719571875,267.2348781875,776.112260875,266.9495751875Q776.504947875,266.6642701875,776.873309875,266.3481821875Q777.241672875,266.0320931875,777.583301875,265.6872861875Q777.924930875,265.3424801875,778.237596875,264.9712061875Q778.550262875,264.5999351875,778.831920875,264.2046241875L782.912463875,258.4774871875Q783.119624875,258.1867341875,783.343703875,257.9088091875Q783.567779875,257.6308841875,783.807983875,257.3667721875Q784.048190875,257.1026611875,784.303672875,256.8532961875Q784.559150875,256.6039311875,784.829005875,256.3701951875Q785.098861875,256.1364591875,785.382129875,255.9191791875Q785.665404875,255.7018981875,785.961089875,255.5018421875Q786.256778875,255.3017861875,786.563834875,255.1196631875Q786.870895875,254.9375391875,787.188232875,254.7739901875Q787.505572875,254.6104430875,787.832076875,254.4660491875Q788.158576875,254.3216561875,788.493083875,254.1969279875Q788.827594875,254.0722007875,789.168925875,253.9675798875Q789.510257875,253.86295888749999,789.857204875,253.7788142875Q790.204154875,253.6946696875,790.555488875,253.6312999875Q790.906825875,253.5679292875,791.261306875,253.5255565875Q791.615790875,253.4831857875,791.972167875,253.4619626875Q792.328544875,253.4407386875,792.685546875,253.4407386875Q793.042548875,253.4407386875,793.398925875,253.4619626875Q793.755298875,253.4831857875,794.109778875,253.5255565875Q794.464263875,253.5679292875,794.815604875,253.6312999875Q795.166938875,253.6946696875,795.513885875,253.7788142875Q795.860839875,253.86295888749999,796.202170875,253.9675807875Q796.5435028750001,254.0722016875,796.878005875,254.1969289875Q797.212516875,254.3216571875,797.539023875,254.4660510875Q797.865523875,254.6104449875,798.182864875,254.7739911875Q798.500205875,254.9375401875,798.807265875,255.1196631875Q799.114318875,255.3017871875,799.410003875,255.5018421875Q799.705695875,255.7018991875,799.988963875,255.9191801875Q800.272235875,256.1364611875,800.542087875,256.3701961875Q800.811942875,256.6039321875,801.067420875,256.8532961875Q801.322902875,257.1026621875,801.563106875,257.3667731875Q801.803313875,257.6308861875,802.027389875,257.9088111875Q802.251472875,258.1867351875,802.458629875,258.4774881875L806.539168875,264.2046201875Z" fill="#F8D211" fill-opacity="1"/><path d="M820.651733875,251.2685989875L817.932677875,247.4523429875Q808.662006875,234.44073918750001,792.685546875,234.4407381875Q776.709090875,234.4407371875,767.438415875,247.4523410875L764.719363875,251.2685927875L760.249656875,252.6752795875Q745.010094675,257.4714061875,740.073098175,272.6659201875Q735.136101875,287.8604351875,744.646077175,300.6981771875L747.435312985,304.4634321875L747.391935345,309.1490631875Q747.244037625,325.1248401875,760.169263875,334.5155641875Q773.094485875,343.90628818749997,788.242648875,338.8288421875L792.685546875,337.33964518749997L797.128448875,338.8288421875Q812.276595875,343.9062801875,825.201819875,334.5155641875Q838.127044875,325.1248401875,837.979156875,309.1490551875L837.935775875,304.4634361875L840.725020875,300.6981621875Q850.234996875,287.8604311875,845.297988875,272.6659161875Q840.360992875,257.4714021875,825.121421875,252.6752776875L820.651733875,251.2685989875ZM812.709853875,268.6878891875Q812.246856875,268.5421751875,811.797134875,268.3595411875Q811.347411875,268.1769081875,810.913909875,267.9585511875Q810.480407875,267.7401921875,810.065959875,267.4875351875Q809.651511875,267.2348781875,809.258826875,266.9495751875Q808.866134875,266.6642681875,808.497771875,266.3481811875Q808.129409875,266.0320931875,807.787780875,265.6872861875Q807.4461518749999,265.3424781875,807.133487875,264.9712051875Q806.820823875,264.5999321875,806.539168875,264.2046201875L802.458629875,258.4774881875Q802.251472875,258.1867351875,802.027392875,257.9088091875Q801.803313875,257.6308861875,801.563106875,257.3667731875Q801.322902875,257.1026621875,801.067420875,256.8532961875Q800.811942875,256.6039321875,800.542087875,256.3701961875Q800.272235875,256.1364611875,799.988963875,255.9191801875Q799.705691875,255.7019001875,799.409999875,255.50184318750001Q799.114314875,255.3017881875,798.807258875,255.1196641875Q798.500201875,254.9375401875,798.182860875,254.7739911875Q797.865523875,254.6104449875,797.539016875,254.4660510875Q797.212516875,254.3216571875,796.878005875,254.1969289875Q796.5435028750001,254.0722016875,796.202170875,253.9675807875Q795.860839875,253.86295888749999,795.513885875,253.7788142875Q795.166938875,253.6946696875,794.815604875,253.6312999875Q794.464263875,253.5679292875,794.109778875,253.5255565875Q793.755298875,253.4831857875,793.398925875,253.4619626875Q793.042548875,253.4407386875,792.685546875,253.4407386875Q792.328544875,253.4407386875,791.972167875,253.4619626875Q791.615790875,253.4831857875,791.261306875,253.5255565875Q790.906829875,253.5679292875,790.555492875,253.6312999875Q790.204154875,253.6946696875,789.857207875,253.7788142875Q789.510261875,253.86295888749999,789.168929875,253.9675798875Q788.827598875,254.0722007875,788.493083875,254.1969279875Q788.158576875,254.3216561875,787.832076875,254.4660491875Q787.505572875,254.6104430875,787.188232875,254.7739901875Q786.870895875,254.9375391875,786.563834875,255.1196631875Q786.256778875,255.3017861875,785.961089875,255.5018421875Q785.665404875,255.7018981875,785.382129875,255.9191791875Q785.098861875,256.1364591875,784.829005875,256.3701951875Q784.559150875,256.6039311875,784.303672875,256.8532961875Q784.048190875,257.1026611875,783.807983875,257.3667721875Q783.567779875,257.6308841875,783.343703875,257.9088091875Q783.119624875,258.1867341875,782.912463875,258.4774871875L778.831920875,264.2046241875Q778.550262875,264.5999351875,778.237598875,264.9712081875Q777.924932875,265.3424801875,777.583303875,265.6872861875Q777.241672875,266.0320931875,776.873311875,266.3481821875Q776.504949875,266.6642721875,776.1122628749999,266.9495771875Q775.719573875,267.2348821875,775.305123875,267.4875371875Q774.890674875,267.7401921875,774.457175875,267.9585511875Q774.023673875,268.1769061875,773.573955875,268.3595391875Q773.124234875,268.5421711875,772.661235875,268.6878871875L765.953452875,270.7989311875Q765.612914875,270.9061051875,765.279347875,271.0333331875Q764.945781875,271.1605601875,764.620368875,271.3073921875Q764.294955875,271.4542271875,763.978849875,271.6201441875Q763.662740875,271.7860641875,763.357055875,271.9704801875Q763.051370875,272.1548981875,762.757188875,272.3571621875Q762.463006875,272.5594251875,762.181369875,272.7788181875Q761.899733875,272.9982151875,761.631637875,273.2339631875Q761.363541875,273.4697111875,761.109933875,273.7209811875Q760.856326875,273.9722521875,760.618106875,274.2381551875Q760.379884875,274.5040571875,760.157891875,274.7836491875Q759.935901875,275.0632441875,759.730923875,275.3555411875Q759.525945875,275.6478381875,759.338705875,275.9518011875Q759.151467875,276.2557681875,758.982629875,276.5703281875Q758.813790875,276.8848841875,758.663951875,277.2089231875Q758.514113875,277.5329661875,758.383802875,277.8653371875Q758.253492875,278.1977121875,758.143171875,278.5372431875Q758.032851875,278.8767771875,757.942909875,279.2222671875Q757.852968875,279.56776018749997,757.783725875,279.9179841875Q757.714482875,280.2682111875,757.666183475,280.6219371875Q757.617882775,280.9756621875,757.590695375,281.3316271875Q757.563508975,281.6875991875,757.557532275,282.0445551875Q757.551555675,282.4015121875,757.566808675,282.7581861875Q757.582063675,283.1148681875,757.618495975,283.4700121875Q757.654927275,283.8251571875,757.712405875,284.1775011875Q757.769885875,284.5298541875,757.848209875,284.8781581875Q757.926534875,285.22646318750003,758.025425875,285.5694961875Q758.124318875,285.9125361875,758.243428875,286.2490841875Q758.362539875,286.5856361875,758.501446875,286.9145091875Q758.640353875,287.2433851875,758.798565875,287.5634191875Q758.956777875,287.8834531875,759.133735875,288.1935121875Q759.310693875,288.5035781875,759.505771875,288.8025741875Q759.700849875,289.1015701875,759.913357875,289.3884391875L764.099223875,295.0390391875Q764.388152875,295.4290691875,764.644633875,295.8411601875Q764.901116875,296.2532501875,765.123479875,296.6847111875Q765.345840875,297.1161731875,765.532628875,297.5641861875Q765.719417875,298.0121991875,765.869411875,298.47383118749997Q766.019404875,298.9354631875,766.131623875,299.4076991875Q766.243842875,299.8799361875,766.317554875,300.3596951875Q766.391265875,300.8394541875,766.425988875,301.3236011875Q766.460712875,301.8077471875,766.456218875,302.2931171875L766.391120875,309.3249511875Q766.387817875,309.6819461875,766.405740875,310.0384981875Q766.423663875,310.3950571875,766.462749875,310.7499081875Q766.501838875,311.10477418749997,766.561954875,311.4566801875Q766.622069875,311.80859418750003,766.702998875,312.1563031875Q766.783927875,312.5040131875,766.885385875,312.8462981875Q766.986842875,313.1885831875,767.108466875,313.5242311875Q767.230094875,313.8598861875,767.371459875,314.1877131875Q767.512824875,314.5155411875,767.673427875,314.8343811875Q767.8340298749999,315.1532291875,768.013303875,315.4619521875Q768.192576875,315.7706751875,768.389886875,316.0681991875Q768.587197875,316.3657301875,768.801847875,316.6510011875Q769.016494875,316.9362711875,769.247722875,317.2082751875Q769.478950875,317.4802851875,769.725938875,317.73806018749997Q769.972926875,317.9958341875,770.234803875,318.2384721875Q770.496680875,318.4811171875,770.772519875,318.7077631875Q771.048358875,318.9344021875,771.337182875,319.14424118750003Q771.626006875,319.3540801875,771.926795875,319.5463871875Q772.2275808750001,319.7386781875,772.539268875,319.9127581875Q772.850957875,320.0868381875,773.172443875,320.2420811875Q773.493928875,320.3973231875,773.824073875,320.53318018749997Q774.154220875,320.6690371875,774.491857875,320.7850341875Q774.829496875,320.9010161875,775.173431875,320.9967271875Q775.517369875,321.0924451875,775.866387875,321.1675411875Q776.215407875,321.2426451875,776.568271875,321.2968601875Q776.921138875,321.3510741875,777.276601875,321.3842161875Q777.632064875,321.4173581875,777.988868875,321.4293061875Q778.345676875,321.4412611875,778.702563875,321.4319761875Q779.059447875,321.42269918750003,779.415149875,321.3922121875Q779.7708548749999,321.3617321875,780.124114875,321.3101581875Q780.477374875,321.2585911875,780.826942875,321.18609618749997Q781.176513875,321.1136171875,781.521159875,321.0204921875Q781.865802875,320.9273531875,782.204299875,320.8138961875L788.8718528750001,318.5790331875Q789.332076875,318.4247741875,789.803256875,318.30818918750003Q790.274436875,318.1916041875,790.753490875,318.1134491875Q791.232543875,318.0353011875,791.716350875,317.9961011875Q792.200156875,317.9568941875,792.685546875,317.9568941875Q793.170936875,317.9568941875,793.654735875,317.99609418750003Q794.138541875,318.0353011875,794.617599875,318.1134491875Q795.096656875,318.1916041875,795.567832875,318.3081821875Q796.039016875,318.4247741875,796.4992408749999,318.5790331875L803.166789875,320.8138961875Q803.505286875,320.9273531875,803.849933875,321.0204921875Q804.194572875,321.1136241875,804.544139875,321.1861041875Q804.893714875,321.2585911875,805.246970875,321.3101651875Q805.600234875,321.3617321875,805.955936875,321.3922121875Q806.311641875,321.42269918750003,806.668525875,321.4319761875Q807.025409875,321.4412531875,807.382213875,321.42929818749997Q807.739020875,321.4173581875,808.094489875,321.3842161875Q808.449954875,321.3510741875,808.802817875,321.2968601875Q809.155685875,321.2426451875,809.504703875,321.1675411875Q809.853721875,321.0924451875,810.197654875,320.9967271875Q810.541595875,320.9010161875,810.879233875,320.7850341875Q811.216868875,320.6690371875,811.547011875,320.53318018749997Q811.877158875,320.3973231875,812.198638875,320.2420811875Q812.520125875,320.0868381875,812.831817875,319.9127581875Q813.143508875,319.7386781875,813.444297875,319.5463871875Q813.745086875,319.3540801875,814.033904875,319.14424118750003Q814.322730875,318.9344021875,814.5985718750001,318.7077631875Q814.874404875,318.4811171875,815.136275875,318.2384721875Q815.398154875,317.9958341875,815.645141875,317.73806018749997Q815.892135875,317.4802851875,816.123366875,317.2082751875Q816.354598875,316.9362711875,816.569244875,316.6510011875Q816.783889875,316.3657381875,816.981200875,316.0682071875Q817.178512875,315.7706831875,817.357795875,315.4619601875Q817.537070875,315.1532291875,817.697669875,314.8343811875Q817.858275875,314.5155411875,817.999633875,314.1877131875Q818.140998875,313.8598861875,818.262618875,313.5242311875Q818.384246875,313.1885831875,818.485709875,312.8462981875Q818.587165875,312.5040131875,818.668090875,312.1563031875Q818.749023875,311.80859418750003,818.809135875,311.4566801875Q818.869247875,311.10477418749997,818.908332875,310.7499081875Q818.947433875,310.3950571875,818.965354875,310.0384981875Q818.983275875,309.6819461875,818.979972875,309.3249511875L818.914870875,302.2931171875Q818.910377875,301.8077471875,818.945098875,301.3236011875Q818.979819875,300.8394541875,819.053527875,300.3596951875Q819.127242875,299.8799361875,819.239463875,299.4076961875Q819.351684875,298.9354591875,819.501678875,298.4738271875Q819.651671875,298.01219518749997,819.838454875,297.5641861875Q820.025245875,297.1161761875,820.247611875,296.6847151875Q820.469970875,296.2532581875,820.726455875,295.8411631875Q820.9829408749999,295.4290731875,821.271865875,295.0390431875L825.457732875,289.3884351875Q825.670241875,289.1015701875,825.865310875,288.8025741875Q826.060393875,288.5035781875,826.237342875,288.1935121875Q826.414306875,287.8834531875,826.572517875,287.5634151875Q826.730727875,287.2433851875,826.869628875,286.9145091875Q827.008544875,286.5856321875,827.127654875,286.2490841875Q827.246757875,285.9125331875,827.345641875,285.5694961875Q827.444541875,285.22646318750003,827.522872875,284.8781551875Q827.601195875,284.52984618749997,827.658675875,284.1774981875Q827.716155875,283.8251491875,827.752585875,283.4700051875Q827.789016875,283.11486018749997,827.804267875,282.7581791875Q827.819526875,282.4015041875,827.813552875,282.0445481875Q827.807571875,281.6875911875,827.780379875,281.3316231875Q827.753196875,280.9756541875,827.704894875,280.6219331875Q827.656600875,280.2682111875,827.587348875,279.9179801875Q827.518111875,279.5677561875,827.428168875,279.2222671875Q827.338233875,278.8767771875,827.227912875,278.5372431875Q827.117599875,278.1977121875,826.987281875,277.8653371875Q826.856978875,277.5329661875,826.707130875,277.2089231875Q826.557296875,276.8848841875,826.388450875,276.5703261875Q826.219619875,276.2557681875,826.032378875,275.9518011875Q825.845138875,275.6478381875,825.640159875,275.3555411875Q825.435180875,275.0632441875,825.213187875,274.7836471875Q824.991195875,274.5040551875,824.752975875,274.2381531875Q824.514762875,273.9722521875,824.261153875,273.7209811875Q824.007552875,273.4697111875,823.739455875,273.2339631875Q823.471358875,272.9982131875,823.189719875,272.7788161875Q822.908088875,272.5594211875,822.613906875,272.3571581875Q822.319724875,272.1548961875,822.014037875,271.9704781875Q821.708350875,271.78606018749997,821.392242875,271.6201421875Q821.076125875,271.4542231875,820.750709875,271.3073881875Q820.425300875,271.1605571875,820.091735875,271.0333291875Q819.758170875,270.9061011875,819.417632875,270.7989291875L812.709853875,268.6878891875Z" fill-rule="evenodd" fill="#FFFFFF" fill-opacity="1"/></g></g></g></svg>