<svg xmlns="http://www.w3.org/2000/svg" xmlns:xlink="http://www.w3.org/1999/xlink" fill="none" version="1.1" width="2362" height="465" viewBox="0 0 2362 465"><defs><clipPath id="master_svg0_2_278"><rect x="0" y="0" width="2362" height="465" rx="0"/></clipPath></defs><g clip-path="url(#master_svg0_2_278)"><g><rect x="2" y="192.99942016601562" width="2360" height="300" rx="0" fill="#000000" fill-opacity="1"/></g><g transform="matrix(-1,0,0,1,4487.240234375,0)"><g><rect x="3158.2403564453125" y="109.99897766113281" width="170" height="153" rx="0" fill="#E93B66" fill-opacity="1"/></g><g><rect x="3359.2403564453125" y="143.9989776611328" width="140" height="125" rx="0" fill="#E93B66" fill-opacity="1"/></g><g><rect x="3538.2403564453125" y="178.9989776611328" width="459" height="94" rx="0" fill="#E93B66" fill-opacity="1"/></g><g><rect x="4028.2403564453125" y="101.99897766113281" width="459" height="94" rx="0" fill="#E93B66" fill-opacity="1"/></g><g><rect x="2852.240478515625" y="288.99896240234375" width="417" height="11" rx="0" fill="#E93B66" fill-opacity="1"/></g><g><rect x="4079.2403564453125" y="75.99897766113281" width="221" height="73" rx="0" fill="#3D3D3D" fill-opacity="1"/></g><g><rect x="3893.2403564453125" y="112.99897766113281" width="297" height="146" rx="0" fill="#3D3D3D" fill-opacity="1"/></g><g><rect x="3700.2403564453125" y="185.9989776611328" width="297" height="48" rx="0" fill="#3D3D3D" fill-opacity="1"/></g><g><rect x="3459.2403564453125" y="88.99897766113281" width="59" height="60" rx="0" fill="#3D3D3D" fill-opacity="1"/></g><g><rect x="2934.2404174804688" y="71.99897766113281" width="59" height="60" rx="0" fill="#3D3D3D" fill-opacity="1"/></g><g><rect x="3108.2403564453125" y="148.9989776611328" width="501" height="60" rx="0" fill="#3D3D3D" fill-opacity="1"/></g><g><rect x="3489.2403564453125" y="258.99896240234375" width="120" height="42" rx="0" fill="#3D3D3D" fill-opacity="1"/></g><g><rect x="3592.2403564453125" y="237.9989776611328" width="220" height="42" rx="0" fill="#3D3D3D" fill-opacity="1"/></g><g><rect x="3255.2403564453125" y="185.99942016601562" width="73" height="168" rx="0" fill="#3D3D3D" fill-opacity="1"/></g><g><rect x="3177.2403564453125" y="125.99897766113281" width="262" height="168" rx="0" fill="#3D3D3D" fill-opacity="1"/></g><g transform="matrix(0.7071067690849304,0.7071067690849304,0.7071067690849304,-0.7071067690849304,606.41369258948,-1464.0120361131067)"><path d="M2883.87353515625,814.4478438769531L3542.00408515625,814.4478438769531L3542.00408515625,813.4478438769531L2884.87353515625,813.4478438769531L2884.87353515625,337.66526645695313L3065.20463515625,337.6482238769531L3065.20454515625,336.6482238769531L2883.87353518625,336.6653610169531L2883.87353515625,814.4478438769531Z" fill-rule="evenodd" fill="#FFFFFF" fill-opacity="1"/></g><g transform="matrix(0.7071067690849304,-0.7071067094802856,-0.7071067094802856,-0.7071067690849304,939.5195047130292,2268.2005319530417)"><rect x="2460.23193359375" y="309.6197814941406" width="8.497149467468262" height="306.3355712890625" rx="0" fill="#FFFFFF" fill-opacity="1"/></g><g transform="matrix(0.7071067690849304,-0.7071067094802856,-0.7071067094802856,-0.7071067690849304,947.1916658712034,2286.7227481345817)"><rect x="2586.032958984375" y="268.3613586425781" width="59.00013732910156" height="306.3356018066406" rx="0" fill="#FFFFFF" fill-opacity="1"/></g><g><rect x="2803.240478515625" y="200.9989776611328" width="262" height="32" rx="0" fill="#3D3D3D" fill-opacity="1"/></g><g><rect x="3722.2403564453125" y="178.9989776611328" width="58" height="168" rx="0" fill="#3D3D3D" fill-opacity="1"/></g><g><rect x="4242.2403564453125" y="216.9989776611328" width="181" height="65" rx="0" fill="#3D3D3D" fill-opacity="1"/></g><g><rect x="3849.2403564453125" y="235.9989776611328" width="181" height="65" rx="0" fill="#3D3D3D" fill-opacity="1"/></g></g><g><g><rect x="1033" y="120.99897766113281" width="170" height="153" rx="0" fill="#E93B66" fill-opacity="1"/></g><g><rect x="1234" y="154.9989776611328" width="140" height="125" rx="0" fill="#E93B66" fill-opacity="1"/></g><g><rect x="1413" y="189.9989776611328" width="459" height="94" rx="0" fill="#E93B66" fill-opacity="1"/></g><g><rect x="1903" y="112.99897766113281" width="459" height="94" rx="0" fill="#E93B66" fill-opacity="1"/></g><g><rect x="727" y="299.9989776611328" width="417" height="11" rx="0" fill="#E93B66" fill-opacity="1"/></g><g><rect x="1954" y="86.99897766113281" width="221" height="73" rx="0" fill="#3D3D3D" fill-opacity="1"/></g><g><rect x="1768" y="123.99897766113281" width="297" height="146" rx="0" fill="#3D3D3D" fill-opacity="1"/></g><g><rect x="1575" y="196.9989776611328" width="297" height="48" rx="0" fill="#3D3D3D" fill-opacity="1"/></g><g><rect x="1334" y="99.99897766113281" width="59" height="60" rx="0" fill="#3D3D3D" fill-opacity="1"/></g><g><rect x="1059" y="26.998977661132812" width="59" height="60" rx="0" fill="#3D3D3D" fill-opacity="1"/></g><g><rect x="983" y="159.9989776611328" width="501" height="60" rx="0" fill="#3D3D3D" fill-opacity="1"/></g><g><rect x="1364" y="269.9989776611328" width="120" height="42" rx="0" fill="#3D3D3D" fill-opacity="1"/></g><g><rect x="1467" y="248.9989776611328" width="220" height="42" rx="0" fill="#3D3D3D" fill-opacity="1"/></g><g><rect x="1055" y="174.9994659423828" width="73" height="168" rx="0" fill="#3D3D3D" fill-opacity="1"/></g><g><rect x="678" y="211.9989776611328" width="262" height="32" rx="0" fill="#3D3D3D" fill-opacity="1"/></g><g><rect x="1597" y="189.9989776611328" width="58" height="168" rx="0" fill="#3D3D3D" fill-opacity="1"/></g><g><rect x="2117" y="227.9989776611328" width="181" height="65" rx="0" fill="#3D3D3D" fill-opacity="1"/></g><g><rect x="1724" y="246.9989776611328" width="181" height="65" rx="0" fill="#3D3D3D" fill-opacity="1"/></g></g><g><g><path d="M638,311.99945068359375L643.6119404,318.12445068359375L638,323.99945068359375L648.38806,323.99945068359375L654,318.12445068359375L648.38806,311.99945068359375L638,311.99945068359375Z" fill="#FFFFFF" fill-opacity="1"/></g><g><path d="M655,311.99945068359375L660.6119404,318.12445068359375L655,323.99945068359375L665.38806,323.99945068359375L671,318.12445068359375L665.38806,311.99945068359375L655,311.99945068359375Z" fill="#FFFFFF" fill-opacity="1"/></g><g><path d="M673,311.99945068359375L678.6119404,318.12445068359375L673,323.99945068359375L683.38806,323.99945068359375L689,318.12445068359375L683.38806,311.99945068359375L673,311.99945068359375Z" fill="#FFFFFF" fill-opacity="1"/></g><g><path d="M690,311.99945068359375L695.6119404,318.12445068359375L690,323.99945068359375L700.38806,323.99945068359375L706,318.12445068359375L700.38806,311.99945068359375L690,311.99945068359375Z" fill="#FFFFFF" fill-opacity="1"/></g></g></g></svg>