<svg xmlns="http://www.w3.org/2000/svg" xmlns:xlink="http://www.w3.org/1999/xlink" fill="none" version="1.1" width="1022" height="445" viewBox="0 0 1022 445"><defs><linearGradient x1="1" y1="0.5" x2="0" y2="0.5" id="master_svg0_8_2329"><stop offset="0%" stop-color="#FFFFFF" stop-opacity="0"/><stop offset="26.428571343421936%" stop-color="#FFFFFF" stop-opacity="1"/><stop offset="77.14285850524902%" stop-color="#FFFFFF" stop-opacity="1"/><stop offset="100%" stop-color="#FFFFFF" stop-opacity="0"/></linearGradient><linearGradient x1="1" y1="0.5" x2="0" y2="0.5" id="master_svg1_11_439"><stop offset="0%" stop-color="#E93B66" stop-opacity="1"/><stop offset="100%" stop-color="#E93B66" stop-opacity="0"/></linearGradient><linearGradient x1="1" y1="0.5" x2="0" y2="0.5" id="master_svg2_8_2329"><stop offset="0%" stop-color="#FFFFFF" stop-opacity="0"/><stop offset="26.428571343421936%" stop-color="#FFFFFF" stop-opacity="1"/><stop offset="77.14285850524902%" stop-color="#FFFFFF" stop-opacity="1"/><stop offset="100%" stop-color="#FFFFFF" stop-opacity="0"/></linearGradient><linearGradient x1="1" y1="0.5" x2="0" y2="0.5" id="master_svg3_11_439"><stop offset="0%" stop-color="#E93B66" stop-opacity="1"/><stop offset="100%" stop-color="#E93B66" stop-opacity="0"/></linearGradient><linearGradient x1="1" y1="0.5" x2="0" y2="0.5" id="master_svg4_8_2329"><stop offset="0%" stop-color="#FFFFFF" stop-opacity="0"/><stop offset="26.428571343421936%" stop-color="#FFFFFF" stop-opacity="1"/><stop offset="77.14285850524902%" stop-color="#FFFFFF" stop-opacity="1"/><stop offset="100%" stop-color="#FFFFFF" stop-opacity="0"/></linearGradient><linearGradient x1="1" y1="0.5" x2="0" y2="0.5" id="master_svg5_11_439"><stop offset="0%" stop-color="#E93B66" stop-opacity="1"/><stop offset="100%" stop-color="#E93B66" stop-opacity="0"/></linearGradient><linearGradient x1="1" y1="0.5" x2="0" y2="0.5" id="master_svg6_8_2329"><stop offset="0%" stop-color="#FFFFFF" stop-opacity="0"/><stop offset="26.428571343421936%" stop-color="#FFFFFF" stop-opacity="1"/><stop offset="77.14285850524902%" stop-color="#FFFFFF" stop-opacity="1"/><stop offset="100%" stop-color="#FFFFFF" stop-opacity="0"/></linearGradient><linearGradient x1="1" y1="0.5" x2="0" y2="0.5" id="master_svg7_11_439"><stop offset="0%" stop-color="#E93B66" stop-opacity="1"/><stop offset="100%" stop-color="#E93B66" stop-opacity="0"/></linearGradient><linearGradient x1="1" y1="0.5" x2="0" y2="0.5" id="master_svg8_8_2329"><stop offset="0%" stop-color="#FFFFFF" stop-opacity="0"/><stop offset="26.428571343421936%" stop-color="#FFFFFF" stop-opacity="1"/><stop offset="77.14285850524902%" stop-color="#FFFFFF" stop-opacity="1"/><stop offset="100%" stop-color="#FFFFFF" stop-opacity="0"/></linearGradient><linearGradient x1="1" y1="0.5" x2="0" y2="0.5" id="master_svg9_11_439"><stop offset="0%" stop-color="#E93B66" stop-opacity="1"/><stop offset="100%" stop-color="#E93B66" stop-opacity="0"/></linearGradient><linearGradient x1="1" y1="0.5" x2="0" y2="0.5" id="master_svga_8_2329"><stop offset="0%" stop-color="#FFFFFF" stop-opacity="0"/><stop offset="26.428571343421936%" stop-color="#FFFFFF" stop-opacity="1"/><stop offset="77.14285850524902%" stop-color="#FFFFFF" stop-opacity="1"/><stop offset="100%" stop-color="#FFFFFF" stop-opacity="0"/></linearGradient><linearGradient x1="1" y1="0.5" x2="0" y2="0.5" id="master_svgb_11_439"><stop offset="0%" stop-color="#E93B66" stop-opacity="1"/><stop offset="100%" stop-color="#E93B66" stop-opacity="0"/></linearGradient></defs><g><g><g style="opacity:0.30000001192092896;"><rect x="12" y="0" width="621" height="60" rx="0" fill="url(#master_svg0_8_2329)" fill-opacity="1"/></g><g><rect x="238" y="0" width="290" height="60" rx="0" fill="url(#master_svg1_11_439)" fill-opacity="1"/></g><g><path d="M394.109375,39.804688Q394.109375,41.5625,393.643555,43.118164Q393.177734,44.673828,392.325195,45.939453Q391.47265600000003,47.205078,390.268555,48.154297Q389.064453,49.103516,387.587891,49.648438L392.931641,53.884766L386.304688,53.884766L381.91015600000003,50.351562L377.41015600000003,50.351562Q375.142578,50.351562,373.2089844,49.569336Q371.2753906,48.787109,369.8691406,47.380859Q368.4628906,45.974609,367.6630859,44.041016Q366.8632812,42.107422,366.8632812,39.804688L366.8632812,34.988281Q366.8632812,32.703125,367.6630859,30.760742Q368.4628906,28.818359,369.8691406,27.420898Q371.2753906,26.023438,373.2089844,25.232422Q375.142578,24.441406,377.41015600000003,24.441406L383.59765600000003,24.441406Q385.865234,24.441406,387.790039,25.232422Q389.71484399999997,26.023438,391.12109399999997,27.420898Q392.52734399999997,28.818359,393.318359,30.760742Q394.109375,32.703125,394.109375,34.988281L394.109375,39.804688ZM389.539062,34.988281Q389.539062,33.634766,389.108398,32.536133Q388.677734,31.4375,387.895508,30.655273Q387.11328100000003,29.873047,386.014648,29.442383Q384.916016,29.011719,383.59765600000003,29.011719L377.41015600000003,29.011719Q376.07421899999997,29.011719,374.9755859,29.442383Q373.8769531,29.873047,373.0859375,30.655273Q372.2949219,31.4375,371.8642578,32.536133Q371.4335938,33.634766,371.4335938,34.988281L371.4335938,39.804688Q371.4335938,41.158203,371.8642578,42.256836Q372.2949219,43.355469,373.0859375,44.137695Q373.8769531,44.919922,374.9755859,45.350586Q376.07421899999997,45.78125,377.41015600000003,45.78125L383.5625,45.78125Q384.898438,45.78125,385.99707,45.350586Q387.095703,44.919922,387.88671899999997,44.137695Q388.677734,43.355469,389.108398,42.256836Q389.539062,41.158203,389.539062,39.804688L389.539062,34.988281ZM423.32421899999997,47.697266Q423.32421899999997,48.189453,423.148438,48.611328Q422.97265600000003,49.033203,422.65625,49.34082Q422.33984399999997,49.648438,421.91796899999997,49.824219Q421.49609399999997,50,421.021484,50L410.720703,50Q409.26171899999997,50,407.767578,49.683594Q406.273438,49.367188,404.875977,48.708008Q403.478516,48.048828,402.248047,47.029297Q401.017578,46.009766,400.094727,44.612305Q399.171875,43.214844,398.64453100000003,41.413086Q398.117188,39.611328,398.117188,37.396484L398.117188,24.792969L402.6875,24.792969L402.6875,37.396484Q402.6875,39.330078,403.223633,40.666016Q403.759766,42.001953,404.585938,42.898438Q405.412109,43.794922,406.396484,44.304688Q407.380859,44.814453,408.268555,45.060547Q409.15625,45.306641,409.833008,45.368164Q410.509766,45.429688,410.720703,45.429688L418.75390600000003,45.429688L418.75390600000003,24.792969L423.32421899999997,24.792969L423.32421899999997,47.697266ZM453.365234,50L448.794922,50L448.794922,43.8125L432.728516,43.8125L432.728516,50L428.158203,50L428.158203,37.396484Q428.158203,34.636719,429.107422,32.316406Q430.056641,29.996094,431.744141,28.326172Q433.431641,26.65625,435.734375,25.724609Q438.037109,24.792969,440.76171899999997,24.792969L451.0625,24.792969Q451.537109,24.792969,451.958984,24.96875Q452.380859,25.144531,452.697266,25.460938Q453.013672,25.777344,453.189453,26.199219Q453.365234,26.621094,453.365234,27.095703L453.365234,50ZM432.728516,39.242188L448.794922,39.242188L448.794922,29.363281L440.76171899999997,29.363281Q440.55078100000003,29.363281,439.87402299999997,29.424805Q439.197266,29.486328,438.30957,29.732422Q437.421875,29.978516,436.4375,30.488281Q435.453125,30.998047,434.626953,31.894531Q433.80078100000003,32.791016,433.26464799999997,34.135742Q432.728516,35.480469,432.728516,37.396484L432.728516,39.242188ZM474.44141,35.09375L486.60546999999997,35.09375Q487.57227,35.09375,488.68848,35.436523Q489.80469,35.779297,490.77148,36.543945Q491.73828000000003,37.308594,492.37988,38.539062Q493.02148,39.769531,493.02148,41.544922L493.02148,43.583984Q493.02148,44.234375,492.87207,44.955078Q492.72266,45.675781,492.39746,46.387695Q492.07227,47.099609,491.57129,47.75Q491.07031,48.400391,490.3584,48.901367Q489.64648,49.402344,488.71484,49.701172Q487.78319999999997,50,486.60546999999997,50L478.32617,50Q477.48242,50,476.52441,49.806641Q475.56641,49.613281,474.63477,49.182617Q473.70312,48.751953,472.83301,48.092773Q471.96289,47.433594,471.3125,46.493164Q470.66211,45.552734,470.2666,44.322266Q469.87109,43.091797,469.87109,41.544922L469.87109,33.265625Q469.87109,31.71875,470.2666,30.488281Q470.66211,29.257812,471.3125,28.317383Q471.96289,27.376953,472.83301,26.708984Q473.70312,26.041016,474.63477,25.610352Q475.56641,25.179688,476.52441,24.986328Q477.48242,24.792969,478.32617,24.792969L489.78711,24.792969L489.78711,29.363281L478.32617,29.363281Q477.44727,29.433594,476.73535,29.732422Q476.02344,30.03125,475.51367,30.523438Q475.00391,31.015625,474.72266,31.709961Q474.44141,32.404297,474.44141,33.265625L474.44141,35.09375ZM474.44141,39.699219L474.44141,41.544922Q474.44141,42.441406,474.74902,43.15332Q475.05664,43.865234,475.58398,44.375Q476.11133,44.884766,476.82324,45.157227Q477.53516,45.429688,478.36133,45.429688L486.60546999999997,45.429688Q487.48438,45.429688,487.9502,44.902344Q488.41602,44.375,488.41602,43.583984L488.41602,41.544922Q488.41602,40.648438,487.95898,40.173828Q487.50194999999997,39.699219,486.57031,39.699219L474.44141,39.699219ZM500.47461,47.697266Q500.47461,48.171875,500.29004,48.584961Q500.10546999999997,48.998047,499.79785000000004,49.305664Q499.49023,49.613281,499.07714999999996,49.789062Q498.66406,49.964844,498.20703000000003,49.964844Q497.73242,49.964844,497.31934,49.789062Q496.90625,49.613281,496.59863,49.305664Q496.29102,48.998047,496.11523,48.584961Q495.93944999999997,48.171875,495.93944999999997,47.697266Q495.93944999999997,47.240234,496.11523,46.827148Q496.29102,46.414062,496.59863,46.106445Q496.90625,45.798828,497.31934,45.614258Q497.73242,45.429688,498.20703000000003,45.429688Q498.66406,45.429688,499.07714999999996,45.614258Q499.49023,45.798828,499.79785000000004,46.106445Q500.10546999999997,46.414062,500.29004,46.827148Q500.47461,47.240234,500.47461,47.697266ZM525.33008,43.583984Q525.33008,45.359375,524.68848,46.581055Q524.04688,47.802734,523.08887,48.567383Q522.13086,49.332031,521.00586,49.666016Q519.88086,50,518.9140600000001,50L504.25391,50L504.25391,45.429688L518.9140600000001,45.429688Q519.8457,45.429688,520.29395,44.955078Q520.7421899999999,44.480469,520.7421899999999,43.583984L520.7421899999999,39.699219L504.25391,39.699219L504.25391,35.09375L520.7421899999999,35.09375L520.7421899999999,31.244141Q520.7421899999999,29.363281,518.9140600000001,29.363281L504.25391,29.363281L504.25391,24.792969L518.9140600000001,24.792969Q520.0918,24.792969,521.0234399999999,25.091797Q521.95508,25.390625,522.6669899999999,25.891602Q523.37891,26.392578,523.88867,27.042969Q524.3984399999999,27.693359,524.71484,28.405273Q525.03125,29.117188,525.18066,29.84668Q525.33008,30.576172,525.33008,31.208984L525.33008,43.583984Z" fill="#FFFFFF" fill-opacity="1"/></g></g><g><g style="opacity:0.30000001192092896;"><rect x="0" y="77" width="666" height="60" rx="0" fill="url(#master_svg2_8_2329)" fill-opacity="1"/></g><g><rect x="189" y="77" width="234" height="60" rx="0" fill="url(#master_svg3_11_439)" fill-opacity="1"/></g><g><path d="M277.84375,110.265625Q277.84375,111.830078,277.45703100000003,113.060547Q277.070312,114.291016,276.411133,115.23144500000001Q275.751953,116.171875,274.890625,116.839844Q274.029297,117.507812,273.088867,117.938477Q272.148438,118.369141,271.19043,118.5625Q270.232422,118.755859,269.388672,118.755859L278.93359399999997,127L271.867188,127L262.33984399999997,118.755859L259.0527344,118.755859L259.0527344,114.185547L269.388672,114.185547Q270.25,114.115234,270.961914,113.82519500000001Q271.673828,113.535156,272.192383,113.042969Q272.710938,112.550781,272.992188,111.85644500000001Q273.273438,111.162109,273.273438,110.265625L273.273438,107.382812Q273.273438,106.996094,273.176758,106.79394500000001Q273.080078,106.591797,272.930664,106.495117Q272.78125,106.398438,272.614258,106.380859Q272.447266,106.363281,272.306641,106.363281L257.2246094,106.363281L257.2246094,127L252.6542969,127L252.6542969,104.095703Q252.6542969,103.621094,252.8300781,103.199219Q253.0058594,102.777344,253.3134766,102.460938Q253.6210938,102.144531,254.0429688,101.96875Q254.4648438,101.792969,254.9570312,101.792969L272.306641,101.792969Q273.835938,101.792969,274.890625,102.34667999999999Q275.945312,102.900391,276.604492,103.735352Q277.263672,104.570312,277.553711,105.537109Q277.84375,106.503906,277.84375,107.347656L277.84375,110.265625ZM308.88671899999997,116.804688Q308.88671899999997,119.107422,308.095703,121.041016Q307.304688,122.974609,305.898438,124.380859Q304.492188,125.787109,302.567383,126.56933599999999Q300.642578,127.351562,298.375,127.351562L292.1875,127.351562Q289.919922,127.351562,287.986328,126.56933599999999Q286.052734,125.787109,284.646484,124.380859Q283.240234,122.974609,282.44043,121.041016Q281.640625,119.107422,281.640625,116.804688L281.640625,111.988281Q281.640625,109.703125,282.44043,107.760742Q283.240234,105.818359,284.646484,104.420898Q286.052734,103.023438,287.986328,102.232422Q289.919922,101.441406,292.1875,101.441406L298.375,101.441406Q300.642578,101.441406,302.567383,102.232422Q304.492188,103.023438,305.898438,104.420898Q307.304688,105.818359,308.095703,107.760742Q308.88671899999997,109.703125,308.88671899999997,111.988281L308.88671899999997,116.804688ZM304.31640600000003,111.988281Q304.31640600000003,110.634766,303.885742,109.536133Q303.455078,108.4375,302.672852,107.655273Q301.890625,106.873047,300.791992,106.442383Q299.693359,106.011719,298.375,106.011719L292.1875,106.011719Q290.851562,106.011719,289.75293,106.442383Q288.654297,106.873047,287.86328100000003,107.655273Q287.072266,108.4375,286.641602,109.536133Q286.210938,110.634766,286.210938,111.988281L286.210938,116.804688Q286.210938,118.158203,286.641602,119.25683599999999Q287.072266,120.355469,287.86328100000003,121.13769500000001Q288.654297,121.919922,289.75293,122.35058599999999Q290.851562,122.78125,292.1875,122.78125L298.33984399999997,122.78125Q299.67578100000003,122.78125,300.774414,122.35058599999999Q301.873047,121.919922,302.664062,121.13769500000001Q303.455078,120.355469,303.885742,119.25683599999999Q304.31640600000003,118.158203,304.31640600000003,116.804688L304.31640600000003,111.988281ZM320.453125,127L315.865234,127L315.865234,106.363281L311.734375,106.363281L311.734375,101.792969L320.453125,101.792969L320.453125,127ZM329.962891,112.09375L342.126953,112.09375Q343.09375,112.09375,344.209961,112.436523Q345.326172,112.779297,346.29296899999997,113.54394500000001Q347.259766,114.308594,347.901367,115.539062Q348.54296899999997,116.769531,348.54296899999997,118.544922L348.54296899999997,120.583984Q348.54296899999997,121.234375,348.393555,121.955078Q348.244141,122.675781,347.918945,123.38769500000001Q347.59375,124.099609,347.09277299999997,124.75Q346.591797,125.400391,345.879883,125.901367Q345.16796899999997,126.402344,344.236328,126.701172Q343.304688,127,342.126953,127L333.84765600000003,127Q333.00390600000003,127,332.04589799999997,126.806641Q331.087891,126.613281,330.15625,126.182617Q329.224609,125.751953,328.354492,125.092773Q327.484375,124.433594,326.833984,123.49316400000001Q326.18359399999997,122.552734,325.788086,121.322266Q325.392578,120.091797,325.392578,118.544922L325.392578,110.265625Q325.392578,108.71875,325.788086,107.488281Q326.18359399999997,106.257812,326.833984,105.317383Q327.484375,104.376953,328.354492,103.708984Q329.224609,103.041016,330.15625,102.610352Q331.087891,102.179688,332.04589799999997,101.986328Q333.00390600000003,101.792969,333.84765600000003,101.792969L345.30859399999997,101.792969L345.30859399999997,106.363281L333.84765600000003,106.363281Q332.96875,106.433594,332.256836,106.732422Q331.544922,107.03125,331.03515600000003,107.523438Q330.525391,108.015625,330.244141,108.70996099999999Q329.962891,109.404297,329.962891,110.265625L329.962891,112.09375ZM329.962891,116.699219L329.962891,118.544922Q329.962891,119.441406,330.270508,120.15332000000001Q330.578125,120.865234,331.10546899999997,121.375Q331.632812,121.884766,332.34472700000003,122.157227Q333.056641,122.429688,333.882812,122.429688L342.126953,122.429688Q343.005859,122.429688,343.47168,121.902344Q343.9375,121.375,343.9375,120.583984L343.9375,118.544922Q343.9375,117.648438,343.48046899999997,117.173828Q343.023438,116.699219,342.091797,116.699219L329.962891,116.699219ZM387.14453000000003,120.583984Q387.14453000000003,121.234375,386.99512,121.955078Q386.84569999999997,122.675781,386.52051,123.38769500000001Q386.19531,124.099609,385.69434,124.75Q385.19336,125.400391,384.48145,125.901367Q383.76953000000003,126.402344,382.83789,126.701172Q381.90625,127,380.74609,127L363.99414,127L363.99414,122.429688L380.74609,122.429688Q381.60742,122.429688,382.07324,121.902344Q382.53906,121.375,382.53906,120.583984L382.53906,118.544922Q382.53906,117.648438,382.08203000000003,117.173828Q381.625,116.699219,380.71094,116.699219L370.41016,116.699219Q368.63477,116.699219,367.41309,116.057617Q366.19141,115.416016,365.43555000000003,114.449219Q364.67969,113.482422,364.33691,112.357422Q363.99414,111.232422,363.99414,110.265625L363.99414,101.792969L385.05273,101.792969L385.05273,106.363281L368.56444999999997,106.363281L368.56444999999997,110.265625Q368.56444999999997,111.179688,369.03906,111.636719Q369.51367,112.09375,370.41016,112.09375L380.74609,112.09375Q381.69531,112.09375,382.82031,112.436523Q383.94531,112.779297,384.90332,113.54394500000001Q385.86133,114.308594,386.50293,115.539062Q387.14453000000003,116.769531,387.14453000000003,118.544922L387.14453000000003,120.583984ZM394.72069999999997,124.697266Q394.72069999999997,125.171875,394.53613,125.58496099999999Q394.35156,125.998047,394.04395,126.30566400000001Q393.73633,126.613281,393.32324,126.789062Q392.91016,126.964844,392.45312,126.964844Q391.97852,126.964844,391.56543,126.789062Q391.15234,126.613281,390.84473,126.30566400000001Q390.53711,125.998047,390.36133,125.58496099999999Q390.18555000000003,125.171875,390.18555000000003,124.697266Q390.18555000000003,124.240234,390.36133,123.827148Q390.53711,123.414062,390.84473,123.10644500000001Q391.15234,122.798828,391.56543,122.614258Q391.97852,122.429688,392.45312,122.429688Q392.91016,122.429688,393.32324,122.614258Q393.73633,122.798828,394.04395,123.10644500000001Q394.35156,123.414062,394.53613,123.827148Q394.72069999999997,124.240234,394.72069999999997,124.697266ZM397.26953000000003,110.265625L397.26953000000003,108.208984Q397.26953000000003,107.576172,397.41895,106.84667999999999Q397.56836,106.117188,397.88477,105.405273Q398.20117,104.693359,398.71094,104.042969Q399.22069999999997,103.392578,399.93262,102.891602Q400.64453000000003,102.390625,401.57617,102.091797Q402.50781,101.792969,403.68555000000003,101.792969L411.92969,101.792969Q412.77344,101.792969,413.74023,101.986328Q414.70703000000003,102.179688,415.64746,102.610352Q416.58789,103.041016,417.44921999999997,103.708984Q418.31055000000003,104.376953,418.96973,105.317383Q419.62891,106.257812,420.02441,107.488281Q420.41992,108.71875,420.41992,110.265625L420.41992,118.544922Q420.41992,120.091797,420.02441,121.322266Q419.62891,122.552734,418.96973,123.49316400000001Q418.31055000000003,124.433594,417.44921999999997,125.092773Q416.58789,125.751953,415.64746,126.182617Q414.70703000000003,126.613281,413.74023,126.806641Q412.77344,127,411.92969,127L400.52148,127L400.52148,122.429688L411.92969,122.429688Q412.79102,122.359375,413.50293,122.078125Q414.21484,121.796875,414.73339999999996,121.313477Q415.25194999999997,120.830078,415.53319999999997,120.135742Q415.81444999999997,119.441406,415.81444999999997,118.544922L415.81444999999997,116.699219L403.68555000000003,116.699219Q403.03516,116.699219,402.31444999999997,116.54980499999999Q401.59375,116.400391,400.88184,116.07519500000001Q400.16992,115.75,399.51953000000003,115.249023Q398.86914,114.748047,398.36816,114.027344Q397.86719,113.306641,397.56836,112.375Q397.26953000000003,111.443359,397.26953000000003,110.265625ZM415.81444999999997,110.265625Q415.81444999999997,109.369141,415.51562,108.648438Q415.21680000000003,107.927734,414.69824,107.417969Q414.17969,106.908203,413.46777,106.635742Q412.75586,106.363281,411.92969,106.363281L403.68555000000003,106.363281Q402.84180000000003,106.363281,402.34082,106.890625Q401.83984,107.417969,401.83984,108.208984L401.83984,110.265625Q401.83984,111.162109,402.31444999999997,111.62792999999999Q402.78906,112.09375,403.72069999999997,112.09375L415.81444999999997,112.09375L415.81444999999997,110.265625Z" fill="#FFFFFF" fill-opacity="1"/></g></g><g><g style="opacity:0.30000001192092896;"><rect x="72" y="154" width="708" height="60" rx="0" fill="url(#master_svg4_8_2329)" fill-opacity="1"/></g><g><rect x="281" y="154" width="234" height="60" rx="0" fill="url(#master_svg5_11_439)" fill-opacity="1"/></g><g><path d="M412.109375,193.804688Q412.109375,195.5625,411.643555,197.118164Q411.177734,198.67382800000001,410.325195,199.93945300000001Q409.47265600000003,201.20507800000001,408.268555,202.15429699999999Q407.064453,203.103516,405.587891,203.648438L410.931641,207.884766L404.304688,207.884766L399.91015600000003,204.351562L395.41015600000003,204.351562Q393.142578,204.351562,391.2089844,203.569336Q389.2753906,202.787109,387.8691406,201.380859Q386.4628906,199.974609,385.6630859,198.041016Q384.8632812,196.10742199999999,384.8632812,193.804688L384.8632812,188.988281Q384.8632812,186.703125,385.6630859,184.760742Q386.4628906,182.818359,387.8691406,181.420898Q389.2753906,180.023438,391.2089844,179.23242199999999Q393.142578,178.441406,395.41015600000003,178.441406L401.59765600000003,178.441406Q403.865234,178.441406,405.790039,179.23242199999999Q407.71484399999997,180.023438,409.12109399999997,181.420898Q410.52734399999997,182.818359,411.318359,184.760742Q412.109375,186.703125,412.109375,188.988281L412.109375,193.804688ZM407.539062,188.988281Q407.539062,187.634766,407.108398,186.536133Q406.677734,185.4375,405.895508,184.655273Q405.11328100000003,183.87304699999999,404.014648,183.442383Q402.916016,183.011719,401.59765600000003,183.011719L395.41015600000003,183.011719Q394.07421899999997,183.011719,392.9755859,183.442383Q391.8769531,183.87304699999999,391.0859375,184.655273Q390.2949219,185.4375,389.8642578,186.536133Q389.4335938,187.634766,389.4335938,188.988281L389.4335938,193.804688Q389.4335938,195.15820300000001,389.8642578,196.256836Q390.2949219,197.355469,391.0859375,198.137695Q391.8769531,198.91992199999999,392.9755859,199.350586Q394.07421899999997,199.78125,395.41015600000003,199.78125L401.5625,199.78125Q402.898438,199.78125,403.99707,199.350586Q405.095703,198.91992199999999,405.88671899999997,198.137695Q406.677734,197.355469,407.108398,196.256836Q407.539062,195.15820300000001,407.539062,193.804688L407.539062,188.988281ZM437.474609,193.699219L423.025391,193.699219L423.025391,189.09375L437.474609,189.09375L437.474609,193.699219ZM439.513672,183.363281L421.197266,183.363281L421.197266,204L416.626953,204L416.626953,181.09570300000001Q416.626953,180.621094,416.802734,180.199219Q416.978516,179.777344,417.286133,179.460938Q417.59375,179.144531,418.015625,178.96875Q418.4375,178.792969,418.929688,178.792969L439.513672,178.792969L439.513672,183.363281ZM458.65625,189.09375L470.820312,189.09375Q471.787109,189.09375,472.90332,189.436523Q474.01953100000003,189.77929699999999,474.986328,190.543945Q475.953125,191.308594,476.59472700000003,192.539062Q477.236328,193.769531,477.236328,195.54492199999999L477.236328,197.583984Q477.236328,198.234375,477.086914,198.95507800000001Q476.9375,199.675781,476.612305,200.387695Q476.287109,201.099609,475.786133,201.75Q475.28515600000003,202.400391,474.573242,202.901367Q473.861328,203.402344,472.929688,203.70117199999999Q471.998047,204,470.820312,204L462.541016,204Q461.697266,204,460.739258,203.806641Q459.78125,203.613281,458.849609,203.182617Q457.91796899999997,202.75195300000001,457.04785200000003,202.092773Q456.177734,201.433594,455.52734399999997,200.493164Q454.876953,199.552734,454.481445,198.322266Q454.085938,197.09179699999999,454.085938,195.54492199999999L454.085938,187.265625Q454.085938,185.71875,454.481445,184.488281Q454.876953,183.257812,455.52734399999997,182.317383Q456.177734,181.37695300000001,457.04785200000003,180.708984Q457.91796899999997,180.041016,458.849609,179.610352Q459.78125,179.179688,460.739258,178.98632800000001Q461.697266,178.792969,462.541016,178.792969L474.001953,178.792969L474.001953,183.363281L462.541016,183.363281Q461.662109,183.433594,460.950195,183.73242199999999Q460.23828100000003,184.03125,459.728516,184.523438Q459.21875,185.015625,458.9375,185.709961Q458.65625,186.40429699999999,458.65625,187.265625L458.65625,189.09375ZM458.65625,193.699219L458.65625,195.54492199999999Q458.65625,196.441406,458.963867,197.15332Q459.271484,197.865234,459.798828,198.375Q460.326172,198.884766,461.038086,199.157227Q461.75,199.429688,462.576172,199.429688L470.820312,199.429688Q471.69921899999997,199.429688,472.165039,198.902344Q472.630859,198.375,472.630859,197.583984L472.630859,195.54492199999999Q472.630859,194.648438,472.173828,194.17382800000001Q471.716797,193.699219,470.78515600000003,193.699219L458.65625,193.699219ZM484.68944999999997,201.697266Q484.68944999999997,202.171875,484.50488,202.584961Q484.32031,202.99804699999999,484.0127,203.305664Q483.70508,203.613281,483.29199,203.789062Q482.87890600000003,203.964844,482.421875,203.964844Q481.947266,203.964844,481.53418,203.789062Q481.12109399999997,203.613281,480.81347700000003,203.305664Q480.505859,202.99804699999999,480.330078,202.584961Q480.154297,202.171875,480.154297,201.697266Q480.154297,201.240234,480.330078,200.827148Q480.505859,200.414062,480.81347700000003,200.106445Q481.12109399999997,199.79882800000001,481.53418,199.614258Q481.947266,199.429688,482.421875,199.429688Q482.87890600000003,199.429688,483.29199,199.614258Q483.70508,199.79882800000001,484.0127,200.106445Q484.32031,200.414062,484.50488,200.827148Q484.68944999999997,201.240234,484.68944999999997,201.697266ZM511.12694999999997,204L487.97656,204L487.97656,195.54492199999999Q487.97656,194.894531,488.12598,194.165039Q488.27539,193.43554699999999,488.59180000000003,192.714844Q488.90819999999997,191.994141,489.40918,191.34375Q489.91016,190.693359,490.62207,190.192383Q491.33398,189.691406,492.26562,189.39257800000001Q493.19727,189.09375,494.375,189.09375L504.67578000000003,189.09375Q505.60742,189.09375,506.05566,188.62793Q506.50391,188.162109,506.50391,187.265625L506.50391,185.244141Q506.50391,184.3125,506.04688,183.837891Q505.58984,183.363281,504.71094,183.363281L490.03319999999997,183.363281L490.03319999999997,178.792969L504.71094,178.792969Q505.87109,178.792969,506.80273,179.09179699999999Q507.73438,179.390625,508.44629,179.891602Q509.15819999999997,180.39257800000001,509.66796999999997,181.042969Q510.17773,181.693359,510.50293,182.405273Q510.82812,183.117188,510.97754,183.84668Q511.12694999999997,184.57617199999999,511.12694999999997,185.208984L511.12694999999997,187.265625Q511.12694999999997,189.041016,510.48535,190.262695Q509.84375,191.484375,508.87694999999997,192.249023Q507.91016,193.01367199999999,506.79395,193.356445Q505.67773,193.699219,504.71094,193.699219L494.375,193.699219Q493.8125,193.699219,493.47852,193.85742199999999Q493.14453000000003,194.015625,492.95996,194.27929699999999Q492.77539,194.542969,492.6875,194.87695300000001Q492.59961,195.210938,492.54688,195.54492199999999L492.54688,199.429688L511.12694999999997,199.429688L511.12694999999997,204Z" fill="#FFFFFF" fill-opacity="1"/></g></g><g><g style="opacity:0.30000001192092896;"><rect x="114" y="231" width="746" height="60" rx="0" fill="url(#master_svg6_8_2329)" fill-opacity="1"/></g><g><rect x="336" y="231" width="234" height="60" rx="0" fill="url(#master_svg7_11_439)" fill-opacity="1"/></g><g><path d="M468.876953,273.58203100000003Q468.876953,274.935547,468.53418,276.016602Q468.19140600000003,277.09765600000003,467.62890600000003,277.923828Q467.06640600000003,278.75,466.310547,279.330078Q465.554688,279.91015600000003,464.74609399999997,280.279297Q463.9375,280.648438,463.102539,280.82421899999997Q462.267578,281,461.529297,281L443.8984375,281L443.8984375,276.429688L461.529297,276.429688Q462.84765600000003,276.429688,463.577148,275.65625Q464.306641,274.882812,464.306641,273.58203100000003Q464.306641,272.94921899999997,464.11328100000003,272.421875Q463.919922,271.89453100000003,463.55957,271.507812Q463.19921899999997,271.12109399999997,462.680664,270.91015600000003Q462.162109,270.69921899999997,461.529297,270.69921899999997L451.0175781,270.69921899999997Q449.9101562,270.69921899999997,448.6269531,270.303711Q447.34375,269.908203,446.2451172,269.029297Q445.1464844,268.150391,444.4169922,266.726562Q443.6875,265.302734,443.6875,263.24609399999997Q443.6875,261.189453,444.4169922,259.774414Q445.1464844,258.359375,446.2451172,257.47168Q447.34375,256.583984,448.6269531,256.188477Q449.9101562,255.792969,451.0175781,255.792969L466.57421899999997,255.792969L466.57421899999997,260.36328100000003L451.0175781,260.36328100000003Q449.7167969,260.36328100000003,448.9873047,261.154297Q448.2578125,261.945312,448.2578125,263.24609399999997Q448.2578125,264.564453,448.9873047,265.329102Q449.7167969,266.09375,451.0175781,266.09375L461.529297,266.09375L461.564453,266.09375Q462.302734,266.111328,463.12890600000003,266.295898Q463.955078,266.48046899999997,464.772461,266.867188Q465.58984399999997,267.25390600000003,466.328125,267.842773Q467.06640600000003,268.431641,467.637695,269.257812Q468.208984,270.083984,468.54296899999997,271.15625Q468.876953,272.228516,468.876953,273.58203100000003ZM493.521484,270.69921899999997L479.072266,270.69921899999997L479.072266,266.09375L493.521484,266.09375L493.521484,270.69921899999997ZM495.560547,260.36328100000003L477.244141,260.36328100000003L477.244141,281L472.673828,281L472.673828,258.095703Q472.673828,257.62109399999997,472.849609,257.19921899999997Q473.025391,256.77734399999997,473.333008,256.460938Q473.640625,256.14453100000003,474.0625,255.96875Q474.484375,255.792969,474.976562,255.792969L495.560547,255.792969L495.560547,260.36328100000003ZM514.703125,266.09375L526.8671879999999,266.09375Q527.833984,266.09375,528.950195,266.436523Q530.066406,266.779297,531.033203,267.543945Q532,268.30859399999997,532.641602,269.539062Q533.283203,270.76953100000003,533.283203,272.544922L533.283203,274.583984Q533.283203,275.234375,533.133789,275.955078Q532.984375,276.67578100000003,532.65918,277.387695Q532.333984,278.099609,531.8330080000001,278.75Q531.332031,279.400391,530.6201169999999,279.901367Q529.908203,280.40234399999997,528.9765620000001,280.701172Q528.044922,281,526.8671879999999,281L518.587891,281Q517.744141,281,516.7861330000001,280.806641Q515.828125,280.61328100000003,514.896484,280.182617Q513.964844,279.751953,513.094727,279.092773Q512.224609,278.43359399999997,511.57421899999997,277.493164Q510.923828,276.552734,510.52832,275.322266Q510.132812,274.091797,510.132812,272.544922L510.132812,264.265625Q510.132812,262.71875,510.52832,261.48828100000003Q510.923828,260.257812,511.57421899999997,259.317383Q512.224609,258.376953,513.094727,257.708984Q513.964844,257.041016,514.896484,256.610352Q515.828125,256.179688,516.7861330000001,255.98632800000001Q517.744141,255.792969,518.587891,255.792969L530.048828,255.792969L530.048828,260.36328100000003L518.587891,260.36328100000003Q517.708984,260.43359399999997,516.99707,260.732422Q516.285156,261.03125,515.775391,261.523438Q515.265625,262.015625,514.984375,262.709961Q514.703125,263.404297,514.703125,264.265625L514.703125,266.09375ZM514.703125,270.69921899999997L514.703125,272.544922Q514.703125,273.44140600000003,515.0107419999999,274.15332Q515.318359,274.865234,515.845703,275.375Q516.373047,275.884766,517.084961,276.157227Q517.796875,276.429688,518.623047,276.429688L526.8671879999999,276.429688Q527.746094,276.429688,528.211914,275.90234399999997Q528.677734,275.375,528.677734,274.583984L528.677734,272.544922Q528.677734,271.648438,528.220703,271.173828Q527.763672,270.69921899999997,526.832031,270.69921899999997L514.703125,270.69921899999997ZM540.736328,278.697266Q540.736328,279.171875,540.5517580000001,279.584961Q540.3671879999999,279.998047,540.05957,280.305664Q539.751953,280.61328100000003,539.3388669999999,280.789062Q538.925781,280.96484399999997,538.46875,280.96484399999997Q537.994141,280.96484399999997,537.581055,280.789062Q537.167969,280.61328100000003,536.860352,280.305664Q536.552734,279.998047,536.376953,279.584961Q536.201172,279.171875,536.201172,278.697266Q536.201172,278.240234,536.376953,277.827148Q536.552734,277.414062,536.860352,277.106445Q537.167969,276.798828,537.581055,276.614258Q537.994141,276.429688,538.46875,276.429688Q538.925781,276.429688,539.3388669999999,276.614258Q539.751953,276.798828,540.05957,277.106445Q540.3671879999999,277.414062,540.5517580000001,277.827148Q540.736328,278.240234,540.736328,278.697266ZM567.56055,274.583984Q567.56055,275.234375,567.41113,275.955078Q567.26172,276.67578100000003,566.93652,277.387695Q566.61133,278.099609,566.11035,278.75Q565.60938,279.400391,564.89746,279.901367Q564.18555,280.40234399999997,563.25391,280.701172Q562.32227,281,561.16211,281L544.41016,281L544.41016,276.429688L561.16211,276.429688Q562.0234399999999,276.429688,562.4892600000001,275.90234399999997Q562.95508,275.375,562.95508,274.583984L562.95508,272.544922Q562.95508,271.648438,562.49805,271.173828Q562.04102,270.69921899999997,561.12695,270.69921899999997L550.82617,270.69921899999997Q549.05078,270.69921899999997,547.8291,270.057617Q546.60742,269.416016,545.8515600000001,268.44921899999997Q545.0957,267.482422,544.75293,266.357422Q544.41016,265.232422,544.41016,264.265625L544.41016,255.792969L565.46875,255.792969L565.46875,260.36328100000003L548.98047,260.36328100000003L548.98047,264.265625Q548.98047,265.179688,549.45508,265.63671899999997Q549.9296899999999,266.09375,550.82617,266.09375L561.16211,266.09375Q562.11133,266.09375,563.23633,266.436523Q564.36133,266.779297,565.31934,267.543945Q566.27734,268.30859399999997,566.91895,269.539062Q567.56055,270.76953100000003,567.56055,272.544922L567.56055,274.583984Z" fill="#FFFFFF" fill-opacity="1"/></g></g><g><g style="opacity:0.30000001192092896;"><rect x="174" y="308" width="776" height="60" rx="0" fill="url(#master_svg8_8_2329)" fill-opacity="1"/></g><g><rect x="399" y="308" width="234" height="60" rx="0" fill="url(#master_svg9_11_439)" fill-opacity="1"/></g><g><path d="M561.501953,347.69921899999997L547.0527344,347.69921899999997L547.0527344,343.09375L561.501953,343.09375L561.501953,347.69921899999997ZM563.541016,337.36328100000003L545.2246094,337.36328100000003L545.2246094,358L540.6542969,358L540.6542969,335.095703Q540.6542969,334.62109399999997,540.8300781,334.19921899999997Q541.0058594,333.77734399999997,541.3134766,333.460938Q541.6210938,333.14453100000003,542.0429688,332.96875Q542.4648438,332.79296899999997,542.9570312,332.79296899999997L563.541016,332.79296899999997L563.541016,337.36328100000003ZM582.683594,343.09375L594.847656,343.09375Q595.814453,343.09375,596.930664,343.436523Q598.046875,343.779297,599.013672,344.543945Q599.980469,345.30859399999997,600.62207,346.539062Q601.263672,347.76953100000003,601.263672,349.544922L601.263672,351.583984Q601.263672,352.234375,601.114258,352.955078Q600.964844,353.67578100000003,600.639648,354.387695Q600.314453,355.099609,599.813477,355.75Q599.3125,356.400391,598.600586,356.901367Q597.888672,357.40234399999997,596.957031,357.701172Q596.025391,358,594.847656,358L586.568359,358Q585.724609,358,584.766602,357.806641Q583.808594,357.61328100000003,582.876953,357.182617Q581.9453120000001,356.751953,581.075195,356.092773Q580.205078,355.43359399999997,579.5546879999999,354.493164Q578.904297,353.552734,578.508789,352.322266Q578.113281,351.091797,578.113281,349.544922L578.113281,341.265625Q578.113281,339.71875,578.508789,338.48828100000003Q578.904297,337.257812,579.5546879999999,336.317383Q580.205078,335.376953,581.075195,334.708984Q581.9453120000001,334.041016,582.876953,333.610352Q583.808594,333.179688,584.766602,332.986328Q585.724609,332.79296899999997,586.568359,332.79296899999997L598.029297,332.79296899999997L598.029297,337.36328100000003L586.568359,337.36328100000003Q585.689453,337.43359399999997,584.977539,337.732422Q584.265625,338.03125,583.755859,338.523438Q583.246094,339.015625,582.964844,339.709961Q582.683594,340.404297,582.683594,341.265625L582.683594,343.09375ZM582.683594,347.69921899999997L582.683594,349.544922Q582.683594,350.44140600000003,582.991211,351.15332Q583.298828,351.865234,583.826172,352.375Q584.353516,352.884766,585.06543,353.157227Q585.777344,353.429688,586.603516,353.429688L594.847656,353.429688Q595.7265620000001,353.429688,596.192383,352.90234399999997Q596.658203,352.375,596.658203,351.583984L596.658203,349.544922Q596.658203,348.648438,596.201172,348.173828Q595.744141,347.69921899999997,594.8125,347.69921899999997L582.683594,347.69921899999997ZM608.716797,355.697266Q608.716797,356.171875,608.532227,356.584961Q608.347656,356.998047,608.040039,357.305664Q607.732422,357.61328100000003,607.319336,357.789062Q606.90625,357.96484399999997,606.449219,357.96484399999997Q605.974609,357.96484399999997,605.561523,357.789062Q605.1484379999999,357.61328100000003,604.84082,357.305664Q604.533203,356.998047,604.357422,356.584961Q604.181641,356.171875,604.181641,355.697266Q604.181641,355.240234,604.357422,354.827148Q604.533203,354.414062,604.84082,354.106445Q605.1484379999999,353.798828,605.561523,353.614258Q605.974609,353.429688,606.449219,353.429688Q606.90625,353.429688,607.319336,353.614258Q607.732422,353.798828,608.040039,354.106445Q608.347656,354.414062,608.532227,354.827148Q608.716797,355.240234,608.716797,355.697266ZM631.7265620000001,333.953125Q632.025391,334.498047,632.025391,335.104492Q632.025391,335.710938,631.7265620000001,336.255859L619.052734,358L613.761719,358L625.75,337.36328100000003L610.949219,337.36328100000003L610.949219,332.79296899999997L629.740234,332.79296899999997Q630.355469,332.79296899999997,630.891602,333.100586Q631.427734,333.408203,631.7265620000001,333.953125Z" fill="#FFFFFF" fill-opacity="1"/></g></g><g><g style="opacity:0.30000001192092896;"><rect x="212" y="385" width="810" height="60" rx="0" fill="url(#master_svga_8_2329)" fill-opacity="1"/></g><g><rect x="453" y="385" width="234" height="60" rx="0" fill="url(#master_svgb_11_439)" fill-opacity="1"/></g><g><path d="M584.527344,432.697266Q584.527344,433.189453,584.3515620000001,433.611328Q584.175781,434.033203,583.868164,434.34082Q583.560547,434.648438,583.138672,434.82421899999997Q582.716797,435,582.224609,435L565.7363281,435Q565.1035156,435,564.3740234,434.850586Q563.6445312,434.701172,562.9326172,434.384766Q562.2207031,434.068359,561.5703125,433.567383Q560.9199219,433.06640600000003,560.4189453,432.354492Q559.9179688,431.642578,559.6191406,430.702148Q559.3203125,429.76171899999997,559.3203125,428.583984L559.3203125,416.208984Q559.3203125,415.576172,559.4697266,414.84668Q559.6191406,414.117188,559.9355469,413.405273Q560.2519531,412.693359,560.7617188,412.04296899999997Q561.2714844,411.392578,561.9833984,410.891602Q562.6953125,410.390625,563.6269531,410.091797Q564.5585938,409.79296899999997,565.7363281,409.79296899999997L584.316406,409.79296899999997L584.316406,414.36328100000003L565.7363281,414.36328100000003Q564.8398438,414.36328100000003,564.3652344,414.837891Q563.890625,415.3125,563.890625,416.244141L563.890625,428.583984Q563.890625,429.462891,564.3740234,429.946289Q564.8574219,430.429688,565.7363281,430.429688L579.957031,430.429688L579.957031,424.69921899999997L567.792969,424.69921899999997L567.792969,420.09375L582.224609,420.09375Q582.716797,420.09375,583.138672,420.27832Q583.560547,420.462891,583.868164,420.779297Q584.175781,421.095703,584.3515620000001,421.508789Q584.527344,421.921875,584.527344,422.396484L584.527344,432.697266ZM610.138672,424.69921899999997L595.689453,424.69921899999997L595.689453,420.09375L610.138672,420.09375L610.138672,424.69921899999997ZM612.177734,414.36328100000003L593.861328,414.36328100000003L593.861328,435L589.291016,435L589.291016,412.095703Q589.291016,411.62109399999997,589.466797,411.19921899999997Q589.642578,410.77734399999997,589.950195,410.460938Q590.2578120000001,410.14453100000003,590.6796879999999,409.96875Q591.1015620000001,409.79296899999997,591.59375,409.79296899999997L612.177734,409.79296899999997L612.177734,414.36328100000003ZM646.560547,410.953125Q646.859375,411.498047,646.859375,412.104492Q646.859375,412.710938,646.560547,413.255859L633.886719,435L628.595703,435L640.583984,414.36328100000003L625.783203,414.36328100000003L625.783203,409.79296899999997L644.574219,409.79296899999997Q645.189453,409.79296899999997,645.725586,410.100586Q646.261719,410.408203,646.560547,410.953125ZM652.167969,432.697266Q652.167969,433.171875,651.983398,433.584961Q651.798828,433.998047,651.491211,434.305664Q651.183594,434.61328100000003,650.7705080000001,434.789062Q650.357422,434.96484399999997,649.900391,434.96484399999997Q649.425781,434.96484399999997,649.012695,434.789062Q648.599609,434.61328100000003,648.2919919999999,434.305664Q647.984375,433.998047,647.808594,433.584961Q647.6328120000001,433.171875,647.6328120000001,432.697266Q647.6328120000001,432.240234,647.808594,431.827148Q647.984375,431.414062,648.2919919999999,431.106445Q648.599609,430.798828,649.012695,430.614258Q649.425781,430.429688,649.900391,430.429688Q650.357422,430.429688,650.7705080000001,430.614258Q651.183594,430.798828,651.491211,431.106445Q651.798828,431.414062,651.983398,431.827148Q652.167969,432.240234,652.167969,432.697266ZM684.6171899999999,424.453125Q684.6171899999999,426,684.22168,427.379883Q683.82617,428.759766,683.10547,429.9375Q682.38477,431.115234,681.40039,432.046875Q680.41602,432.978516,679.24707,433.637695Q678.07812,434.296875,676.75977,434.648438Q675.44141,435,674.0703100000001,435L665.82617,435Q664.4375,435,663.11914,434.648438Q661.80078,434.296875,660.63184,433.637695Q659.46289,432.978516,658.47852,432.046875Q657.49414,431.115234,656.782227,429.9375Q656.0703120000001,428.759766,655.674805,427.379883Q655.279297,426,655.279297,424.453125L655.279297,420.33984399999997Q655.279297,418.01953100000003,656.149414,416.085938Q657.01953,414.15234399999997,658.47852,412.754883Q659.9375,411.357422,661.84473,410.575195Q663.75195,409.79296899999997,665.82617,409.79296899999997L674.0703100000001,409.79296899999997Q675.44141,409.79296899999997,676.75977,410.14453100000003Q678.07812,410.49609399999997,679.24707,411.155273Q680.41602,411.814453,681.40039,412.74609399999997Q682.38477,413.677734,683.10547,414.85546899999997Q683.82617,416.033203,684.22168,417.413086Q684.6171899999999,418.79296899999997,684.6171899999999,420.33984399999997L684.6171899999999,424.453125ZM680.01172,420.33984399999997Q680.01172,418.986328,679.51953,417.87890600000003Q679.02734,416.771484,678.20996,415.98046899999997Q677.39258,415.189453,676.3203100000001,414.767578Q675.24805,414.345703,674.0703100000001,414.36328100000003L665.82617,414.36328100000003Q664.68359,414.345703,663.60254,414.758789Q662.52148,415.171875,661.68652,415.954102Q660.8515600000001,416.736328,660.35059,417.852539Q659.84961,418.96875,659.84961,420.33984399999997L659.84961,424.453125Q659.84961,425.82421899999997,660.3418,426.931641Q660.83398,428.039062,661.66016,428.821289Q662.48633,429.603516,663.56738,430.025391Q664.6484399999999,430.447266,665.82617,430.429688L674.0703100000001,430.429688Q675.42383,430.429688,676.52246,429.981445Q677.62109,429.533203,678.39453,428.742188Q679.16797,427.951172,679.58984,426.852539Q680.01172,425.75390600000003,680.01172,424.453125L680.01172,420.33984399999997ZM678.02539,417Q678.2890600000001,417.38671899999997,678.37695,417.834961Q678.46484,418.283203,678.37695,418.713867Q678.2890600000001,419.14453100000003,678.03418,419.522461Q677.7793,419.900391,677.375,420.164062L665.03516,428.408203Q664.73633,428.63671899999997,664.41992,428.724609Q664.10352,428.8125,663.76953,428.8125Q663.20703,428.8125,662.69727,428.548828Q662.1875,428.28515600000003,661.87109,427.79296899999997Q661.60742,427.40625,661.51953,426.958008Q661.43164,426.509766,661.5107399999999,426.079102Q661.58984,425.648438,661.8359399999999,425.270508Q662.08203,424.892578,662.48633,424.62890600000003L674.86133,416.384766Q675.24805,416.12109399999997,675.69629,416.033203Q676.14453,415.945312,676.5752,416.033203Q677.00586,416.12109399999997,677.38379,416.367188Q677.76172,416.61328100000003,678.02539,417Z" fill="#FFFFFF" fill-opacity="1"/></g></g></g></svg>