<svg xmlns="http://www.w3.org/2000/svg" xmlns:xlink="http://www.w3.org/1999/xlink" fill="none" version="1.1" width="1055" height="92" viewBox="0 0 1055 92"><defs><linearGradient x1="1" y1="0.5" x2="0" y2="0.5" id="master_svg0_8_0244"><stop offset="0%" stop-color="#797979" stop-opacity="1"/><stop offset="100%" stop-color="#797979" stop-opacity="0"/></linearGradient></defs><g><g><g><line x1="276" y1="1.5" x2="845.0000610351562" y2="1.5" fill-opacity="0" stroke-opacity="1" stroke="#FFFFFF" fill="none" stroke-width="1"/></g><g transform="matrix(-0.7071067690849304,-0.7071067690849304,0.7071067690849304,-0.7071067690849304,1464.7981131076813,654.7392380237579)"><line x1="868" y1="23.5" x2="900.5269165039062" y2="23.5" fill-opacity="0" stroke-opacity="1" stroke="#FFFFFF" fill="none" stroke-width="1"/></g></g><g><rect x="187" y="24" width="681" height="60" rx="0" fill="#E93B66" fill-opacity="1"/></g><g><rect x="0" y="24" width="187" height="60" rx="0" fill="url(#master_svg0_8_0244)" fill-opacity="1"/></g><g><path d="M118.675781,77L103.2421875,77L103.2421875,71.363281Q103.2421875,70.929688,103.3417969,70.443359Q103.4414062,69.957031,103.6523438,69.476562Q103.8632812,68.996094,104.1972656,68.5625Q104.53125,68.128906,105.0058594,67.794922Q105.4804688,67.460938,106.1015625,67.261719Q106.7226562,67.0625,107.5078125,67.0625L114.375,67.0625Q114.996094,67.0625,115.294922,66.751953Q115.59375,66.441406,115.59375,65.84375L115.59375,64.496094Q115.59375,63.875,115.289062,63.558594Q114.984375,63.242188,114.398438,63.242188L104.6132812,63.242188L104.6132812,60.1953125L114.398438,60.1953125Q115.171875,60.1953125,115.792969,60.3945312Q116.414062,60.59375,116.888672,60.9277344Q117.363281,61.2617188,117.703125,61.6953125Q118.042969,62.1289062,118.259766,62.6035156Q118.476562,63.078125,118.576172,63.564453Q118.675781,64.050781,118.675781,64.472656L118.675781,65.84375Q118.675781,67.027344,118.248047,67.841797Q117.820312,68.65625,117.175781,69.166016Q116.53125,69.675781,115.787109,69.904297Q115.042969,70.132812,114.398438,70.132812L107.5078125,70.132812Q107.1328125,70.132812,106.9101562,70.238281Q106.6875,70.34375,106.5644531,70.519531Q106.4414062,70.695312,106.3828125,70.917969Q106.3242188,71.140625,106.2890625,71.363281L106.2890625,73.953125L118.675781,73.953125L118.675781,77ZM140.953125,69.96875Q140.953125,71,140.68945300000001,71.919922Q140.425781,72.839844,139.945312,73.625Q139.464844,74.410156,138.808594,75.03125Q138.152344,75.652344,137.37304699999999,76.091797Q136.59375,76.53125,135.714844,76.765625Q134.835938,77,133.921875,77L128.425781,77Q127.5,77,126.621094,76.765625Q125.742188,76.53125,124.962891,76.091797Q124.183594,75.652344,123.527344,75.03125Q122.871094,74.410156,122.396484,73.625Q121.921875,72.839844,121.658203,71.919922Q121.394531,71,121.394531,69.96875L121.394531,67.226562Q121.394531,65.679688,121.974609,64.390625Q122.554688,63.101562,123.527344,62.1699219Q124.5,61.2382812,125.771484,60.7167969Q127.042969,60.1953125,128.425781,60.1953125L133.921875,60.1953125Q134.835938,60.1953125,135.714844,60.4296875Q136.59375,60.6640625,137.37304699999999,61.1035156Q138.152344,61.5429688,138.808594,62.1640625Q139.464844,62.7851562,139.945312,63.570312Q140.425781,64.355469,140.68945300000001,65.275391Q140.953125,66.195312,140.953125,67.226562L140.953125,69.96875ZM137.882812,67.226562Q137.882812,66.324219,137.554688,65.585938Q137.226562,64.847656,136.681641,64.320312Q136.136719,63.792969,135.421875,63.511719Q134.707031,63.230469,133.921875,63.242188L128.425781,63.242188Q127.664062,63.230469,126.943359,63.505859Q126.222656,63.78125,125.666016,64.302734Q125.109375,64.824219,124.775391,65.568359Q124.441406,66.3125,124.441406,67.226562L124.441406,69.96875Q124.441406,70.882812,124.769531,71.621094Q125.097656,72.359375,125.648438,72.880859Q126.199219,73.402344,126.919922,73.683594Q127.640625,73.964844,128.425781,73.953125L133.921875,73.953125Q134.824219,73.953125,135.556641,73.654297Q136.289062,73.355469,136.804688,72.828125Q137.320312,72.300781,137.601562,71.568359Q137.882812,70.835938,137.882812,69.96875L137.882812,67.226562ZM136.558594,65Q136.734375,65.257812,136.792969,65.556641Q136.851562,65.855469,136.792969,66.142578Q136.734375,66.429688,136.56445300000001,66.681641Q136.394531,66.933594,136.125,67.109375L127.898438,72.605469Q127.699219,72.757812,127.488281,72.816406Q127.277344,72.875,127.054688,72.875Q126.679688,72.875,126.339844,72.699219Q126,72.523438,125.789062,72.195312Q125.613281,71.9375,125.554688,71.638672Q125.496094,71.339844,125.548828,71.052734Q125.601562,70.765625,125.765625,70.513672Q125.929688,70.261719,126.199219,70.085938L134.449219,64.589844Q134.707031,64.414062,135.005859,64.355469Q135.304688,64.296875,135.59179699999999,64.355469Q135.878906,64.414062,136.130859,64.578125Q136.382812,64.742188,136.558594,65ZM163.160156,69.96875Q163.160156,71,162.896484,71.919922Q162.632812,72.839844,162.152344,73.625Q161.671875,74.410156,161.015625,75.03125Q160.359375,75.652344,159.58007800000001,76.091797Q158.800781,76.53125,157.921875,76.765625Q157.042969,77,156.128906,77L150.632812,77Q149.707031,77,148.828125,76.765625Q147.949219,76.53125,147.16992199999999,76.091797Q146.390625,75.652344,145.734375,75.03125Q145.078125,74.410156,144.603516,73.625Q144.128906,72.839844,143.865234,71.919922Q143.601562,71,143.601562,69.96875L143.601562,67.226562Q143.601562,65.679688,144.181641,64.390625Q144.761719,63.101562,145.734375,62.1699219Q146.707031,61.2382812,147.978516,60.7167969Q149.25,60.1953125,150.632812,60.1953125L156.128906,60.1953125Q157.042969,60.1953125,157.921875,60.4296875Q158.800781,60.6640625,159.58007800000001,61.1035156Q160.359375,61.5429688,161.015625,62.1640625Q161.671875,62.7851562,162.152344,63.570312Q162.632812,64.355469,162.896484,65.275391Q163.160156,66.195312,163.160156,67.226562L163.160156,69.96875ZM160.089844,67.226562Q160.089844,66.324219,159.761719,65.585938Q159.433594,64.847656,158.88867199999999,64.320312Q158.34375,63.792969,157.628906,63.511719Q156.914062,63.230469,156.128906,63.242188L150.632812,63.242188Q149.871094,63.230469,149.150391,63.505859Q148.429688,63.78125,147.87304699999999,64.302734Q147.316406,64.824219,146.98242199999999,65.568359Q146.648438,66.3125,146.648438,67.226562L146.648438,69.96875Q146.648438,70.882812,146.976562,71.621094Q147.304688,72.359375,147.855469,72.880859Q148.40625,73.402344,149.12695300000001,73.683594Q149.847656,73.964844,150.632812,73.953125L156.128906,73.953125Q157.03125,73.953125,157.76367199999999,73.654297Q158.496094,73.355469,159.011719,72.828125Q159.527344,72.300781,159.808594,71.568359Q160.089844,70.835938,160.089844,69.96875L160.089844,67.226562ZM158.765625,65Q158.941406,65.257812,159,65.556641Q159.058594,65.855469,159,66.142578Q158.941406,66.429688,158.771484,66.681641Q158.601562,66.933594,158.332031,67.109375L150.105469,72.605469Q149.90625,72.757812,149.695312,72.816406Q149.484375,72.875,149.261719,72.875Q148.886719,72.875,148.546875,72.699219Q148.207031,72.523438,147.996094,72.195312Q147.820312,71.9375,147.761719,71.638672Q147.703125,71.339844,147.755859,71.052734Q147.808594,70.765625,147.972656,70.513672Q148.136719,70.261719,148.40625,70.085938L156.65625,64.589844Q156.914062,64.414062,157.212891,64.355469Q157.511719,64.296875,157.79882800000001,64.355469Q158.085938,64.414062,158.337891,64.578125Q158.589844,64.742188,158.765625,65ZM185.367188,69.96875Q185.367188,71,185.103516,71.919922Q184.839844,72.839844,184.359375,73.625Q183.878906,74.410156,183.222656,75.03125Q182.566406,75.652344,181.787109,76.091797Q181.007812,76.53125,180.128906,76.765625Q179.25,77,178.335938,77L172.839844,77Q171.914062,77,171.035156,76.765625Q170.15625,76.53125,169.37695300000001,76.091797Q168.597656,75.652344,167.941406,75.03125Q167.285156,74.410156,166.81054699999999,73.625Q166.335938,72.839844,166.072266,71.919922Q165.808594,71,165.808594,69.96875L165.808594,67.226562Q165.808594,65.679688,166.38867199999999,64.390625Q166.96875,63.101562,167.941406,62.1699219Q168.914062,61.2382812,170.18554699999999,60.7167969Q171.457031,60.1953125,172.839844,60.1953125L178.335938,60.1953125Q179.25,60.1953125,180.128906,60.4296875Q181.007812,60.6640625,181.787109,61.1035156Q182.566406,61.5429688,183.222656,62.1640625Q183.878906,62.7851562,184.359375,63.570312Q184.839844,64.355469,185.103516,65.275391Q185.367188,66.195312,185.367188,67.226562L185.367188,69.96875ZM182.296875,67.226562Q182.296875,66.324219,181.96875,65.585938Q181.640625,64.847656,181.09570300000001,64.320312Q180.550781,63.792969,179.835938,63.511719Q179.121094,63.230469,178.335938,63.242188L172.839844,63.242188Q172.078125,63.230469,171.35742199999999,63.505859Q170.636719,63.78125,170.08007800000001,64.302734Q169.523438,64.824219,169.18945300000001,65.568359Q168.855469,66.3125,168.855469,67.226562L168.855469,69.96875Q168.855469,70.882812,169.183594,71.621094Q169.511719,72.359375,170.0625,72.880859Q170.613281,73.402344,171.333984,73.683594Q172.054688,73.964844,172.839844,73.953125L178.335938,73.953125Q179.238281,73.953125,179.97070300000001,73.654297Q180.703125,73.355469,181.21875,72.828125Q181.734375,72.300781,182.015625,71.568359Q182.296875,70.835938,182.296875,69.96875L182.296875,67.226562ZM180.972656,65Q181.148438,65.257812,181.207031,65.556641Q181.265625,65.855469,181.207031,66.142578Q181.148438,66.429688,180.978516,66.681641Q180.808594,66.933594,180.539062,67.109375L172.3125,72.605469Q172.113281,72.757812,171.902344,72.816406Q171.691406,72.875,171.46875,72.875Q171.09375,72.875,170.753906,72.699219Q170.414062,72.523438,170.203125,72.195312Q170.027344,71.9375,169.96875,71.638672Q169.910156,71.339844,169.962891,71.052734Q170.015625,70.765625,170.179688,70.513672Q170.34375,70.261719,170.613281,70.085938L178.863281,64.589844Q179.121094,64.414062,179.41992199999999,64.355469Q179.71875,64.296875,180.005859,64.355469Q180.292969,64.414062,180.54492199999999,64.578125Q180.796875,64.742188,180.972656,65Z" fill="#FFFFFF" fill-opacity="1"/></g><g><path d="M759.3515620000001,69.445312Q759.3515620000001,70.3125,759.152344,71.273438Q758.953125,72.234375,758.519531,73.183594Q758.0859379999999,74.132812,757.40625,75Q756.7265620000001,75.867188,755.777344,76.535156Q754.828125,77.203125,753.5859379999999,77.601562Q752.34375,78,750.796875,78L737.015625,78Q735.75,78,734.25,77.554688Q732.75,77.109375,731.4726562,76.089844Q730.1953125,75.070312,729.3398438,73.441406Q728.484375,71.8125,728.484375,69.445312L728.484375,66.726562Q728.484375,65.835938,728.6835938,64.851562Q728.8828125,63.867188,729.3164062,62.90625Q729.75,61.945312,730.4296875,61.078125Q731.109375,60.210938,732.0703125,59.578125Q731.6484375,58.59375,731.4375,57.585938Q731.2265625,56.578125,731.2265625,55.6875L731.2265625,52.945312Q731.2265625,50.601562,732.0820312,48.960938Q732.9375,47.320312,734.2148438,46.3125Q735.4921875,45.304688,736.992188,44.847656Q738.492188,44.390625,739.757812,44.390625L748.0078120000001,44.390625Q749.578125,44.390625,750.832031,44.789062Q752.0859379999999,45.1875,753.035156,45.855469Q753.984375,46.523438,754.652344,47.390625Q755.3203120000001,48.257812,755.7421879999999,49.207031Q756.1640620000001,50.15625,756.363281,51.128906Q756.5625,52.101562,756.5625,52.945312L756.5625,55.6875Q756.5625,57.984375,755.7421879999999,59.671875Q756.4921879999999,60.164062,757.1484379999999,60.832031Q757.8046879999999,61.5,758.296875,62.367188Q758.7890620000001,63.234375,759.0703120000001,64.324219Q759.3515620000001,65.414062,759.3515620000001,66.726562L759.3515620000001,69.445312ZM750.46875,52.992188Q750.46875,51.75,749.8359379999999,51.117188Q749.203125,50.484375,748.0078120000001,50.484375L739.804688,50.484375Q738.5625,50.484375,737.964844,51.117188Q737.367188,51.75,737.367188,52.945312L737.367188,55.6875Q737.367188,56.90625,737.988281,57.515625Q738.609375,58.125,739.757812,58.125L748.0078120000001,58.125Q749.25,58.125,749.859375,57.503906Q750.46875,56.882812,750.46875,55.6875L750.46875,52.992188ZM753.1875,66.726562Q753.1875,65.554688,752.542969,64.910156Q751.8984379999999,64.265625,750.796875,64.265625L737.015625,64.265625Q735.890625,64.265625,735.234375,64.96875Q734.578125,65.671875,734.578125,66.726562L734.578125,69.445312Q734.578125,70.570312,735.2695312,71.238281Q735.9609375,71.90625,737.015625,71.90625L750.796875,71.90625Q751.96875,71.90625,752.578125,71.203125Q753.1875,70.5,753.1875,69.445312L753.1875,66.726562ZM774.5859379999999,78L768.46875,78L768.46875,50.484375L762.9609379999999,50.484375L762.9609379999999,44.390625L774.5859379999999,44.390625L774.5859379999999,78ZM820.1015620000001,63.9375Q820.1015620000001,66,819.574219,67.839844Q819.046875,69.679688,818.0859379999999,71.25Q817.125,72.820312,815.8125,74.0625Q814.5,75.304688,812.941406,76.183594Q811.3828120000001,77.0625,809.625,77.53125Q807.8671879999999,78,806.0390620000001,78L795.046875,78Q793.1953120000001,78,791.4375,77.53125Q789.6796879999999,77.0625,788.121094,76.183594Q786.5625,75.304688,785.25,74.0625Q783.9375,72.820312,782.988281,71.25Q782.0390620000001,69.679688,781.511719,67.839844Q780.984375,66,780.984375,63.9375L780.984375,58.453125Q780.984375,55.359375,782.144531,52.78125Q783.3046879999999,50.203125,785.25,48.339844Q787.1953120000001,46.476562,789.738281,45.433594Q792.28125,44.390625,795.046875,44.390625L806.0390620000001,44.390625Q807.8671879999999,44.390625,809.625,44.859375Q811.3828120000001,45.328125,812.941406,46.207031Q814.5,47.085938,815.8125,48.328125Q817.125,49.570312,818.0859379999999,51.140625Q819.046875,52.710938,819.574219,54.550781Q820.1015620000001,56.390625,820.1015620000001,58.453125L820.1015620000001,63.9375ZM813.9609379999999,58.453125Q813.9609379999999,56.648438,813.3046879999999,55.171875Q812.6484379999999,53.695312,811.558594,52.640625Q810.46875,51.585938,809.0390620000001,51.023438Q807.609375,50.460938,806.0390620000001,50.484375L795.046875,50.484375Q793.5234379999999,50.460938,792.082031,51.011719Q790.640625,51.5625,789.527344,52.605469Q788.4140620000001,53.648438,787.746094,55.136719Q787.078125,56.625,787.078125,58.453125L787.078125,63.9375Q787.078125,65.765625,787.734375,67.242188Q788.390625,68.71875,789.4921879999999,69.761719Q790.59375,70.804688,792.035156,71.367188Q793.4765620000001,71.929688,795.046875,71.90625L806.0390620000001,71.90625Q807.84375,71.90625,809.308594,71.308594Q810.7734379999999,70.710938,811.8046879999999,69.65625Q812.8359379999999,68.601562,813.3984379999999,67.136719Q813.9609379999999,65.671875,813.9609379999999,63.9375L813.9609379999999,58.453125ZM811.3125,54Q811.6640620000001,54.515625,811.78125,55.113281Q811.8984379999999,55.710938,811.78125,56.285156Q811.6640620000001,56.859375,811.324219,57.363281Q810.984375,57.867188,810.4453120000001,58.21875L793.9921879999999,69.210938Q793.59375,69.515625,793.171875,69.632812Q792.75,69.75,792.3046879999999,69.75Q791.5546879999999,69.75,790.875,69.398438Q790.1953120000001,69.046875,789.7734379999999,68.390625Q789.421875,67.875,789.3046879999999,67.277344Q789.1875,66.679688,789.292969,66.105469Q789.3984379999999,65.53125,789.7265620000001,65.027344Q790.0546879999999,64.523438,790.59375,64.171875L807.09375,53.179688Q807.609375,52.828125,808.207031,52.710938Q808.8046879999999,52.59375,809.378906,52.710938Q809.953125,52.828125,810.457031,53.15625Q810.9609379999999,53.484375,811.3125,54ZM864.51562,63.9375Q864.51562,66,863.98828,67.839844Q863.4609399999999,69.679688,862.5,71.25Q861.5390600000001,72.820312,860.2265600000001,74.0625Q858.9140600000001,75.304688,857.35547,76.183594Q855.79688,77.0625,854.0390600000001,77.53125Q852.28125,78,850.45312,78L839.4609399999999,78Q837.60938,78,835.8515600000001,77.53125Q834.09375,77.0625,832.53516,76.183594Q830.9765600000001,75.304688,829.6640600000001,74.0625Q828.3515600000001,72.820312,827.40234,71.25Q826.45312,69.679688,825.925781,67.839844Q825.3984379999999,66,825.3984379999999,63.9375L825.3984379999999,58.453125Q825.3984379999999,55.359375,826.55859,52.78125Q827.71875,50.203125,829.6640600000001,48.339844Q831.60938,46.476562,834.15234,45.433594Q836.6953100000001,44.390625,839.4609399999999,44.390625L850.45312,44.390625Q852.28125,44.390625,854.0390600000001,44.859375Q855.79688,45.328125,857.35547,46.207031Q858.9140600000001,47.085938,860.2265600000001,48.328125Q861.5390600000001,49.570312,862.5,51.140625Q863.4609399999999,52.710938,863.98828,54.550781Q864.51562,56.390625,864.51562,58.453125L864.51562,63.9375ZM858.375,58.453125Q858.375,56.648438,857.71875,55.171875Q857.0625,53.695312,855.97266,52.640625Q854.8828100000001,51.585938,853.45312,51.023438Q852.0234399999999,50.460938,850.45312,50.484375L839.4609399999999,50.484375Q837.9375,50.460938,836.49609,51.011719Q835.0546899999999,51.5625,833.94141,52.605469Q832.82812,53.648438,832.16016,55.136719Q831.4921899999999,56.625,831.4921899999999,58.453125L831.4921899999999,63.9375Q831.4921899999999,65.765625,832.1484399999999,67.242188Q832.8046899999999,68.71875,833.90625,69.761719Q835.0078100000001,70.804688,836.44922,71.367188Q837.89062,71.929688,839.4609399999999,71.90625L850.45312,71.90625Q852.2578100000001,71.90625,853.72266,71.308594Q855.1875,70.710938,856.21875,69.65625Q857.25,68.601562,857.8125,67.136719Q858.375,65.671875,858.375,63.9375L858.375,58.453125ZM855.7265600000001,54Q856.07812,54.515625,856.1953100000001,55.113281Q856.3125,55.710938,856.1953100000001,56.285156Q856.07812,56.859375,855.73828,57.363281Q855.3984399999999,57.867188,854.85938,58.21875L838.40625,69.210938Q838.0078100000001,69.515625,837.5859399999999,69.632812Q837.1640600000001,69.75,836.71875,69.75Q835.96875,69.75,835.2890600000001,69.398438Q834.60938,69.046875,834.1875,68.390625Q833.8359399999999,67.875,833.71875,67.277344Q833.6015600000001,66.679688,833.70703,66.105469Q833.8125,65.53125,834.14062,65.027344Q834.46875,64.523438,835.0078100000001,64.171875L851.5078100000001,53.179688Q852.0234399999999,52.828125,852.62109,52.710938Q853.21875,52.59375,853.79297,52.710938Q854.3671899999999,52.828125,854.87109,53.15625Q855.375,53.484375,855.7265600000001,54Z" fill="#FFFFFF" fill-opacity="1"/></g><g><path d="M749.585938,17.132812L739.9648438,17.132812L739.9648438,14.0625L749.585938,14.0625L749.585938,17.132812ZM750.957031,24L739.9648438,24Q739.3320312,24,738.5820312,23.777344Q737.8320312,23.554688,737.1933594,23.044922Q736.5546875,22.535156,736.1269531,21.720703Q735.6992188,20.90625,735.6992188,19.722656L735.6992188,8.7304688Q735.6992188,8.4140625,735.8164062,8.1328125Q735.9335938,7.8515625,736.1386719,7.640625Q736.34375,7.4296875,736.625,7.3125Q736.90625,7.1953125,737.234375,7.1953125L750.957031,7.1953125L750.957031,10.242188L738.7460938,10.242188L738.7460938,19.722656Q738.7460938,20.320312,739.0625,20.636719Q739.3789062,20.953125,739.9882812,20.953125L750.957031,20.953125L750.957031,24ZM769.0859379999999,10.242188L762.371094,10.242188L762.371094,24L759.324219,24L759.324219,10.242188L752.597656,10.242188L752.597656,7.1953125L769.0859379999999,7.1953125L769.0859379999999,10.242188ZM779,13.195312L784.1328120000001,7.1953125L788.292969,7.1953125L781.0625,15.621094L788.246094,24L784.109375,24L779,18.046875L773.9140620000001,24L769.765625,24L776.9375,15.621094L769.7421879999999,7.1953125L773.8671879999999,7.1953125L779,13.195312ZM807.546875,9.3164062L800.5625,15.574219L807.546875,21.691406L803.152344,21.691406L797.4921879999999,16.722656Q796.964844,16.289062,796.964844,15.574219Q796.964844,15.246094,797.099609,14.953125Q797.234375,14.660156,797.46875,14.449219L803.199219,9.3164062L807.546875,9.3164062ZM813.21875,14.0625L821.328125,14.0625Q821.972656,14.0625,822.716797,14.291016Q823.4609379999999,14.519531,824.105469,15.029297Q824.75,15.539062,825.177734,16.359375Q825.605469,17.179688,825.605469,18.363281L825.605469,19.722656Q825.605469,20.15625,825.505859,20.636719Q825.40625,21.117188,825.189453,21.591797Q824.972656,22.066406,824.638672,22.5Q824.3046879999999,22.933594,823.830078,23.267578Q823.355469,23.601562,822.734375,23.800781Q822.113281,24,821.328125,24L815.808594,24Q815.246094,24,814.607422,23.871094Q813.96875,23.742188,813.347656,23.455078Q812.7265620000001,23.167969,812.146484,22.728516Q811.566406,22.289062,811.1328120000001,21.662109Q810.699219,21.035156,810.435547,20.214844Q810.171875,19.394531,810.171875,18.363281L810.171875,12.84375Q810.171875,11.8125,810.435547,10.992188Q810.699219,10.171875,811.1328120000001,9.5449219Q811.566406,8.9179688,812.146484,8.4726562Q812.7265620000001,8.0273438,813.347656,7.7402344Q813.96875,7.453125,814.607422,7.3242188Q815.246094,7.1953125,815.808594,7.1953125L823.449219,7.1953125L823.449219,10.242188L815.808594,10.242188Q815.222656,10.289062,814.748047,10.488281Q814.2734379999999,10.6875,813.933594,11.015625Q813.59375,11.34375,813.40625,11.806641Q813.21875,12.269531,813.21875,12.84375L813.21875,14.0625ZM813.21875,17.132812L813.21875,18.363281Q813.21875,18.960938,813.423828,19.435547Q813.628906,19.910156,813.980469,20.25Q814.332031,20.589844,814.806641,20.771484Q815.28125,20.953125,815.832031,20.953125L821.328125,20.953125Q821.9140620000001,20.953125,822.224609,20.601562Q822.535156,20.25,822.535156,19.722656L822.535156,18.363281Q822.535156,17.765625,822.230469,17.449219Q821.925781,17.132812,821.3046879999999,17.132812L813.21875,17.132812ZM830.574219,22.464844Q830.574219,22.78125,830.451172,23.056641Q830.328125,23.332031,830.123047,23.537109Q829.917969,23.742188,829.642578,23.859375Q829.3671879999999,23.976562,829.0625,23.976562Q828.746094,23.976562,828.470703,23.859375Q828.1953120000001,23.742188,827.990234,23.537109Q827.785156,23.332031,827.667969,23.056641Q827.550781,22.78125,827.550781,22.464844Q827.550781,22.160156,827.667969,21.884766Q827.785156,21.609375,827.990234,21.404297Q828.1953120000001,21.199219,828.470703,21.076172Q828.746094,20.953125,829.0625,20.953125Q829.3671879999999,20.953125,829.642578,21.076172Q829.917969,21.199219,830.123047,21.404297Q830.328125,21.609375,830.451172,21.884766Q830.574219,22.160156,830.574219,22.464844ZM832.2734379999999,12.84375L832.2734379999999,11.472656Q832.2734379999999,11.050781,832.373047,10.564453Q832.472656,10.078125,832.683594,9.6035156Q832.894531,9.1289062,833.234375,8.6953125Q833.574219,8.2617188,834.04883,7.9277344Q834.5234399999999,7.59375,835.14453,7.3945312Q835.76562,7.1953125,836.55078,7.1953125L842.04688,7.1953125Q842.60938,7.1953125,843.25391,7.3242188Q843.8984399999999,7.453125,844.52539,7.7402344Q845.15234,8.0273438,845.7265600000001,8.4726562Q846.30078,8.9179688,846.74023,9.5449219Q847.1796899999999,10.171875,847.44336,10.992188Q847.70703,11.8125,847.70703,12.84375L847.70703,18.363281Q847.70703,19.394531,847.44336,20.214844Q847.1796899999999,21.035156,846.74023,21.662109Q846.30078,22.289062,845.7265600000001,22.728516Q845.15234,23.167969,844.52539,23.455078Q843.8984399999999,23.742188,843.25391,23.871094Q842.60938,24,842.04688,24L834.44141,24L834.44141,20.953125L842.04688,20.953125Q842.62109,20.90625,843.0957,20.71875Q843.5703100000001,20.53125,843.91602,20.208984Q844.26172,19.886719,844.44922,19.423828Q844.63672,18.960938,844.63672,18.363281L844.63672,17.132812L836.55078,17.132812Q836.1171899999999,17.132812,835.63672,17.033203Q835.15625,16.933594,834.68164,16.716797Q834.20703,16.5,833.7734379999999,16.166016Q833.339844,15.832031,833.005859,15.351562Q832.671875,14.871094,832.472656,14.25Q832.2734379999999,13.628906,832.2734379999999,12.84375ZM844.63672,12.84375Q844.63672,12.246094,844.4375,11.765625Q844.23828,11.285156,843.89258,10.945312Q843.54688,10.605469,843.07227,10.423828Q842.59766,10.242188,842.04688,10.242188L836.55078,10.242188Q835.98828,10.242188,835.6543,10.59375Q835.3203100000001,10.945312,835.3203100000001,11.472656L835.3203100000001,12.84375Q835.3203100000001,13.441406,835.63672,13.751953Q835.95312,14.0625,836.57422,14.0625L844.63672,14.0625L844.63672,12.84375Z" fill="#FFFFFF" fill-opacity="1"/></g><g><path d="M1055,37.791748L1055,24L1053.229,24L1054.31042,25.0814209L1048.30005,31.0917969L1055,37.791748ZM1020.72876,24L1037.8339799999999,24L1036.35242,25.4815674L1042.36279,31.4919434L1035.29175,38.562988000000004L1029.28137,32.5526123L1023.271,38.562988000000004L1016.19995,31.4919434L1022.21033,25.4815674L1020.72876,24L1020.72876,24ZM988.229,24L1006.1340299999999,24L1004.25256,25.8814697L1010.26294,31.8918457L1003.1918900000001,38.962891L997.18152,32.9525146L991.17114,38.962891L984.1001,31.8918457L990.11047,25.8814697L988.229,24L988.229,24ZM955.72876,24L974.43408,24L972.15247,26.281616200000002L978.16284,32.291992199999996L971.0918,39.363037L965.081421,33.3526611L959.071045,39.363037L952,32.291992199999996L958.010376,26.281616200000002L955.72876,24L955.72876,24ZM923.220703,24L942.72583,24L940.044312,26.6815186L946.0546879999999,32.691894500000004L938.983643,39.762939L932.973267,33.7525635L926.962891,39.762939L919.891846,32.691894500000004L925.902222,26.6815186L923.220703,24L923.220703,24ZM890.720947,24L911.041992,24L907.952515,27.0894775L913.962891,33.0998535L906.891846,40.170898L900.88147,34.160522L894.871094,40.170898L887.800049,33.0998535L893.810425,27.0894775L890.720947,24L890.720947,24ZM881.891602,84L868,84L868,82.12915000000001L869.0814209,83.210571L875.0917969,77.20019500000001L881.891602,84ZM914.134033,84L888.229004,84L888.100098,83.871094L895.171143,76.800049L901.181519,82.81042500000001L907.191895,76.800049L914.262939,83.871094L914.134033,84ZM945.833984,84L920.72876,84L920.199951,83.471191L927.270996,76.400146L933.281372,82.410522L939.291748,76.400146L946.362793,83.471191L945.833984,84ZM977.53394,84L953.229004,84L952.300049,83.071045L959.371094,76L965.38147,82.01037600000001L971.39185,76L978.46289,83.071045L977.53394,84ZM1009.23413,84L985.729,84L984.4001499999999,82.671143L991.47119,75.600098L997.48157,81.61047400000001L1003.49194,75.600098L1010.56299,82.671143L1009.23413,84ZM1040.93408,84L1018.22876,84L1016.5,82.27124L1023.57104,75.20019500000001L1029.58142,81.210571L1035.5918,75.20019500000001L1042.66284,82.27124L1040.93408,84ZM1055,59.137207L1055,66.24658199999999L1051.48364,69.762939L1045.47327,63.752563L1039.46289,69.762939L1032.39185,62.691895L1038.40222,56.681519L1032.39185,50.671143L1039.46289,43.600098L1045.47327,49.610473999999996L1051.48364,43.600098L1055,47.116455L1055,54.22583L1052.54431,56.681519L1055,59.137207ZM1019.38354,44.000243999999995L1026.45459,51.071289L1020.44421,57.081665L1026.45459,63.092041L1019.38354,70.16308599999999L1013.37317,64.15271L1007.36279,70.16308599999999L1000.29175,63.092041L1006.3021200000001,57.081665L1000.29175,51.071289L1007.36279,44.000243999999995L1013.37317,50.01062L1019.38354,44.000243999999995ZM987.28369,44.400146L994.35474,51.471191000000005L988.34436,57.481567L994.35474,63.491943L987.28369,70.56298799999999L981.27332,64.55261200000001L975.26294,70.56298799999999L968.1918900000001,63.491943L974.20227,57.481567L968.1918900000001,51.471191000000005L975.26294,44.400146L981.27332,50.410522L987.28369,44.400146ZM962.254639,51.871338L955.183594,44.800292999999996L949.17334,50.810790999999995L943.162842,44.800292999999996L936.091797,51.871338L942.102051,57.881592L936.091797,63.89209L943.162842,70.963135L949.17334,64.95288099999999L955.183594,70.963135L962.254639,63.89209L956.244141,57.881592L962.254639,51.871338ZM923.08374,45.200195L930.154785,52.27124L924.144409,58.281616L930.154785,64.291992L923.08374,71.36303699999999L917.073364,65.352661L911.062988,71.36303699999999L903.991943,64.291992L910.0023189999999,58.281616L903.991943,52.27124L911.062988,45.200195L917.073364,51.210571L923.08374,45.200195ZM890.983643,45.600098L898.0546879999999,52.671143L892.044312,58.681519L898.0546879999999,64.691895L890.983643,71.762939L884.973267,65.75256300000001L878.962891,71.762939L871.8918457,64.691895L877.9022217,58.681519L871.8918457,52.671143L878.962891,45.600098L884.973267,51.610473999999996L890.983643,45.600098Z" fill-rule="evenodd" fill="#FFFFFF" fill-opacity="1"/></g></g></svg>