<svg xmlns="http://www.w3.org/2000/svg" xmlns:xlink="http://www.w3.org/1999/xlink" fill="none" version="1.1" width="1056" height="207" viewBox="0 0 1056 207"><g><g><rect x="0" y="77" width="528" height="60" rx="0" fill="#E93B66" fill-opacity="1"/></g><g><rect x="5" y="14" width="50" height="50" rx="0" fill-opacity="0" stroke-opacity="1" stroke="#E93B66" fill="none" stroke-width="10"/></g><g><rect x="77" y="14" width="50" height="50" rx="0" fill-opacity="0" stroke-opacity="1" stroke="#E93B66" fill="none" stroke-width="10"/></g><g><rect x="146" y="11" width="56" height="56" rx="0" fill-opacity="0" stroke-opacity="1" stroke="#E93B66" fill="none" stroke-width="4"/></g><g><rect x="1001" y="152" width="50" height="50" rx="0" fill-opacity="0" stroke-opacity="1" stroke="#3BB8E9" fill="none" stroke-width="10"/></g><g><rect x="928" y="152" width="50" height="50" rx="0" fill-opacity="0" stroke-opacity="1" stroke="#3BB8E9" fill="none" stroke-width="10"/></g><g><rect x="528" y="77" width="528" height="60" rx="0" fill="#3BB8E9" fill-opacity="1"/></g><g><path d="M452.93359399999997,94L443.757812,94L443.757812,52.726562L435.4960938,52.726562L435.4960938,43.585938L452.93359399999997,43.585938L452.93359399999997,94ZM531.578125,55.996094Q530.03125,60.8125,527.957031,65.488281Q525.8828120000001,70.164062,523.193359,74.400391Q520.503906,78.636719,517.181641,82.240234Q513.859375,85.84375,509.833984,88.462891Q505.80859399999997,91.082031,501.080078,92.576172Q496.351562,94.070312,490.83203100000003,94.070312Q489.882812,94.070312,489.039062,93.71875Q488.195312,93.367188,487.5625,92.751953Q486.929688,92.136719,486.578125,91.310547Q486.226562,90.484375,486.226562,89.535156L486.226562,55.996094L495.367188,55.996094L495.367188,84.578125Q498.70703100000003,84.578125,501.783203,83.136719Q504.859375,81.695312,507.601562,79.322266Q510.34375,76.949219,512.681641,73.925781Q515.019531,70.902344,516.847656,67.720703Q518.675781,64.539062,519.958984,61.480469Q521.2421879999999,58.421875,521.875,55.996094L531.578125,55.996094ZM571.5859399999999,81.167969Q571.5859399999999,83.523438,570.98828,85.404297Q570.39062,87.285156,569.40625,88.708984Q568.42188,90.132812,567.12109,91.134766Q565.8203100000001,92.136719,564.39648,92.769531Q562.97266,93.402344,561.51367,93.701172Q560.0546899999999,94,558.75391,94L534.00391,94L534.00391,84.859375L558.68359,84.859375Q560.54688,84.859375,561.49609,83.910156Q562.4453100000001,82.960938,562.4453100000001,81.167969Q562.26953,77.511719,558.75391,77.511719L544.5859399999999,77.511719Q541.5625,77.511719,539.45312,76.457031Q537.34375,75.402344,536.02539,73.820312Q534.70703,72.238281,534.12695,70.410156Q533.54688,68.582031,533.54688,67Q533.54688,63.941406,534.63672,61.849609Q535.7265600000001,59.757812,537.37891,58.457031Q539.03125,57.15625,540.96484,56.576172Q542.8984399999999,55.996094,544.5859399999999,55.996094L567.05078,55.996094L567.05078,65.136719L544.65625,65.136719Q543.95312,65.136719,543.54883,65.294922Q543.14453,65.453125,542.95117,65.716797Q542.7578100000001,65.980469,542.72266,66.279297Q542.6875,66.578125,542.6875,66.859375Q542.72266,67.421875,542.8984399999999,67.738281Q543.07422,68.054688,543.33789,68.195312Q543.6015600000001,68.335938,543.93555,68.353516Q544.26953,68.371094,544.5859399999999,68.371094L558.75391,68.371094Q562.26953,68.371094,564.73047,69.636719Q567.19141,70.902344,568.70312,72.818359Q570.21484,74.734375,570.90039,76.984375Q571.5859399999999,79.234375,571.5859399999999,81.167969ZM617.04297,94L607.8671899999999,94L607.8671899999999,52.726562L599.60547,52.726562L599.60547,43.585938L617.04297,43.585938L617.04297,94Z" fill="#FFFFFF" fill-opacity="1"/></g><g><path d="M561.513672,29.583984Q561.513672,30.761719,561.214844,31.702148Q560.916016,32.642578,560.423828,33.354492Q559.931641,34.066406,559.28125,34.567383Q558.630859,35.068359,557.918945,35.384766Q557.207031,35.701172,556.477539,35.850586Q555.748047,36,555.097656,36L542.7226562,36L542.7226562,31.429688L555.0625,31.429688Q555.994141,31.429688,556.46875,30.955078Q556.943359,30.480469,556.943359,29.583984Q556.855469,27.755859,555.097656,27.755859L548.0136719,27.755859Q546.5019531,27.755859,545.4472656,27.228516Q544.3925781,26.701172,543.7333984,25.910156Q543.0742188,25.119141,542.7841797,24.205078Q542.4941406,23.291016,542.4941406,22.5Q542.4941406,20.970703,543.0390625,19.924805Q543.5839844,18.878906,544.4101562,18.228516Q545.2363281,17.578125,546.203125,17.288086Q547.1699219,16.998047,548.0136719,16.998047L559.246094,16.998047L559.246094,21.568359L548.0488281,21.568359Q547.6972656,21.568359,547.4951172,21.647461Q547.2929688,21.726562,547.1962891,21.858398Q547.0996094,21.990234,547.0820312,22.139648Q547.0644531,22.289062,547.0644531,22.429688Q547.0820312,22.710938,547.1699219,22.869141Q547.2578125,23.027344,547.3896484,23.097656Q547.5214844,23.167969,547.6884766,23.176758Q547.8554688,23.185547,548.0136719,23.185547L555.097656,23.185547Q556.855469,23.185547,558.0859379999999,23.818359Q559.316406,24.451172,560.072266,25.40918Q560.828125,26.367188,561.170898,27.492188Q561.513672,28.617188,561.513672,29.583984ZM585.384766,29.583984Q585.384766,30.761719,585.0859379999999,31.702148Q584.787109,32.642578,584.294922,33.354492Q583.802734,34.066406,583.152344,34.567383Q582.501953,35.068359,581.790039,35.384766Q581.078125,35.701172,580.348633,35.850586Q579.619141,36,578.96875,36L570.724609,36Q569.775391,36,568.650391,35.666016Q567.525391,35.332031,566.567383,34.567383Q565.609375,33.802734,564.967773,32.581055Q564.326172,31.359375,564.326172,29.583984L564.326172,23.396484Q564.326172,21.638672,564.967773,20.416992Q565.609375,19.195312,566.567383,18.430664Q567.525391,17.666016,568.650391,17.332031Q569.775391,16.998047,570.724609,16.998047L578.96875,16.998047Q580.7265620000001,16.998047,581.957031,17.630859Q583.1875,18.263672,583.943359,19.22168Q584.699219,20.179688,585.041992,21.304688Q585.384766,22.429688,585.384766,23.396484L585.384766,29.583984ZM580.814453,23.431641Q580.814453,22.482422,580.339844,22.025391Q579.865234,21.568359,578.96875,21.568359L570.759766,21.568359Q569.845703,21.568359,569.371094,22.03418Q568.896484,22.5,568.896484,23.396484L568.896484,29.583984Q568.896484,30.480469,569.371094,30.955078Q569.845703,31.429688,570.759766,31.429688L578.96875,31.429688Q579.900391,31.429688,580.357422,30.955078Q580.814453,30.480469,580.814453,29.583984L580.814453,23.431641ZM597.619141,36L595.580078,36Q594.595703,36,593.479492,35.666016Q592.363281,35.332031,591.396484,34.567383Q590.4296879999999,33.802734,589.796875,32.581055Q589.1640620000001,31.359375,589.1640620000001,29.583984L589.1640620000001,8.9648438L593.734375,8.9648438L593.734375,29.583984Q593.734375,30.427734,594.261719,30.928711Q594.7890620000001,31.429688,595.580078,31.429688L597.619141,31.429688L597.619141,36ZM621.2265620000001,29.583984Q621.2265620000001,30.761719,620.927734,31.702148Q620.628906,32.642578,620.136719,33.354492Q619.644531,34.066406,618.994141,34.567383Q618.34375,35.068359,617.631836,35.384766Q616.919922,35.701172,616.19043,35.850586Q615.4609379999999,36,614.810547,36L606.566406,36Q605.6171879999999,36,604.4921879999999,35.666016Q603.3671879999999,35.332031,602.40918,34.567383Q601.451172,33.802734,600.80957,32.581055Q600.167969,31.359375,600.167969,29.583984L600.167969,23.396484Q600.167969,21.638672,600.80957,20.416992Q601.451172,19.195312,602.40918,18.430664Q603.3671879999999,17.666016,604.4921879999999,17.332031Q605.6171879999999,16.998047,606.566406,16.998047L614.810547,16.998047Q616.568359,16.998047,617.798828,17.630859Q619.029297,18.263672,619.785156,19.22168Q620.541016,20.179688,620.883789,21.304688Q621.2265620000001,22.429688,621.2265620000001,23.396484L621.2265620000001,29.583984ZM616.65625,23.431641Q616.65625,22.482422,616.181641,22.025391Q615.707031,21.568359,614.810547,21.568359L606.6015620000001,21.568359Q605.6875,21.568359,605.212891,22.03418Q604.738281,22.5,604.738281,23.396484L604.738281,29.583984Q604.738281,30.480469,605.212891,30.955078Q605.6875,31.429688,606.6015620000001,31.429688L614.810547,31.429688Q615.7421879999999,31.429688,616.199219,30.955078Q616.65625,30.480469,616.65625,29.583984L616.65625,23.431641Z" fill="#FFFFFF" fill-opacity="1"/></g></g></svg>