<svg xmlns="http://www.w3.org/2000/svg" xmlns:xlink="http://www.w3.org/1999/xlink" fill="none" version="1.1" width="1022" height="549" viewBox="0 0 1022 549"><defs><linearGradient x1="1" y1="0.5" x2="0" y2="0.5" id="master_svg0_8_2329"><stop offset="0%" stop-color="#FFFFFF" stop-opacity="0"/><stop offset="26.428571343421936%" stop-color="#FFFFFF" stop-opacity="1"/><stop offset="77.14285850524902%" stop-color="#FFFFFF" stop-opacity="1"/><stop offset="100%" stop-color="#FFFFFF" stop-opacity="0"/></linearGradient><linearGradient x1="1" y1="0.5" x2="0" y2="0.5" id="master_svg1_8_2329"><stop offset="0%" stop-color="#FFFFFF" stop-opacity="0"/><stop offset="26.428571343421936%" stop-color="#FFFFFF" stop-opacity="1"/><stop offset="77.14285850524902%" stop-color="#FFFFFF" stop-opacity="1"/><stop offset="100%" stop-color="#FFFFFF" stop-opacity="0"/></linearGradient><linearGradient x1="1" y1="0.5" x2="0" y2="0.5" id="master_svg2_8_2329"><stop offset="0%" stop-color="#FFFFFF" stop-opacity="0"/><stop offset="26.428571343421936%" stop-color="#FFFFFF" stop-opacity="1"/><stop offset="77.14285850524902%" stop-color="#FFFFFF" stop-opacity="1"/><stop offset="100%" stop-color="#FFFFFF" stop-opacity="0"/></linearGradient><linearGradient x1="1" y1="0.5" x2="0" y2="0.5" id="master_svg3_8_2329"><stop offset="0%" stop-color="#FFFFFF" stop-opacity="0"/><stop offset="26.428571343421936%" stop-color="#FFFFFF" stop-opacity="1"/><stop offset="77.14285850524902%" stop-color="#FFFFFF" stop-opacity="1"/><stop offset="100%" stop-color="#FFFFFF" stop-opacity="0"/></linearGradient><linearGradient x1="1" y1="0.5" x2="0" y2="0.5" id="master_svg4_8_2329"><stop offset="0%" stop-color="#FFFFFF" stop-opacity="0"/><stop offset="26.428571343421936%" stop-color="#FFFFFF" stop-opacity="1"/><stop offset="77.14285850524902%" stop-color="#FFFFFF" stop-opacity="1"/><stop offset="100%" stop-color="#FFFFFF" stop-opacity="0"/></linearGradient><linearGradient x1="1" y1="0.5" x2="0" y2="0.5" id="master_svg5_8_2329"><stop offset="0%" stop-color="#FFFFFF" stop-opacity="0"/><stop offset="26.428571343421936%" stop-color="#FFFFFF" stop-opacity="1"/><stop offset="77.14285850524902%" stop-color="#FFFFFF" stop-opacity="1"/><stop offset="100%" stop-color="#FFFFFF" stop-opacity="0"/></linearGradient></defs><g><g style="opacity:0.30000001192092896;"><rect x="12" y="104" width="621" height="60" rx="0" fill="url(#master_svg0_8_2329)" fill-opacity="1"/></g><g style="opacity:0.30000001192092896;"><rect x="0" y="181" width="666" height="60" rx="0" fill="url(#master_svg1_8_2329)" fill-opacity="1"/></g><g style="opacity:0.30000001192092896;"><rect x="72" y="258" width="708" height="60" rx="0" fill="url(#master_svg2_8_2329)" fill-opacity="1"/></g><g style="opacity:0.30000001192092896;"><rect x="114" y="335" width="746" height="60" rx="0" fill="url(#master_svg3_8_2329)" fill-opacity="1"/></g><g style="opacity:0.30000001192092896;"><rect x="174" y="412" width="776" height="60" rx="0" fill="url(#master_svg4_8_2329)" fill-opacity="1"/></g><g style="opacity:0.30000001192092896;"><rect x="212" y="489" width="810" height="60" rx="0" fill="url(#master_svg5_8_2329)" fill-opacity="1"/></g><g><rect x="174" y="104" width="234" height="60" rx="0" fill="#E93B66" fill-opacity="1"/></g><g><rect x="189" y="181" width="234" height="60" rx="0" fill="#E93B66" fill-opacity="1"/></g><g><rect x="281" y="258" width="234" height="60" rx="0" fill="#E93B66" fill-opacity="1"/></g><g><rect x="336" y="335" width="234" height="60" rx="0" fill="#E93B66" fill-opacity="1"/></g><g><rect x="399" y="412" width="234" height="60" rx="0" fill="#E93B66" fill-opacity="1"/></g><g><rect x="453" y="489" width="234" height="60" rx="0" fill="#E93B66" fill-opacity="1"/></g><g><path d="M346.7148438,139.09375L358.87890600000003,139.09375Q359.845703,139.09375,360.961914,139.436523Q362.078125,139.77929699999999,363.044922,140.543945Q364.01171899999997,141.308594,364.65332,142.539062Q365.294922,143.769531,365.294922,145.54492199999999L365.294922,147.583984Q365.294922,148.234375,365.145508,148.95507800000001Q364.99609399999997,149.675781,364.670898,150.387695Q364.345703,151.099609,363.844727,151.75Q363.34375,152.400391,362.631836,152.901367Q361.919922,153.402344,360.98828100000003,153.70117199999999Q360.056641,154,358.87890600000003,154L350.599609,154Q349.7558594,154,348.7978516,153.806641Q347.8398438,153.613281,346.9082031,153.182617Q345.9765625,152.75195300000001,345.1064453,152.092773Q344.2363281,151.433594,343.5859375,150.493164Q342.9355469,149.552734,342.5400391,148.322266Q342.1445312,147.09179699999999,342.1445312,145.54492199999999L342.1445312,137.265625Q342.1445312,135.71875,342.5400391,134.488281Q342.9355469,133.257812,343.5859375,132.317383Q344.2363281,131.37695300000001,345.1064453,130.708984Q345.9765625,130.041016,346.9082031,129.610352Q347.8398438,129.179688,348.7978516,128.98632800000001Q349.7558594,128.792969,350.599609,128.792969L362.060547,128.792969L362.060547,133.363281L350.599609,133.363281Q349.7207031,133.433594,349.0087891,133.73242199999999Q348.296875,134.03125,347.7871094,134.523438Q347.2773438,135.015625,346.9960938,135.709961Q346.7148438,136.40429699999999,346.7148438,137.265625L346.7148438,139.09375ZM346.7148438,143.699219L346.7148438,145.54492199999999Q346.7148438,146.441406,347.0224609,147.15332Q347.3300781,147.865234,347.8574219,148.375Q348.3847656,148.884766,349.0966797,149.157227Q349.8085938,149.429688,350.634766,149.429688L358.87890600000003,149.429688Q359.757812,149.429688,360.223633,148.902344Q360.689453,148.375,360.689453,147.583984L360.689453,145.54492199999999Q360.689453,144.648438,360.232422,144.17382800000001Q359.775391,143.699219,358.84375,143.699219L346.7148438,143.699219ZM372.748047,151.697266Q372.748047,152.171875,372.563477,152.584961Q372.37890600000003,152.99804699999999,372.071289,153.305664Q371.763672,153.613281,371.350586,153.789062Q370.9375,153.964844,370.48046899999997,153.964844Q370.005859,153.964844,369.592773,153.789062Q369.179688,153.613281,368.87207,153.305664Q368.564453,152.99804699999999,368.388672,152.584961Q368.212891,152.171875,368.212891,151.697266Q368.212891,151.240234,368.388672,150.827148Q368.564453,150.414062,368.87207,150.106445Q369.179688,149.79882800000001,369.592773,149.614258Q370.005859,149.429688,370.48046899999997,149.429688Q370.9375,149.429688,371.350586,149.614258Q371.763672,149.79882800000001,372.071289,150.106445Q372.37890600000003,150.414062,372.563477,150.827148Q372.748047,151.240234,372.748047,151.697266ZM405.197266,143.453125Q405.197266,145,404.801758,146.379883Q404.40625,147.759766,403.685547,148.9375Q402.96484399999997,150.115234,401.98046899999997,151.046875Q400.99609399999997,151.978516,399.827148,152.637695Q398.658203,153.296875,397.33984399999997,153.648438Q396.021484,154,394.650391,154L386.40625,154Q385.017578,154,383.69921899999997,153.648438Q382.380859,153.296875,381.211914,152.637695Q380.04296899999997,151.978516,379.05859399999997,151.046875Q378.07421899999997,150.115234,377.362305,148.9375Q376.650391,147.759766,376.254883,146.379883Q375.859375,145,375.859375,143.453125L375.859375,139.339844Q375.859375,137.019531,376.729492,135.085938Q377.599609,133.152344,379.05859399999997,131.754883Q380.517578,130.35742199999999,382.424805,129.575195Q384.33203100000003,128.792969,386.40625,128.792969L394.650391,128.792969Q396.021484,128.792969,397.33984399999997,129.144531Q398.658203,129.496094,399.827148,130.155273Q400.99609399999997,130.81445300000001,401.98046899999997,131.746094Q402.96484399999997,132.677734,403.685547,133.855469Q404.40625,135.03320300000001,404.801758,136.413086Q405.197266,137.792969,405.197266,139.339844L405.197266,143.453125ZM400.591797,139.339844Q400.591797,137.98632800000001,400.099609,136.878906Q399.607422,135.771484,398.790039,134.980469Q397.97265600000003,134.18945300000001,396.900391,133.76757800000001Q395.828125,133.34570300000001,394.650391,133.363281L386.40625,133.363281Q385.263672,133.34570300000001,384.182617,133.758789Q383.101562,134.171875,382.266602,134.954102Q381.431641,135.73632800000001,380.930664,136.852539Q380.429688,137.96875,380.429688,139.339844L380.429688,143.453125Q380.429688,144.824219,380.921875,145.931641Q381.414062,147.039062,382.240234,147.821289Q383.06640600000003,148.603516,384.147461,149.025391Q385.228516,149.447266,386.40625,149.429688L394.650391,149.429688Q396.00390600000003,149.429688,397.102539,148.981445Q398.201172,148.53320300000001,398.974609,147.742188Q399.748047,146.95117199999999,400.169922,145.852539Q400.591797,144.753906,400.591797,143.453125L400.591797,139.339844ZM398.60546899999997,136Q398.869141,136.386719,398.95703100000003,136.834961Q399.044922,137.28320300000001,398.95703100000003,137.713867Q398.869141,138.144531,398.614258,138.522461Q398.359375,138.900391,397.955078,139.164062L385.615234,147.40820300000001Q385.31640600000003,147.636719,385,147.724609Q384.68359399999997,147.8125,384.349609,147.8125Q383.787109,147.8125,383.27734399999997,147.54882800000001Q382.767578,147.285156,382.451172,146.792969Q382.1875,146.40625,382.099609,145.958008Q382.01171899999997,145.509766,382.09082,145.079102Q382.169922,144.648438,382.416016,144.270508Q382.662109,143.89257800000001,383.06640600000003,143.628906L395.44140600000003,135.384766Q395.828125,135.121094,396.276367,135.03320300000001Q396.724609,134.945312,397.155273,135.03320300000001Q397.585938,135.121094,397.963867,135.367188Q398.341797,135.613281,398.60546899999997,136Z" fill="#FFFFFF" fill-opacity="1"/></g><g><path d="M380.7148438,216.09375L392.87890600000003,216.09375Q393.845703,216.09375,394.961914,216.436523Q396.078125,216.77929699999999,397.044922,217.543945Q398.01171899999997,218.308594,398.65332,219.539062Q399.294922,220.769531,399.294922,222.54492199999999L399.294922,224.583984Q399.294922,225.234375,399.145508,225.95507800000001Q398.99609399999997,226.675781,398.670898,227.387695Q398.345703,228.099609,397.844727,228.75Q397.34375,229.400391,396.631836,229.901367Q395.919922,230.402344,394.98828100000003,230.70117199999999Q394.056641,231,392.87890600000003,231L384.599609,231Q383.7558594,231,382.7978516,230.806641Q381.8398438,230.613281,380.9082031,230.182617Q379.9765625,229.75195300000001,379.1064453,229.092773Q378.2363281,228.433594,377.5859375,227.493164Q376.9355469,226.552734,376.5400391,225.322266Q376.1445312,224.09179699999999,376.1445312,222.54492199999999L376.1445312,214.265625Q376.1445312,212.71875,376.5400391,211.488281Q376.9355469,210.257812,377.5859375,209.317383Q378.2363281,208.37695300000001,379.1064453,207.708984Q379.9765625,207.041016,380.9082031,206.610352Q381.8398438,206.179688,382.7978516,205.98632800000001Q383.7558594,205.792969,384.599609,205.792969L396.060547,205.792969L396.060547,210.363281L384.599609,210.363281Q383.7207031,210.433594,383.0087891,210.73242199999999Q382.296875,211.03125,381.7871094,211.523438Q381.2773438,212.015625,380.9960938,212.709961Q380.7148438,213.40429699999999,380.7148438,214.265625L380.7148438,216.09375ZM380.7148438,220.699219L380.7148438,222.54492199999999Q380.7148438,223.441406,381.0224609,224.15332Q381.3300781,224.865234,381.8574219,225.375Q382.3847656,225.884766,383.0966797,226.157227Q383.8085938,226.429688,384.634766,226.429688L392.87890600000003,226.429688Q393.757812,226.429688,394.223633,225.902344Q394.689453,225.375,394.689453,224.583984L394.689453,222.54492199999999Q394.689453,221.648438,394.232422,221.17382800000001Q393.775391,220.699219,392.84375,220.699219L380.7148438,220.699219ZM406.748047,228.697266Q406.748047,229.171875,406.563477,229.584961Q406.37890600000003,229.99804699999999,406.071289,230.305664Q405.763672,230.613281,405.350586,230.789062Q404.9375,230.964844,404.48046899999997,230.964844Q404.005859,230.964844,403.592773,230.789062Q403.179688,230.613281,402.87207,230.305664Q402.564453,229.99804699999999,402.388672,229.584961Q402.212891,229.171875,402.212891,228.697266Q402.212891,228.240234,402.388672,227.827148Q402.564453,227.414062,402.87207,227.106445Q403.179688,226.79882800000001,403.592773,226.614258Q404.005859,226.429688,404.48046899999997,226.429688Q404.9375,226.429688,405.350586,226.614258Q405.763672,226.79882800000001,406.071289,227.106445Q406.37890600000003,227.414062,406.563477,227.827148Q406.748047,228.240234,406.748047,228.697266ZM417.576172,231L412.98828100000003,231L412.98828100000003,210.363281L408.857422,210.363281L408.857422,205.792969L417.576172,205.792969L417.576172,231Z" fill="#FFFFFF" fill-opacity="1"/></g><g><path d="M460.7148438,293.09375L472.87890600000003,293.09375Q473.845703,293.09375,474.961914,293.436523Q476.078125,293.779297,477.044922,294.543945Q478.01171899999997,295.30859399999997,478.65332,296.539062Q479.294922,297.76953100000003,479.294922,299.544922L479.294922,301.583984Q479.294922,302.234375,479.145508,302.955078Q478.99609399999997,303.67578100000003,478.670898,304.387695Q478.345703,305.099609,477.844727,305.75Q477.34375,306.400391,476.631836,306.901367Q475.919922,307.40234399999997,474.98828100000003,307.701172Q474.056641,308,472.87890600000003,308L464.599609,308Q463.7558594,308,462.7978516,307.806641Q461.8398438,307.61328100000003,460.9082031,307.182617Q459.9765625,306.751953,459.1064453,306.092773Q458.2363281,305.43359399999997,457.5859375,304.493164Q456.9355469,303.552734,456.5400391,302.322266Q456.1445312,301.091797,456.1445312,299.544922L456.1445312,291.265625Q456.1445312,289.71875,456.5400391,288.48828100000003Q456.9355469,287.257812,457.5859375,286.317383Q458.2363281,285.376953,459.1064453,284.708984Q459.9765625,284.041016,460.9082031,283.610352Q461.8398438,283.179688,462.7978516,282.986328Q463.7558594,282.79296899999997,464.599609,282.79296899999997L476.060547,282.79296899999997L476.060547,287.36328100000003L464.599609,287.36328100000003Q463.7207031,287.43359399999997,463.0087891,287.732422Q462.296875,288.03125,461.7871094,288.523438Q461.2773438,289.015625,460.9960938,289.709961Q460.7148438,290.404297,460.7148438,291.265625L460.7148438,293.09375ZM460.7148438,297.69921899999997L460.7148438,299.544922Q460.7148438,300.44140600000003,461.0224609,301.15332Q461.3300781,301.865234,461.8574219,302.375Q462.3847656,302.884766,463.0966797,303.157227Q463.8085938,303.429688,464.634766,303.429688L472.87890600000003,303.429688Q473.757812,303.429688,474.223633,302.90234399999997Q474.689453,302.375,474.689453,301.583984L474.689453,299.544922Q474.689453,298.648438,474.232422,298.173828Q473.775391,297.69921899999997,472.84375,297.69921899999997L460.7148438,297.69921899999997ZM486.748047,305.697266Q486.748047,306.171875,486.563477,306.584961Q486.37890600000003,306.998047,486.071289,307.305664Q485.763672,307.61328100000003,485.350586,307.789062Q484.9375,307.96484399999997,484.48046899999997,307.96484399999997Q484.005859,307.96484399999997,483.592773,307.789062Q483.179688,307.61328100000003,482.87207,307.305664Q482.564453,306.998047,482.388672,306.584961Q482.212891,306.171875,482.212891,305.697266Q482.212891,305.240234,482.388672,304.827148Q482.564453,304.414062,482.87207,304.106445Q483.179688,303.798828,483.592773,303.614258Q484.005859,303.429688,484.48046899999997,303.429688Q484.9375,303.429688,485.350586,303.614258Q485.763672,303.798828,486.071289,304.106445Q486.37890600000003,304.414062,486.563477,304.827148Q486.748047,305.240234,486.748047,305.697266ZM513.572266,301.583984Q513.572266,302.234375,513.422852,302.955078Q513.2734379999999,303.67578100000003,512.948242,304.387695Q512.623047,305.099609,512.12207,305.75Q511.62109399999997,306.400391,510.90918,306.901367Q510.197266,307.40234399999997,509.265625,307.701172Q508.333984,308,507.173828,308L490.421875,308L490.421875,303.429688L507.173828,303.429688Q508.03515600000003,303.429688,508.500977,302.90234399999997Q508.966797,302.375,508.966797,301.583984L508.966797,299.544922Q508.966797,298.648438,508.509766,298.173828Q508.052734,297.69921899999997,507.138672,297.69921899999997L496.837891,297.69921899999997Q495.0625,297.69921899999997,493.84082,297.057617Q492.619141,296.416016,491.86328100000003,295.44921899999997Q491.107422,294.482422,490.764648,293.357422Q490.421875,292.232422,490.421875,291.265625L490.421875,282.79296899999997L511.48046899999997,282.79296899999997L511.48046899999997,287.36328100000003L494.992188,287.36328100000003L494.992188,291.265625Q494.992188,292.179688,495.466797,292.63671899999997Q495.94140600000003,293.09375,496.837891,293.09375L507.173828,293.09375Q508.123047,293.09375,509.248047,293.436523Q510.373047,293.779297,511.331055,294.543945Q512.2890620000001,295.30859399999997,512.930664,296.539062Q513.572266,297.76953100000003,513.572266,299.544922L513.572266,301.583984Z" fill="#FFFFFF" fill-opacity="1"/></g><g><path d="M492.7148438,370.09375L504.87890600000003,370.09375Q505.845703,370.09375,506.961914,370.436523Q508.078125,370.779297,509.044922,371.543945Q510.01171899999997,372.30859399999997,510.65332,373.539062Q511.294922,374.76953100000003,511.294922,376.544922L511.294922,378.583984Q511.294922,379.234375,511.145508,379.955078Q510.99609399999997,380.67578100000003,510.670898,381.387695Q510.345703,382.099609,509.844727,382.75Q509.34375,383.400391,508.631836,383.901367Q507.919922,384.40234399999997,506.98828100000003,384.701172Q506.056641,385,504.87890600000003,385L496.599609,385Q495.7558594,385,494.7978516,384.806641Q493.8398438,384.61328100000003,492.9082031,384.182617Q491.9765625,383.751953,491.1064453,383.092773Q490.2363281,382.43359399999997,489.5859375,381.493164Q488.9355469,380.552734,488.5400391,379.322266Q488.1445312,378.091797,488.1445312,376.544922L488.1445312,368.265625Q488.1445312,366.71875,488.5400391,365.48828100000003Q488.9355469,364.257812,489.5859375,363.317383Q490.2363281,362.376953,491.1064453,361.708984Q491.9765625,361.041016,492.9082031,360.610352Q493.8398438,360.179688,494.7978516,359.986328Q495.7558594,359.79296899999997,496.599609,359.79296899999997L508.060547,359.79296899999997L508.060547,364.36328100000003L496.599609,364.36328100000003Q495.7207031,364.43359399999997,495.0087891,364.732422Q494.296875,365.03125,493.7871094,365.523438Q493.2773438,366.015625,492.9960938,366.709961Q492.7148438,367.404297,492.7148438,368.265625L492.7148438,370.09375ZM492.7148438,374.69921899999997L492.7148438,376.544922Q492.7148438,377.44140600000003,493.0224609,378.15332Q493.3300781,378.865234,493.8574219,379.375Q494.3847656,379.884766,495.0966797,380.157227Q495.8085938,380.429688,496.634766,380.429688L504.87890600000003,380.429688Q505.757812,380.429688,506.223633,379.90234399999997Q506.689453,379.375,506.689453,378.583984L506.689453,376.544922Q506.689453,375.648438,506.232422,375.173828Q505.775391,374.69921899999997,504.84375,374.69921899999997L492.7148438,374.69921899999997ZM518.748047,382.697266Q518.748047,383.171875,518.563477,383.584961Q518.378906,383.998047,518.071289,384.305664Q517.763672,384.61328100000003,517.350586,384.789062Q516.9375,384.96484399999997,516.480469,384.96484399999997Q516.005859,384.96484399999997,515.592773,384.789062Q515.1796879999999,384.61328100000003,514.87207,384.305664Q514.564453,383.998047,514.388672,383.584961Q514.212891,383.171875,514.212891,382.697266Q514.212891,382.240234,514.388672,381.827148Q514.564453,381.414062,514.87207,381.106445Q515.1796879999999,380.798828,515.592773,380.614258Q516.005859,380.429688,516.480469,380.429688Q516.9375,380.429688,517.350586,380.614258Q517.763672,380.798828,518.071289,381.106445Q518.378906,381.414062,518.563477,381.827148Q518.748047,382.240234,518.748047,382.697266ZM541.7578120000001,360.953125Q542.056641,361.498047,542.056641,362.104492Q542.056641,362.710938,541.7578120000001,363.255859L529.083984,385L523.792969,385L535.78125,364.36328100000003L520.980469,364.36328100000003L520.980469,359.79296899999997L539.771484,359.79296899999997Q540.386719,359.79296899999997,540.922852,360.100586Q541.458984,360.408203,541.7578120000001,360.953125ZM568.283203,378.583984Q568.283203,379.234375,568.133789,379.955078Q567.984375,380.67578100000003,567.65918,381.387695Q567.333984,382.099609,566.8330080000001,382.75Q566.332031,383.400391,565.6201169999999,383.901367Q564.908203,384.40234399999997,563.9765620000001,384.701172Q563.044922,385,561.884766,385L545.1328120000001,385L545.1328120000001,380.429688L561.884766,380.429688Q562.746094,380.429688,563.211914,379.90234399999997Q563.677734,379.375,563.677734,378.583984L563.677734,376.544922Q563.677734,375.648438,563.220703,375.173828Q562.763672,374.69921899999997,561.849609,374.69921899999997L551.548828,374.69921899999997Q549.7734379999999,374.69921899999997,548.551758,374.057617Q547.330078,373.416016,546.574219,372.44921899999997Q545.818359,371.482422,545.475586,370.357422Q545.1328120000001,369.232422,545.1328120000001,368.265625L545.1328120000001,359.79296899999997L566.191406,359.79296899999997L566.191406,364.36328100000003L549.703125,364.36328100000003L549.703125,368.265625Q549.703125,369.179688,550.177734,369.63671899999997Q550.652344,370.09375,551.548828,370.09375L561.884766,370.09375Q562.833984,370.09375,563.958984,370.436523Q565.083984,370.779297,566.0419919999999,371.543945Q567,372.30859399999997,567.641602,373.539062Q568.283203,374.76953100000003,568.283203,376.544922L568.283203,378.583984Z" fill="#FFFFFF" fill-opacity="1"/></g><g><path d="M576.7148438,447.09375L588.878906,447.09375Q589.845703,447.09375,590.961914,447.436523Q592.078125,447.779297,593.044922,448.543945Q594.011719,449.30859399999997,594.65332,450.539062Q595.294922,451.76953100000003,595.294922,453.544922L595.294922,455.583984Q595.294922,456.234375,595.145508,456.955078Q594.996094,457.67578100000003,594.670898,458.387695Q594.345703,459.099609,593.844727,459.75Q593.34375,460.400391,592.631836,460.901367Q591.919922,461.40234399999997,590.988281,461.701172Q590.056641,462,588.878906,462L580.599609,462Q579.7558594,462,578.7978516,461.806641Q577.8398438,461.61328100000003,576.9082031,461.182617Q575.9765625,460.751953,575.1064453,460.092773Q574.2363281,459.43359399999997,573.5859375,458.493164Q572.9355469,457.552734,572.5400391,456.322266Q572.1445312,455.091797,572.1445312,453.544922L572.1445312,445.265625Q572.1445312,443.71875,572.5400391,442.48828100000003Q572.9355469,441.257812,573.5859375,440.317383Q574.2363281,439.376953,575.1064453,438.708984Q575.9765625,438.041016,576.9082031,437.610352Q577.8398438,437.179688,578.7978516,436.986328Q579.7558594,436.79296899999997,580.599609,436.79296899999997L592.060547,436.79296899999997L592.060547,441.36328100000003L580.599609,441.36328100000003Q579.7207031,441.43359399999997,579.0087891,441.732422Q578.296875,442.03125,577.7871094,442.523438Q577.2773438,443.015625,576.9960938,443.709961Q576.7148438,444.404297,576.7148438,445.265625L576.7148438,447.09375ZM576.7148438,451.69921899999997L576.7148438,453.544922Q576.7148438,454.44140600000003,577.0224609,455.15332Q577.3300781,455.865234,577.8574219,456.375Q578.3847656,456.884766,579.0966797,457.157227Q579.8085938,457.429688,580.634766,457.429688L588.878906,457.429688Q589.7578120000001,457.429688,590.223633,456.90234399999997Q590.689453,456.375,590.689453,455.583984L590.689453,453.544922Q590.689453,452.648438,590.232422,452.173828Q589.775391,451.69921899999997,588.84375,451.69921899999997L576.7148438,451.69921899999997ZM602.748047,459.697266Q602.748047,460.171875,602.563477,460.584961Q602.378906,460.998047,602.071289,461.305664Q601.763672,461.61328100000003,601.350586,461.789062Q600.9375,461.96484399999997,600.480469,461.96484399999997Q600.005859,461.96484399999997,599.592773,461.789062Q599.1796879999999,461.61328100000003,598.87207,461.305664Q598.564453,460.998047,598.388672,460.584961Q598.212891,460.171875,598.212891,459.697266Q598.212891,459.240234,598.388672,458.827148Q598.564453,458.414062,598.87207,458.106445Q599.1796879999999,457.798828,599.592773,457.614258Q600.005859,457.429688,600.480469,457.429688Q600.9375,457.429688,601.350586,457.614258Q601.763672,457.798828,602.071289,458.106445Q602.378906,458.414062,602.563477,458.827148Q602.748047,459.240234,602.748047,459.697266ZM605.296875,445.265625L605.296875,443.208984Q605.296875,442.576172,605.446289,441.84668Q605.595703,441.117188,605.912109,440.405273Q606.228516,439.693359,606.738281,439.04296899999997Q607.248047,438.392578,607.959961,437.891602Q608.671875,437.390625,609.603516,437.091797Q610.535156,436.79296899999997,611.712891,436.79296899999997L619.957031,436.79296899999997Q620.800781,436.79296899999997,621.767578,436.986328Q622.734375,437.179688,623.674805,437.610352Q624.615234,438.041016,625.4765620000001,438.708984Q626.337891,439.376953,626.99707,440.317383Q627.65625,441.257812,628.051758,442.48828100000003Q628.447266,443.71875,628.447266,445.265625L628.447266,453.544922Q628.447266,455.091797,628.051758,456.322266Q627.65625,457.552734,626.99707,458.493164Q626.337891,459.43359399999997,625.4765620000001,460.092773Q624.615234,460.751953,623.674805,461.182617Q622.734375,461.61328100000003,621.767578,461.806641Q620.800781,462,619.957031,462L608.548828,462L608.548828,457.429688L619.957031,457.429688Q620.818359,457.359375,621.530273,457.078125Q622.2421879999999,456.796875,622.760742,456.313477Q623.279297,455.830078,623.560547,455.135742Q623.841797,454.44140600000003,623.841797,453.544922L623.841797,451.69921899999997L611.712891,451.69921899999997Q611.0625,451.69921899999997,610.341797,451.549805Q609.621094,451.400391,608.90918,451.075195Q608.197266,450.75,607.546875,450.249023Q606.896484,449.748047,606.395508,449.02734399999997Q605.894531,448.306641,605.595703,447.375Q605.296875,446.443359,605.296875,445.265625ZM623.841797,445.265625Q623.841797,444.369141,623.542969,443.648438Q623.244141,442.927734,622.725586,442.41796899999997Q622.207031,441.908203,621.495117,441.635742Q620.783203,441.36328100000003,619.957031,441.36328100000003L611.712891,441.36328100000003Q610.869141,441.36328100000003,610.368164,441.890625Q609.8671879999999,442.41796899999997,609.8671879999999,443.208984L609.8671879999999,445.265625Q609.8671879999999,446.162109,610.341797,446.62793Q610.816406,447.09375,611.748047,447.09375L623.841797,447.09375L623.841797,445.265625Z" fill="#FFFFFF" fill-opacity="1"/></g><g><path d="M666.955078,514.953125Q667.253906,515.498047,667.253906,516.104492Q667.253906,516.710938,666.955078,517.255859L654.28125,539L648.9902344,539L660.978516,518.363281L646.1777344,518.363281L646.1777344,513.792969L664.96875,513.792969Q665.583984,513.792969,666.120117,514.100586Q666.65625,514.408203,666.955078,514.953125ZM672.5625,536.697266Q672.5625,537.171875,672.37793,537.584961Q672.193359,537.998047,671.885742,538.305664Q671.578125,538.613281,671.165039,538.7890620000001Q670.751953,538.964844,670.294922,538.964844Q669.8203120000001,538.964844,669.407227,538.7890620000001Q668.994141,538.613281,668.686523,538.305664Q668.378906,537.998047,668.203125,537.584961Q668.027344,537.171875,668.027344,536.697266Q668.027344,536.240234,668.203125,535.827148Q668.378906,535.4140620000001,668.686523,535.106445Q668.994141,534.798828,669.407227,534.614258Q669.8203120000001,534.4296879999999,670.294922,534.4296879999999Q670.751953,534.4296879999999,671.165039,534.614258Q671.578125,534.798828,671.885742,535.106445Q672.193359,535.4140620000001,672.37793,535.827148Q672.5625,536.240234,672.5625,536.697266ZM683.390625,539L678.802734,539L678.802734,518.363281L674.671875,518.363281L674.671875,513.792969L683.390625,513.792969L683.390625,539Z" fill="#FFFFFF" fill-opacity="1"/></g><g><path d="M295.40625,147.203125Q295.40625,148.375,295.095703,149.412109Q294.78515600000003,150.449219,294.216797,151.292969Q293.648438,152.136719,292.845703,152.769531Q292.04296899999997,153.402344,291.05859399999997,153.765625L294.62109399999997,156.589844L290.203125,156.589844L287.273438,154.234375L284.2734375,154.234375Q282.7617188,154.234375,281.4726562,153.712891Q280.1835938,153.191406,279.2460938,152.253906Q278.3085938,151.316406,277.7753906,150.027344Q277.2421875,148.738281,277.2421875,147.203125L277.2421875,143.992188Q277.2421875,142.46875,277.7753906,141.17382800000001Q278.3085938,139.8789062,279.2460938,138.9472656Q280.1835938,138.015625,281.4726562,137.4882812Q282.7617188,136.9609375,284.2734375,136.9609375L288.398438,136.9609375Q289.91015600000003,136.9609375,291.193359,137.4882812Q292.476562,138.015625,293.414062,138.9472656Q294.351562,139.8789062,294.87890600000003,141.17382800000001Q295.40625,142.46875,295.40625,143.992188L295.40625,147.203125ZM292.359375,143.992188Q292.359375,143.089844,292.072266,142.35742199999999Q291.78515600000003,141.625,291.263672,141.103516Q290.742188,140.582031,290.009766,140.29492199999999Q289.27734399999997,140.007812,288.398438,140.007812L284.2734375,140.007812Q283.3828125,140.007812,282.6503906,140.29492199999999Q281.9179688,140.582031,281.390625,141.103516Q280.8632812,141.625,280.5761719,142.35742199999999Q280.2890625,143.089844,280.2890625,143.992188L280.2890625,147.203125Q280.2890625,148.105469,280.5761719,148.837891Q280.8632812,149.570312,281.390625,150.09179699999999Q281.9179688,150.613281,282.6503906,150.900391Q283.3828125,151.1875,284.2734375,151.1875L288.375,151.1875Q289.265625,151.1875,289.998047,150.900391Q290.73046899999997,150.613281,291.257812,150.09179699999999Q291.78515600000003,149.570312,292.072266,148.837891Q292.359375,148.105469,292.359375,147.203125L292.359375,143.992188ZM314.882812,152.464844Q314.882812,152.792969,314.765625,153.074219Q314.648438,153.355469,314.4375,153.56054699999999Q314.226562,153.765625,313.945312,153.882812Q313.664062,154,313.34765600000003,154L306.48046899999997,154Q305.507812,154,304.51171899999997,153.789062Q303.515625,153.578125,302.583984,153.13867199999999Q301.65234399999997,152.699219,300.83203100000003,152.019531Q300.01171899999997,151.339844,299.396484,150.40820300000001Q298.78125,149.476562,298.429688,148.275391Q298.078125,147.074219,298.078125,145.597656L298.078125,137.1953125L301.125,137.1953125L301.125,145.597656Q301.125,146.886719,301.482422,147.777344Q301.83984399999997,148.667969,302.390625,149.265625Q302.94140600000003,149.863281,303.59765600000003,150.203125Q304.25390600000003,150.542969,304.845703,150.707031Q305.4375,150.871094,305.888672,150.912109Q306.33984399999997,150.953125,306.48046899999997,150.953125L311.835938,150.953125L311.835938,137.1953125L314.882812,137.1953125L314.882812,152.464844ZM334.91015600000003,154L331.86328100000003,154L331.86328100000003,149.875L321.15234399999997,149.875L321.15234399999997,154L318.10546899999997,154L318.10546899999997,145.597656Q318.10546899999997,143.757812,318.73828100000003,142.210938Q319.37109399999997,140.664062,320.49609399999997,139.5507812Q321.62109399999997,138.4375,323.15625,137.8164062Q324.69140600000003,137.1953125,326.507812,137.1953125L333.375,137.1953125Q333.69140600000003,137.1953125,333.97265600000003,137.3125Q334.25390600000003,137.4296875,334.46484399999997,137.640625Q334.67578100000003,137.8515625,334.79296899999997,138.1328125Q334.91015600000003,138.4140625,334.91015600000003,138.7304688L334.91015600000003,154ZM321.15234399999997,146.828125L331.86328100000003,146.828125L331.86328100000003,140.242188L326.507812,140.242188Q326.367188,140.242188,325.916016,140.28320300000001Q325.46484399999997,140.324219,324.873047,140.488281Q324.28125,140.652344,323.625,140.992188Q322.96875,141.332031,322.41796899999997,141.929688Q321.867188,142.527344,321.509766,143.42382800000001Q321.15234399999997,144.320312,321.15234399999997,145.597656L321.15234399999997,146.828125Z" fill="#FFFFFF" fill-opacity="1"/></g><g><path d="M321.5625,219.84375Q321.5625,220.886719,321.304688,221.707031Q321.046875,222.527344,320.607422,223.15429699999999Q320.16796899999997,223.78125,319.59375,224.226562Q319.01953100000003,224.671875,318.392578,224.958984Q317.765625,225.246094,317.126953,225.375Q316.48828100000003,225.503906,315.92578100000003,225.503906L322.289062,231L317.578125,231L311.2265625,225.503906L309.0351562,225.503906L309.0351562,222.457031L315.92578100000003,222.457031Q316.5,222.410156,316.974609,222.21679699999999Q317.44921899999997,222.023438,317.794922,221.695312Q318.140625,221.367188,318.328125,220.90429699999999Q318.515625,220.441406,318.515625,219.84375L318.515625,217.921875Q318.515625,217.664062,318.451172,217.52929699999999Q318.38671899999997,217.394531,318.287109,217.33007800000001Q318.1875,217.265625,318.076172,217.253906Q317.96484399999997,217.242188,317.87109399999997,217.242188L307.8164062,217.242188L307.8164062,231L304.7695312,231L304.7695312,215.7304688Q304.7695312,215.4140625,304.8867188,215.1328125Q305.0039062,214.8515625,305.2089844,214.640625Q305.4140625,214.4296875,305.6953125,214.3125Q305.9765625,214.1953125,306.3046875,214.1953125L317.87109399999997,214.1953125Q318.890625,214.1953125,319.59375,214.5644531Q320.296875,214.9335938,320.736328,215.4902344Q321.17578100000003,216.046875,321.369141,216.6914062Q321.5625,217.335938,321.5625,217.898438L321.5625,219.84375ZM342.257812,224.203125Q342.257812,225.738281,341.73046899999997,227.027344Q341.203125,228.316406,340.265625,229.253906Q339.328125,230.191406,338.044922,230.712891Q336.76171899999997,231.234375,335.25,231.234375L331.125,231.234375Q329.61328100000003,231.234375,328.32421899999997,230.712891Q327.03515600000003,230.191406,326.09765600000003,229.253906Q325.16015600000003,228.316406,324.626953,227.027344Q324.09375,225.738281,324.09375,224.203125L324.09375,220.992188Q324.09375,219.46875,324.626953,218.17382800000001Q325.16015600000003,216.8789062,326.09765600000003,215.9472656Q327.03515600000003,215.015625,328.32421899999997,214.4882812Q329.61328100000003,213.9609375,331.125,213.9609375L335.25,213.9609375Q336.76171899999997,213.9609375,338.044922,214.4882812Q339.328125,215.015625,340.265625,215.9472656Q341.203125,216.8789062,341.73046899999997,218.17382800000001Q342.257812,219.46875,342.257812,220.992188L342.257812,224.203125ZM339.210938,220.992188Q339.210938,220.089844,338.923828,219.35742199999999Q338.63671899999997,218.625,338.115234,218.103516Q337.59375,217.582031,336.861328,217.29492199999999Q336.12890600000003,217.007812,335.25,217.007812L331.125,217.007812Q330.234375,217.007812,329.501953,217.29492199999999Q328.76953100000003,217.582031,328.242188,218.103516Q327.71484399999997,218.625,327.427734,219.35742199999999Q327.140625,220.089844,327.140625,220.992188L327.140625,224.203125Q327.140625,225.105469,327.427734,225.837891Q327.71484399999997,226.570312,328.242188,227.09179699999999Q328.76953100000003,227.613281,329.501953,227.900391Q330.234375,228.1875,331.125,228.1875L335.226562,228.1875Q336.117188,228.1875,336.849609,227.900391Q337.58203100000003,227.613281,338.109375,227.09179699999999Q338.63671899999997,226.570312,338.923828,225.837891Q339.210938,225.105469,339.210938,224.203125L339.210938,220.992188ZM349.96875,231L346.91015600000003,231L346.91015600000003,217.242188L344.15625,217.242188L344.15625,214.1953125L349.96875,214.1953125L349.96875,231ZM356.30859399999997,221.0625L364.41796899999997,221.0625Q365.0625,221.0625,365.806641,221.291016Q366.55078100000003,221.519531,367.195312,222.02929699999999Q367.83984399999997,222.539062,368.267578,223.359375Q368.695312,224.179688,368.695312,225.363281L368.695312,226.722656Q368.695312,227.15625,368.595703,227.636719Q368.49609399999997,228.117188,368.279297,228.59179699999999Q368.0625,229.066406,367.728516,229.5Q367.39453100000003,229.933594,366.919922,230.26757800000001Q366.445312,230.601562,365.82421899999997,230.800781Q365.203125,231,364.41796899999997,231L358.898438,231Q358.335938,231,357.697266,230.871094Q357.05859399999997,230.742188,356.4375,230.45507800000001Q355.81640600000003,230.167969,355.236328,229.728516Q354.65625,229.289062,354.22265600000003,228.662109Q353.789062,228.035156,353.525391,227.214844Q353.26171899999997,226.394531,353.26171899999997,225.363281L353.26171899999997,219.84375Q353.26171899999997,218.8125,353.525391,217.992188Q353.789062,217.171875,354.22265600000003,216.5449219Q354.65625,215.9179688,355.236328,215.4726562Q355.81640600000003,215.0273438,356.4375,214.7402344Q357.05859399999997,214.453125,357.697266,214.3242188Q358.335938,214.1953125,358.898438,214.1953125L366.539062,214.1953125L366.539062,217.242188L358.898438,217.242188Q358.3125,217.289062,357.837891,217.488281Q357.36328100000003,217.6875,357.023438,218.015625Q356.68359399999997,218.34375,356.49609399999997,218.806641Q356.30859399999997,219.269531,356.30859399999997,219.84375L356.30859399999997,221.0625ZM356.30859399999997,224.132812L356.30859399999997,225.363281Q356.30859399999997,225.960938,356.513672,226.43554699999999Q356.71875,226.910156,357.070312,227.25Q357.421875,227.589844,357.896484,227.771484Q358.37109399999997,227.953125,358.921875,227.953125L364.41796899999997,227.953125Q365.00390600000003,227.953125,365.314453,227.601562Q365.625,227.25,365.625,226.722656L365.625,225.363281Q365.625,224.765625,365.320312,224.449219Q365.015625,224.132812,364.39453100000003,224.132812L356.30859399999997,224.132812Z" fill="#FFFFFF" fill-opacity="1"/></g><g><path d="M427.40625,301.203125Q427.40625,302.375,427.095703,303.412109Q426.78515600000003,304.44921899999997,426.216797,305.29296899999997Q425.648438,306.13671899999997,424.845703,306.76953100000003Q424.04296899999997,307.40234399999997,423.05859399999997,307.765625L426.62109399999997,310.58984399999997L422.203125,310.58984399999997L419.273438,308.234375L416.2734375,308.234375Q414.7617188,308.234375,413.4726562,307.712891Q412.1835938,307.19140600000003,411.2460938,306.25390600000003Q410.3085938,305.31640600000003,409.7753906,304.02734399999997Q409.2421875,302.73828100000003,409.2421875,301.203125L409.2421875,297.992188Q409.2421875,296.46875,409.7753906,295.173828Q410.3085938,293.8789062,411.2460938,292.9472656Q412.1835938,292.015625,413.4726562,291.4882812Q414.7617188,290.9609375,416.2734375,290.9609375L420.398438,290.9609375Q421.91015600000003,290.9609375,423.193359,291.4882812Q424.476562,292.015625,425.414062,292.9472656Q426.351562,293.8789062,426.87890600000003,295.173828Q427.40625,296.46875,427.40625,297.992188L427.40625,301.203125ZM424.359375,297.992188Q424.359375,297.08984399999997,424.072266,296.357422Q423.78515600000003,295.625,423.263672,295.103516Q422.742188,294.58203100000003,422.009766,294.294922Q421.27734399999997,294.007812,420.398438,294.007812L416.2734375,294.007812Q415.3828125,294.007812,414.6503906,294.294922Q413.9179688,294.58203100000003,413.390625,295.103516Q412.8632812,295.625,412.5761719,296.357422Q412.2890625,297.08984399999997,412.2890625,297.992188L412.2890625,301.203125Q412.2890625,302.10546899999997,412.5761719,302.837891Q412.8632812,303.570312,413.390625,304.091797Q413.9179688,304.61328100000003,414.6503906,304.900391Q415.3828125,305.1875,416.2734375,305.1875L420.375,305.1875Q421.265625,305.1875,421.998047,304.900391Q422.73046899999997,304.61328100000003,423.257812,304.091797Q423.78515600000003,303.570312,424.072266,302.837891Q424.359375,302.10546899999997,424.359375,301.203125L424.359375,297.992188ZM444.31640600000003,301.132812L434.68359399999997,301.132812L434.68359399999997,298.0625L444.31640600000003,298.0625L444.31640600000003,301.132812ZM445.67578100000003,294.242188L433.46484399999997,294.242188L433.46484399999997,308L430.41796899999997,308L430.41796899999997,292.7304688Q430.41796899999997,292.4140625,430.53515600000003,292.1328125Q430.65234399999997,291.8515625,430.857422,291.640625Q431.0625,291.4296875,431.34375,291.3125Q431.625,291.1953125,431.953125,291.1953125L445.67578100000003,291.1953125L445.67578100000003,294.242188Z" fill="#FFFFFF" fill-opacity="1"/></g><g><path d="M462.91796899999997,380.054688Q462.91796899999997,380.95703100000003,462.689453,381.677734Q462.460938,382.398438,462.085938,382.94921899999997Q461.710938,383.5,461.20703100000003,383.88671899999997Q460.703125,384.273438,460.164062,384.51953100000003Q459.625,384.765625,459.068359,384.882812Q458.51171899999997,385,458.01953100000003,385L446.265625,385L446.265625,381.953125L458.01953100000003,381.953125Q458.898438,381.953125,459.384766,381.4375Q459.87109399999997,380.921875,459.87109399999997,380.054688Q459.87109399999997,379.632812,459.742188,379.28125Q459.61328100000003,378.929688,459.373047,378.671875Q459.132812,378.414062,458.787109,378.273438Q458.44140600000003,378.132812,458.01953100000003,378.132812L451.0117188,378.132812Q450.2734375,378.132812,449.4179688,377.869141Q448.5625,377.60546899999997,447.8300781,377.01953100000003Q447.0976562,376.43359399999997,446.6113281,375.484375Q446.125,374.53515600000003,446.125,373.164062Q446.125,371.79296899999997,446.6113281,370.8496094Q447.0976562,369.90625,447.8300781,369.3144531Q448.5625,368.7226562,449.4179688,368.4589844Q450.2734375,368.1953125,451.0117188,368.1953125L461.382812,368.1953125L461.382812,371.242188L451.0117188,371.242188Q450.1445312,371.242188,449.6582031,371.76953100000003Q449.171875,372.296875,449.171875,373.164062Q449.171875,374.04296899999997,449.6582031,374.552734Q450.1445312,375.0625,451.0117188,375.0625L458.01953100000003,375.0625L458.04296899999997,375.0625Q458.53515600000003,375.07421899999997,459.085938,375.197266Q459.63671899999997,375.320312,460.181641,375.578125Q460.726562,375.835938,461.21875,376.228516Q461.710938,376.62109399999997,462.091797,377.171875Q462.47265600000003,377.72265600000003,462.695312,378.4375Q462.91796899999997,379.15234399999997,462.91796899999997,380.054688ZM479.34765600000003,378.132812L469.71484399999997,378.132812L469.71484399999997,375.0625L479.34765600000003,375.0625L479.34765600000003,378.132812ZM480.70703100000003,371.242188L468.49609399999997,371.242188L468.49609399999997,385L465.44921899999997,385L465.44921899999997,369.7304688Q465.44921899999997,369.4140625,465.56640600000003,369.1328125Q465.68359399999997,368.8515625,465.888672,368.640625Q466.09375,368.4296875,466.375,368.3125Q466.65625,368.1953125,466.984375,368.1953125L480.70703100000003,368.1953125L480.70703100000003,371.242188Z" fill="#FFFFFF" fill-opacity="1"/></g><g><path d="M559.667969,455.132812L550.0351562,455.132812L550.0351562,452.0625L559.667969,452.0625L559.667969,455.132812ZM561.027344,448.242188L548.8164062,448.242188L548.8164062,462L545.7695312,462L545.7695312,446.7304688Q545.7695312,446.4140625,545.8867188,446.1328125Q546.0039062,445.8515625,546.2089844,445.640625Q546.4140625,445.4296875,546.6953125,445.3125Q546.9765625,445.1953125,547.3046875,445.1953125L561.027344,445.1953125L561.027344,448.242188Z" fill="#FFFFFF" fill-opacity="1"/></g><g><path d="M619.3515620000001,537.464844Q619.3515620000001,537.792969,619.234375,538.074219Q619.1171879999999,538.355469,618.912109,538.560547Q618.707031,538.765625,618.425781,538.8828120000001Q618.144531,539,617.816406,539L606.8242188,539Q606.4023438,539,605.9160156,538.900391Q605.4296875,538.800781,604.9550781,538.589844Q604.4804688,538.378906,604.046875,538.044922Q603.6132812,537.7109379999999,603.2792969,537.236328Q602.9453125,536.761719,602.7460938,536.134766Q602.546875,535.5078120000001,602.546875,534.722656L602.546875,526.472656Q602.546875,526.050781,602.6464844,525.564453Q602.7460938,525.078125,602.9570312,524.6035156Q603.1679688,524.1289062,603.5078125,523.6953125Q603.8476562,523.2617188,604.3222656,522.9277344Q604.796875,522.59375,605.4179688,522.3945312Q606.0390625,522.1953125,606.8242188,522.1953125L619.2109379999999,522.1953125L619.2109379999999,525.242188L606.8242188,525.242188Q606.2265625,525.242188,605.9101562,525.558594Q605.59375,525.875,605.59375,526.496094L605.59375,534.722656Q605.59375,535.308594,605.9160156,535.630859Q606.2382812,535.953125,606.8242188,535.953125L616.304688,535.953125L616.304688,532.1328120000001L608.1953125,532.1328120000001L608.1953125,529.0625L617.816406,529.0625Q618.144531,529.0625,618.425781,529.185547Q618.707031,529.308594,618.912109,529.519531Q619.1171879999999,529.730469,619.234375,530.005859Q619.3515620000001,530.28125,619.3515620000001,530.597656L619.3515620000001,537.464844ZM636.425781,532.1328120000001L626.792969,532.1328120000001L626.792969,529.0625L636.425781,529.0625L636.425781,532.1328120000001ZM637.785156,525.242188L625.574219,525.242188L625.574219,539L622.527344,539L622.527344,523.7304688Q622.527344,523.4140625,622.644531,523.1328125Q622.761719,522.8515625,622.966797,522.640625Q623.171875,522.4296875,623.453125,522.3125Q623.734375,522.1953125,624.0625,522.1953125L637.785156,522.1953125L637.785156,525.242188Z" fill="#FFFFFF" fill-opacity="1"/></g><g><path d="M21.023998,41.168003L50.039997,41.168003L50.039997,43.544003L21.023998,43.544003L21.023998,41.168003ZM21.023998,31.592003L50.039997,31.592003L50.039997,33.896004L21.023998,33.896004L21.023998,31.592003ZM10.728,23.744003L10.728,51.392002L13.391999,51.392002C10.799999,56.576,6.5519996,61.688004,2.0879998,65C4.5359998,66.440002,8.7839994,69.608002,10.799999,71.480003L13.176,69.176003L13.176,75.800003L30.959999,75.800003L30.959999,79.040001L4.0319996,79.040001L4.0319996,87.968002L68.255997,87.968002L68.255997,79.040001L41.831997,79.040001L41.831997,75.800003L60.191998,75.800003L60.191998,67.807999L41.831997,67.807999L41.831997,64.711998L63.575996,64.711998L63.575996,56.144001L41.831997,56.144001L41.831997,52.543999L30.959999,52.543999L30.959999,56.144001L22.679998,56.144001L24.191999,53.192001L17.927999,51.392002L60.911999,51.392002L60.911999,23.744003L10.728,23.744003ZM30.959999,67.807999L14.471999,67.807999L17.063999,64.711998L30.959999,64.711998L30.959999,67.807999ZM97.416,66.727997C96.335999,68.599998,94.968002,70.255997,93.528,71.839996L88.919998,69.536003L90.431999,66.727997L97.416,66.727997ZM76.536003,72.632004C79.631996,73.928001,83.015999,75.584,86.328003,77.311996C82.512001,79.472,78.120003,81.056,73.295998,82.064003C74.952003,83.935997,76.968002,87.608002,77.903999,89.912003C84.239998,88.183998,89.928001,85.664001,94.68,82.208C96.552002,83.431999,98.279999,84.655998,99.720001,85.736L105.768,79.040001L101.23199,76.160004C104.832,71.839996,107.56799,66.584,109.368,60.104L103.68,58.088001L102.168,58.375999L94.535995,58.375999L95.472,56.144001L86.328003,54.416L84.671997,58.375999L75.959999,58.375999L75.959999,66.727997L80.351997,66.727997C79.056,68.888,77.760002,70.903999,76.536003,72.632004ZM76.031998,25.400002C77.543999,27.992001,78.984001,31.376003,79.559998,33.824001L74.807999,33.824001L74.807999,41.960003L83.807999,41.960003C80.568001,44.768002,76.608002,47.288002,72.935997,48.728001C74.807999,50.600002,77.040001,54.056,78.192001,56.288002C81.360001,54.487999,84.816002,51.968002,87.839996,49.16L87.839996,54.416L97.416,54.416L97.416,47.864002C99.575996,49.736,101.736,51.608002,103.104,52.976002L108.576,45.848003C107.496,45.128002,104.688,43.472,101.88,41.960003L110.52,41.960003L110.52,33.824001L103.968,33.824001C105.768,31.736004,108,28.568001,110.52,25.400002L101.736,22.016003C100.728,24.608002,98.928001,28.280003,97.416,30.800003L97.416,21.368004L87.839996,21.368004L87.839996,33.824001L81.360001,33.824001L87.624001,31.088001C87.047997,28.568001,85.248001,24.968002,83.447998,22.304001L76.031998,25.400002ZM103.968,33.824001L97.416,33.824001L97.416,30.944004L103.968,33.824001ZM115.416,21.368004C113.904,34.472004,110.736,46.928001,104.832,54.416C106.92,55.856003,110.736,59.312,112.248,61.040001C113.328,59.528,114.408,57.872002,115.34399,56.071999C116.64,60.68,118.08,65.071999,119.88,69.031998C116.28,74.576004,111.168,78.751999,104.184,81.776001C105.912,83.720001,108.64799,88.112,109.51199,90.272003C115.992,87.103996,121.032,83.071999,124.992,78.104004C128.088,82.568001,131.832,86.239998,136.368,89.192001C137.88,86.599998,140.90399,82.856003,143.13599,80.984001C138.02399,78.104004,133.92,74,130.67999,68.888C133.84799,61.976002,135.864,53.695999,137.088,43.976002L141.48,43.976002L141.48,34.328003L122.904,34.328003C123.696,30.584003,124.34399,26.696003,124.92,22.736004L115.416,21.368004ZM127.51199,43.976002C127.008,48.800003,126.216,53.192001,125.064,57.152C123.62399,52.976002,122.472,48.584,121.608,43.976002L127.51199,43.976002Z" fill="#FFFFFF" fill-opacity="1"/></g></g></svg>