<svg xmlns="http://www.w3.org/2000/svg" xmlns:xlink="http://www.w3.org/1999/xlink" fill="none" version="1.1" width="1055" height="175" viewBox="0 0 1055 175"><defs><linearGradient x1="1" y1="0.5" x2="0" y2="0.5" id="master_svg0_8_0576"><stop offset="0%" stop-color="#FFFFFF" stop-opacity="1"/><stop offset="100%" stop-color="#FFFFFF" stop-opacity="0"/></linearGradient><linearGradient x1="1" y1="0.5" x2="0" y2="0.5" id="master_svg1_8_0244"><stop offset="0%" stop-color="#797979" stop-opacity="1"/><stop offset="100%" stop-color="#797979" stop-opacity="0"/></linearGradient></defs><g><g><g><line x1="276" y1="91.5" x2="845.0000610351562" y2="91.5" fill-opacity="0" stroke-opacity="1" stroke="#FFFFFF" fill="none" stroke-width="1"/></g><g transform="matrix(-0.7071067690849304,-0.7071067690849304,0.7071067690849304,-0.7071067690849304,1401.1585038900375,808.3788472414017)"><line x1="868" y1="113.5" x2="900.5269165039062" y2="113.5" fill-opacity="0" stroke-opacity="1" stroke="#FFFFFF" fill="none" stroke-width="1"/></g></g><g><rect x="187" y="114" width="681" height="60" rx="0" fill="#E93B66" fill-opacity="1"/></g><g><path d="M736.93115,152.7000046L752,144L736.93115,135.2999954L736.93115,142.5L242,142.5L242,145.5L736.93115,145.5L736.93115,152.7000046Z" fill-rule="evenodd" fill="url(#master_svg0_8_0576)" fill-opacity="1"/></g><g><rect x="0" y="114" width="187" height="60" rx="0" fill="url(#master_svg1_8_0244)" fill-opacity="1"/></g><g><path d="M118.675781,167L103.2421875,167L103.2421875,161.363281Q103.2421875,160.929688,103.3417969,160.443359Q103.4414062,159.957031,103.6523438,159.476562Q103.8632812,158.996094,104.1972656,158.5625Q104.53125,158.128906,105.0058594,157.79492199999999Q105.4804688,157.460938,106.1015625,157.261719Q106.7226562,157.0625,107.5078125,157.0625L114.375,157.0625Q114.996094,157.0625,115.294922,156.75195300000001Q115.59375,156.441406,115.59375,155.84375L115.59375,154.496094Q115.59375,153.875,115.289062,153.558594Q114.984375,153.242188,114.398438,153.242188L104.6132812,153.242188L104.6132812,150.1953125L114.398438,150.1953125Q115.171875,150.1953125,115.792969,150.3945312Q116.414062,150.59375,116.888672,150.9277344Q117.363281,151.2617188,117.703125,151.6953125Q118.042969,152.1289062,118.259766,152.6035156Q118.476562,153.078125,118.576172,153.56445300000001Q118.675781,154.050781,118.675781,154.472656L118.675781,155.84375Q118.675781,157.027344,118.248047,157.84179699999999Q117.820312,158.65625,117.175781,159.166016Q116.53125,159.675781,115.787109,159.90429699999999Q115.042969,160.132812,114.398438,160.132812L107.5078125,160.132812Q107.1328125,160.132812,106.9101562,160.238281Q106.6875,160.34375,106.5644531,160.519531Q106.4414062,160.695312,106.3828125,160.917969Q106.3242188,161.140625,106.2890625,161.363281L106.2890625,163.953125L118.675781,163.953125L118.675781,167ZM140.953125,159.96875Q140.953125,161,140.68945300000001,161.91992199999999Q140.425781,162.839844,139.945312,163.625Q139.464844,164.410156,138.808594,165.03125Q138.152344,165.652344,137.37304699999999,166.09179699999999Q136.59375,166.53125,135.714844,166.765625Q134.835938,167,133.921875,167L128.425781,167Q127.5,167,126.621094,166.765625Q125.742188,166.53125,124.962891,166.09179699999999Q124.183594,165.652344,123.527344,165.03125Q122.871094,164.410156,122.396484,163.625Q121.921875,162.839844,121.658203,161.91992199999999Q121.394531,161,121.394531,159.96875L121.394531,157.226562Q121.394531,155.679688,121.974609,154.390625Q122.554688,153.101562,123.527344,152.1699219Q124.5,151.2382812,125.771484,150.7167969Q127.042969,150.1953125,128.425781,150.1953125L133.921875,150.1953125Q134.835938,150.1953125,135.714844,150.4296875Q136.59375,150.6640625,137.37304699999999,151.1035156Q138.152344,151.5429688,138.808594,152.1640625Q139.464844,152.7851562,139.945312,153.570312Q140.425781,154.355469,140.68945300000001,155.275391Q140.953125,156.195312,140.953125,157.226562L140.953125,159.96875ZM137.882812,157.226562Q137.882812,156.324219,137.554688,155.585938Q137.226562,154.847656,136.681641,154.320312Q136.136719,153.792969,135.421875,153.511719Q134.707031,153.230469,133.921875,153.242188L128.425781,153.242188Q127.664062,153.230469,126.943359,153.505859Q126.222656,153.78125,125.666016,154.302734Q125.109375,154.824219,124.775391,155.568359Q124.441406,156.3125,124.441406,157.226562L124.441406,159.96875Q124.441406,160.882812,124.769531,161.621094Q125.097656,162.359375,125.648438,162.880859Q126.199219,163.402344,126.919922,163.683594Q127.640625,163.964844,128.425781,163.953125L133.921875,163.953125Q134.824219,163.953125,135.556641,163.65429699999999Q136.289062,163.355469,136.804688,162.828125Q137.320312,162.300781,137.601562,161.568359Q137.882812,160.835938,137.882812,159.96875L137.882812,157.226562ZM136.558594,155Q136.734375,155.257812,136.792969,155.556641Q136.851562,155.855469,136.792969,156.14257800000001Q136.734375,156.429688,136.56445300000001,156.681641Q136.394531,156.933594,136.125,157.109375L127.898438,162.605469Q127.699219,162.757812,127.488281,162.816406Q127.277344,162.875,127.054688,162.875Q126.679688,162.875,126.339844,162.699219Q126,162.523438,125.789062,162.195312Q125.613281,161.9375,125.554688,161.63867199999999Q125.496094,161.339844,125.548828,161.052734Q125.601562,160.765625,125.765625,160.51367199999999Q125.929688,160.261719,126.199219,160.085938L134.449219,154.589844Q134.707031,154.414062,135.005859,154.355469Q135.304688,154.296875,135.59179699999999,154.355469Q135.878906,154.414062,136.130859,154.578125Q136.382812,154.742188,136.558594,155ZM163.160156,159.96875Q163.160156,161,162.896484,161.91992199999999Q162.632812,162.839844,162.152344,163.625Q161.671875,164.410156,161.015625,165.03125Q160.359375,165.652344,159.58007800000001,166.09179699999999Q158.800781,166.53125,157.921875,166.765625Q157.042969,167,156.128906,167L150.632812,167Q149.707031,167,148.828125,166.765625Q147.949219,166.53125,147.16992199999999,166.09179699999999Q146.390625,165.652344,145.734375,165.03125Q145.078125,164.410156,144.603516,163.625Q144.128906,162.839844,143.865234,161.91992199999999Q143.601562,161,143.601562,159.96875L143.601562,157.226562Q143.601562,155.679688,144.181641,154.390625Q144.761719,153.101562,145.734375,152.1699219Q146.707031,151.2382812,147.978516,150.7167969Q149.25,150.1953125,150.632812,150.1953125L156.128906,150.1953125Q157.042969,150.1953125,157.921875,150.4296875Q158.800781,150.6640625,159.58007800000001,151.1035156Q160.359375,151.5429688,161.015625,152.1640625Q161.671875,152.7851562,162.152344,153.570312Q162.632812,154.355469,162.896484,155.275391Q163.160156,156.195312,163.160156,157.226562L163.160156,159.96875ZM160.089844,157.226562Q160.089844,156.324219,159.761719,155.585938Q159.433594,154.847656,158.88867199999999,154.320312Q158.34375,153.792969,157.628906,153.511719Q156.914062,153.230469,156.128906,153.242188L150.632812,153.242188Q149.871094,153.230469,149.150391,153.505859Q148.429688,153.78125,147.87304699999999,154.302734Q147.316406,154.824219,146.98242199999999,155.568359Q146.648438,156.3125,146.648438,157.226562L146.648438,159.96875Q146.648438,160.882812,146.976562,161.621094Q147.304688,162.359375,147.855469,162.880859Q148.40625,163.402344,149.12695300000001,163.683594Q149.847656,163.964844,150.632812,163.953125L156.128906,163.953125Q157.03125,163.953125,157.76367199999999,163.65429699999999Q158.496094,163.355469,159.011719,162.828125Q159.527344,162.300781,159.808594,161.568359Q160.089844,160.835938,160.089844,159.96875L160.089844,157.226562ZM158.765625,155Q158.941406,155.257812,159,155.556641Q159.058594,155.855469,159,156.14257800000001Q158.941406,156.429688,158.771484,156.681641Q158.601562,156.933594,158.332031,157.109375L150.105469,162.605469Q149.90625,162.757812,149.695312,162.816406Q149.484375,162.875,149.261719,162.875Q148.886719,162.875,148.546875,162.699219Q148.207031,162.523438,147.996094,162.195312Q147.820312,161.9375,147.761719,161.63867199999999Q147.703125,161.339844,147.755859,161.052734Q147.808594,160.765625,147.972656,160.51367199999999Q148.136719,160.261719,148.40625,160.085938L156.65625,154.589844Q156.914062,154.414062,157.212891,154.355469Q157.511719,154.296875,157.79882800000001,154.355469Q158.085938,154.414062,158.337891,154.578125Q158.589844,154.742188,158.765625,155ZM185.367188,159.96875Q185.367188,161,185.103516,161.91992199999999Q184.839844,162.839844,184.359375,163.625Q183.878906,164.410156,183.222656,165.03125Q182.566406,165.652344,181.787109,166.09179699999999Q181.007812,166.53125,180.128906,166.765625Q179.25,167,178.335938,167L172.839844,167Q171.914062,167,171.035156,166.765625Q170.15625,166.53125,169.37695300000001,166.09179699999999Q168.597656,165.652344,167.941406,165.03125Q167.285156,164.410156,166.81054699999999,163.625Q166.335938,162.839844,166.072266,161.91992199999999Q165.808594,161,165.808594,159.96875L165.808594,157.226562Q165.808594,155.679688,166.38867199999999,154.390625Q166.96875,153.101562,167.941406,152.1699219Q168.914062,151.2382812,170.18554699999999,150.7167969Q171.457031,150.1953125,172.839844,150.1953125L178.335938,150.1953125Q179.25,150.1953125,180.128906,150.4296875Q181.007812,150.6640625,181.787109,151.1035156Q182.566406,151.5429688,183.222656,152.1640625Q183.878906,152.7851562,184.359375,153.570312Q184.839844,154.355469,185.103516,155.275391Q185.367188,156.195312,185.367188,157.226562L185.367188,159.96875ZM182.296875,157.226562Q182.296875,156.324219,181.96875,155.585938Q181.640625,154.847656,181.09570300000001,154.320312Q180.550781,153.792969,179.835938,153.511719Q179.121094,153.230469,178.335938,153.242188L172.839844,153.242188Q172.078125,153.230469,171.35742199999999,153.505859Q170.636719,153.78125,170.08007800000001,154.302734Q169.523438,154.824219,169.18945300000001,155.568359Q168.855469,156.3125,168.855469,157.226562L168.855469,159.96875Q168.855469,160.882812,169.183594,161.621094Q169.511719,162.359375,170.0625,162.880859Q170.613281,163.402344,171.333984,163.683594Q172.054688,163.964844,172.839844,163.953125L178.335938,163.953125Q179.238281,163.953125,179.97070300000001,163.65429699999999Q180.703125,163.355469,181.21875,162.828125Q181.734375,162.300781,182.015625,161.568359Q182.296875,160.835938,182.296875,159.96875L182.296875,157.226562ZM180.972656,155Q181.148438,155.257812,181.207031,155.556641Q181.265625,155.855469,181.207031,156.14257800000001Q181.148438,156.429688,180.978516,156.681641Q180.808594,156.933594,180.539062,157.109375L172.3125,162.605469Q172.113281,162.757812,171.902344,162.816406Q171.691406,162.875,171.46875,162.875Q171.09375,162.875,170.753906,162.699219Q170.414062,162.523438,170.203125,162.195312Q170.027344,161.9375,169.96875,161.63867199999999Q169.910156,161.339844,169.962891,161.052734Q170.015625,160.765625,170.179688,160.51367199999999Q170.34375,160.261719,170.613281,160.085938L178.863281,154.589844Q179.121094,154.414062,179.41992199999999,154.355469Q179.71875,154.296875,180.005859,154.355469Q180.292969,154.414062,180.54492199999999,154.578125Q180.796875,154.742188,180.972656,155Z" fill="#FFFFFF" fill-opacity="1"/></g><g><path d="M813.675781,163.722656Q813.675781,164.15625,813.576172,164.636719Q813.4765620000001,165.117188,813.259766,165.59179699999999Q813.042969,166.066406,812.703125,166.5Q812.363281,166.933594,811.888672,167.26757800000001Q811.414062,167.601562,810.792969,167.800781Q810.171875,168,809.398438,168L802.5078125,168Q801.875,168,801.125,167.777344Q800.375,167.554688,799.7363281,167.04492199999999Q799.0976562,166.535156,798.6699219,165.72070300000001Q798.2421875,164.90625,798.2421875,163.722656L798.2421875,162.363281Q798.2421875,161.917969,798.3417969,161.425781Q798.4414062,160.933594,798.6582031,160.453125Q798.875,159.972656,799.2148438,159.539062Q799.5546875,159.105469,800.0351562,158.789062Q799.8242188,158.296875,799.71875,157.792969Q799.6132812,157.289062,799.6132812,156.84375L799.6132812,155.472656Q799.6132812,154.300781,800.0410156,153.4804688Q800.46875,152.6601562,801.1074219,152.15625Q801.7460938,151.6523438,802.4960938,151.4238281Q803.2460938,151.1953125,803.8789062,151.1953125L808.003906,151.1953125Q808.789062,151.1953125,809.416016,151.3945312Q810.042969,151.59375,810.517578,151.9277344Q810.992188,152.2617188,811.326172,152.6953125Q811.660156,153.1289062,811.871094,153.6035156Q812.082031,154.078125,812.181641,154.56445300000001Q812.28125,155.050781,812.28125,155.472656L812.28125,156.84375Q812.28125,157.992188,811.871094,158.835938Q812.246094,159.082031,812.574219,159.416016Q812.902344,159.75,813.1484379999999,160.183594Q813.394531,160.617188,813.535156,161.162109Q813.675781,161.707031,813.675781,162.363281L813.675781,163.722656ZM809.234375,155.496094Q809.234375,154.875,808.917969,154.558594Q808.601562,154.242188,808.003906,154.242188L803.9023438,154.242188Q803.28125,154.242188,802.9824219,154.558594Q802.6835938,154.875,802.6835938,155.472656L802.6835938,156.84375Q802.6835938,157.453125,802.9941406,157.757812Q803.3046875,158.0625,803.8789062,158.0625L808.003906,158.0625Q808.625,158.0625,808.929688,157.75195300000001Q809.234375,157.441406,809.234375,156.84375L809.234375,155.496094ZM810.59375,162.363281Q810.59375,161.777344,810.271484,161.45507800000001Q809.949219,161.132812,809.398438,161.132812L802.5078125,161.132812Q801.9453125,161.132812,801.6171875,161.484375Q801.2890625,161.835938,801.2890625,162.363281L801.2890625,163.722656Q801.2890625,164.285156,801.6347656,164.619141Q801.9804688,164.953125,802.5078125,164.953125L809.398438,164.953125Q809.984375,164.953125,810.289062,164.601562Q810.59375,164.25,810.59375,163.722656L810.59375,162.363281ZM821.292969,168L818.234375,168L818.234375,154.242188L815.480469,154.242188L815.480469,151.1953125L821.292969,151.1953125L821.292969,168ZM844.050781,160.96875Q844.050781,162,843.787109,162.91992199999999Q843.5234379999999,163.839844,843.042969,164.625Q842.5625,165.410156,841.90625,166.03125Q841.25,166.652344,840.470703,167.09179699999999Q839.691406,167.53125,838.8125,167.765625Q837.933594,168,837.019531,168L831.5234379999999,168Q830.597656,168,829.71875,167.765625Q828.839844,167.53125,828.060547,167.09179699999999Q827.28125,166.652344,826.625,166.03125Q825.96875,165.410156,825.494141,164.625Q825.019531,163.839844,824.755859,162.91992199999999Q824.4921879999999,162,824.4921879999999,160.96875L824.4921879999999,158.226562Q824.4921879999999,156.679688,825.072266,155.390625Q825.652344,154.101562,826.625,153.1699219Q827.597656,152.2382812,828.869141,151.7167969Q830.140625,151.1953125,831.5234379999999,151.1953125L837.019531,151.1953125Q837.933594,151.1953125,838.8125,151.4296875Q839.691406,151.6640625,840.470703,152.1035156Q841.25,152.5429688,841.90625,153.1640625Q842.5625,153.7851562,843.042969,154.570312Q843.5234379999999,155.355469,843.787109,156.275391Q844.050781,157.195312,844.050781,158.226562L844.050781,160.96875ZM840.980469,158.226562Q840.980469,157.324219,840.652344,156.585938Q840.324219,155.847656,839.779297,155.320312Q839.234375,154.792969,838.519531,154.511719Q837.8046879999999,154.230469,837.019531,154.242188L831.5234379999999,154.242188Q830.761719,154.230469,830.041016,154.505859Q829.3203120000001,154.78125,828.763672,155.302734Q828.207031,155.824219,827.873047,156.568359Q827.5390620000001,157.3125,827.5390620000001,158.226562L827.5390620000001,160.96875Q827.5390620000001,161.882812,827.8671879999999,162.621094Q828.1953120000001,163.359375,828.746094,163.880859Q829.296875,164.402344,830.017578,164.683594Q830.738281,164.964844,831.5234379999999,164.953125L837.019531,164.953125Q837.921875,164.953125,838.654297,164.65429699999999Q839.386719,164.355469,839.902344,163.828125Q840.417969,163.300781,840.699219,162.568359Q840.980469,161.835938,840.980469,160.96875L840.980469,158.226562ZM839.65625,156Q839.832031,156.257812,839.890625,156.556641Q839.949219,156.855469,839.890625,157.14257800000001Q839.832031,157.429688,839.662109,157.681641Q839.4921879999999,157.933594,839.222656,158.109375L830.996094,163.605469Q830.796875,163.757812,830.5859379999999,163.816406Q830.375,163.875,830.152344,163.875Q829.777344,163.875,829.4375,163.699219Q829.097656,163.523438,828.886719,163.195312Q828.7109379999999,162.9375,828.652344,162.63867199999999Q828.59375,162.339844,828.646484,162.052734Q828.699219,161.765625,828.863281,161.51367199999999Q829.027344,161.261719,829.296875,161.085938L837.546875,155.589844Q837.8046879999999,155.414062,838.103516,155.355469Q838.402344,155.296875,838.689453,155.355469Q838.9765620000001,155.414062,839.228516,155.578125Q839.480469,155.742188,839.65625,156ZM866.2578120000001,160.96875Q866.2578120000001,162,865.994141,162.91992199999999Q865.730469,163.839844,865.25,164.625Q864.769531,165.410156,864.113281,166.03125Q863.457031,166.652344,862.677734,167.09179699999999Q861.8984379999999,167.53125,861.019531,167.765625Q860.140625,168,859.2265620000001,168L853.730469,168Q852.8046879999999,168,851.925781,167.765625Q851.046875,167.53125,850.267578,167.09179699999999Q849.488281,166.652344,848.832031,166.03125Q848.175781,165.410156,847.701172,164.625Q847.2265620000001,163.839844,846.962891,162.91992199999999Q846.699219,162,846.699219,160.96875L846.699219,158.226562Q846.699219,156.679688,847.279297,155.390625Q847.859375,154.101562,848.832031,153.1699219Q849.8046879999999,152.2382812,851.076172,151.7167969Q852.347656,151.1953125,853.730469,151.1953125L859.2265620000001,151.1953125Q860.140625,151.1953125,861.019531,151.4296875Q861.8984379999999,151.6640625,862.677734,152.1035156Q863.457031,152.5429688,864.113281,153.1640625Q864.769531,153.7851562,865.25,154.570312Q865.730469,155.355469,865.994141,156.275391Q866.2578120000001,157.195312,866.2578120000001,158.226562L866.2578120000001,160.96875ZM863.1875,158.226562Q863.1875,157.324219,862.859375,156.585938Q862.53125,155.847656,861.986328,155.320312Q861.441406,154.792969,860.7265620000001,154.511719Q860.011719,154.230469,859.2265620000001,154.242188L853.730469,154.242188Q852.96875,154.230469,852.248047,154.505859Q851.527344,154.78125,850.970703,155.302734Q850.4140620000001,155.824219,850.080078,156.568359Q849.746094,157.3125,849.746094,158.226562L849.746094,160.96875Q849.746094,161.882812,850.074219,162.621094Q850.402344,163.359375,850.953125,163.880859Q851.503906,164.402344,852.224609,164.683594Q852.9453120000001,164.964844,853.730469,164.953125L859.2265620000001,164.953125Q860.128906,164.953125,860.861328,164.65429699999999Q861.59375,164.355469,862.109375,163.828125Q862.625,163.300781,862.90625,162.568359Q863.1875,161.835938,863.1875,160.96875L863.1875,158.226562ZM861.863281,156Q862.0390620000001,156.257812,862.097656,156.556641Q862.15625,156.855469,862.097656,157.14257800000001Q862.0390620000001,157.429688,861.869141,157.681641Q861.699219,157.933594,861.4296879999999,158.109375L853.203125,163.605469Q853.003906,163.757812,852.792969,163.816406Q852.582031,163.875,852.359375,163.875Q851.984375,163.875,851.644531,163.699219Q851.3046879999999,163.523438,851.09375,163.195312Q850.917969,162.9375,850.859375,162.63867199999999Q850.800781,162.339844,850.853516,162.052734Q850.90625,161.765625,851.0703120000001,161.51367199999999Q851.234375,161.261719,851.503906,161.085938L859.753906,155.589844Q860.011719,155.414062,860.310547,155.355469Q860.609375,155.296875,860.896484,155.355469Q861.183594,155.414062,861.435547,155.578125Q861.6875,155.742188,861.863281,156Z" fill="#FFFFFF" fill-opacity="1"/></g><g><path d="M767.585938,137.132812L757.9648438,137.132812L757.9648438,134.0625L767.585938,134.0625L767.585938,137.132812ZM768.957031,144L757.9648438,144Q757.3320312,144,756.5820312,143.777344Q755.8320312,143.554688,755.1933594,143.04492199999999Q754.5546875,142.535156,754.1269531,141.72070300000001Q753.6992188,140.90625,753.6992188,139.722656L753.6992188,128.7304688Q753.6992188,128.4140625,753.8164062,128.1328125Q753.9335938,127.8515625,754.1386719,127.640625Q754.34375,127.4296875,754.625,127.3125Q754.90625,127.1953125,755.234375,127.1953125L768.957031,127.1953125L768.957031,130.242188L756.7460938,130.242188L756.7460938,139.722656Q756.7460938,140.320312,757.0625,140.636719Q757.3789062,140.953125,757.9882812,140.953125L768.957031,140.953125L768.957031,144ZM787.0859379999999,130.242188L780.371094,130.242188L780.371094,144L777.324219,144L777.324219,130.242188L770.597656,130.242188L770.597656,127.1953125L787.0859379999999,127.1953125L787.0859379999999,130.242188ZM797,133.195312L802.1328120000001,127.1953125L806.292969,127.1953125L799.0625,135.621094L806.246094,144L802.109375,144L797,138.046875L791.9140620000001,144L787.765625,144L794.9375,135.621094L787.7421879999999,127.1953125L791.8671879999999,127.1953125L797,133.195312ZM825.546875,129.3164062L818.5625,135.574219L825.546875,141.691406L821.152344,141.691406L815.4921879999999,136.722656Q814.964844,136.289062,814.964844,135.574219Q814.964844,135.246094,815.099609,134.953125Q815.234375,134.660156,815.46875,134.449219L821.199219,129.3164062L825.546875,129.3164062ZM831.21875,134.0625L839.328125,134.0625Q839.972656,134.0625,840.716797,134.291016Q841.4609379999999,134.519531,842.105469,135.02929699999999Q842.75,135.539062,843.177734,136.359375Q843.605469,137.179688,843.605469,138.363281L843.605469,139.722656Q843.605469,140.15625,843.505859,140.636719Q843.40625,141.117188,843.189453,141.59179699999999Q842.972656,142.066406,842.638672,142.5Q842.3046879999999,142.933594,841.830078,143.26757800000001Q841.355469,143.601562,840.734375,143.800781Q840.113281,144,839.328125,144L833.808594,144Q833.246094,144,832.607422,143.871094Q831.96875,143.742188,831.347656,143.45507800000001Q830.7265620000001,143.167969,830.146484,142.728516Q829.566406,142.289062,829.1328120000001,141.662109Q828.699219,141.035156,828.435547,140.214844Q828.171875,139.394531,828.171875,138.363281L828.171875,132.84375Q828.171875,131.8125,828.435547,130.992188Q828.699219,130.171875,829.1328120000001,129.5449219Q829.566406,128.9179688,830.146484,128.4726562Q830.7265620000001,128.0273438,831.347656,127.7402344Q831.96875,127.453125,832.607422,127.3242188Q833.246094,127.1953125,833.808594,127.1953125L841.449219,127.1953125L841.449219,130.242188L833.808594,130.242188Q833.222656,130.289062,832.748047,130.488281Q832.2734379999999,130.6875,831.933594,131.015625Q831.59375,131.34375,831.40625,131.806641Q831.21875,132.269531,831.21875,132.84375L831.21875,134.0625ZM831.21875,137.132812L831.21875,138.363281Q831.21875,138.960938,831.423828,139.43554699999999Q831.628906,139.910156,831.980469,140.25Q832.332031,140.589844,832.806641,140.771484Q833.28125,140.953125,833.832031,140.953125L839.328125,140.953125Q839.9140620000001,140.953125,840.224609,140.601562Q840.535156,140.25,840.535156,139.722656L840.535156,138.363281Q840.535156,137.765625,840.230469,137.449219Q839.925781,137.132812,839.3046879999999,137.132812L831.21875,137.132812ZM848.574219,142.464844Q848.574219,142.78125,848.451172,143.056641Q848.328125,143.332031,848.123047,143.537109Q847.917969,143.742188,847.642578,143.859375Q847.3671879999999,143.976562,847.0625,143.976562Q846.746094,143.976562,846.470703,143.859375Q846.1953120000001,143.742188,845.990234,143.537109Q845.785156,143.332031,845.667969,143.056641Q845.550781,142.78125,845.550781,142.464844Q845.550781,142.160156,845.667969,141.884766Q845.785156,141.609375,845.990234,141.40429699999999Q846.1953120000001,141.199219,846.470703,141.07617199999999Q846.746094,140.953125,847.0625,140.953125Q847.3671879999999,140.953125,847.642578,141.07617199999999Q847.917969,141.199219,848.123047,141.40429699999999Q848.328125,141.609375,848.451172,141.884766Q848.574219,142.160156,848.574219,142.464844ZM850.2734379999999,132.84375L850.2734379999999,131.472656Q850.2734379999999,131.050781,850.373047,130.56445300000001Q850.472656,130.078125,850.683594,129.6035156Q850.894531,129.1289062,851.234375,128.6953125Q851.574219,128.2617188,852.04883,127.9277344Q852.5234399999999,127.59375,853.14453,127.3945312Q853.76562,127.1953125,854.55078,127.1953125L860.04688,127.1953125Q860.60938,127.1953125,861.25391,127.3242188Q861.8984399999999,127.453125,862.52539,127.7402344Q863.15234,128.0273438,863.7265600000001,128.4726562Q864.30078,128.9179688,864.74023,129.5449219Q865.1796899999999,130.171875,865.44336,130.992188Q865.70703,131.8125,865.70703,132.84375L865.70703,138.363281Q865.70703,139.394531,865.44336,140.214844Q865.1796899999999,141.035156,864.74023,141.662109Q864.30078,142.289062,863.7265600000001,142.728516Q863.15234,143.167969,862.52539,143.45507800000001Q861.8984399999999,143.742188,861.25391,143.871094Q860.60938,144,860.04688,144L852.44141,144L852.44141,140.953125L860.04688,140.953125Q860.62109,140.90625,861.0957,140.71875Q861.5703100000001,140.53125,861.91602,140.208984Q862.26172,139.886719,862.44922,139.42382800000001Q862.63672,138.960938,862.63672,138.363281L862.63672,137.132812L854.55078,137.132812Q854.1171899999999,137.132812,853.63672,137.03320300000001Q853.15625,136.933594,852.68164,136.71679699999999Q852.20703,136.5,851.7734379999999,136.166016Q851.339844,135.832031,851.005859,135.351562Q850.671875,134.871094,850.472656,134.25Q850.2734379999999,133.628906,850.2734379999999,132.84375ZM862.63672,132.84375Q862.63672,132.246094,862.4375,131.765625Q862.23828,131.285156,861.89258,130.945312Q861.54688,130.605469,861.07227,130.42382800000001Q860.59766,130.242188,860.04688,130.242188L854.55078,130.242188Q853.98828,130.242188,853.6543,130.59375Q853.3203100000001,130.945312,853.3203100000001,131.472656L853.3203100000001,132.84375Q853.3203100000001,133.441406,853.63672,133.75195300000001Q853.95312,134.0625,854.57422,134.0625L862.63672,134.0625L862.63672,132.84375Z" fill="#FFFFFF" fill-opacity="1"/></g><g><path d="M50.183998,21.944004L40.32,25.760002C44.063999,33.104004,48.959999,40.808002,54.071999,47.432003L20.015999,47.432003C25.056,40.952003,29.591999,33.248001,32.759998,25.256004L21.455999,22.088001C17.495998,32.816002,10.151999,43.040001,1.8,49.016003C4.3199997,50.888,8.7839994,55.136002,10.728,57.368004C11.952,56.360001,13.103999,55.208,14.327999,53.984001L14.327999,57.800003L24.623999,57.800003C23.183998,67.232002,19.296,75.655998,3.8159997,80.695999C6.2639999,82.928001,9.2159996,87.248001,10.44,90.056C29.015999,83.071999,33.911999,71.192001,35.711998,57.800003L48.311996,57.800003C47.879997,70.615997,47.231998,76.375999,45.935997,77.816002C45.143997,78.608002,44.351997,78.823997,43.127998,78.823997C41.327999,78.823997,37.944,78.823997,34.343998,78.536003C36.216,81.416,37.584,85.952003,37.799999,89.047997C41.903999,89.192001,45.863998,89.120003,48.455997,88.688004C51.335999,88.255997,53.567997,87.391998,55.583996,84.727997C57.959999,81.704002,58.751999,73.568001,59.399998,53.840004L62.063999,56.720001C64.007996,53.912003,67.895996,49.808002,70.559998,47.792C63.071999,41.312,54.503998,30.872002,50.183998,21.944004ZM133.48801,24.248001L123.912,24.320004L118.51199,24.320004L108.936,24.248001L108.936,33.248001C108.936,38.288002,108.28799,44.120003,101.376,48.368C102.888,49.376003,105.62399,51.751999,107.352,53.624001L104.544,53.624001L104.544,62.335999L112.608,62.335999L107.208,63.632C109.08,68.311996,111.384,72.487999,114.12,76.015999C110.16,78.391998,105.48,80.120003,100.224,81.199997C102.168,83.360001,104.472,87.536003,105.48,90.199997C111.6,88.472,116.92799,86.239998,121.536,83.143997C125.56799,86.167999,130.46399,88.472,136.224,89.984001C137.592,87.248001,140.472,83.071999,142.63199,80.984001C137.51999,80.047997,133.056,78.463997,129.312,76.375999C133.92,71.048004,137.304,64.208,139.32001,55.424004L132.84,53.335999L131.112,53.624001L110.592,53.624001C117.144,48.296001,118.51199,40.160004,118.51199,33.536003L118.51199,33.104004L123.912,33.104004L123.912,40.304001C123.912,48.080002,125.496,51.464001,133.48801,51.464001C134.56799,51.464001,135.936,51.464001,136.87199,51.464001C138.45599,51.464001,140.18399,51.392002,141.336,50.888C140.976,48.656002,140.75999,45.272003,140.616,42.824001C139.608,43.184002,137.88,43.400002,136.79999,43.400002C136.15201,43.400002,135.144,43.400002,134.496,43.400002C133.63199,43.400002,133.48801,42.536003,133.48801,40.448002L133.48801,24.248001ZM115.992,62.335999L126.72,62.335999C125.352,65.360001,123.552,68.024002,121.32,70.328003C119.088,67.952003,117.36,65.288002,115.992,62.335999ZM78.839996,28.784004L78.839996,68.528L73.223999,69.176003L74.736,78.968002L78.839996,78.32L78.839996,88.112L88.848,88.112L88.848,76.736L103.824,74.288002L103.32,65.431999L88.848,67.304001L88.848,61.616001L102.24,61.616001L102.24,52.616001L88.848,52.616001L88.848,46.928001L102.528,46.928001L102.528,37.928001L88.848,37.928001L88.848,34.760002C94.751999,32.888,101.016,30.728001,106.488,28.352001L98.423996,20.288002C93.456001,23.096001,85.968002,26.552002,79.127998,28.784004L79.199997,28.928001L78.839996,28.784004Z" fill="#FFFFFF" fill-opacity="1"/></g><g><path d="M1055,127.791748L1055,114L1053.229,114L1054.31042,115.0814209L1048.30005,121.0917969L1055,127.791748ZM1020.72876,114L1037.8339799999999,114L1036.35242,115.4815674L1042.36279,121.4919434L1035.29175,128.562988L1029.28137,122.55261229999999L1023.271,128.562988L1016.19995,121.4919434L1022.21033,115.4815674L1020.72876,114L1020.72876,114ZM988.229,114L1006.1340299999999,114L1004.25256,115.8814697L1010.26294,121.8918457L1003.1918900000001,128.962891L997.18152,122.9525146L991.17114,128.962891L984.1001,121.8918457L990.11047,115.8814697L988.229,114L988.229,114ZM955.72876,114L974.43408,114L972.15247,116.2816162L978.16284,122.2919922L971.0918,129.363037L965.081421,123.3526611L959.071045,129.363037L952,122.2919922L958.010376,116.2816162L955.72876,114L955.72876,114ZM923.220703,114L942.72583,114L940.044312,116.6815186L946.0546879999999,122.6918945L938.983643,129.762939L932.973267,123.75256350000001L926.962891,129.762939L919.891846,122.6918945L925.902222,116.6815186L923.220703,114L923.220703,114ZM890.720947,114L911.041992,114L907.952515,117.0894775L913.962891,123.0998535L906.891846,130.170898L900.88147,124.160522L894.871094,130.170898L887.800049,123.0998535L893.810425,117.0894775L890.720947,114L890.720947,114ZM881.891602,174L868,174L868,172.12915L869.0814209,173.21057100000002L875.0917969,167.200195L881.891602,174ZM914.134033,174L888.229004,174L888.100098,173.871094L895.171143,166.800049L901.181519,172.810425L907.191895,166.800049L914.262939,173.871094L914.134033,174ZM945.833984,174L920.72876,174L920.199951,173.471191L927.270996,166.400146L933.281372,172.41052200000001L939.291748,166.400146L946.362793,173.471191L945.833984,174ZM977.53394,174L953.229004,174L952.300049,173.071045L959.371094,166L965.38147,172.010376L971.39185,166L978.46289,173.071045L977.53394,174ZM1009.23413,174L985.729,174L984.4001499999999,172.671143L991.47119,165.600098L997.48157,171.610474L1003.49194,165.600098L1010.56299,172.671143L1009.23413,174ZM1040.93408,174L1018.22876,174L1016.5,172.27124L1023.57104,165.200195L1029.58142,171.21057100000002L1035.5918,165.200195L1042.66284,172.27124L1040.93408,174ZM1055,149.137207L1055,156.246582L1051.48364,159.76293900000002L1045.47327,153.752563L1039.46289,159.76293900000002L1032.39185,152.691895L1038.40222,146.681519L1032.39185,140.671143L1039.46289,133.600098L1045.47327,139.610474L1051.48364,133.600098L1055,137.116455L1055,144.22583L1052.54431,146.681519L1055,149.137207ZM1019.38354,134.000244L1026.45459,141.071289L1020.44421,147.081665L1026.45459,153.092041L1019.38354,160.163086L1013.37317,154.15271L1007.36279,160.163086L1000.29175,153.092041L1006.3021200000001,147.081665L1000.29175,141.071289L1007.36279,134.000244L1013.37317,140.01062L1019.38354,134.000244ZM987.28369,134.400146L994.35474,141.471191L988.34436,147.48156699999998L994.35474,153.491943L987.28369,160.562988L981.27332,154.552612L975.26294,160.562988L968.1918900000001,153.491943L974.20227,147.48156699999998L968.1918900000001,141.471191L975.26294,134.400146L981.27332,140.41052200000001L987.28369,134.400146ZM962.254639,141.871338L955.183594,134.800293L949.17334,140.810791L943.162842,134.800293L936.091797,141.871338L942.102051,147.881592L936.091797,153.89209L943.162842,160.963135L949.17334,154.952881L955.183594,160.963135L962.254639,153.89209L956.244141,147.881592L962.254639,141.871338ZM923.08374,135.200195L930.154785,142.27124L924.144409,148.28161599999999L930.154785,154.291992L923.08374,161.363037L917.073364,155.352661L911.062988,161.363037L903.991943,154.291992L910.0023189999999,148.28161599999999L903.991943,142.27124L911.062988,135.200195L917.073364,141.21057100000002L923.08374,135.200195ZM890.983643,135.600098L898.0546879999999,142.671143L892.044312,148.681519L898.0546879999999,154.691895L890.983643,161.76293900000002L884.973267,155.752563L878.962891,161.76293900000002L871.8918457,154.691895L877.9022217,148.681519L871.8918457,142.671143L878.962891,135.600098L884.973267,141.610474L890.983643,135.600098Z" fill-rule="evenodd" fill="#FFFFFF" fill-opacity="1"/></g></g></svg>