<svg xmlns="http://www.w3.org/2000/svg" xmlns:xlink="http://www.w3.org/1999/xlink" fill="none" version="1.1" width="1053" height="626" viewBox="0 0 1053 626"><defs><linearGradient x1="1" y1="0.5" x2="0" y2="0.5" id="master_svg0_8_2329"><stop offset="0%" stop-color="#FFFFFF" stop-opacity="0"/><stop offset="26.428571343421936%" stop-color="#FFFFFF" stop-opacity="1"/><stop offset="77.14285850524902%" stop-color="#FFFFFF" stop-opacity="1"/><stop offset="100%" stop-color="#FFFFFF" stop-opacity="0"/></linearGradient><linearGradient x1="1" y1="0.5" x2="0" y2="0.5" id="master_svg1_8_2329"><stop offset="0%" stop-color="#FFFFFF" stop-opacity="0"/><stop offset="26.428571343421936%" stop-color="#FFFFFF" stop-opacity="1"/><stop offset="77.14285850524902%" stop-color="#FFFFFF" stop-opacity="1"/><stop offset="100%" stop-color="#FFFFFF" stop-opacity="0"/></linearGradient><linearGradient x1="1" y1="0.5" x2="0" y2="0.5" id="master_svg2_8_2329"><stop offset="0%" stop-color="#FFFFFF" stop-opacity="0"/><stop offset="26.428571343421936%" stop-color="#FFFFFF" stop-opacity="1"/><stop offset="77.14285850524902%" stop-color="#FFFFFF" stop-opacity="1"/><stop offset="100%" stop-color="#FFFFFF" stop-opacity="0"/></linearGradient><linearGradient x1="1" y1="0.5" x2="0" y2="0.5" id="master_svg3_8_2329"><stop offset="0%" stop-color="#FFFFFF" stop-opacity="0"/><stop offset="26.428571343421936%" stop-color="#FFFFFF" stop-opacity="1"/><stop offset="77.14285850524902%" stop-color="#FFFFFF" stop-opacity="1"/><stop offset="100%" stop-color="#FFFFFF" stop-opacity="0"/></linearGradient><linearGradient x1="1" y1="0.5" x2="0" y2="0.5" id="master_svg4_8_2329"><stop offset="0%" stop-color="#FFFFFF" stop-opacity="0"/><stop offset="26.428571343421936%" stop-color="#FFFFFF" stop-opacity="1"/><stop offset="77.14285850524902%" stop-color="#FFFFFF" stop-opacity="1"/><stop offset="100%" stop-color="#FFFFFF" stop-opacity="0"/></linearGradient><linearGradient x1="1" y1="0.5" x2="0" y2="0.5" id="master_svg5_8_2329"><stop offset="0%" stop-color="#FFFFFF" stop-opacity="0"/><stop offset="26.428571343421936%" stop-color="#FFFFFF" stop-opacity="1"/><stop offset="77.14285850524902%" stop-color="#FFFFFF" stop-opacity="1"/><stop offset="100%" stop-color="#FFFFFF" stop-opacity="0"/></linearGradient><linearGradient x1="1" y1="0.5" x2="0" y2="0.5" id="master_svg6_8_2329"><stop offset="0%" stop-color="#FFFFFF" stop-opacity="0"/><stop offset="26.428571343421936%" stop-color="#FFFFFF" stop-opacity="1"/><stop offset="77.14285850524902%" stop-color="#FFFFFF" stop-opacity="1"/><stop offset="100%" stop-color="#FFFFFF" stop-opacity="0"/></linearGradient></defs><g><g style="opacity:0.30000001192092896;"><rect x="43" y="104" width="621" height="60" rx="0" fill="url(#master_svg0_8_2329)" fill-opacity="1"/></g><g style="opacity:0.30000001192092896;"><rect x="0" y="181" width="546" height="60" rx="0" fill="url(#master_svg1_8_2329)" fill-opacity="1"/></g><g style="opacity:0.30000001192092896;"><rect x="31" y="258" width="666" height="60" rx="0" fill="url(#master_svg2_8_2329)" fill-opacity="1"/></g><g style="opacity:0.30000001192092896;"><rect x="103" y="335" width="708" height="60" rx="0" fill="url(#master_svg3_8_2329)" fill-opacity="1"/></g><g style="opacity:0.30000001192092896;"><rect x="145" y="412" width="746" height="60" rx="0" fill="url(#master_svg4_8_2329)" fill-opacity="1"/></g><g style="opacity:0.30000001192092896;"><rect x="205" y="489" width="776" height="60" rx="0" fill="url(#master_svg5_8_2329)" fill-opacity="1"/></g><g style="opacity:0.30000001192092896;"><rect x="243" y="566" width="810" height="60" rx="0" fill="url(#master_svg6_8_2329)" fill-opacity="1"/></g><g><rect x="205" y="104" width="234" height="60" rx="0" fill="#E93B66" fill-opacity="1"/></g><g><rect x="133" y="181" width="234" height="60" rx="0" fill="#E93B66" fill-opacity="1"/></g><g><rect x="220" y="258" width="234" height="60" rx="0" fill="#E93B66" fill-opacity="1"/></g><g><rect x="312" y="335" width="234" height="60" rx="0" fill="#E93B66" fill-opacity="1"/></g><g><rect x="367" y="412" width="234" height="60" rx="0" fill="#E93B66" fill-opacity="1"/></g><g><rect x="430" y="489" width="234" height="60" rx="0" fill="#E93B66" fill-opacity="1"/></g><g><rect x="484" y="566" width="234" height="60" rx="0" fill="#E93B66" fill-opacity="1"/></g><g><path d="M377.7148438,139.09375L389.87890600000003,139.09375Q390.845703,139.09375,391.961914,139.436523Q393.078125,139.77929699999999,394.044922,140.543945Q395.01171899999997,141.308594,395.65332,142.539062Q396.294922,143.769531,396.294922,145.54492199999999L396.294922,147.583984Q396.294922,148.234375,396.145508,148.95507800000001Q395.99609399999997,149.675781,395.670898,150.387695Q395.345703,151.099609,394.844727,151.75Q394.34375,152.400391,393.631836,152.901367Q392.919922,153.402344,391.98828100000003,153.70117199999999Q391.056641,154,389.87890600000003,154L381.599609,154Q380.7558594,154,379.7978516,153.806641Q378.8398438,153.613281,377.9082031,153.182617Q376.9765625,152.75195300000001,376.1064453,152.092773Q375.2363281,151.433594,374.5859375,150.493164Q373.9355469,149.552734,373.5400391,148.322266Q373.1445312,147.09179699999999,373.1445312,145.54492199999999L373.1445312,137.265625Q373.1445312,135.71875,373.5400391,134.488281Q373.9355469,133.257812,374.5859375,132.317383Q375.2363281,131.37695300000001,376.1064453,130.708984Q376.9765625,130.041016,377.9082031,129.610352Q378.8398438,129.179688,379.7978516,128.98632800000001Q380.7558594,128.792969,381.599609,128.792969L393.060547,128.792969L393.060547,133.363281L381.599609,133.363281Q380.7207031,133.433594,380.0087891,133.73242199999999Q379.296875,134.03125,378.7871094,134.523438Q378.2773438,135.015625,377.9960938,135.709961Q377.7148438,136.40429699999999,377.7148438,137.265625L377.7148438,139.09375ZM377.7148438,143.699219L377.7148438,145.54492199999999Q377.7148438,146.441406,378.0224609,147.15332Q378.3300781,147.865234,378.8574219,148.375Q379.3847656,148.884766,380.0966797,149.157227Q380.8085938,149.429688,381.634766,149.429688L389.87890600000003,149.429688Q390.757812,149.429688,391.223633,148.902344Q391.689453,148.375,391.689453,147.583984L391.689453,145.54492199999999Q391.689453,144.648438,391.232422,144.17382800000001Q390.775391,143.699219,389.84375,143.699219L377.7148438,143.699219ZM403.748047,151.697266Q403.748047,152.171875,403.563477,152.584961Q403.37890600000003,152.99804699999999,403.071289,153.305664Q402.763672,153.613281,402.350586,153.789062Q401.9375,153.964844,401.48046899999997,153.964844Q401.005859,153.964844,400.592773,153.789062Q400.179688,153.613281,399.87207,153.305664Q399.564453,152.99804699999999,399.388672,152.584961Q399.212891,152.171875,399.212891,151.697266Q399.212891,151.240234,399.388672,150.827148Q399.564453,150.414062,399.87207,150.106445Q400.179688,149.79882800000001,400.592773,149.614258Q401.005859,149.429688,401.48046899999997,149.429688Q401.9375,149.429688,402.350586,149.614258Q402.763672,149.79882800000001,403.071289,150.106445Q403.37890600000003,150.414062,403.563477,150.827148Q403.748047,151.240234,403.748047,151.697266ZM436.197266,143.453125Q436.197266,145,435.801758,146.379883Q435.40625,147.759766,434.685547,148.9375Q433.96484399999997,150.115234,432.98046899999997,151.046875Q431.99609399999997,151.978516,430.827148,152.637695Q429.658203,153.296875,428.33984399999997,153.648438Q427.021484,154,425.650391,154L417.40625,154Q416.017578,154,414.69921899999997,153.648438Q413.380859,153.296875,412.211914,152.637695Q411.04296899999997,151.978516,410.05859399999997,151.046875Q409.07421899999997,150.115234,408.362305,148.9375Q407.650391,147.759766,407.254883,146.379883Q406.859375,145,406.859375,143.453125L406.859375,139.339844Q406.859375,137.019531,407.729492,135.085938Q408.599609,133.152344,410.05859399999997,131.754883Q411.517578,130.35742199999999,413.424805,129.575195Q415.33203100000003,128.792969,417.40625,128.792969L425.650391,128.792969Q427.021484,128.792969,428.33984399999997,129.144531Q429.658203,129.496094,430.827148,130.155273Q431.99609399999997,130.81445300000001,432.98046899999997,131.746094Q433.96484399999997,132.677734,434.685547,133.855469Q435.40625,135.03320300000001,435.801758,136.413086Q436.197266,137.792969,436.197266,139.339844L436.197266,143.453125ZM431.591797,139.339844Q431.591797,137.98632800000001,431.099609,136.878906Q430.607422,135.771484,429.790039,134.980469Q428.97265600000003,134.18945300000001,427.900391,133.76757800000001Q426.828125,133.34570300000001,425.650391,133.363281L417.40625,133.363281Q416.263672,133.34570300000001,415.182617,133.758789Q414.101562,134.171875,413.266602,134.954102Q412.431641,135.73632800000001,411.930664,136.852539Q411.429688,137.96875,411.429688,139.339844L411.429688,143.453125Q411.429688,144.824219,411.921875,145.931641Q412.414062,147.039062,413.240234,147.821289Q414.06640600000003,148.603516,415.147461,149.025391Q416.228516,149.447266,417.40625,149.429688L425.650391,149.429688Q427.00390600000003,149.429688,428.102539,148.981445Q429.201172,148.53320300000001,429.974609,147.742188Q430.748047,146.95117199999999,431.169922,145.852539Q431.591797,144.753906,431.591797,143.453125L431.591797,139.339844ZM429.60546899999997,136Q429.869141,136.386719,429.95703100000003,136.834961Q430.044922,137.28320300000001,429.95703100000003,137.713867Q429.869141,138.144531,429.614258,138.522461Q429.359375,138.900391,428.955078,139.164062L416.615234,147.40820300000001Q416.31640600000003,147.636719,416,147.724609Q415.68359399999997,147.8125,415.349609,147.8125Q414.787109,147.8125,414.27734399999997,147.54882800000001Q413.767578,147.285156,413.451172,146.792969Q413.1875,146.40625,413.099609,145.958008Q413.01171899999997,145.509766,413.09082,145.079102Q413.169922,144.648438,413.416016,144.270508Q413.662109,143.89257800000001,414.06640600000003,143.628906L426.44140600000003,135.384766Q426.828125,135.121094,427.276367,135.03320300000001Q427.724609,134.945312,428.155273,135.03320300000001Q428.585938,135.121094,428.963867,135.367188Q429.341797,135.613281,429.60546899999997,136Z" fill="#FFFFFF" fill-opacity="1"/></g><g><path d="M331.400391,223.583984Q331.400391,224.234375,331.250977,224.95507800000001Q331.101562,225.675781,330.776367,226.387695Q330.451172,227.099609,329.950195,227.75Q329.44921899999997,228.400391,328.737305,228.901367Q328.025391,229.402344,327.09375,229.70117199999999Q326.162109,230,325.001953,230L308.25,230L308.25,225.429688L325.001953,225.429688Q325.86328100000003,225.429688,326.329102,224.902344Q326.794922,224.375,326.794922,223.583984L326.794922,221.54492199999999Q326.794922,220.648438,326.337891,220.17382800000001Q325.880859,219.699219,324.966797,219.699219L314.6660156,219.699219Q312.890625,219.699219,311.6689453,219.057617Q310.4472656,218.416016,309.6914062,217.449219Q308.9355469,216.48242199999999,308.5927734,215.35742199999999Q308.25,214.23242199999999,308.25,213.265625L308.25,204.792969L329.30859399999997,204.792969L329.30859399999997,209.363281L312.8203125,209.363281L312.8203125,213.265625Q312.8203125,214.179688,313.2949219,214.636719Q313.7695312,215.09375,314.6660156,215.09375L325.001953,215.09375Q325.951172,215.09375,327.076172,215.436523Q328.201172,215.77929699999999,329.15918,216.543945Q330.117188,217.308594,330.758789,218.539062Q331.400391,219.769531,331.400391,221.54492199999999L331.400391,223.583984ZM338.976562,227.697266Q338.976562,228.171875,338.791992,228.584961Q338.607422,228.99804699999999,338.299805,229.305664Q337.992188,229.613281,337.579102,229.789062Q337.166016,229.964844,336.708984,229.964844Q336.234375,229.964844,335.821289,229.789062Q335.408203,229.613281,335.100586,229.305664Q334.79296899999997,228.99804699999999,334.617188,228.584961Q334.44140600000003,228.171875,334.44140600000003,227.697266Q334.44140600000003,227.240234,334.617188,226.827148Q334.79296899999997,226.414062,335.100586,226.106445Q335.408203,225.79882800000001,335.821289,225.614258Q336.234375,225.429688,336.708984,225.429688Q337.166016,225.429688,337.579102,225.614258Q337.992188,225.79882800000001,338.299805,226.106445Q338.607422,226.414062,338.791992,226.827148Q338.976562,227.240234,338.976562,227.697266ZM346.921875,215.09375L359.085938,215.09375Q360.052734,215.09375,361.168945,215.436523Q362.28515600000003,215.77929699999999,363.251953,216.543945Q364.21875,217.308594,364.860352,218.539062Q365.501953,219.769531,365.501953,221.54492199999999L365.501953,223.583984Q365.501953,224.234375,365.352539,224.95507800000001Q365.203125,225.675781,364.87793,226.387695Q364.552734,227.099609,364.051758,227.75Q363.55078100000003,228.400391,362.838867,228.901367Q362.126953,229.402344,361.195312,229.70117199999999Q360.263672,230,359.085938,230L350.806641,230Q349.962891,230,349.004883,229.806641Q348.046875,229.613281,347.115234,229.182617Q346.18359399999997,228.75195300000001,345.313477,228.092773Q344.443359,227.433594,343.79296899999997,226.493164Q343.142578,225.552734,342.74707,224.322266Q342.351562,223.09179699999999,342.351562,221.54492199999999L342.351562,213.265625Q342.351562,211.71875,342.74707,210.488281Q343.142578,209.257812,343.79296899999997,208.317383Q344.443359,207.37695300000001,345.313477,206.708984Q346.18359399999997,206.041016,347.115234,205.610352Q348.046875,205.179688,349.004883,204.98632800000001Q349.962891,204.792969,350.806641,204.792969L362.267578,204.792969L362.267578,209.363281L350.806641,209.363281Q349.927734,209.433594,349.21582,209.73242199999999Q348.50390600000003,210.03125,347.994141,210.523438Q347.484375,211.015625,347.203125,211.709961Q346.921875,212.40429699999999,346.921875,213.265625L346.921875,215.09375ZM346.921875,219.699219L346.921875,221.54492199999999Q346.921875,222.441406,347.229492,223.15332Q347.537109,223.865234,348.064453,224.375Q348.591797,224.884766,349.303711,225.157227Q350.015625,225.429688,350.841797,225.429688L359.085938,225.429688Q359.96484399999997,225.429688,360.430664,224.902344Q360.896484,224.375,360.896484,223.583984L360.896484,221.54492199999999Q360.896484,220.648438,360.439453,220.17382800000001Q359.982422,219.699219,359.05078100000003,219.699219L346.921875,219.699219Z" fill="#FFFFFF" fill-opacity="1"/></g><g><path d="M411.7148438,293.09375L423.87890600000003,293.09375Q424.845703,293.09375,425.961914,293.436523Q427.078125,293.779297,428.044922,294.543945Q429.01171899999997,295.30859399999997,429.65332,296.539062Q430.294922,297.76953100000003,430.294922,299.544922L430.294922,301.583984Q430.294922,302.234375,430.145508,302.955078Q429.99609399999997,303.67578100000003,429.670898,304.387695Q429.345703,305.099609,428.844727,305.75Q428.34375,306.400391,427.631836,306.901367Q426.919922,307.40234399999997,425.98828100000003,307.701172Q425.056641,308,423.87890600000003,308L415.599609,308Q414.7558594,308,413.7978516,307.806641Q412.8398438,307.61328100000003,411.9082031,307.182617Q410.9765625,306.751953,410.1064453,306.092773Q409.2363281,305.43359399999997,408.5859375,304.493164Q407.9355469,303.552734,407.5400391,302.322266Q407.1445312,301.091797,407.1445312,299.544922L407.1445312,291.265625Q407.1445312,289.71875,407.5400391,288.48828100000003Q407.9355469,287.257812,408.5859375,286.317383Q409.2363281,285.376953,410.1064453,284.708984Q410.9765625,284.041016,411.9082031,283.610352Q412.8398438,283.179688,413.7978516,282.986328Q414.7558594,282.79296899999997,415.599609,282.79296899999997L427.060547,282.79296899999997L427.060547,287.36328100000003L415.599609,287.36328100000003Q414.7207031,287.43359399999997,414.0087891,287.732422Q413.296875,288.03125,412.7871094,288.523438Q412.2773438,289.015625,411.9960938,289.709961Q411.7148438,290.404297,411.7148438,291.265625L411.7148438,293.09375ZM411.7148438,297.69921899999997L411.7148438,299.544922Q411.7148438,300.44140600000003,412.0224609,301.15332Q412.3300781,301.865234,412.8574219,302.375Q413.3847656,302.884766,414.0966797,303.157227Q414.8085938,303.429688,415.634766,303.429688L423.87890600000003,303.429688Q424.757812,303.429688,425.223633,302.90234399999997Q425.689453,302.375,425.689453,301.583984L425.689453,299.544922Q425.689453,298.648438,425.232422,298.173828Q424.775391,297.69921899999997,423.84375,297.69921899999997L411.7148438,297.69921899999997ZM437.748047,305.697266Q437.748047,306.171875,437.563477,306.584961Q437.37890600000003,306.998047,437.071289,307.305664Q436.763672,307.61328100000003,436.350586,307.789062Q435.9375,307.96484399999997,435.48046899999997,307.96484399999997Q435.005859,307.96484399999997,434.592773,307.789062Q434.179688,307.61328100000003,433.87207,307.305664Q433.564453,306.998047,433.388672,306.584961Q433.212891,306.171875,433.212891,305.697266Q433.212891,305.240234,433.388672,304.827148Q433.564453,304.414062,433.87207,304.106445Q434.179688,303.798828,434.592773,303.614258Q435.005859,303.429688,435.48046899999997,303.429688Q435.9375,303.429688,436.350586,303.614258Q436.763672,303.798828,437.071289,304.106445Q437.37890600000003,304.414062,437.563477,304.827148Q437.748047,305.240234,437.748047,305.697266ZM448.576172,308L443.98828100000003,308L443.98828100000003,287.36328100000003L439.857422,287.36328100000003L439.857422,282.79296899999997L448.576172,282.79296899999997L448.576172,308Z" fill="#FFFFFF" fill-opacity="1"/></g><g><path d="M491.7148438,370.09375L503.87890600000003,370.09375Q504.845703,370.09375,505.961914,370.436523Q507.078125,370.779297,508.044922,371.543945Q509.01171899999997,372.30859399999997,509.65332,373.539062Q510.294922,374.76953100000003,510.294922,376.544922L510.294922,378.583984Q510.294922,379.234375,510.145508,379.955078Q509.99609399999997,380.67578100000003,509.670898,381.387695Q509.345703,382.099609,508.844727,382.75Q508.34375,383.400391,507.631836,383.901367Q506.919922,384.40234399999997,505.98828100000003,384.701172Q505.056641,385,503.87890600000003,385L495.599609,385Q494.7558594,385,493.7978516,384.806641Q492.8398438,384.61328100000003,491.9082031,384.182617Q490.9765625,383.751953,490.1064453,383.092773Q489.2363281,382.43359399999997,488.5859375,381.493164Q487.9355469,380.552734,487.5400391,379.322266Q487.1445312,378.091797,487.1445312,376.544922L487.1445312,368.265625Q487.1445312,366.71875,487.5400391,365.48828100000003Q487.9355469,364.257812,488.5859375,363.317383Q489.2363281,362.376953,490.1064453,361.708984Q490.9765625,361.041016,491.9082031,360.610352Q492.8398438,360.179688,493.7978516,359.986328Q494.7558594,359.79296899999997,495.599609,359.79296899999997L507.060547,359.79296899999997L507.060547,364.36328100000003L495.599609,364.36328100000003Q494.7207031,364.43359399999997,494.0087891,364.732422Q493.296875,365.03125,492.7871094,365.523438Q492.2773438,366.015625,491.9960938,366.709961Q491.7148438,367.404297,491.7148438,368.265625L491.7148438,370.09375ZM491.7148438,374.69921899999997L491.7148438,376.544922Q491.7148438,377.44140600000003,492.0224609,378.15332Q492.3300781,378.865234,492.8574219,379.375Q493.3847656,379.884766,494.0966797,380.157227Q494.8085938,380.429688,495.634766,380.429688L503.87890600000003,380.429688Q504.757812,380.429688,505.223633,379.90234399999997Q505.689453,379.375,505.689453,378.583984L505.689453,376.544922Q505.689453,375.648438,505.232422,375.173828Q504.775391,374.69921899999997,503.84375,374.69921899999997L491.7148438,374.69921899999997ZM517.748047,382.697266Q517.748047,383.171875,517.563477,383.584961Q517.378906,383.998047,517.071289,384.305664Q516.763672,384.61328100000003,516.350586,384.789062Q515.9375,384.96484399999997,515.480469,384.96484399999997Q515.005859,384.96484399999997,514.592773,384.789062Q514.1796879999999,384.61328100000003,513.87207,384.305664Q513.564453,383.998047,513.388672,383.584961Q513.212891,383.171875,513.212891,382.697266Q513.212891,382.240234,513.388672,381.827148Q513.564453,381.414062,513.87207,381.106445Q514.1796879999999,380.798828,514.592773,380.614258Q515.005859,380.429688,515.480469,380.429688Q515.9375,380.429688,516.350586,380.614258Q516.763672,380.798828,517.071289,381.106445Q517.378906,381.414062,517.563477,381.827148Q517.748047,382.240234,517.748047,382.697266ZM544.572266,378.583984Q544.572266,379.234375,544.422852,379.955078Q544.2734379999999,380.67578100000003,543.948242,381.387695Q543.623047,382.099609,543.12207,382.75Q542.621094,383.400391,541.90918,383.901367Q541.197266,384.40234399999997,540.265625,384.701172Q539.333984,385,538.173828,385L521.421875,385L521.421875,380.429688L538.173828,380.429688Q539.035156,380.429688,539.500977,379.90234399999997Q539.966797,379.375,539.966797,378.583984L539.966797,376.544922Q539.966797,375.648438,539.509766,375.173828Q539.052734,374.69921899999997,538.138672,374.69921899999997L527.837891,374.69921899999997Q526.0625,374.69921899999997,524.84082,374.057617Q523.619141,373.416016,522.863281,372.44921899999997Q522.107422,371.482422,521.764648,370.357422Q521.421875,369.232422,521.421875,368.265625L521.421875,359.79296899999997L542.480469,359.79296899999997L542.480469,364.36328100000003L525.9921879999999,364.36328100000003L525.9921879999999,368.265625Q525.9921879999999,369.179688,526.466797,369.63671899999997Q526.941406,370.09375,527.837891,370.09375L538.173828,370.09375Q539.123047,370.09375,540.248047,370.436523Q541.373047,370.779297,542.331055,371.543945Q543.2890620000001,372.30859399999997,543.930664,373.539062Q544.572266,374.76953100000003,544.572266,376.544922L544.572266,378.583984Z" fill="#FFFFFF" fill-opacity="1"/></g><g><path d="M523.7148438,447.09375L535.878906,447.09375Q536.845703,447.09375,537.961914,447.436523Q539.078125,447.779297,540.044922,448.543945Q541.011719,449.30859399999997,541.65332,450.539062Q542.294922,451.76953100000003,542.294922,453.544922L542.294922,455.583984Q542.294922,456.234375,542.145508,456.955078Q541.996094,457.67578100000003,541.670898,458.387695Q541.345703,459.099609,540.844727,459.75Q540.34375,460.400391,539.631836,460.901367Q538.919922,461.40234399999997,537.988281,461.701172Q537.056641,462,535.878906,462L527.599609,462Q526.7558594,462,525.7978516,461.806641Q524.8398438,461.61328100000003,523.9082031,461.182617Q522.9765625,460.751953,522.1064453,460.092773Q521.2363281,459.43359399999997,520.5859375,458.493164Q519.9355469,457.552734,519.5400391,456.322266Q519.1445312,455.091797,519.1445312,453.544922L519.1445312,445.265625Q519.1445312,443.71875,519.5400391,442.48828100000003Q519.9355469,441.257812,520.5859375,440.317383Q521.2363281,439.376953,522.1064453,438.708984Q522.9765625,438.041016,523.9082031,437.610352Q524.8398438,437.179688,525.7978516,436.986328Q526.7558594,436.79296899999997,527.599609,436.79296899999997L539.060547,436.79296899999997L539.060547,441.36328100000003L527.599609,441.36328100000003Q526.7207031,441.43359399999997,526.0087891,441.732422Q525.296875,442.03125,524.7871094,442.523438Q524.2773438,443.015625,523.9960938,443.709961Q523.7148438,444.404297,523.7148438,445.265625L523.7148438,447.09375ZM523.7148438,451.69921899999997L523.7148438,453.544922Q523.7148438,454.44140600000003,524.0224609,455.15332Q524.3300781,455.865234,524.8574219,456.375Q525.3847656,456.884766,526.0966797,457.157227Q526.8085938,457.429688,527.634766,457.429688L535.878906,457.429688Q536.7578120000001,457.429688,537.223633,456.90234399999997Q537.689453,456.375,537.689453,455.583984L537.689453,453.544922Q537.689453,452.648438,537.232422,452.173828Q536.775391,451.69921899999997,535.84375,451.69921899999997L523.7148438,451.69921899999997ZM549.748047,459.697266Q549.748047,460.171875,549.563477,460.584961Q549.378906,460.998047,549.071289,461.305664Q548.763672,461.61328100000003,548.350586,461.789062Q547.9375,461.96484399999997,547.480469,461.96484399999997Q547.005859,461.96484399999997,546.592773,461.789062Q546.1796879999999,461.61328100000003,545.87207,461.305664Q545.564453,460.998047,545.388672,460.584961Q545.212891,460.171875,545.212891,459.697266Q545.212891,459.240234,545.388672,458.827148Q545.564453,458.414062,545.87207,458.106445Q546.1796879999999,457.798828,546.592773,457.614258Q547.005859,457.429688,547.480469,457.429688Q547.9375,457.429688,548.350586,457.614258Q548.763672,457.798828,549.071289,458.106445Q549.378906,458.414062,549.563477,458.827148Q549.748047,459.240234,549.748047,459.697266ZM572.7578120000001,437.953125Q573.056641,438.498047,573.056641,439.104492Q573.056641,439.710938,572.7578120000001,440.255859L560.083984,462L554.792969,462L566.78125,441.36328100000003L551.980469,441.36328100000003L551.980469,436.79296899999997L570.771484,436.79296899999997Q571.386719,436.79296899999997,571.922852,437.100586Q572.458984,437.408203,572.7578120000001,437.953125ZM599.283203,455.583984Q599.283203,456.234375,599.133789,456.955078Q598.984375,457.67578100000003,598.65918,458.387695Q598.333984,459.099609,597.8330080000001,459.75Q597.332031,460.400391,596.6201169999999,460.901367Q595.908203,461.40234399999997,594.9765620000001,461.701172Q594.044922,462,592.884766,462L576.1328120000001,462L576.1328120000001,457.429688L592.884766,457.429688Q593.746094,457.429688,594.211914,456.90234399999997Q594.677734,456.375,594.677734,455.583984L594.677734,453.544922Q594.677734,452.648438,594.220703,452.173828Q593.763672,451.69921899999997,592.849609,451.69921899999997L582.548828,451.69921899999997Q580.7734379999999,451.69921899999997,579.551758,451.057617Q578.330078,450.416016,577.574219,449.44921899999997Q576.818359,448.482422,576.475586,447.357422Q576.1328120000001,446.232422,576.1328120000001,445.265625L576.1328120000001,436.79296899999997L597.191406,436.79296899999997L597.191406,441.36328100000003L580.703125,441.36328100000003L580.703125,445.265625Q580.703125,446.179688,581.177734,446.63671899999997Q581.652344,447.09375,582.548828,447.09375L592.884766,447.09375Q593.833984,447.09375,594.958984,447.436523Q596.083984,447.779297,597.0419919999999,448.543945Q598,449.30859399999997,598.641602,450.539062Q599.283203,451.76953100000003,599.283203,453.544922L599.283203,455.583984Z" fill="#FFFFFF" fill-opacity="1"/></g><g><path d="M607.7148438,524.09375L619.878906,524.09375Q620.845703,524.09375,621.961914,524.436523Q623.078125,524.779297,624.044922,525.543945Q625.011719,526.308594,625.65332,527.5390620000001Q626.294922,528.769531,626.294922,530.544922L626.294922,532.583984Q626.294922,533.234375,626.145508,533.955078Q625.996094,534.675781,625.670898,535.387695Q625.345703,536.099609,624.844727,536.75Q624.34375,537.400391,623.631836,537.901367Q622.919922,538.402344,621.988281,538.701172Q621.056641,539,619.878906,539L611.599609,539Q610.7558594,539,609.7978516,538.806641Q608.8398438,538.613281,607.9082031,538.182617Q606.9765625,537.751953,606.1064453,537.092773Q605.2363281,536.433594,604.5859375,535.493164Q603.9355469,534.552734,603.5400391,533.322266Q603.1445312,532.091797,603.1445312,530.544922L603.1445312,522.265625Q603.1445312,520.71875,603.5400391,519.488281Q603.9355469,518.257812,604.5859375,517.317383Q605.2363281,516.376953,606.1064453,515.708984Q606.9765625,515.041016,607.9082031,514.610352Q608.8398438,514.179688,609.7978516,513.986328Q610.7558594,513.792969,611.599609,513.792969L623.060547,513.792969L623.060547,518.363281L611.599609,518.363281Q610.7207031,518.433594,610.0087891,518.732422Q609.296875,519.03125,608.7871094,519.5234379999999Q608.2773438,520.015625,607.9960938,520.709961Q607.7148438,521.404297,607.7148438,522.265625L607.7148438,524.09375ZM607.7148438,528.699219L607.7148438,530.544922Q607.7148438,531.441406,608.0224609,532.15332Q608.3300781,532.865234,608.8574219,533.375Q609.3847656,533.884766,610.0966797,534.157227Q610.8085938,534.4296879999999,611.634766,534.4296879999999L619.878906,534.4296879999999Q620.7578120000001,534.4296879999999,621.223633,533.902344Q621.689453,533.375,621.689453,532.583984L621.689453,530.544922Q621.689453,529.6484379999999,621.232422,529.173828Q620.775391,528.699219,619.84375,528.699219L607.7148438,528.699219ZM633.748047,536.697266Q633.748047,537.171875,633.563477,537.584961Q633.378906,537.998047,633.071289,538.305664Q632.763672,538.613281,632.350586,538.7890620000001Q631.9375,538.964844,631.480469,538.964844Q631.005859,538.964844,630.592773,538.7890620000001Q630.1796879999999,538.613281,629.87207,538.305664Q629.564453,537.998047,629.388672,537.584961Q629.212891,537.171875,629.212891,536.697266Q629.212891,536.240234,629.388672,535.827148Q629.564453,535.4140620000001,629.87207,535.106445Q630.1796879999999,534.798828,630.592773,534.614258Q631.005859,534.4296879999999,631.480469,534.4296879999999Q631.9375,534.4296879999999,632.350586,534.614258Q632.763672,534.798828,633.071289,535.106445Q633.378906,535.4140620000001,633.563477,535.827148Q633.748047,536.240234,633.748047,536.697266ZM636.296875,522.265625L636.296875,520.208984Q636.296875,519.576172,636.446289,518.84668Q636.595703,518.117188,636.912109,517.405273Q637.228516,516.693359,637.738281,516.042969Q638.248047,515.392578,638.959961,514.891602Q639.671875,514.390625,640.603516,514.091797Q641.535156,513.792969,642.712891,513.792969L650.957031,513.792969Q651.800781,513.792969,652.767578,513.986328Q653.734375,514.179688,654.674805,514.610352Q655.615234,515.041016,656.4765620000001,515.708984Q657.337891,516.376953,657.99707,517.317383Q658.65625,518.257812,659.051758,519.488281Q659.447266,520.71875,659.447266,522.265625L659.447266,530.544922Q659.447266,532.091797,659.051758,533.322266Q658.65625,534.552734,657.99707,535.493164Q657.337891,536.433594,656.4765620000001,537.092773Q655.615234,537.751953,654.674805,538.182617Q653.734375,538.613281,652.767578,538.806641Q651.800781,539,650.957031,539L639.548828,539L639.548828,534.4296879999999L650.957031,534.4296879999999Q651.818359,534.359375,652.530273,534.078125Q653.2421879999999,533.796875,653.760742,533.313477Q654.279297,532.830078,654.560547,532.135742Q654.841797,531.441406,654.841797,530.544922L654.841797,528.699219L642.712891,528.699219Q642.0625,528.699219,641.341797,528.549805Q640.621094,528.400391,639.90918,528.075195Q639.197266,527.75,638.546875,527.249023Q637.896484,526.748047,637.395508,526.027344Q636.894531,525.306641,636.595703,524.375Q636.296875,523.443359,636.296875,522.265625ZM654.841797,522.265625Q654.841797,521.369141,654.542969,520.6484379999999Q654.244141,519.927734,653.725586,519.417969Q653.207031,518.908203,652.495117,518.635742Q651.783203,518.363281,650.957031,518.363281L642.712891,518.363281Q641.869141,518.363281,641.368164,518.890625Q640.8671879999999,519.417969,640.8671879999999,520.208984L640.8671879999999,522.265625Q640.8671879999999,523.162109,641.341797,523.62793Q641.816406,524.09375,642.748047,524.09375L654.841797,524.09375L654.841797,522.265625Z" fill="#FFFFFF" fill-opacity="1"/></g><g><path d="M697.955078,591.953125Q698.253906,592.498047,698.253906,593.104492Q698.253906,593.710938,697.955078,594.255859L685.28125,616L679.9902344,616L691.978516,595.363281L677.1777344,595.363281L677.1777344,590.792969L695.96875,590.792969Q696.583984,590.792969,697.120117,591.100586Q697.65625,591.408203,697.955078,591.953125ZM703.5625,613.697266Q703.5625,614.171875,703.37793,614.584961Q703.193359,614.998047,702.885742,615.305664Q702.578125,615.613281,702.165039,615.7890620000001Q701.751953,615.964844,701.294922,615.964844Q700.8203120000001,615.964844,700.407227,615.7890620000001Q699.994141,615.613281,699.686523,615.305664Q699.378906,614.998047,699.203125,614.584961Q699.027344,614.171875,699.027344,613.697266Q699.027344,613.240234,699.203125,612.827148Q699.378906,612.4140620000001,699.686523,612.106445Q699.994141,611.798828,700.407227,611.614258Q700.8203120000001,611.4296879999999,701.294922,611.4296879999999Q701.751953,611.4296879999999,702.165039,611.614258Q702.578125,611.798828,702.885742,612.106445Q703.193359,612.4140620000001,703.37793,612.827148Q703.5625,613.240234,703.5625,613.697266ZM714.390625,616L709.802734,616L709.802734,595.363281L705.671875,595.363281L705.671875,590.792969L714.390625,590.792969L714.390625,616Z" fill="#FFFFFF" fill-opacity="1"/></g><g><path d="M326.40625,147.203125Q326.40625,148.375,326.095703,149.412109Q325.78515600000003,150.449219,325.216797,151.292969Q324.648438,152.136719,323.845703,152.769531Q323.04296899999997,153.402344,322.05859399999997,153.765625L325.62109399999997,156.589844L321.203125,156.589844L318.273438,154.234375L315.2734375,154.234375Q313.7617188,154.234375,312.4726562,153.712891Q311.1835938,153.191406,310.2460938,152.253906Q309.3085938,151.316406,308.7753906,150.027344Q308.2421875,148.738281,308.2421875,147.203125L308.2421875,143.992188Q308.2421875,142.46875,308.7753906,141.17382800000001Q309.3085938,139.8789062,310.2460938,138.9472656Q311.1835938,138.015625,312.4726562,137.4882812Q313.7617188,136.9609375,315.2734375,136.9609375L319.398438,136.9609375Q320.91015600000003,136.9609375,322.193359,137.4882812Q323.476562,138.015625,324.414062,138.9472656Q325.351562,139.8789062,325.87890600000003,141.17382800000001Q326.40625,142.46875,326.40625,143.992188L326.40625,147.203125ZM323.359375,143.992188Q323.359375,143.089844,323.072266,142.35742199999999Q322.78515600000003,141.625,322.263672,141.103516Q321.742188,140.582031,321.009766,140.29492199999999Q320.27734399999997,140.007812,319.398438,140.007812L315.2734375,140.007812Q314.3828125,140.007812,313.6503906,140.29492199999999Q312.9179688,140.582031,312.390625,141.103516Q311.8632812,141.625,311.5761719,142.35742199999999Q311.2890625,143.089844,311.2890625,143.992188L311.2890625,147.203125Q311.2890625,148.105469,311.5761719,148.837891Q311.8632812,149.570312,312.390625,150.09179699999999Q312.9179688,150.613281,313.6503906,150.900391Q314.3828125,151.1875,315.2734375,151.1875L319.375,151.1875Q320.265625,151.1875,320.998047,150.900391Q321.73046899999997,150.613281,322.257812,150.09179699999999Q322.78515600000003,149.570312,323.072266,148.837891Q323.359375,148.105469,323.359375,147.203125L323.359375,143.992188ZM345.882812,152.464844Q345.882812,152.792969,345.765625,153.074219Q345.648438,153.355469,345.4375,153.56054699999999Q345.226562,153.765625,344.945312,153.882812Q344.664062,154,344.34765600000003,154L337.48046899999997,154Q336.507812,154,335.51171899999997,153.789062Q334.515625,153.578125,333.583984,153.13867199999999Q332.65234399999997,152.699219,331.83203100000003,152.019531Q331.01171899999997,151.339844,330.396484,150.40820300000001Q329.78125,149.476562,329.429688,148.275391Q329.078125,147.074219,329.078125,145.597656L329.078125,137.1953125L332.125,137.1953125L332.125,145.597656Q332.125,146.886719,332.482422,147.777344Q332.83984399999997,148.667969,333.390625,149.265625Q333.94140600000003,149.863281,334.59765600000003,150.203125Q335.25390600000003,150.542969,335.845703,150.707031Q336.4375,150.871094,336.888672,150.912109Q337.33984399999997,150.953125,337.48046899999997,150.953125L342.835938,150.953125L342.835938,137.1953125L345.882812,137.1953125L345.882812,152.464844ZM365.91015600000003,154L362.86328100000003,154L362.86328100000003,149.875L352.15234399999997,149.875L352.15234399999997,154L349.10546899999997,154L349.10546899999997,145.597656Q349.10546899999997,143.757812,349.73828100000003,142.210938Q350.37109399999997,140.664062,351.49609399999997,139.5507812Q352.62109399999997,138.4375,354.15625,137.8164062Q355.69140600000003,137.1953125,357.507812,137.1953125L364.375,137.1953125Q364.69140600000003,137.1953125,364.97265600000003,137.3125Q365.25390600000003,137.4296875,365.46484399999997,137.640625Q365.67578100000003,137.8515625,365.79296899999997,138.1328125Q365.91015600000003,138.4140625,365.91015600000003,138.7304688L365.91015600000003,154ZM352.15234399999997,146.828125L362.86328100000003,146.828125L362.86328100000003,140.242188L357.507812,140.242188Q357.367188,140.242188,356.916016,140.28320300000001Q356.46484399999997,140.324219,355.873047,140.488281Q355.28125,140.652344,354.625,140.992188Q353.96875,141.332031,353.41796899999997,141.929688Q352.867188,142.527344,352.509766,143.42382800000001Q352.15234399999997,144.320312,352.15234399999997,145.597656L352.15234399999997,146.828125Z" fill="#FFFFFF" fill-opacity="1"/></g><g><path d="M242.5625,218.84375Q242.5625,219.886719,242.304688,220.707031Q242.046875,221.527344,241.60742199999999,222.15429699999999Q241.167969,222.78125,240.59375,223.226562Q240.019531,223.671875,239.39257800000001,223.958984Q238.765625,224.246094,238.12695300000001,224.375Q237.488281,224.503906,236.925781,224.503906L243.289062,230L238.578125,230L232.2265625,224.503906L230.0351562,224.503906L230.0351562,221.457031L236.925781,221.457031Q237.5,221.410156,237.974609,221.21679699999999Q238.449219,221.023438,238.79492199999999,220.695312Q239.140625,220.367188,239.328125,219.90429699999999Q239.515625,219.441406,239.515625,218.84375L239.515625,216.921875Q239.515625,216.664062,239.45117199999999,216.52929699999999Q239.386719,216.394531,239.287109,216.33007800000001Q239.1875,216.265625,239.07617199999999,216.253906Q238.964844,216.242188,238.871094,216.242188L228.8164062,216.242188L228.8164062,230L225.7695312,230L225.7695312,214.7304688Q225.7695312,214.4140625,225.8867188,214.1328125Q226.0039062,213.8515625,226.2089844,213.640625Q226.4140625,213.4296875,226.6953125,213.3125Q226.9765625,213.1953125,227.3046875,213.1953125L238.871094,213.1953125Q239.890625,213.1953125,240.59375,213.5644531Q241.296875,213.9335938,241.73632800000001,214.4902344Q242.175781,215.046875,242.369141,215.6914062Q242.5625,216.335938,242.5625,216.898438L242.5625,218.84375ZM263.257812,223.203125Q263.257812,224.738281,262.73046899999997,226.027344Q262.203125,227.316406,261.265625,228.253906Q260.328125,229.191406,259.044922,229.712891Q257.76171899999997,230.234375,256.25,230.234375L252.125,230.234375Q250.613281,230.234375,249.324219,229.712891Q248.035156,229.191406,247.097656,228.253906Q246.160156,227.316406,245.62695300000001,226.027344Q245.09375,224.738281,245.09375,223.203125L245.09375,219.992188Q245.09375,218.46875,245.62695300000001,217.17382800000001Q246.160156,215.8789062,247.097656,214.9472656Q248.035156,214.015625,249.324219,213.4882812Q250.613281,212.9609375,252.125,212.9609375L256.25,212.9609375Q257.76171899999997,212.9609375,259.044922,213.4882812Q260.328125,214.015625,261.265625,214.9472656Q262.203125,215.8789062,262.73046899999997,217.17382800000001Q263.257812,218.46875,263.257812,219.992188L263.257812,223.203125ZM260.210938,219.992188Q260.210938,219.089844,259.923828,218.35742199999999Q259.63671899999997,217.625,259.115234,217.103516Q258.59375,216.582031,257.861328,216.29492199999999Q257.12890600000003,216.007812,256.25,216.007812L252.125,216.007812Q251.234375,216.007812,250.50195300000001,216.29492199999999Q249.769531,216.582031,249.242188,217.103516Q248.714844,217.625,248.427734,218.35742199999999Q248.140625,219.089844,248.140625,219.992188L248.140625,223.203125Q248.140625,224.105469,248.427734,224.837891Q248.714844,225.570312,249.242188,226.09179699999999Q249.769531,226.613281,250.50195300000001,226.900391Q251.234375,227.1875,252.125,227.1875L256.226562,227.1875Q257.117188,227.1875,257.849609,226.900391Q258.58203100000003,226.613281,259.109375,226.09179699999999Q259.63671899999997,225.570312,259.923828,224.837891Q260.210938,224.105469,260.210938,223.203125L260.210938,219.992188ZM280.12109399999997,225.722656Q280.12109399999997,226.90625,279.693359,227.72070300000001Q279.265625,228.535156,278.626953,229.04492199999999Q277.98828100000003,229.554688,277.23828100000003,229.777344Q276.48828100000003,230,275.84375,230L266.070312,230L266.070312,226.953125L275.84375,226.953125Q276.46484399999997,226.953125,276.763672,226.636719Q277.0625,226.320312,277.0625,225.722656L277.0625,223.132812L266.070312,223.132812L266.070312,220.0625L277.0625,220.0625L277.0625,217.496094Q277.0625,216.242188,275.84375,216.242188L266.070312,216.242188L266.070312,213.1953125L275.84375,213.1953125Q276.62890600000003,213.1953125,277.25,213.3945312Q277.87109399999997,213.59375,278.345703,213.9277344Q278.820312,214.2617188,279.16015600000003,214.6953125Q279.5,215.1289062,279.710938,215.6035156Q279.921875,216.078125,280.021484,216.56445300000001Q280.12109399999997,217.050781,280.12109399999997,217.472656L280.12109399999997,225.722656ZM298.4375,230L283.00390600000003,230L283.00390600000003,224.363281Q283.00390600000003,223.929688,283.103516,223.443359Q283.203125,222.957031,283.414062,222.476562Q283.625,221.996094,283.958984,221.5625Q284.29296899999997,221.128906,284.767578,220.79492199999999Q285.242188,220.460938,285.86328100000003,220.261719Q286.484375,220.0625,287.26953100000003,220.0625L294.13671899999997,220.0625Q294.757812,220.0625,295.056641,219.75195300000001Q295.35546899999997,219.441406,295.35546899999997,218.84375L295.35546899999997,217.496094Q295.35546899999997,216.875,295.05078100000003,216.558594Q294.74609399999997,216.242188,294.16015600000003,216.242188L284.375,216.242188L284.375,213.1953125L294.16015600000003,213.1953125Q294.93359399999997,213.1953125,295.554688,213.3945312Q296.17578100000003,213.59375,296.650391,213.9277344Q297.125,214.2617188,297.46484399999997,214.6953125Q297.804688,215.1289062,298.021484,215.6035156Q298.23828100000003,216.078125,298.337891,216.56445300000001Q298.4375,217.050781,298.4375,217.472656L298.4375,218.84375Q298.4375,220.027344,298.009766,220.84179699999999Q297.58203100000003,221.65625,296.9375,222.166016Q296.29296899999997,222.675781,295.548828,222.90429699999999Q294.804688,223.132812,294.16015600000003,223.132812L287.26953100000003,223.132812Q286.89453100000003,223.132812,286.671875,223.238281Q286.44921899999997,223.34375,286.326172,223.519531Q286.203125,223.695312,286.14453100000003,223.917969Q286.085938,224.140625,286.05078100000003,224.363281L286.05078100000003,226.953125L298.4375,226.953125L298.4375,230Z" fill="#FFFFFF" fill-opacity="1"/></g><g><path d="M352.5625,296.84375Q352.5625,297.88671899999997,352.304688,298.70703100000003Q352.046875,299.52734399999997,351.607422,300.154297Q351.16796899999997,300.78125,350.59375,301.226562Q350.01953100000003,301.671875,349.392578,301.958984Q348.765625,302.24609399999997,348.126953,302.375Q347.48828100000003,302.50390600000003,346.92578100000003,302.50390600000003L353.289062,308L348.578125,308L342.2265625,302.50390600000003L340.0351562,302.50390600000003L340.0351562,299.45703100000003L346.92578100000003,299.45703100000003Q347.5,299.41015600000003,347.974609,299.216797Q348.44921899999997,299.023438,348.794922,298.695312Q349.140625,298.367188,349.328125,297.904297Q349.515625,297.44140600000003,349.515625,296.84375L349.515625,294.921875Q349.515625,294.664062,349.451172,294.529297Q349.38671899999997,294.39453100000003,349.287109,294.330078Q349.1875,294.265625,349.076172,294.25390600000003Q348.96484399999997,294.242188,348.87109399999997,294.242188L338.8164062,294.242188L338.8164062,308L335.7695312,308L335.7695312,292.7304688Q335.7695312,292.4140625,335.8867188,292.1328125Q336.0039062,291.8515625,336.2089844,291.640625Q336.4140625,291.4296875,336.6953125,291.3125Q336.9765625,291.1953125,337.3046875,291.1953125L348.87109399999997,291.1953125Q349.890625,291.1953125,350.59375,291.5644531Q351.296875,291.9335938,351.736328,292.4902344Q352.17578100000003,293.046875,352.369141,293.6914062Q352.5625,294.335938,352.5625,294.898438L352.5625,296.84375ZM373.257812,301.203125Q373.257812,302.73828100000003,372.73046899999997,304.02734399999997Q372.203125,305.31640600000003,371.265625,306.25390600000003Q370.328125,307.19140600000003,369.044922,307.712891Q367.76171899999997,308.234375,366.25,308.234375L362.125,308.234375Q360.61328100000003,308.234375,359.32421899999997,307.712891Q358.03515600000003,307.19140600000003,357.09765600000003,306.25390600000003Q356.16015600000003,305.31640600000003,355.626953,304.02734399999997Q355.09375,302.73828100000003,355.09375,301.203125L355.09375,297.992188Q355.09375,296.46875,355.626953,295.173828Q356.16015600000003,293.8789062,357.09765600000003,292.9472656Q358.03515600000003,292.015625,359.32421899999997,291.4882812Q360.61328100000003,290.9609375,362.125,290.9609375L366.25,290.9609375Q367.76171899999997,290.9609375,369.044922,291.4882812Q370.328125,292.015625,371.265625,292.9472656Q372.203125,293.8789062,372.73046899999997,295.173828Q373.257812,296.46875,373.257812,297.992188L373.257812,301.203125ZM370.210938,297.992188Q370.210938,297.08984399999997,369.923828,296.357422Q369.63671899999997,295.625,369.115234,295.103516Q368.59375,294.58203100000003,367.861328,294.294922Q367.12890600000003,294.007812,366.25,294.007812L362.125,294.007812Q361.234375,294.007812,360.501953,294.294922Q359.76953100000003,294.58203100000003,359.242188,295.103516Q358.71484399999997,295.625,358.427734,296.357422Q358.140625,297.08984399999997,358.140625,297.992188L358.140625,301.203125Q358.140625,302.10546899999997,358.427734,302.837891Q358.71484399999997,303.570312,359.242188,304.091797Q359.76953100000003,304.61328100000003,360.501953,304.900391Q361.234375,305.1875,362.125,305.1875L366.226562,305.1875Q367.117188,305.1875,367.849609,304.900391Q368.58203100000003,304.61328100000003,369.109375,304.091797Q369.63671899999997,303.570312,369.923828,302.837891Q370.210938,302.10546899999997,370.210938,301.203125L370.210938,297.992188ZM380.96875,308L377.91015600000003,308L377.91015600000003,294.242188L375.15625,294.242188L375.15625,291.1953125L380.96875,291.1953125L380.96875,308ZM387.30859399999997,298.0625L395.41796899999997,298.0625Q396.0625,298.0625,396.806641,298.291016Q397.55078100000003,298.51953100000003,398.195312,299.029297Q398.83984399999997,299.539062,399.267578,300.359375Q399.695312,301.179688,399.695312,302.36328100000003L399.695312,303.72265600000003Q399.695312,304.15625,399.595703,304.63671899999997Q399.49609399999997,305.117188,399.279297,305.591797Q399.0625,306.06640600000003,398.728516,306.5Q398.39453100000003,306.93359399999997,397.919922,307.267578Q397.445312,307.601562,396.82421899999997,307.80078100000003Q396.203125,308,395.41796899999997,308L389.898438,308Q389.335938,308,388.697266,307.87109399999997Q388.05859399999997,307.742188,387.4375,307.455078Q386.81640600000003,307.16796899999997,386.236328,306.728516Q385.65625,306.289062,385.22265600000003,305.662109Q384.789062,305.03515600000003,384.525391,304.21484399999997Q384.26171899999997,303.39453100000003,384.26171899999997,302.36328100000003L384.26171899999997,296.84375Q384.26171899999997,295.8125,384.525391,294.992188Q384.789062,294.171875,385.22265600000003,293.5449219Q385.65625,292.9179688,386.236328,292.4726562Q386.81640600000003,292.0273438,387.4375,291.7402344Q388.05859399999997,291.453125,388.697266,291.3242188Q389.335938,291.1953125,389.898438,291.1953125L397.539062,291.1953125L397.539062,294.242188L389.898438,294.242188Q389.3125,294.289062,388.837891,294.48828100000003Q388.36328100000003,294.6875,388.023438,295.015625Q387.68359399999997,295.34375,387.49609399999997,295.806641Q387.30859399999997,296.26953100000003,387.30859399999997,296.84375L387.30859399999997,298.0625ZM387.30859399999997,301.132812L387.30859399999997,302.36328100000003Q387.30859399999997,302.960938,387.513672,303.435547Q387.71875,303.91015600000003,388.070312,304.25Q388.421875,304.58984399999997,388.896484,304.771484Q389.37109399999997,304.953125,389.921875,304.953125L395.41796899999997,304.953125Q396.00390600000003,304.953125,396.314453,304.601562Q396.625,304.25,396.625,303.72265600000003L396.625,302.36328100000003Q396.625,301.765625,396.320312,301.44921899999997Q396.015625,301.132812,395.39453100000003,301.132812L387.30859399999997,301.132812Z" fill="#FFFFFF" fill-opacity="1"/></g><g><path d="M458.40625,378.203125Q458.40625,379.375,458.095703,380.412109Q457.78515600000003,381.44921899999997,457.216797,382.29296899999997Q456.648438,383.13671899999997,455.845703,383.76953100000003Q455.04296899999997,384.40234399999997,454.05859399999997,384.765625L457.62109399999997,387.58984399999997L453.203125,387.58984399999997L450.273438,385.234375L447.2734375,385.234375Q445.7617188,385.234375,444.4726562,384.712891Q443.1835938,384.19140600000003,442.2460938,383.25390600000003Q441.3085938,382.31640600000003,440.7753906,381.02734399999997Q440.2421875,379.73828100000003,440.2421875,378.203125L440.2421875,374.992188Q440.2421875,373.46875,440.7753906,372.173828Q441.3085938,370.8789062,442.2460938,369.9472656Q443.1835938,369.015625,444.4726562,368.4882812Q445.7617188,367.9609375,447.2734375,367.9609375L451.398438,367.9609375Q452.91015600000003,367.9609375,454.193359,368.4882812Q455.476562,369.015625,456.414062,369.9472656Q457.351562,370.8789062,457.87890600000003,372.173828Q458.40625,373.46875,458.40625,374.992188L458.40625,378.203125ZM455.359375,374.992188Q455.359375,374.08984399999997,455.072266,373.357422Q454.78515600000003,372.625,454.263672,372.103516Q453.742188,371.58203100000003,453.009766,371.294922Q452.27734399999997,371.007812,451.398438,371.007812L447.2734375,371.007812Q446.3828125,371.007812,445.6503906,371.294922Q444.9179688,371.58203100000003,444.390625,372.103516Q443.8632812,372.625,443.5761719,373.357422Q443.2890625,374.08984399999997,443.2890625,374.992188L443.2890625,378.203125Q443.2890625,379.10546899999997,443.5761719,379.837891Q443.8632812,380.570312,444.390625,381.091797Q444.9179688,381.61328100000003,445.6503906,381.900391Q446.3828125,382.1875,447.2734375,382.1875L451.375,382.1875Q452.265625,382.1875,452.998047,381.900391Q453.73046899999997,381.61328100000003,454.257812,381.091797Q454.78515600000003,380.570312,455.072266,379.837891Q455.359375,379.10546899999997,455.359375,378.203125L455.359375,374.992188ZM475.31640600000003,378.132812L465.68359399999997,378.132812L465.68359399999997,375.0625L475.31640600000003,375.0625L475.31640600000003,378.132812ZM476.67578100000003,371.242188L464.46484399999997,371.242188L464.46484399999997,385L461.41796899999997,385L461.41796899999997,369.7304688Q461.41796899999997,369.4140625,461.53515600000003,369.1328125Q461.65234399999997,368.8515625,461.857422,368.640625Q462.0625,368.4296875,462.34375,368.3125Q462.625,368.1953125,462.953125,368.1953125L476.67578100000003,368.1953125L476.67578100000003,371.242188Z" fill="#FFFFFF" fill-opacity="1"/></g><g><path d="M493.91796899999997,457.054688Q493.91796899999997,457.95703100000003,493.689453,458.677734Q493.460938,459.398438,493.085938,459.94921899999997Q492.710938,460.5,492.20703100000003,460.88671899999997Q491.703125,461.273438,491.164062,461.51953100000003Q490.625,461.765625,490.068359,461.882812Q489.51171899999997,462,489.01953100000003,462L477.265625,462L477.265625,458.953125L489.01953100000003,458.953125Q489.898438,458.953125,490.384766,458.4375Q490.87109399999997,457.921875,490.87109399999997,457.054688Q490.87109399999997,456.632812,490.742188,456.28125Q490.61328100000003,455.929688,490.373047,455.671875Q490.132812,455.414062,489.787109,455.273438Q489.44140600000003,455.132812,489.01953100000003,455.132812L482.0117188,455.132812Q481.2734375,455.132812,480.4179688,454.869141Q479.5625,454.60546899999997,478.8300781,454.01953100000003Q478.0976562,453.43359399999997,477.6113281,452.484375Q477.125,451.53515600000003,477.125,450.164062Q477.125,448.79296899999997,477.6113281,447.8496094Q478.0976562,446.90625,478.8300781,446.3144531Q479.5625,445.7226562,480.4179688,445.4589844Q481.2734375,445.1953125,482.0117188,445.1953125L492.382812,445.1953125L492.382812,448.242188L482.0117188,448.242188Q481.1445312,448.242188,480.6582031,448.76953100000003Q480.171875,449.296875,480.171875,450.164062Q480.171875,451.04296899999997,480.6582031,451.552734Q481.1445312,452.0625,482.0117188,452.0625L489.01953100000003,452.0625L489.04296899999997,452.0625Q489.53515600000003,452.07421899999997,490.085938,452.197266Q490.63671899999997,452.320312,491.181641,452.578125Q491.726562,452.835938,492.21875,453.228516Q492.710938,453.62109399999997,493.091797,454.171875Q493.47265600000003,454.72265600000003,493.695312,455.4375Q493.91796899999997,456.15234399999997,493.91796899999997,457.054688ZM510.34765600000003,455.132812L500.71484399999997,455.132812L500.71484399999997,452.0625L510.34765600000003,452.0625L510.34765600000003,455.132812ZM511.70703100000003,448.242188L499.49609399999997,448.242188L499.49609399999997,462L496.44921899999997,462L496.44921899999997,446.7304688Q496.44921899999997,446.4140625,496.56640600000003,446.1328125Q496.68359399999997,445.8515625,496.888672,445.640625Q497.09375,445.4296875,497.375,445.3125Q497.65625,445.1953125,497.984375,445.1953125L511.70703100000003,445.1953125L511.70703100000003,448.242188Z" fill="#FFFFFF" fill-opacity="1"/></g><g><path d="M590.667969,532.1328120000001L581.0351562,532.1328120000001L581.0351562,529.0625L590.667969,529.0625L590.667969,532.1328120000001ZM592.027344,525.242188L579.8164062,525.242188L579.8164062,539L576.7695312,539L576.7695312,523.7304688Q576.7695312,523.4140625,576.8867188,523.1328125Q577.0039062,522.8515625,577.2089844,522.640625Q577.4140625,522.4296875,577.6953125,522.3125Q577.9765625,522.1953125,578.3046875,522.1953125L592.027344,522.1953125L592.027344,525.242188Z" fill="#FFFFFF" fill-opacity="1"/></g><g><path d="M650.3515620000001,614.464844Q650.3515620000001,614.792969,650.234375,615.074219Q650.1171879999999,615.355469,649.912109,615.560547Q649.707031,615.765625,649.425781,615.8828120000001Q649.144531,616,648.816406,616L637.8242188,616Q637.4023438,616,636.9160156,615.900391Q636.4296875,615.800781,635.9550781,615.589844Q635.4804688,615.378906,635.046875,615.044922Q634.6132812,614.7109379999999,634.2792969,614.236328Q633.9453125,613.761719,633.7460938,613.134766Q633.546875,612.5078120000001,633.546875,611.722656L633.546875,603.472656Q633.546875,603.050781,633.6464844,602.564453Q633.7460938,602.078125,633.9570312,601.6035156Q634.1679688,601.1289062,634.5078125,600.6953125Q634.8476562,600.2617188,635.3222656,599.9277344Q635.796875,599.59375,636.4179688,599.3945312Q637.0390625,599.1953125,637.8242188,599.1953125L650.2109379999999,599.1953125L650.2109379999999,602.242188L637.8242188,602.242188Q637.2265625,602.242188,636.9101562,602.558594Q636.59375,602.875,636.59375,603.496094L636.59375,611.722656Q636.59375,612.308594,636.9160156,612.630859Q637.2382812,612.953125,637.8242188,612.953125L647.304688,612.953125L647.304688,609.1328120000001L639.1953125,609.1328120000001L639.1953125,606.0625L648.816406,606.0625Q649.144531,606.0625,649.425781,606.185547Q649.707031,606.308594,649.912109,606.519531Q650.1171879999999,606.730469,650.234375,607.005859Q650.3515620000001,607.28125,650.3515620000001,607.597656L650.3515620000001,614.464844ZM667.425781,609.1328120000001L657.792969,609.1328120000001L657.792969,606.0625L667.425781,606.0625L667.425781,609.1328120000001ZM668.785156,602.242188L656.574219,602.242188L656.574219,616L653.527344,616L653.527344,600.7304688Q653.527344,600.4140625,653.644531,600.1328125Q653.761719,599.8515625,653.966797,599.640625Q654.171875,599.4296875,654.453125,599.3125Q654.734375,599.1953125,655.0625,599.1953125L668.785156,599.1953125L668.785156,602.242188Z" fill="#FFFFFF" fill-opacity="1"/></g><g><path d="M930.023998,41.168003L959.039997,41.168003L959.039997,43.544003L930.023998,43.544003L930.023998,41.168003ZM930.023998,31.592003L959.039997,31.592003L959.039997,33.896004L930.023998,33.896004L930.023998,31.592003ZM919.728,23.744003L919.728,51.392002L922.391999,51.392002C919.799999,56.576,915.5519996,61.688004,911.0879998,65C913.5359998,66.440002,917.7839994,69.608002,919.799999,71.480003L922.176,69.176003L922.176,75.800003L939.959999,75.800003L939.959999,79.040001L913.0319996,79.040001L913.0319996,87.968002L977.255997,87.968002L977.255997,79.040001L950.831997,79.040001L950.831997,75.800003L969.191998,75.800003L969.191998,67.807999L950.831997,67.807999L950.831997,64.711998L972.575996,64.711998L972.575996,56.144001L950.831997,56.144001L950.831997,52.543999L939.959999,52.543999L939.959999,56.144001L931.679998,56.144001L933.191999,53.192001L926.927999,51.392002L969.911999,51.392002L969.911999,23.744003L919.728,23.744003ZM939.959999,67.807999L923.471999,67.807999L926.063999,64.711998L939.959999,64.711998L939.959999,67.807999ZM1006.4159999999999,66.727997C1005.335999,68.599998,1003.968002,70.255997,1002.528,71.839996L997.919998,69.536003L999.431999,66.727997L1006.4159999999999,66.727997ZM985.5360029999999,72.632004C988.631996,73.928001,992.015999,75.584,995.328003,77.311996C991.512001,79.472,987.120003,81.056,982.295998,82.064003C983.952003,83.935997,985.968002,87.608002,986.903999,89.912003C993.239998,88.183998,998.928001,85.664001,1003.6800000000001,82.208C1005.552002,83.431999,1007.279999,84.655998,1008.720001,85.736L1014.768,79.040001L1010.23199,76.160004C1013.832,71.839996,1016.56799,66.584,1018.3679999999999,60.104L1012.6800000000001,58.088001L1011.168,58.375999L1003.535995,58.375999L1004.472,56.144001L995.328003,54.416L993.671997,58.375999L984.959999,58.375999L984.959999,66.727997L989.351997,66.727997C988.056,68.888,986.760002,70.903999,985.5360029999999,72.632004ZM985.031998,25.400002C986.543999,27.992001,987.984001,31.376003,988.559998,33.824001L983.807999,33.824001L983.807999,41.960003L992.807999,41.960003C989.568001,44.768002,985.6080019999999,47.288002,981.935997,48.728001C983.807999,50.600002,986.040001,54.056,987.192001,56.288002C990.360001,54.487999,993.816002,51.968002,996.839996,49.16L996.839996,54.416L1006.4159999999999,54.416L1006.4159999999999,47.864002C1008.575996,49.736,1010.736,51.608002,1012.104,52.976002L1017.576,45.848003C1016.496,45.128002,1013.688,43.472,1010.88,41.960003L1019.52,41.960003L1019.52,33.824001L1012.968,33.824001C1014.768,31.736004,1017,28.568001,1019.52,25.400002L1010.736,22.016003C1009.728,24.608002,1007.928001,28.280003,1006.4159999999999,30.800003L1006.4159999999999,21.368004L996.839996,21.368004L996.839996,33.824001L990.360001,33.824001L996.624001,31.088001C996.047997,28.568001,994.248001,24.968002,992.447998,22.304001L985.031998,25.400002ZM1012.968,33.824001L1006.4159999999999,33.824001L1006.4159999999999,30.944004L1012.968,33.824001ZM1024.416,21.368004C1022.904,34.472004,1019.736,46.928001,1013.832,54.416C1015.92,55.856003,1019.736,59.312,1021.248,61.040001C1022.328,59.528,1023.408,57.872002,1024.34399,56.071999C1025.64,60.68,1027.08,65.071999,1028.88,69.031998C1025.28,74.576004,1020.168,78.751999,1013.184,81.776001C1014.912,83.720001,1017.6479899999999,88.112,1018.51199,90.272003C1024.992,87.103996,1030.032,83.071999,1033.992,78.104004C1037.088,82.568001,1040.8319999999999,86.239998,1045.368,89.192001C1046.88,86.599998,1049.90399,82.856003,1052.13599,80.984001C1047.02399,78.104004,1042.92,74,1039.67999,68.888C1042.84799,61.976002,1044.864,53.695999,1046.088,43.976002L1050.48,43.976002L1050.48,34.328003L1031.904,34.328003C1032.696,30.584003,1033.34399,26.696003,1033.92,22.736004L1024.416,21.368004ZM1036.51199,43.976002C1036.008,48.800003,1035.216,53.192001,1034.064,57.152C1032.62399,52.976002,1031.472,48.584,1030.608,43.976002L1036.51199,43.976002Z" fill="#FFFFFF" fill-opacity="1"/></g></g></svg>