<svg xmlns="http://www.w3.org/2000/svg" xmlns:xlink="http://www.w3.org/1999/xlink" fill="none" version="1.1" width="338.008056640625" height="20" viewBox="0 0 338.008056640625 20"><g><path d="M147.4917,18.762939L154.56274,11.691895L148.55237,5.6815186L154.23389,0L128.72876,0L134.41028,5.6815186L128.3999,11.691895L135.47095,18.762939L141.48132,12.752563L147.4917,18.762939ZM96.371094,0L122.39136,0L122.46265,0.071289062L116.45227,6.081665L122.46265,12.092041L115.3916,19.163086L109.38123,13.15271L103.37085,19.163086L96.299805,12.092041L102.31018,6.081665L96.299805,0.071289062L96.371094,0ZM64.671143,0L89.891602,0L90.362793,0.47119141L84.352417,6.4815674L90.362793,12.491943L83.291748,19.562988L77.281372,13.552612L71.270996,19.562988L64.199951,12.491943L70.210327,6.4815674L64.199951,0.47119141L64.671143,-5.5511151e-17L64.671143,0ZM32.971191,0L57.391357,0L58.262695,0.87133789L52.252197,6.8815918L58.262695,12.89209L51.19165,19.963135L45.181396,13.952881L39.170898,19.963135L32.099854,12.89209L38.110107,6.8815918L32.099854,0.87133789L32.971191,-3.3306691e-16L32.971191,0ZM13.291992,0L24.891602,0L26.162842,1.2712402L20.152466,7.2816162L26.162842,13.291992L19.454834,20L18.72876,20L13.081421,14.352661L7.434082,20L6.7080078,20L0,13.291992L6.010376,7.2816162L0,1.2712402L1.2712402,-2.220446e-16L12.87085,0L13.081421,0.21057129L13.291992,0ZM169.73389,20L168.20801,20L161.8999,13.691895L167.91028,7.6815186L161.8999,1.6711426L163.57104,-2.220446e-16L174.37085,0L174.98132,0.61047363L175.5918,0L186.3916,0L188.06274,1.6711426L182.05237,7.6815186L188.06274,13.691895L181.75464,20L180.22876,20L174.98132,14.752563L169.73389,20ZM322.72876,0L338.00806,0L338.00806,15.279297L335.48132,12.752563L329.47095,18.762939L322.3999,11.691895L328.41028,5.6815186L322.72876,-2.7755576e-16L322.72876,0ZM290.37109,0L316.39136,0L316.46265,0.071289062L310.45227,6.081665L316.46265,12.092041L309.3916,19.163086L303.38123,13.15271L297.37085,19.163086L290.2998,12.092041L296.31018,6.081665L290.2998,0.071289062L290.37109,0ZM258.67114,0L283.8916,0L284.36279,0.47119141L278.35242,6.4815674L284.36279,12.491943L277.29175,19.562988L271.28137,13.552612L265.271,19.562988L258.19995,12.491943L264.21033,6.4815674L258.19995,0.47119141L258.67114,-5.5511151e-17L258.67114,0ZM226.97119,0L251.39136,0L252.2627,0.87133789L246.2522,6.8815918L252.2627,12.89209L245.19165,19.963135L239.1814,13.952881L233.1709,19.963135L226.09985,12.89209L232.11011,6.8815918L226.09985,0.87133789L226.97119,-3.3306691e-16L226.97119,0Z" fill-rule="evenodd" fill="#FFFFFF" fill-opacity="1"/></g></svg>