<svg xmlns="http://www.w3.org/2000/svg" xmlns:xlink="http://www.w3.org/1999/xlink" fill="none" version="1.1" width="2362" height="3288" viewBox="0 0 2362 3288"><defs><clipPath id="master_svg0_28_259"><rect x="0" y="0" width="2362" height="3288" rx="0"/></clipPath></defs><g clip-path="url(#master_svg0_28_259)"><g transform="matrix(-0.7071067690849304,-0.7071067094802856,0.7071067094802856,-0.7071067690849304,1377.364451113448,5929.551116447867)"><rect x="1916.732421875" y="2679.51416015625" width="2030.431884765625" height="2688.11181640625" rx="0" fill="#292929" fill-opacity="1"/></g><g transform="matrix(-1,0,0,1,2820,0)"><rect x="1410" y="1842.968994140625" width="170" height="153" rx="0" fill="#E93B66" fill-opacity="1"/></g><g transform="matrix(-1,0,0,1,2036,0)"><rect x="1018" y="2844" width="182" height="94" rx="0" fill="#E93B66" fill-opacity="1"/></g><g transform="matrix(-1,0,0,1,3434,0)"><rect x="1717" y="3041" width="179" height="94" rx="0" fill="#E93B66" fill-opacity="1"/></g><g transform="matrix(-1,0,0,1,3076,0)"><rect x="1538" y="2426" width="459" height="94" rx="0" fill="#E93B66" fill-opacity="1"/></g><g transform="matrix(-1,0,0,1,2590,0)"><rect x="1295" y="2184" width="37" height="555" rx="0" fill="#E93B66" fill-opacity="1"/></g><g transform="matrix(-1,0,0,1,3614,0)"><rect x="1807" y="2023" width="417" height="11" rx="0" fill="#E93B66" fill-opacity="1"/></g><g transform="matrix(-1,0,0,1,2958,0)"><rect x="1479" y="2426" width="221" height="73" rx="0" fill="#3D3D3D" fill-opacity="1"/></g><g transform="matrix(-1,0,0,1,3218,0)"><rect x="1609" y="2645" width="221" height="73" rx="0" fill="#3D3D3D" fill-opacity="1"/></g><g transform="matrix(-1,0,0,1,1258,0)"><rect x="629" y="1266" width="297" height="146" rx="0" fill="#3D3D3D" fill-opacity="1"/></g><g transform="matrix(-1,0,0,1,1678,0)"><rect x="839" y="1388" width="297" height="48" rx="0" fill="#3D3D3D" fill-opacity="1"/></g><g transform="matrix(-1,0,0,1,2218,0)"><rect x="1109" y="1821.968994140625" width="59" height="60" rx="0" fill="#3D3D3D" fill-opacity="1"/></g><g transform="matrix(-1,0,0,1,3268,0)"><rect x="1634" y="1804.968994140625" width="59" height="60" rx="0" fill="#3D3D3D" fill-opacity="1"/></g><g transform="matrix(-1,0,0,1,2626,0)"><rect x="1313" y="1918.969482421875" width="73" height="168" rx="0" fill="#3D3D3D" fill-opacity="1"/></g><g transform="matrix(-1,0,0,1,2108,0)"><rect x="1054" y="1412" width="262" height="168" rx="0" fill="#3D3D3D" fill-opacity="1"/></g><g transform="matrix(-0.7071067690849304,-0.7071067094802856,0.7071067094802856,-0.7071067690849304,-2694.0302499119134,6010.11210420022)"><rect x="-101.7802734375" y="3563.508056640625" width="58.0004997253418" height="1468.77587890625" rx="0" fill-opacity="0" stroke-opacity="1" stroke="#FFFFFF" fill="none" stroke-width="1"/></g><g transform="matrix(-0.7071067690849304,-0.7071067094802856,0.7071067094802856,-0.7071067690849304,501.4717084973745,3691.3414864232254)"><rect x="1015.2376708984375" y="1741.8126220703125" width="59.0001335144043" height="188.22225952148438" rx="0" fill="#FFFFFF" fill-opacity="1"/></g><g transform="matrix(-0.7071067690849304,-0.7071067094802856,0.7071067094802856,-0.7071067690849304,493.95476903959207,3861.402911262412)"><rect x="1046.7000732421875" y="1828.400146484375" width="59.00012969970703" height="111.03276824951172" rx="0" fill="#FFFFFF" fill-opacity="1"/></g><g transform="matrix(-0.7071067690849304,-0.7071067094802856,0.7071067094802856,-0.7071067690849304,688.1503611449589,3947.8406190485184)"><rect x="1161.69970703125" y="1831.3997802734375" width="59.00058364868164" height="200.37020874023438" rx="0" fill="#FFFFFF" fill-opacity="1"/></g><g transform="matrix(-0.7071067690849304,-0.7071067094802856,0.7071067094802856,-0.7071067690849304,882.346060511074,4034.2798361071764)"><rect x="1276.69970703125" y="1834.400146484375" width="59.0007438659668" height="47.898460388183594" rx="0" fill="#FFFFFF" fill-opacity="1"/></g><g transform="matrix(-0.7071067690849304,-0.7071067094802856,0.7071067094802856,-0.7071067690849304,2104.7652509504987,4521.422201288617)"><rect x="1988.7998046875" y="1824.800048828125" width="59.00012969970703" height="24.225635528564453" rx="0" fill="#FFFFFF" fill-opacity="1"/></g><g transform="matrix(-1,0,0,1,3530,0)"><rect x="1765" y="1933.968994140625" width="262" height="32" rx="0" fill="#3D3D3D" fill-opacity="1"/><rect x="1765.5" y="1934.468994140625" width="261" height="31" rx="0" fill-opacity="0" stroke-opacity="1" stroke="#7C7C7C" fill="none" stroke-width="1"/></g><g transform="matrix(-1,0,0,1,3434,0)"><rect x="1717" y="2560" width="181" height="65" rx="0" fill="#3D3D3D" fill-opacity="1"/></g><g transform="matrix(-1,0,0,1,3694,0)"><rect x="1847" y="2779" width="181" height="65" rx="0" fill="#3D3D3D" fill-opacity="1"/></g><g transform="matrix(-1,0,0,1,3158,0)"><rect x="1579" y="3023" width="181" height="65" rx="0" fill="#3D3D3D" fill-opacity="1"/></g><g transform="matrix(-1,0,0,1,2494,0)"><rect x="1247" y="3180" width="181" height="65" rx="0" fill="#3D3D3D" fill-opacity="1"/></g><g transform="matrix(-1,0,0,1,1874,0)"><rect x="937" y="2859" width="181" height="65" rx="0" fill="#3D3D3D" fill-opacity="1"/></g><g><rect x="2082" y="404" width="170" height="1401" rx="0" fill="#E93B66" fill-opacity="1"/></g><g><rect x="2113" y="948" width="221" height="73" rx="0" fill="#3D3D3D" fill-opacity="1"/></g><g><rect x="1891" y="660" width="297" height="146" rx="0" fill="#3D3D3D" fill-opacity="1"/></g><g><rect x="2007" y="519" width="181" height="65" rx="0" fill="#3D3D3D" fill-opacity="1"/></g><g><rect x="1966" y="1234" width="181" height="65" rx="0" fill="#3D3D3D" fill-opacity="1"/></g><g><rect x="2167" y="895" width="181" height="798" rx="0" fill="#3D3D3D" fill-opacity="1"/></g><g><rect x="1949" y="1496" width="181" height="798" rx="0" fill="#3D3D3D" fill-opacity="1"/></g><g><g><path d="M145,1734L150.6119404,1740.125L145,1746L155.38806,1746L161,1740.125L155.38806,1734L145,1734Z" fill="#FFFFFF" fill-opacity="1"/></g><g><path d="M162,1734L167.6119404,1740.125L162,1746L172.38806,1746L178,1740.125L172.38806,1734L162,1734Z" fill="#FFFFFF" fill-opacity="1"/></g><g><path d="M180,1734L185.6119404,1740.125L180,1746L190.38806,1746L196,1740.125L190.38806,1734L180,1734Z" fill="#FFFFFF" fill-opacity="1"/></g><g><path d="M197,1734L202.6119404,1740.125L197,1746L207.38806,1746L213,1740.125L207.38806,1734L197,1734Z" fill="#FFFFFF" fill-opacity="1"/></g></g><g transform="matrix(0,1,1,0,-100.75,100.75)" style="opacity:0.20000000298023224;"><g><path d="M1340,1670.75L1544.55313,1670.75L1655.05884,1558.14583L1544.55313,1440.75L1340,1440.75L1450.50571,1558.14583L1340,1670.75Z" fill="#FFFFFF" fill-opacity="1"/></g><g><path d="M2029.1912231445312,1670.75L2233.7443531445315,1670.75L2344.2500631445314,1558.14583L2233.7443531445315,1440.75L2029.1912231445312,1440.75L2139.696933144531,1558.14583L2029.1912231445312,1670.75Z" fill="#FFFFFF" fill-opacity="1"/></g></g><g><path d="M1277,985L1458,985L1458,1783L1277,1783L1277,985Z" fill="#3D3D3D" fill-opacity="1"/></g><g><rect x="1675" y="565" width="181" height="65" rx="0" fill="#3D3D3D" fill-opacity="1"/></g><g transform="matrix(0,1,-1,0,2369.0009765625,-2077.0009765625)"><line x1="2223.0009765625" y1="142" x2="5001.0009765625" y2="142" fill-opacity="0" stroke-opacity="1" stroke="#FFFFFF" fill="none" stroke-width="8"/></g></g></svg>