<svg xmlns="http://www.w3.org/2000/svg" xmlns:xlink="http://www.w3.org/1999/xlink" fill="none" version="1.1" width="2362" height="3288" viewBox="0 0 2362 3288"><defs><clipPath id="master_svg0_28_167"><rect x="0" y="0" width="2362" height="3288" rx="0"/></clipPath></defs><g clip-path="url(#master_svg0_28_167)"><g transform="matrix(-1,0,0,1,2820,0)"><rect x="1410" y="1842.968994140625" width="170" height="153" rx="0" fill="#E93B66" fill-opacity="1"/></g><g transform="matrix(-0.7071067690849304,-0.7071067094802856,0.7071067094802856,-0.7071067690849304,-1604.3700331012078,4774.171191633839)"><rect x="186.578125" y="2719.361572265625" width="2030.431884765625" height="2688.112060546875" rx="0" fill="#3D3D3D" fill-opacity="1"/></g><g transform="matrix(-1,0,0,1,2418,0)"><rect x="1209" y="1876.968994140625" width="140" height="125" rx="0" fill="#E93B66" fill-opacity="1"/></g><g transform="matrix(-1,0,0,1,2060,0)"><rect x="1030" y="1911.968994140625" width="459" height="94" rx="0" fill="#E93B66" fill-opacity="1"/></g><g transform="matrix(-1,0,0,1,1080,0)"><rect x="540" y="1834.968994140625" width="459" height="94" rx="0" fill="#E93B66" fill-opacity="1"/></g><g transform="matrix(-1,0,0,1,3614,0)"><rect x="1807" y="2023" width="417" height="11" rx="0" fill="#E93B66" fill-opacity="1"/></g><g transform="matrix(-1,0,0,1,962,0)"><rect x="481" y="1835" width="221" height="73" rx="0" fill="#3D3D3D" fill-opacity="1"/></g><g transform="matrix(-1,0,0,1,1258,0)"><rect x="629" y="1266" width="297" height="146" rx="0" fill="#3D3D3D" fill-opacity="1"/></g><g transform="matrix(-1,0,0,1,1678,0)"><rect x="839" y="1388" width="297" height="48" rx="0" fill="#3D3D3D" fill-opacity="1"/></g><g transform="matrix(-1,0,0,1,2218,0)"><rect x="1109" y="1821.968994140625" width="59" height="60" rx="0" fill="#3D3D3D" fill-opacity="1"/></g><g transform="matrix(-1,0,0,1,3268,0)"><rect x="1634" y="1804.968994140625" width="59" height="60" rx="0" fill="#3D3D3D" fill-opacity="1"/></g><g transform="matrix(-1,0,0,1,2920,0)"><rect x="1460" y="1881.968994140625" width="501" height="60" rx="0" fill="#3D3D3D" fill-opacity="1"/><rect x="1460.5" y="1882.468994140625" width="500" height="59" rx="0" fill-opacity="0" stroke-opacity="1" stroke="#7B7B7B" fill="none" stroke-width="1"/></g><g transform="matrix(-1,0,0,1,2158,0)"><rect x="1079" y="1991.968994140625" width="120" height="42" rx="0" fill="#3D3D3D" fill-opacity="1"/></g><g transform="matrix(-1,0,0,1,1952,0)"><rect x="976" y="1970.968994140625" width="220" height="42" rx="0" fill="#3D3D3D" fill-opacity="1"/></g><g transform="matrix(-1,0,0,1,2626,0)"><rect x="1313" y="1918.969482421875" width="73" height="168" rx="0" fill="#3D3D3D" fill-opacity="1"/></g><g transform="matrix(-1,0,0,1,2108,0)"><rect x="1054" y="1412" width="262" height="168" rx="0" fill="#3D3D3D" fill-opacity="1"/></g><g transform="matrix(-0.7071067690849304,-0.7071067094802856,0.7071067094802856,-0.7071067690849304,105.64416549778252,3688.421957282182)"><rect x="816.71923828125" y="1822.3314208984375" width="59.00013732910156" height="306.3356018066406" rx="0" fill="#FFFFFF" fill-opacity="1"/></g><g transform="matrix(-0.7071067690849304,-0.7071067094802856,0.7071067094802856,-0.7071067690849304,-143.59342278861732,3585.1843776980604)"><rect x="671.21923828125" y="1822.8314208984375" width="58.00013732910156" height="305.3356018066406" rx="0" fill-opacity="0" stroke-opacity="1" stroke="#FFFFFF" fill="none" stroke-width="1"/></g><g transform="matrix(-0.7071067690849304,-0.7071067094802856,0.7071067094802856,-0.7071067690849304,501.4717084973745,3691.3414864232254)"><rect x="1015.2376708984375" y="1741.8126220703125" width="59.0001335144043" height="188.22225952148438" rx="0" fill="#FFFFFF" fill-opacity="1"/></g><g transform="matrix(-0.7071067690849304,-0.7071067094802856,0.7071067094802856,-0.7071067690849304,493.95476903959207,3861.402911262412)"><rect x="1046.7000732421875" y="1828.400146484375" width="59.00012969970703" height="111.03276824951172" rx="0" fill="#FFFFFF" fill-opacity="1"/></g><g transform="matrix(-0.7071067690849304,-0.7071067094802856,0.7071067094802856,-0.7071067690849304,688.1503611449589,3947.8406190485184)"><rect x="1161.69970703125" y="1831.3997802734375" width="59.00058364868164" height="200.37020874023438" rx="0" fill="#FFFFFF" fill-opacity="1"/></g><g transform="matrix(-0.7071067690849304,-0.7071067094802856,0.7071067094802856,-0.7071067690849304,882.346060511074,4034.2798361071764)"><rect x="1276.69970703125" y="1834.400146484375" width="59.0007438659668" height="47.898460388183594" rx="0" fill="#FFFFFF" fill-opacity="1"/></g><g transform="matrix(0.7071067690849304,-0.7071067094802856,-0.7071067094802856,-0.7071067690849304,754.4135420188832,1821.3154898564098)"><rect x="517.30322265625" y="852.6279296875" width="59.00012969970703" height="24.225635528564453" rx="0" fill="#FFFFFF" fill-opacity="1"/></g><g transform="matrix(0.7071067690849304,-0.7071067094802856,-0.7071067094802856,-0.7071067690849304,736.0345604578615,1776.9447098516684)"><rect x="453.302734375" y="853.14599609375" width="59.00012969970703" height="24.225635528564453" rx="0" fill="#FFFFFF" fill-opacity="1"/></g><g transform="matrix(0.7071067690849304,-0.7071067094802856,-0.7071067094802856,-0.7071067690849304,717.5844777172606,1732.4022764121182)"><rect x="389.22216796875" y="853.5966796875" width="59.00012969970703" height="24.225635528564453" rx="0" fill="#FFFFFF" fill-opacity="1"/></g><g transform="matrix(0.7071067690849304,-0.7071067094802856,-0.7071067094802856,-0.7071067690849304,699.1928346742352,1688.0009288827569)"><rect x="325.22265625" y="854.096435546875" width="147.03057861328125" height="24.22563362121582" rx="0" fill="#FFFFFF" fill-opacity="1"/></g><g transform="matrix(0.7071067690849304,-0.7071067094802856,-0.7071067094802856,-0.7071067690849304,711.4911014055542,1717.6915971661074)"><rect x="187.1298828125" y="928.688720703125" width="163.78343200683594" height="24.22563362121582" rx="0" fill="#FFFFFF" fill-opacity="1"/></g><g transform="matrix(-0.7071067690849304,-0.7071067094802856,0.7071067094802856,-0.7071067690849304,2104.7652509504987,4521.422201288617)"><rect x="1988.7998046875" y="1824.800048828125" width="59.00012969970703" height="24.225635528564453" rx="0" fill="#FFFFFF" fill-opacity="1"/></g><g transform="matrix(-1,0,0,1,3530,0)"><rect x="1765" y="1933.968994140625" width="262" height="32" rx="0" fill="#3D3D3D" fill-opacity="1"/><rect x="1765.5" y="1934.468994140625" width="261" height="31" rx="0" fill-opacity="0" stroke-opacity="1" stroke="#7C7C7C" fill="none" stroke-width="1"/></g><g transform="matrix(-1,0,0,1,1692,0)"><rect x="846" y="1911.968994140625" width="58" height="168" rx="0" fill="#3D3D3D" fill-opacity="1"/></g><g transform="matrix(-1,0,0,1,652,0)"><rect x="326" y="1949.968994140625" width="181" height="65" rx="0" fill="#3D3D3D" fill-opacity="1"/></g><g transform="matrix(-1,0,0,1,1438,0)"><rect x="719" y="1968.968994140625" width="181" height="65" rx="0" fill="#3D3D3D" fill-opacity="1"/></g><g><rect x="1966" y="1234" width="181" height="65" rx="0" fill="#3D3D3D" fill-opacity="1"/></g><g><g><path d="M638,311.9994201660156L643.6119404,318.1244201660156L638,323.9994201660156L648.38806,323.9994201660156L654,318.1244201660156L648.38806,311.9994201660156L638,311.9994201660156Z" fill="#FFFFFF" fill-opacity="1"/></g><g><path d="M655,311.9994201660156L660.6119404,318.1244201660156L655,323.9994201660156L665.38806,323.9994201660156L671,318.1244201660156L665.38806,311.9994201660156L655,311.9994201660156Z" fill="#FFFFFF" fill-opacity="1"/></g><g><path d="M673,311.9994201660156L678.6119404,318.1244201660156L673,323.9994201660156L683.38806,323.9994201660156L689,318.1244201660156L683.38806,311.9994201660156L673,311.9994201660156Z" fill="#FFFFFF" fill-opacity="1"/></g><g><path d="M690,311.9994201660156L695.6119404,318.1244201660156L690,323.9994201660156L700.38806,323.9994201660156L706,318.1244201660156L700.38806,311.9994201660156L690,311.9994201660156Z" fill="#FFFFFF" fill-opacity="1"/></g></g><g><g><path d="M145,1734L150.6119404,1740.125L145,1746L155.38806,1746L161,1740.125L155.38806,1734L145,1734Z" fill="#FFFFFF" fill-opacity="1"/></g><g><path d="M162,1734L167.6119404,1740.125L162,1746L172.38806,1746L178,1740.125L172.38806,1734L162,1734Z" fill="#FFFFFF" fill-opacity="1"/></g><g><path d="M180,1734L185.6119404,1740.125L180,1746L190.38806,1746L196,1740.125L190.38806,1734L180,1734Z" fill="#FFFFFF" fill-opacity="1"/></g><g><path d="M197,1734L202.6119404,1740.125L197,1746L207.38806,1746L213,1740.125L207.38806,1734L197,1734Z" fill="#FFFFFF" fill-opacity="1"/></g></g><g><g><rect x="923" y="412" width="170" height="153" rx="0" fill="#E93B66" fill-opacity="1"/></g><g><rect x="1124" y="446" width="140" height="125" rx="0" fill="#E93B66" fill-opacity="1"/></g><g><rect x="1465" y="488" width="297" height="48" rx="0" fill="#3D3D3D" fill-opacity="1"/></g><g><rect x="1224" y="391" width="59" height="60" rx="0" fill="#3D3D3D" fill-opacity="1"/></g><g><rect x="1254" y="561" width="120" height="42" rx="0" fill="#3D3D3D" fill-opacity="1"/></g><g><rect x="1357" y="540" width="220" height="42" rx="0" fill="#3D3D3D" fill-opacity="1"/></g><g><rect x="1487" y="481" width="58" height="168" rx="0" fill="#3D3D3D" fill-opacity="1"/></g><g><rect x="1675" y="565" width="181" height="65" rx="0" fill="#3D3D3D" fill-opacity="1"/></g><g><path d="M1278.7017,1507.6769841796875Q1343.1001,1464.1702841796875,1398.1351,1409.1350841796875L1397.4281,1408.4280841796874Q1342.4615,1463.3947841796876,1278.142,1506.8482841796874Q1213.2056,1550.7183841796875,1141.2314,1581.1608841796874Q1067.9274,1612.1658841796875,989.93762,1628.1248841796876Q909.91418,1644.5000841796875,827.5,1644.5000841796875Q745.08582,1644.5000841796875,665.06238,1628.1248841796876Q587.07275,1612.1658841796875,513.76862,1581.1608841796874Q441.79456,1550.7184841796875,376.85812,1506.8482841796874Q312.53867,1463.3947841796876,257.57195,1408.4280841796874Q202.60497,1353.4611841796875,159.15186,1289.1420841796876Q115.281853,1224.2058841796875,84.839245,1152.2315841796874Q53.833984,1078.9268141796874,37.875102999999996,1000.9377441796875Q21.49999875,920.9146141796875,21.5,838.5000641796875Q21.5,756.0853241796875,37.875063,676.0623741796875Q53.833874,598.0735741796875,84.839272,524.7686141796876Q115.281822,452.7943741796875,159.15186,387.8581541796875Q202.60521,323.5387441796875,257.57195,268.5720241796875Q312.5387,213.6051841796875,376.85809,170.1518631796875Q441.79425,126.28185617968751,513.76862,95.8392864496875L513.3790300000001,94.9182819096875Q441.31503,125.3987791796875,376.29828,169.3232421796875Q311.89938,212.8302841796875,256.86483999999996,267.8649141796875Q201.83032,322.89939417968753,158.32324,387.2983441796875Q114.398705,452.3151841796875,83.91827,524.3790241796876Q52.87413,597.7756041796874,36.895365,675.8619341796875Q20.5,755.9840741796875,20.5,838.5000641796875Q20.5,921.0159341796875,36.895405,1001.1382441796875Q52.874189,1079.2246141796875,83.91824299999999,1152.6209841796874Q114.398743,1224.6849841796875,158.32324,1289.7017841796876Q201.83008,1354.1004841796876,256.86483999999996,1409.1350841796875Q311.90005,1464.1702841796875,376.29831,1507.6769841796875Q441.31439,1551.6009841796874,513.3790300000001,1582.0817841796875Q586.77582,1613.1260841796875,664.86194,1629.1047841796876Q744.98401,1645.5000841796875,827.5,1645.5000841796875Q910.01605,1645.5000841796875,990.13812,1629.1047841796876Q1068.2241,1613.1260841796875,1141.621,1582.0817841796875Q1213.6857,1551.6009841796874,1278.7017,1507.6769841796875Z" fill-rule="evenodd" fill="#FFFFFF" fill-opacity="1"/></g><g><path d="M1022.77795,1326.90179Q1115.4341399999998,1287.69037,1186.89014,1216.19568L1179.10986,1208.41956Q1109.17078,1278.3964799999999,1018.49097,1316.77155Q924.61304,1356.5,821.80579,1356.5Q718.99854,1356.5,625.12064,1316.77155Q534.44078,1278.3964799999999,464.50165000000004,1208.41956Q394.562187,1138.44232,356.207542,1047.71271Q316.4999542,953.78265,316.499939,850.91809Q316.5,748.05377,356.207588,654.12378Q394.562225,563.39426,464.50169,493.41700000000003Q534.4407699999999,423.440178,625.12064,385.0651016L620.83359,374.9348831Q528.17747,414.146294,456.72141999999997,485.64092Q385.265579,557.13541,346.07570599999997,649.8407Q305.5,745.82425,305.499939,850.91809Q305.4999504,956.01221,346.07566099999997,1051.99579Q385.26559399999996,1144.70129,456.72137,1216.19568Q528.17746,1287.69037,620.83359,1326.90179Q716.7667200000001,1367.5,821.80579,1367.5Q926.84485,1367.5,1022.77795,1326.90179Z" fill-rule="evenodd" fill="#FFFFFF" fill-opacity="1"/></g></g></g></svg>