<svg xmlns="http://www.w3.org/2000/svg" xmlns:xlink="http://www.w3.org/1999/xlink" fill="none" version="1.1" width="859" height="125" viewBox="0 0 859 125"><defs><clipPath id="master_svg0_54_5483"><rect x="0" y="0" width="859" height="125" rx="0"/></clipPath></defs><g clip-path="url(#master_svg0_54_5483)"><path d="M526.54855,295.94513C537.92728,295.94513,549.00653,294.66519,559.64975,292.24161C586.82672,325.651,628.3031,347,674.77429,347C756.63708,347,823,280.75043,823,199.02744C823,117.30443,756.63708,51.054863,674.77429,51.054863C663.39557,51.054863,652.31628,52.334827,641.6731,54.758396C614.49609,21.349009,573.01971,0,526.54855,0C472.99176,0,426.06909,28.35561,400.02307,70.848656C375.96167,54.012466,346.65924,44.132168,315.04517,44.132168C309.15552,44.132168,303.34608000000003,44.475086,297.63583,45.14201C271.99561,23.97117,239.09888,11.249376,203.22574,11.249376C121.362915,11.249376,55,77.498947,55,159.22194C55,240.94495,121.362915,307.19452,203.22574,307.19452C209.11539,307.19452,214.92482,306.85159,220.63507,306.18466C246.2753,327.3555,279.17203,340.0773,315.04517,340.0773C368.60196,340.0773,415.52463,311.72168,441.57065,269.22864C465.63205,286.06482,494.93448,295.94513,526.54855,295.94513Z" fill-rule="evenodd" fill="#F8D211" fill-opacity="1"/><path d="M471.54855,319.94513C482.92728,319.94513,494.00653,318.66519,504.64975,316.24161C531.82672,349.651,573.3031,371,619.77429,371C701.63708,371,768,304.75043,768,223.02744C768,141.30443,701.63708,75.054863,619.77429,75.054863C608.39557,75.054863,597.31628,76.33482699999999,586.6731,78.758396C559.49609,45.349008999999995,518.01971,24,471.54855,24C417.99176,24,371.06909,52.35561,345.02307,94.848656C320.96167,78.012466,291.65924,68.13216800000001,260.04517,68.13216800000001C254.15552,68.13216800000001,248.34608,68.475086,242.63583,69.14201C216.99561,47.97117,184.09888,35.249376,148.22574,35.249376C66.362915,35.249376,0,101.498947,0,183.22194C0,264.94495,66.362915,331.19452,148.22574,331.19452C154.11539,331.19452,159.92482,330.85159,165.63507,330.18466C191.2753,351.3555,224.17203,364.0773,260.04517,364.0773C313.60196,364.0773,360.52463,335.72168,386.57065,293.22864C410.63205,310.06482,439.93448,319.94513,471.54855,319.94513Z" fill-rule="evenodd" fill="#3BB8E9" fill-opacity="1"/><path d="M562.54855,319.94513C573.92728,319.94513,585.00653,318.66519,595.64975,316.24161C622.82672,349.651,664.3031,371,710.77429,371C792.63708,371,859,304.75043,859,223.02744C859,141.30443,792.63708,75.054863,710.77429,75.054863C699.39557,75.054863,688.31628,76.33482699999999,677.6731,78.758396C650.49609,45.349008999999995,609.01971,24,562.54855,24C508.99176,24,462.06909,52.35561,436.02307,94.848656C411.96167,78.012466,382.65924,68.13216800000001,351.04517,68.13216800000001C345.15552,68.13216800000001,339.34608000000003,68.475086,333.63583,69.14201C307.99561,47.97117,275.09888,35.249376,239.22574,35.249376C157.362915,35.249376,91,101.498947,91,183.22194C91,264.94495,157.362915,331.19452,239.22574,331.19452C245.11539,331.19452,250.92482,330.85159,256.63507000000004,330.18466C282.2753,351.3555,315.17203,364.0773,351.04517,364.0773C404.60196,364.0773,451.52463,335.72168,477.57065,293.22864C501.63205,310.06482,530.93448,319.94513,562.54855,319.94513Z" fill-rule="evenodd" fill="#E93B66" fill-opacity="1"/><g><path d="M0.451001992522,125L839.976317734375,125C808.685787734375,84.833908,759.859677734375,59,704.999757734375,59C691.872737734375,59,679.091187734375,60.479149,666.812687734375,63.279873C635.460087734375,24.671331,587.611087734375,0,533.999757734375,0C472.214167734375,0,418.082027734375,32.768291,388.034147734375,81.874092C360.275817734375,62.41787,326.471187734375,51,289.999757734375,51C283.205167734375,51,276.503177734375,51.396282,269.915557734375,52.166992C240.335817734375,27.701555,202.384657734375,13,160.999757734375,13C87.294776734375,13,24.481029734375,59.630833,0.451001992522,125Z" fill-rule="evenodd" fill="#FFFFFF" fill-opacity="1"/></g><path d="M766.519131,37.628309Q766.694946,37.902035,766.89539,38.158274Q767.095833,38.414513,767.31918,38.651054Q767.542526,38.887598,767.78685,39.102406Q768.031174,39.317213,768.294365,39.508434Q768.55756,39.699656,768.837357,39.865642Q769.117149,40.031628,769.411133,40.170946Q769.705116,40.310266,770.010757,40.421718999999996Q770.316395,40.533170999999996,770.63105,40.615795L775.756378,41.961618Q775.967995,42.017185,776.175732,42.085859Q776.383465,42.154533,776.586502,42.236046Q776.789543,42.317558,776.987091,42.411591Q777.184639,42.505623,777.375927,42.611807Q777.567223,42.717995,777.751511,42.835918Q777.935799,42.953844000000004,778.112362,43.083048000000005Q778.288925,43.212252,778.457073,43.352228Q778.625221,43.492207,778.784298,43.64241Q778.943382,43.792618000000004,779.092773,43.952465000000004Q779.242165,44.112314,779.381279,44.281178Q779.520393,44.450045,779.648693,44.627268Q779.776993,44.804489000000004,779.89397,44.989378Q780.010956,45.174268999999995,780.116161,45.366104Q780.221367,45.557938,780.314384,45.755964Q780.40741,45.953995,780.487881,46.157446Q780.568352,46.360897,780.635956,46.568974999999995Q780.703568,46.777058,780.758057,46.988952999999995Q780.812538,47.200851,780.853683,47.415735Q780.894829,47.630621000000005,780.92247,47.847656Q780.950111,48.06469,780.964146,48.283028Q780.978188,48.501366000000004,780.978558,48.720154Q780.978931,48.938942,780.965637,49.157328Q780.952347,49.375713000000005,780.925446,49.592842000000005Q780.898544,49.809968999999995,780.858128,50.02499Q780.817726,50.240017,780.763966,50.452099000000004Q780.710209,50.664183,780.643307,50.872492Q780.576408,51.080803,780.496632,51.284529Q780.4168549999999,51.488254999999995,780.324509,51.686596Q780.232166,51.884945,780.127617,52.077137Q780.023064,52.269329,779.906715,52.454617Q779.7903670000001,52.639904,779.66267,52.817561999999995Q779.534977,52.99522,779.396435,53.164557L776.041012,57.265945Q775.835014,57.517742,775.653255,57.78756Q775.4715,58.057373,775.315552,58.342884Q775.159607,58.628395,775.030815,58.927143Q774.902023,59.225883,774.8014909999999,59.535286Q774.700958,59.844688,774.629559,60.162083Q774.5581549999999,60.479477,774.516499,60.80212Q774.474846,61.124763,774.463291,61.449883Q774.451744,61.775002,774.470398,62.099792L774.774258,67.390163Q774.786808,67.608597,774.78569,67.82738499999999Q774.784569,68.04617300000001,774.769787,68.26445799999999Q774.755009,68.48275000000001,774.726624,68.69968800000001Q774.698242,68.91662600000001,774.656364,69.131367Q774.614487,69.346115,774.559284,69.557823Q774.504078,69.76953499999999,774.435757,69.977379Q774.367439,70.185226,774.2862700000001,70.388401Q774.205101,70.591576,774.111404,70.78928400000001Q774.017715,70.987,773.911854,71.178474Q773.805996,71.36994899999999,773.688381,71.55443600000001Q773.570774,71.73892599999999,773.441872,71.91570999999999Q773.312969,72.092495,773.173275,72.260883Q773.033585,72.429276,772.883652,72.588608Q772.733719,72.74794800000001,772.574123,72.89761Q772.414528,73.04727199999999,772.245903,73.186676Q772.077274,73.32607999999999,771.900269,73.454674Q771.72327,73.583275,771.538582,73.70057299999999Q771.353897,73.817871,771.162239,73.923401Q770.970589,74.028938,770.772713,74.122292Q770.574844,74.215652,770.371529,74.296467Q770.168217,74.37728899999999,769.960251,74.445255Q769.752289,74.513218,769.540482,74.56805800000001Q769.328682,74.622906,769.113865,74.664413Q768.899048,74.70592500000001,768.68206,74.73393200000001Q768.465073,74.76195100000001,768.246761,74.77636Q768.02845,74.790771,767.809662,74.791515Q767.590874,74.79226299999999,767.372467,74.779343Q767.15406,74.766426,766.936882,74.739891Q766.719711,74.71336,766.5046159999999,74.673317Q766.289524,74.63327799999999,766.077351,74.57988Q765.865181,74.526482,765.656754,74.459938Q765.448334,74.39339100000001,765.244469,74.313957L760.306934,72.39016000000001Q760.003807,72.272053,759.691029,72.182571Q759.378254,72.093086,759.058525,72.033001Q758.738796,71.972916,758.414875,71.942741Q758.090952,71.912567,757.765627,71.912567Q757.440302,71.912567,757.116381,71.942741Q756.792458,71.972916,756.472729,72.033001Q756.153002,72.093086,755.840225,72.182568Q755.527449,72.272053,755.224319,72.39016000000001L750.286783,74.313957Q750.082924,74.39339100000001,749.8745,74.459934Q749.666077,74.526482,749.453903,74.579876Q749.241732,74.633274,749.026638,74.673317Q748.811546,74.71336,748.59437,74.739891Q748.377197,74.766426,748.158791,74.779343Q747.940384,74.79226299999999,747.721596,74.791515Q747.502808,74.790771,747.284494,74.77636Q747.066181,74.76195100000001,746.849192,74.73393200000001Q746.632206,74.70592500000001,746.417393,74.664417Q746.202579,74.622906,745.990774,74.56805800000001Q745.778973,74.513214,745.571007,74.445251Q745.363041,74.37728899999999,745.159725,74.296463Q744.956413,74.215645,744.758543,74.122288Q744.560673,74.028931,744.369017,73.923397Q744.177364,73.817863,743.992674,73.700565Q743.807983,73.583267,743.63098,73.454666Q743.453978,73.32607300000001,743.285351,73.186668Q743.116724,73.047268,742.957131,72.897606Q742.79754,72.74794399999999,742.647605,72.588608Q742.497671,72.42926800000001,742.357979,72.26088Q742.218288,72.092491,742.089386,71.91570999999999Q741.960484,71.73892599999999,741.842873,71.55443600000001Q741.725262,71.36994899999999,741.619403,71.178474Q741.513542,70.987,741.419846,70.78928400000001Q741.326151,70.591576,741.244986,70.388401Q741.163819,70.185226,741.0955,69.977379Q741.027182,69.769531,740.971977,69.557823Q740.916771,69.346107,740.874894,69.131363Q740.833019,68.91662600000001,740.804635,68.69968399999999Q740.776252,68.48275000000001,740.761471,68.26445799999999Q740.746691,68.04617300000001,740.745571,67.82738499999999Q740.74445,67.608597,740.756994,67.390163L741.060853,62.0998Q741.079508,61.775009,741.067959,61.44989Q741.056408,61.124771,741.014753,60.802124Q740.973099,60.479477,740.901697,60.162086Q740.830297,59.844696,740.729767,59.53529Q740.629236,59.225891,740.500442,58.927143Q740.371647,58.628399,740.215699,58.342884Q740.059752,58.057373,739.877995,57.78756Q739.696238,57.517742,739.490239,57.265945L736.1348152,53.164558Q735.9962769,52.995224,735.8685837,52.817564000000004Q735.740891,52.639904,735.6245418,52.454617Q735.508193,52.269329,735.4036417,52.077139Q735.2990904,51.884945,735.2067456,51.686598000000004Q735.1144018,51.488254999999995,735.0346241,51.284531Q734.9548469,51.080805,734.8879476,50.872494Q734.8210483,50.664185,734.7672882,50.452103Q734.7135286,50.240021,734.6731176,50.024994Q734.6327081,49.809971000000004,734.6058054,49.592844Q734.5789022,49.375715,734.5656114,49.15733Q734.552321,48.938946,734.5526943,48.720158Q734.5530677,48.501369,734.5671029,48.28303Q734.5811396,48.064693,734.6087828,47.847657999999996Q734.6364269,47.630623,734.6775703,47.415737Q734.7187138,47.200851,734.7731962,46.988956Q734.8276792,46.77706,734.895288,46.568977000000004Q734.9628983,46.360901,735.0433702,46.157448Q735.1238422,45.953997,735.2168627,45.755966Q735.3098841,45.557938,735.4150896,45.366104Q735.5202956,45.174271000000005,735.6372757,44.98938Q735.7542562,44.804491,735.882555,44.627269999999996Q736.0108538,44.450047,736.1499691,44.281181000000004Q736.2890854,44.112316,736.4384747,43.952469Q736.5878639,43.792622,736.7469444,43.642414Q736.9060259,43.49221,737.0741768,43.352232Q737.2423277,43.212254,737.418891,43.08305Q737.5954552,42.953846,737.779743,42.835922Q737.964031,42.717997,738.155324,42.611809Q738.346617,42.505624999999995,738.544168,42.411592Q738.74172,42.317558,738.944757,42.236046Q739.147795,42.154534999999996,739.355526,42.085861Q739.563257,42.017189,739.774872,41.961619999999996L744.900202,40.615795Q745.214861,40.533170999999996,745.5205,40.421718999999996Q745.826138,40.310266,746.120119,40.170946Q746.414103,40.031628,746.693897,39.865643Q746.973692,39.699656,747.236885,39.508435Q747.50008,39.317214,747.744402,39.102406Q747.988726,38.887598,748.212072,38.651054Q748.435419,38.414513,748.635864,38.158274Q748.836308,37.902035,749.012121,37.628309L751.875893,33.1697121Q751.994133,32.9856262,752.123638,32.809283300000004Q752.253143,32.6329403,752.393408,32.4650278Q752.533674,32.2971163,752.684151,32.1382923Q752.834629,31.9794674,752.994728,31.8303499Q753.1548310000001,31.6812334,753.323933,31.5424061Q753.493034,31.4035788,753.670475,31.2755823Q753.847916,31.1475863,754.033005,31.030921Q754.218092,30.9142561,754.410103,30.8093772Q754.602118,30.7044992,754.800306,30.611816400000002Q754.998495,30.5191336,755.202084,30.4390087Q755.405674,30.358883900000002,755.613871,30.2916298Q755.822065,30.2243752,756.034052,30.1702538Q756.246044,30.1161327,756.460999,30.075356Q756.675955,30.0345793,756.893036,30.0073056Q757.110119,29.980032,757.32848,29.9663692Q757.546839,29.9527054,757.765625,29.9527049Q757.984417,29.9527054,758.202778,29.9663687Q758.421141,29.980032,758.638222,30.0073056Q758.855305,30.0345793,759.070261,30.0753555Q759.285217,30.1161327,759.497204,30.1702538Q759.709194,30.2243752,759.917389,30.2916298Q760.125587,30.358883900000002,760.329174,30.4390087Q760.532761,30.5191336,760.730949,30.6118159Q760.929138,30.7044983,761.121147,30.8093767Q761.313164,30.9142561,761.498253,31.030921Q761.683342,31.1475863,761.860783,31.2755823Q762.038223,31.4035788,762.207325,31.5424061Q762.376427,31.6812334,762.536526,31.8303504Q762.696632,31.9794674,762.847111,32.1382923Q762.997589,32.2971172,763.137852,32.4650288Q763.278118,32.6329403,763.4076230000001,32.809283300000004Q763.5371250000001,32.9856262,763.655361,33.1697121L766.519131,37.628309Z" fill="#F8D211" fill-opacity="1" transform="matrix(0.9108378887176514,0.41276419162750244,-0.41276419162750244,0.9108378887176514,74.79546024277806,-298.2556992266327)"/><ellipse cx="183" cy="93" rx="16.5" ry="16.5" fill-opacity="0" stroke-opacity="1" stroke="#3BB8E9" fill="none" stroke-width="9"/></g></svg>