<svg xmlns="http://www.w3.org/2000/svg" xmlns:xlink="http://www.w3.org/1999/xlink" fill="none" version="1.1" width="1684" height="156" viewBox="0 0 1684 156"><defs><clipPath id="master_svg0_2_067"><rect x="0" y="0" width="1684" height="156" rx="0"/></clipPath></defs><g clip-path="url(#master_svg0_2_067)"><g><rect x="355" y="-107" width="170" height="153" rx="0" fill="#E93B66" fill-opacity="1"/></g><g><rect x="556" y="-73" width="140" height="125" rx="0" fill="#E93B66" fill-opacity="1"/></g><g><rect x="735" y="-38" width="459" height="94" rx="0" fill="#E93B66" fill-opacity="1"/></g><g><rect x="1225" y="-115" width="459" height="94" rx="0" fill="#E93B66" fill-opacity="1"/></g><g><rect x="49" y="72" width="417" height="11" rx="0" fill="#E93B66" fill-opacity="1"/></g><g><rect x="1276" y="-141" width="221" height="73" rx="0" fill="#3D3D3D" fill-opacity="1"/></g><g><rect x="1090" y="-104" width="297" height="146" rx="0" fill="#3D3D3D" fill-opacity="1"/></g><g><rect x="897" y="-31" width="297" height="48" rx="0" fill="#3D3D3D" fill-opacity="1"/></g><g><rect x="656" y="-128" width="59" height="60" rx="0" fill="#3D3D3D" fill-opacity="1"/></g><g><rect x="381" y="-201" width="59" height="60" rx="0" fill="#3D3D3D" fill-opacity="1"/></g><g><rect x="305" y="-68" width="501" height="60" rx="0" fill="#3D3D3D" fill-opacity="1"/></g><g><rect x="686" y="42" width="120" height="42" rx="0" fill="#3D3D3D" fill-opacity="1"/></g><g><rect x="789" y="21" width="220" height="42" rx="0" fill="#3D3D3D" fill-opacity="1"/></g><g><rect x="466" y="-51" width="73" height="168" rx="0" fill="#3D3D3D" fill-opacity="1"/></g><g><rect x="374" y="-91" width="262" height="168" rx="0" fill="#3D3D3D" fill-opacity="1"/></g><g><rect x="0" y="-16" width="262" height="32" rx="0" fill="#3D3D3D" fill-opacity="1"/></g><g><rect x="919" y="-38" width="58" height="168" rx="0" fill="#3D3D3D" fill-opacity="1"/></g><g><g><path d="M602,105.00003051757812L607.6119404,111.12503051757812L602,117.00003051757812L612.38806,117.00003051757812L618,111.12503051757812L612.38806,105.00003051757812L602,105.00003051757812Z" fill="#FFFFFF" fill-opacity="1"/></g><g><path d="M619,105.00003051757812L624.6119404,111.12503051757812L619,117.00003051757812L629.38806,117.00003051757812L635,111.12503051757812L629.38806,105.00003051757812L619,105.00003051757812Z" fill="#FFFFFF" fill-opacity="1"/></g><g><path d="M637,105.00003051757812L642.6119404,111.12503051757812L637,117.00003051757812L647.38806,117.00003051757812L653,111.12503051757812L647.38806,105.00003051757812L637,105.00003051757812Z" fill="#FFFFFF" fill-opacity="1"/></g><g><path d="M654,105.00003051757812L659.6119404,111.12503051757812L654,117.00003051757812L664.38806,117.00003051757812L670,111.12503051757812L664.38806,105.00003051757812L654,105.00003051757812Z" fill="#FFFFFF" fill-opacity="1"/></g></g><g><rect x="1439" y="0" width="181" height="65" rx="0" fill="#3D3D3D" fill-opacity="1"/></g><g><rect x="1046" y="19" width="181" height="65" rx="0" fill="#3D3D3D" fill-opacity="1"/></g></g></svg>