<svg xmlns="http://www.w3.org/2000/svg" xmlns:xlink="http://www.w3.org/1999/xlink" fill="none" version="1.1" width="3282.5341796875" height="257.5340576171875" viewBox="0 0 3282.5341796875 257.5340576171875"><g style="opacity:0.20000000298023224;"><g transform="matrix(0.7071067690849304,0.7071067690849304,-0.7071067690849304,0.7071067690849304,80.42135677781698,-38.154328008025914)"><rect x="86.26702880859375" y="78" width="122" height="122" rx="0" fill="#95E1D3" fill-opacity="1"/></g><g transform="matrix(0.7071067690849304,0.7071067690849304,-0.7071067690849304,0.7071067690849304,523.2465022562246,-1093.2287383319635)"><rect x="1581.26708984375" y="85" width="122" height="122" rx="0" fill="#95E1D3" fill-opacity="1"/></g><g transform="matrix(0.7071067690849304,0.7071067690849304,-0.7071067690849304,0.7071067690849304,305.3633581205904,-581.2123266652525)"><rect x="854.2670288085938" y="78" width="122" height="122" rx="0" fill="#95E1D3" fill-opacity="1"/></g><g transform="matrix(0.7071067690849304,0.7071067690849304,-0.7071067690849304,0.7071067690849304,748.1885035989981,-1636.28673698919)"><rect x="2349.26708984375" y="85" width="122" height="122" rx="0" fill="#95E1D3" fill-opacity="1"/></g><g transform="matrix(0.7071067690849304,0.7071067690849304,-0.7071067690849304,0.7071067690849304,123.83706144308053,-194.9691018679241)"><rect x="297.2670593261719" y="52" width="122" height="122" rx="0" fill="#95E1D3" fill-opacity="1"/></g><g transform="matrix(0.7071067690849304,0.7071067690849304,-0.7071067690849304,0.7071067690849304,566.6621979830961,-1250.0434906126757)"><rect x="1792.26708984375" y="59" width="122" height="122" rx="0" fill="#95E1D3" fill-opacity="1"/></g><g transform="matrix(0.7071067690849304,0.7071067690849304,-0.7071067690849304,0.7071067690849304,348.779071724246,-738.0271221043367)"><rect x="1065.26708984375" y="52" width="122" height="122" rx="0" fill="#95E1D3" fill-opacity="1"/></g><g transform="matrix(0.7071067690849304,0.7071067690849304,-0.7071067690849304,0.7071067690849304,791.6041993258696,-1793.1014892699022)"><rect x="2560.26708984375" y="59" width="122" height="122" rx="0" fill="#95E1D3" fill-opacity="1"/></g><g transform="matrix(0.7071067690849304,0.7071067690849304,-0.7071067690849304,0.7071067690849304,92.7903700276911,-120.01576276573542)" style="opacity:0.10000000149011612;"><rect x="191.26702880859375" y="52" width="122" height="122" rx="0" fill="#FFFFFF" fill-opacity="1"/></g><g transform="matrix(0.7071067690849304,0.7071067690849304,-0.7071067690849304,0.7071067690849304,535.6155155060987,-1175.090173089673)"><rect x="1686.26708984375" y="59" width="122" height="122" rx="0" fill="#FFFFFF" fill-opacity="1"/></g><g transform="matrix(0.7071067690849304,0.7071067690849304,-0.7071067690849304,0.7071067690849304,317.73237137046453,-663.073761422962)"><rect x="959.2670288085938" y="52" width="122" height="122" rx="0" fill="#FFFFFF" fill-opacity="1"/></g><g transform="matrix(0.7071067690849304,0.7071067690849304,-0.7071067690849304,0.7071067690849304,760.5575168488722,-1718.1481717468996)"><rect x="2454.26708984375" y="59" width="122" height="122" rx="0" fill="#FFFFFF" fill-opacity="1"/></g><g transform="matrix(0.7071067690849304,0.7071067690849304,-0.7071067690849304,0.7071067690849304,136.2060836313467,-276.8305582048197)"><rect x="402.26708984375" y="26" width="122" height="122" rx="0" fill="#FFFFFF" fill-opacity="1"/></g><g transform="matrix(0.7071067690849304,0.7071067690849304,-0.7071067690849304,0.7071067690849304,579.0312112329702,-1331.9049253703852)" style="opacity:0.20000000298023224;"><rect x="1897.26708984375" y="33" width="122" height="122" rx="0" fill="#FFFFFF" fill-opacity="1"/></g><g transform="matrix(0.7071067690849304,0.7071067690849304,-0.7071067690849304,0.7071067690849304,361.14808497412014,-819.8885568620462)"><rect x="1170.26708984375" y="26" width="122" height="122" rx="0" fill="#FFFFFF" fill-opacity="1"/></g><g transform="matrix(0.7071067690849304,0.7071067690849304,-0.7071067690849304,0.7071067690849304,803.9732125757437,-1874.9629240276117)"><rect x="2665.26708984375" y="33" width="122" height="122" rx="0" fill="#FFFFFF" fill-opacity="1"/></g><g transform="matrix(0.7071067690849304,0.7071067690849304,-0.7071067690849304,0.7071067690849304,142.22182850089666,-187.35385628494623)" style="opacity:0.20000000298023224;"><rect x="297.26702880859375" y="78" width="122" height="122" rx="0" fill="#F38181" fill-opacity="1"/></g><g><g transform="matrix(0.7071067690849304,0.7071067690849304,-0.7071067690849304,0.7071067690849304,367.1638477204542,-730.4118981005449)" style="opacity:0.4000000059604645;"><rect x="1065.26708984375" y="78" width="122" height="122" rx="0" fill="#F38181" fill-opacity="1"/></g></g><g transform="matrix(0.7071067690849304,0.7071067690849304,-0.7071067690849304,0.7071067690849304,185.6375331661602,-344.1686301448444)"><rect x="508.2670593261719" y="52" width="122" height="122" rx="0" fill="#F38181" fill-opacity="1"/></g><g transform="matrix(0.7071067690849304,0.7071067690849304,-0.7071067690849304,0.7071067690849304,628.4626697061758,-1399.243018889596)"><rect x="2003.26708984375" y="59" width="122" height="122" rx="0" fill="#F38181" fill-opacity="1"/></g><g transform="matrix(0.7071067690849304,0.7071067690849304,-0.7071067690849304,0.7071067690849304,410.5795434473257,-887.2266503812571)"><rect x="1276.26708984375" y="52" width="122" height="122" rx="0" fill="#F38181" fill-opacity="1"/></g><g transform="matrix(0.7071067690849304,0.7071067690849304,-0.7071067690849304,0.7071067690849304,853.4046710489492,-1942.3010175468225)"><rect x="2771.26708984375" y="59" width="122" height="122" rx="0" fill="#F38181" fill-opacity="1"/></g><g transform="matrix(0.7071067690849304,0.7071067690849304,-0.7071067690849304,0.7071067690849304,185.44154821347183,-409.695476785193)"><rect x="587.2669677734375" y="19" width="122" height="122" rx="0" fill="#95E1D3" fill-opacity="1"/></g><g transform="matrix(0.7071067690849304,0.7071067690849304,-0.7071067690849304,0.7071067690849304,628.2667115686636,-1464.7699302675028)"><rect x="2082.26708984375" y="26" width="122" height="122" rx="0" fill="#95E1D3" fill-opacity="1"/></g><g transform="matrix(0.7071067690849304,0.7071067690849304,-0.7071067690849304,0.7071067690849304,428.11150715334225,-949.5525512935419)"><rect x="1360.26708984375" y="42" width="122" height="122" rx="0" fill="#95E1D3" fill-opacity="1"/></g><g transform="matrix(0.7071067690849304,0.7071067690849304,-0.7071067690849304,0.7071067690849304,853.208712911437,-2007.8279289247293)"><rect x="2850.26708984375" y="26" width="122" height="122" rx="0" fill="#95E1D3" fill-opacity="1"/></g><g transform="matrix(0.7071067690849304,0.7071067690849304,-0.7071067690849304,0.7071067690849304,247.2004255412321,-578.7945861460466)"><rect x="822.26708984375" y="9" width="122" height="122" rx="0" fill="#95E1D3" fill-opacity="1"/></g><g transform="matrix(0.7071067690849304,0.7071067690849304,-0.7071067690849304,0.7071067690849304,690.0255531428556,-1633.8689533116121)" style="opacity:0.4000000059604645;"><rect x="2317.26708984375" y="16" width="122" height="122" rx="0" fill="#95E1D3" fill-opacity="1"/></g><g transform="matrix(0.7071067690849304,0.7071067690849304,-0.7071067690849304,0.7071067690849304,471.52720288021374,-1106.367303574254)" style="opacity:0.4000000059604645;"><rect x="1571.26708984375" y="16" width="122" height="122" rx="0" fill="#95E1D3" fill-opacity="1"/></g><g transform="matrix(0.7071067690849304,0.7071067690849304,-0.7071067690849304,0.7071067690849304,896.6244086383085,-2164.6426812054415)"><rect x="3061.26708984375" y="0" width="122" height="122" rx="0" fill="#95E1D3" fill-opacity="1"/></g><g transform="matrix(0.7071067690849304,0.7071067690849304,-0.7071067690849304,0.7071067690849304,174.5075814529955,-317.298551340431)"><rect x="470.26702880859375" y="52" width="122" height="122" rx="0" fill="#EAFFD0" fill-opacity="1"/></g><g transform="matrix(0.7071067690849304,0.7071067690849304,-0.7071067690849304,0.7071067690849304,617.3327269314032,-1372.3729616643686)" style="opacity:0.4000000059604645;"><rect x="1965.26708984375" y="59" width="122" height="122" rx="0" fill="#EAFFD0" fill-opacity="1"/></g><g transform="matrix(0.7071067690849304,0.7071067690849304,-0.7071067690849304,0.7071067690849304,399.44960067255306,-860.3565931560297)" style="opacity:0.30000001192092896;"><rect x="1238.26708984375" y="52" width="122" height="122" rx="0" fill="#EAFFD0" fill-opacity="1"/></g><g transform="matrix(0.7071067690849304,0.7071067690849304,-0.7071067690849304,0.7071067690849304,842.2747282741766,-1915.4309603215952)" style="opacity:0.30000001192092896;"><rect x="2733.26708984375" y="59" width="122" height="122" rx="0" fill="#EAFFD0" fill-opacity="1"/></g><g transform="matrix(0.7071067690849304,0.7071067690849304,-0.7071067690849304,0.7071067690849304,217.9232950566511,-474.11334677951527)" style="opacity:0.20000000298023224;"><rect x="681.26708984375" y="26" width="122" height="122" rx="0" fill="#EAFFD0" fill-opacity="1"/></g><g transform="matrix(0.7071067690849304,0.7071067690849304,-0.7071067690849304,0.7071067690849304,660.7484226582746,-1529.1877139450808)"><rect x="2176.26708984375" y="33" width="122" height="122" rx="0" fill="#EAFFD0" fill-opacity="1"/></g><g transform="matrix(0.7071067690849304,0.7071067690849304,-0.7071067690849304,0.7071067690849304,460.5932182429533,-1013.9703349711199)" style="opacity:0.20000000298023224;"><rect x="1454.26708984375" y="49" width="122" height="122" rx="0" fill="#EAFFD0" fill-opacity="1"/></g><g transform="matrix(0.7071067690849304,0.7071067690849304,-0.7071067690849304,0.7071067690849304,885.6904240010481,-2072.2457126023073)"><rect x="2944.26708984375" y="33" width="122" height="122" rx="0" fill="#EAFFD0" fill-opacity="1"/></g><g transform="matrix(0.7071067690849304,0.7071067690849304,-0.7071067690849304,0.7071067690849304,266.6598214909136,-507.7737279132307)" style="opacity:0.30000001192092896;"><rect x="746.2670288085938" y="68" width="122" height="122" rx="0" fill="#FFFFFF" fill-opacity="1"/></g><g transform="matrix(0.7071067690849304,0.7071067690849304,-0.7071067690849304,0.7071067690849304,709.4849669693212,-1562.8481382371683)" style="opacity:0.4000000059604645;"><rect x="2241.26708984375" y="75" width="122" height="122" rx="0" fill="#FFFFFF" fill-opacity="1"/></g><g transform="matrix(0.7071067690849304,0.7071067690849304,-0.7071067690849304,0.7071067690849304,490.98661670667934,-1035.3464884998102)" style="opacity:0.20000000298023224;"><rect x="1495.26708984375" y="75" width="122" height="122" rx="0" fill="#FFFFFF" fill-opacity="1"/></g><g transform="matrix(0.7071067690849304,0.7071067690849304,-0.7071067690849304,0.7071067690849304,916.0838224647741,-2093.6218661309977)" style="opacity:0.4000000059604645;"><rect x="2985.26708984375" y="59" width="122" height="122" rx="0" fill="#FFFFFF" fill-opacity="1"/></g><g transform="matrix(0.7071067690849304,0.7071067690849304,-0.7071067690849304,0.7071067690849304,310.0755350945692,-664.588523352315)" style="opacity:0.30000001192092896;"><rect x="957.26708984375" y="42" width="122" height="122" rx="0" fill="#FFFFFF" fill-opacity="1"/></g><g transform="matrix(0.7071067690849304,0.7071067690849304,-0.7071067690849304,0.7071067690849304,752.9006626961927,-1719.6628905178804)" style="opacity:0.20000000298023224;"><rect x="2452.26708984375" y="49" width="122" height="122" rx="0" fill="#FFFFFF" fill-opacity="1"/></g><g transform="matrix(0.7071067690849304,0.7071067690849304,-0.7071067690849304,0.7071067690849304,534.4023124335508,-1192.1612407805223)" style="opacity:0.4000000059604645;"><rect x="1706.26708984375" y="49" width="122" height="122" rx="0" fill="#FFFFFF" fill-opacity="1"/></g><g transform="matrix(0.7071067690849304,0.7071067690849304,-0.7071067690849304,0.7071067690849304,959.4995181916456,-2250.43661841171)" style="opacity:0.10000000149011612;"><rect x="3196.26708984375" y="33" width="122" height="122" rx="0" fill="#FFFFFF" fill-opacity="1"/></g></g></svg>