<svg xmlns="http://www.w3.org/2000/svg" xmlns:xlink="http://www.w3.org/1999/xlink" fill="none" version="1.1" width="135.7509765625" height="134.17626953125" viewBox="0 0 135.7509765625 134.17626953125"><g transform="matrix(0.9526006579399109,0.30422350764274597,-0.30422350764274597,0.9526006579399109,5.65357161994325,-10.966054985910887)"><path d="M96.8721766875,32.10403425Q97.1538316875,32.49934625,97.4664916875,32.870617249999995Q97.7791596875,33.24189025,98.12078868750001,33.58669825Q98.4624176875,33.93150525,98.8307836875,34.24759525Q99.1991426875,34.56368225,99.5918346875,34.84898925Q99.9845196875,35.13429225,100.3989676875,35.38694925Q100.8134156875,35.63960625,101.2469176875,35.85796525Q101.6804196875,36.076322250000004,102.1301426875,36.25895525Q102.5798646875,36.44158925,103.0428616875,36.587303250000005L109.7506406875,38.69834325Q110.0911786875,38.80551525,110.4247436875,38.93274325Q110.7583086875,39.059971250000004,111.0837176875,39.206802249999996Q111.4091336875,39.35363725,111.7252506875,39.51955825Q112.0413516875,39.68547825,112.3470386875,39.86989425Q112.6527256875,40.054312249999995,112.9469146875,40.256576249999995Q113.2410966875,40.45883925,113.5227276875,40.67823225Q113.8043666875,40.89762925,114.0724636875,41.133377249999995Q114.3405606875,41.369125249999996,114.5941616875,41.62039525Q114.8477706875,41.871666250000004,115.0859906875,42.13756925Q115.3242036875,42.403471249999996,115.5461956875,42.683063250000004Q115.7681886875,42.962658250000004,115.9731676875,43.254955249999995Q116.1781466875,43.54725225,116.3653866875,43.851215249999996Q116.5526276875,44.155182249999996,116.7214586875,44.469742249999996Q116.8903046875,44.78429825,117.0401386875,45.10833725Q117.1899866875,45.43238025,117.3202976875,45.76475125Q117.4506076875,46.09712625,117.5609286875,46.43665725Q117.6712496875,46.77619125,117.7611926875,47.12168125Q117.8511356875,47.46717025,117.9203716875,47.81739425Q117.9896166875,48.16762525,118.0379176875,48.52135125Q118.0862116875,48.87507625,118.1134036875,49.23104125Q118.1405946875,49.58700925,118.1465756875,49.94396225Q118.1525496875,50.30091825,118.1372906875,50.65759625Q118.1220396875,51.01427825,118.0856096875,51.36942325Q118.0491786875,51.72456325,117.9916996875,52.07691225Q117.9342196875,52.42926025,117.8558956875,52.77756925Q117.7775726875,53.12587725,117.6786726875,53.46891025Q117.5797886875,53.81195025,117.4606706875,54.14849825Q117.3415676875,54.48505025,117.2026516875,54.81392325Q117.0637516875,55.14279925,116.9055326875,55.46283325Q116.7473146875,55.78286725,116.5703506875,56.09292225Q116.3934016875,56.40299225,116.1983256875,56.70198425Q116.0032496875,57.00098425,115.7907406875,57.28784925L111.6048736875,62.93845725Q111.3159486875,63.32848725,111.0594636875,63.74057725Q110.8029786875,64.15267225,110.5806116875,64.58412924999999Q110.3582456875,65.01559025,110.1714626875,65.46360025Q109.9846796875,65.91161325,109.8346866875,66.37324525Q109.6846926875,66.83487725,109.5724796875,67.30711325Q109.4602506875,67.77935025,109.3865436875,68.25910925Q109.3128356875,68.73886825,109.2781066875,69.22301525Q109.2433856875,69.70716125,109.2478786875,70.19253125L109.3129806875,77.22436525Q109.3162836875,77.58136025,109.2983626875,77.93791225Q109.2804416875,78.29447125,109.2413406875,78.64932225Q109.2022556875,79.00418825,109.1421436875,79.35609425Q109.0820316875,79.70800825,109.0010986875,80.05571725Q108.9201736875,80.40342725,108.8187106875,80.74571225Q108.7172546875,81.08799725,108.5956266875,81.42364525Q108.4739986875,81.75930025,108.3326416875,82.08712725Q108.1912686875,82.41495525,108.0306696875,82.73379525Q107.8700636875,83.05264325,107.6907886875,83.36136625Q107.5115126875,83.67008925,107.3142016875,83.96761325Q107.1168976875,84.26514425,106.9022446875,84.55041525Q106.6875986875,84.83568525,106.4563676875,85.10768925Q106.2251436875,85.37969925,105.9781566875,85.63747425Q105.7311626875,85.89524825,105.4692836875,86.13788625Q105.2074126875,86.38053125,104.9315716875,86.60717725Q104.6557386875,86.83381625,104.3669126875,87.04365525Q104.0780946875,87.25349425,103.7773136875,87.44580125Q103.4765166875,87.63809225,103.1648256875,87.81217225Q102.8531336875,87.98625225,102.5316546875,88.14149525Q102.2101666875,88.29673725,101.88001968750001,88.43259425Q101.5498766875,88.56845125,101.2122416875,88.68444825Q100.8745996875,88.80043025,100.5306586875,88.89614125Q100.18672968749999,88.99185925,99.83771168749999,89.06695525Q99.4886936875,89.14205925,99.1358256875,89.19627425Q98.7829626875,89.25048825,98.4274976875,89.28363025Q98.0720286875,89.31677225,97.71522168749999,89.32872025Q97.35841768750001,89.34067525,97.0015336875,89.33139025Q96.64464968749999,89.32211325,96.28894468749999,89.29162625Q95.9332426875,89.26114625,95.5799826875,89.20957225Q95.2267226875,89.15800525,94.8771476875,89.08551025Q94.5275806875,89.01303125,94.1829416875,88.91990625Q93.8382946875,88.82676725,93.4997976875,88.71331025L86.8322486875,86.47844725Q86.3720246875,86.32418825,85.9008406875,86.20760325Q85.42966468750001,86.09101825,84.9506076875,86.01286325Q84.4715496875,85.93471525,83.9877436875,85.89551525Q83.5039446875,85.85630825,83.0185546875,85.85630825Q82.5331646875,85.85630825,82.0493586875,85.89550825Q81.5655556875,85.93471525,81.0865016875,86.01286325Q80.60744468749999,86.09101825,80.1362646875,86.20759625Q79.6650846875,86.32418825,79.2048606875,86.47844725L72.5373076875,88.71331025Q72.1988106875,88.82676725,71.8541676875,88.91990625Q71.5095216875,89.01303825,71.1599506875,89.08551825Q70.81038268750001,89.15800525,70.4571226875,89.20957925Q70.1038626875,89.26114625,69.7481576875,89.29162625Q69.3924556875,89.32211325,69.0355716875,89.33139025Q68.6786846875,89.34066725,68.32187668750001,89.32871225Q67.9650726875,89.31677225,67.6096096875,89.28363025Q67.2541466875,89.25048825,66.9012796875,89.19627425Q66.5484156875,89.14205925,66.1993956875,89.06695525Q65.8503776875,88.99185925,65.5064396875,88.89614125Q65.1625046875,88.80043025,64.8248676875,88.68444825Q64.4872286875,88.56845125,64.1570816875,88.43259425Q63.8269366875,88.29673725,63.5054516875,88.14149525Q63.1839656875,87.98625225,62.872276687500005,87.81217225Q62.5605886875,87.63809225,62.2598016875,87.44580125Q61.9590146875,87.25349425,61.670190687499996,87.04365525Q61.381366687500005,86.83381625,61.1055276875,86.60717725Q60.829688687499996,86.38053125,60.5678116875,86.13788625Q60.3059346875,85.89524825,60.0589466875,85.63747425Q59.811958687499995,85.37969925,59.5807286875,85.10768925Q59.3495026875,84.83568525,59.1348536875,84.55041525Q58.9202036875,84.26515225,58.7228946875,83.96762125Q58.5255846875,83.67009725,58.3463136875,83.36137425Q58.1670376875,83.05264325,58.0064356875,82.73379525Q57.8458326875,82.41495525,57.7044676875,82.08712725Q57.5631026875,81.75930025,57.441474687500005,81.42364525Q57.3198506875,81.08799725,57.2183936875,80.74571225Q57.1169356875,80.40342725,57.0360066875,80.05571725Q56.9550776875,79.70800825,56.8949626875,79.35609425Q56.834846687500004,79.00418825,56.7957576875,78.64932225Q56.7566716875,78.29447125,56.7387486875,77.93791225Q56.720825687499996,77.58136025,56.7241286875,77.22436525L56.789226687500005,70.19253125Q56.7937206875,69.70716125,56.7589966875,69.22301525Q56.7242736875,68.73886825,56.6505626875,68.25910925Q56.5768506875,67.77935025,56.4646316875,67.30711025Q56.3524126875,66.83487325,56.2024196875,66.37324125Q56.052425687500005,65.91160625,55.8656346875,65.46359625Q55.6788486875,65.01558725000001,55.4564856875,64.58412125000001Q55.2341236875,64.15266425,54.9776416875,63.74057425Q54.7211606875,63.32848325,54.4322316875,62.93845325L50.2463656875,57.28785325Q50.0338576875,57.00098425,49.8387796875,56.70198825Q49.6437016875,56.40299225,49.4667436875,56.09292625Q49.2897856875,55.78286725,49.1315736875,55.46282925Q48.9733616875,55.14279925,48.8344546875,54.81392325Q48.695547687499996,54.48505025,48.5764366875,54.14849825Q48.4573266875,53.81195025,48.358433687499996,53.46891025Q48.2595426875,53.12587725,48.1812176875,52.77757225Q48.1028936875,52.42926825,48.0454136875,52.07691525Q47.9879350875,51.72457125,47.9515037875,51.36942625Q47.9150714875,51.01428225,47.899816487500004,50.65760025Q47.8845634875,50.30092625,47.8905410875,49.94396925Q47.8965167875,49.58701325,47.923703187499996,49.23104125Q47.9508905875,48.87507625,47.9991902875,48.52135125Q48.0474906875,48.16762525,48.116732687500004,47.81739825Q48.1859756875,47.46717425,48.2759176875,47.12168125Q48.3658586875,46.77619125,48.476178687499996,46.43665725Q48.5864996875,46.09712625,48.7168106875,45.76475125Q48.8471206875,45.43238025,48.9969596875,45.10833725Q49.1467986875,44.78429825,49.3156376875,44.46974025Q49.4844756875,44.155182249999996,49.6717136875,43.851215249999996Q49.8589536875,43.54725225,50.0639306875,43.254955249999995Q50.2689096875,42.962658250000004,50.490899687500004,42.68306125Q50.7128926875,42.40346925,50.9511146875,42.137567250000004Q51.1893346875,41.871666250000004,51.442941687499996,41.62039525Q51.696549687499996,41.369125249999996,51.964645687499996,41.133377249999995Q52.2327416875,40.89762925,52.5143776875,40.67823225Q52.7960146875,40.45883925,53.0901966875,40.256576249999995Q53.3843786875,40.05431325,53.6900636875,39.86989625Q53.9957486875,39.68547825,54.3118576875,39.51956025Q54.6279636875,39.353641249999995,54.9533766875,39.20680625Q55.2787896875,39.059974249999996,55.6123556875,38.93274725Q55.9459226875,38.80551925,56.286460687499996,38.69834525L62.9942436875,36.587301249999996Q63.4572426875,36.44158525,63.906963687499996,36.258953250000005Q64.3566816875,36.076320249999995,64.7901836875,35.85796525Q65.2236826875,35.63960625,65.6381306875,35.38694925Q66.0525796875,35.13429225,66.4452686875,34.84898925Q66.8379556875,34.56368425,67.2063176875,34.24759625Q67.5746806875,33.931507249999996,67.9163096875,33.58670025Q68.2579386875,33.24189425,68.57060468750001,32.87062025Q68.8832706875,32.49934925,69.16492868750001,32.10403825L73.2454716875,26.37690125Q73.4526326875,26.08614825,73.6767116875,25.808223249999998Q73.9007876875,25.53029825,74.14099168749999,25.26618625Q74.3811986875,25.00207525,74.63668068749999,24.75271025Q74.8921586875,24.503345250000002,75.16201368750001,24.269609250000002Q75.4318696875,24.03587325,75.7151376875,23.81859325Q75.99841268750001,23.60131225,76.2940976875,23.40125625Q76.58978668750001,23.20120025,76.8968426875,23.019077250000002Q77.2039036875,22.83695325,77.5212406875,22.67340425Q77.8385806875,22.509857150000002,78.1650846875,22.365463249999998Q78.4915846875,22.22107025,78.8260916875,22.09634205Q79.1606026875,21.97161485,79.5019336875,21.86699395Q79.84326568750001,21.76237295,80.19021268750001,21.678228349999998Q80.5371626875,21.59408375,80.88849668750001,21.53071405Q81.23983368750001,21.46734335,81.5943146875,21.42497065Q81.9487986875,21.38259985,82.3051756875,21.361376749999998Q82.6615526875,21.34015275,83.0185546875,21.34015275Q83.3755566875,21.34015275,83.7319336875,21.361376749999998Q84.0883066875,21.38259985,84.4427866875,21.42497065Q84.7972716875,21.46734335,85.14861268749999,21.53071405Q85.4999466875,21.59408375,85.8468936875,21.678228349999998Q86.19384768750001,21.76237295,86.53517868750001,21.866994849999998Q86.8765106875,21.971615749999998,87.2110136875,22.09634305Q87.5455246875,22.22107125,87.8720316875,22.36546515Q88.19853168750001,22.50985905,88.5158726875,22.673405250000002Q88.8332136875,22.836954249999998,89.1402736875,23.019077250000002Q89.44732668750001,23.20120125,89.7430116875,23.40125625Q90.0387036875,23.60131325,90.3219716875,23.81859425Q90.6052436875,24.03587525,90.87509568749999,24.26961025Q91.1449506875,24.50334625,91.40042868750001,24.75271025Q91.6559106875,25.002076250000002,91.8961146875,25.26618725Q92.1363216875,25.53030025,92.3603976875,25.80822525Q92.58448068749999,26.08614925,92.7916376875,26.37690225L96.8721766875,32.10403425Z" fill="#F8D211" fill-opacity="1"/><path d="M110.9847416875,19.16801305L108.2656856875,15.35175705Q98.9950146875,2.34015325,83.0185546875,2.340152249999999Q67.0420986875,2.34015125,57.771423687500004,15.351755149999999L55.0523716875,19.16800685L50.5826646875,20.57469365Q35.3431024875,25.37082025,30.4061059875,40.56533425Q25.4691096875,55.75984925,34.9790849875,68.59759125L37.7683207975,72.36284624999999L37.7249431575,77.04847725Q37.5770454375,93.02425425,50.5022716875,102.41497825Q63.427493687500004,111.80570225,78.5756566875,106.72825625L83.0185546875,105.23905925L87.4614566875,106.72825625Q102.6096036875,111.80569425,115.5348276875,102.41497825Q128.4600526875,93.02425425,128.3121646875,77.04846925L128.2687836875,72.36285025000001L131.05802868749998,68.59757625Q140.56800468749998,55.75984525,135.6309966875,40.56533025Q130.6940006875,25.37081625,115.4544296875,20.57469175L110.9847416875,19.16801305ZM103.0428616875,36.587303250000005Q102.5798646875,36.44158925,102.1301426875,36.25895525Q101.6804196875,36.076322250000004,101.2469176875,35.85796525Q100.8134156875,35.63960625,100.3989676875,35.38694925Q99.9845196875,35.13429225,99.5918346875,34.84898925Q99.1991426875,34.56368225,98.8307796875,34.24759525Q98.4624176875,33.931507249999996,98.12078868750001,33.58670025Q97.7791596875,33.24189225,97.4664956875,32.870619250000004Q97.1538316875,32.49934625,96.8721766875,32.10403425L92.7916376875,26.37690225Q92.58448068749999,26.08614925,92.3604006875,25.808223249999998Q92.1363216875,25.53030025,91.8961146875,25.26618725Q91.6559106875,25.002076250000002,91.40042868750001,24.75271025Q91.1449506875,24.50334625,90.87509568749999,24.26961025Q90.6052436875,24.03587525,90.3219716875,23.81859425Q90.0386996875,23.60131425,89.7430076875,23.40125725Q89.44732268749999,23.20120225,89.1402666875,23.01907825Q88.8332096875,22.836954249999998,88.5158686875,22.673405250000002Q88.19853168750001,22.50985905,87.8720246875,22.36546515Q87.5455246875,22.22107125,87.2110136875,22.09634305Q86.8765106875,21.971615749999998,86.53517868750001,21.866994849999998Q86.19384768750001,21.76237295,85.8468936875,21.678228349999998Q85.4999466875,21.59408375,85.14861268749999,21.53071405Q84.7972716875,21.46734335,84.4427866875,21.42497065Q84.0883066875,21.38259985,83.7319336875,21.361376749999998Q83.3755566875,21.34015275,83.0185546875,21.34015275Q82.6615526875,21.34015275,82.3051756875,21.361376749999998Q81.9487986875,21.38259985,81.5943146875,21.42497065Q81.2398376875,21.46734335,80.8885006875,21.53071405Q80.5371626875,21.59408375,80.1902156875,21.678228349999998Q79.8432696875,21.76237295,79.5019376875,21.86699395Q79.1606066875,21.97161485,78.8260916875,22.09634205Q78.4915846875,22.22107025,78.1650846875,22.365463249999998Q77.8385806875,22.509857150000002,77.5212406875,22.67340425Q77.2039036875,22.83695325,76.8968426875,23.019077250000002Q76.58978668750001,23.20120025,76.2940976875,23.40125625Q75.99841268750001,23.60131225,75.7151376875,23.81859325Q75.4318696875,24.03587325,75.16201368750001,24.269609250000002Q74.8921586875,24.503345250000002,74.63668068749999,24.75271025Q74.3811986875,25.00207525,74.14099168749999,25.26618625Q73.9007876875,25.53029825,73.6767116875,25.808223249999998Q73.4526326875,26.08614825,73.2454716875,26.37690125L69.16492868750001,32.10403825Q68.8832706875,32.49934925,68.5706066875,32.87062225Q68.2579406875,33.24189425,67.9163116875,33.58670025Q67.5746806875,33.931507249999996,67.2063196875,34.24759625Q66.8379576875,34.56368625,66.4452706875,34.84899125Q66.0525816875,35.13429625,65.63813168749999,35.386951249999996Q65.2236826875,35.63960625,64.7901836875,35.85796525Q64.3566816875,36.076320249999995,63.906963687499996,36.258953250000005Q63.4572426875,36.44158525,62.9942436875,36.587301249999996L56.286460687499996,38.69834525Q55.9459226875,38.80551925,55.6123556875,38.93274725Q55.2787896875,39.059974249999996,54.9533766875,39.20680625Q54.6279636875,39.353641249999995,54.3118576875,39.51955825Q53.9957486875,39.68547825,53.6900636875,39.86989425Q53.3843786875,40.054312249999995,53.0901966875,40.256576249999995Q52.7960146875,40.45883925,52.5143776875,40.67823225Q52.2327416875,40.89762925,51.964645687499996,41.133377249999995Q51.696549687499996,41.369125249999996,51.442941687499996,41.62039525Q51.1893346875,41.871666250000004,50.9511146875,42.13756925Q50.7128926875,42.403471249999996,50.490899687500004,42.683063250000004Q50.2689096875,42.962658250000004,50.0639316875,43.254955249999995Q49.8589536875,43.54725225,49.6717136875,43.851215249999996Q49.4844756875,44.155182249999996,49.3156376875,44.469742249999996Q49.1467986875,44.78429825,48.9969596875,45.10833725Q48.8471216875,45.43238025,48.7168106875,45.76475125Q48.5865006875,46.09712625,48.4761796875,46.43665725Q48.3658596875,46.77619125,48.2759176875,47.12168125Q48.1859766875,47.46717425,48.1167336875,47.81739825Q48.0474906875,48.16762525,47.9991912875,48.52135125Q47.9508905875,48.87507625,47.923703187499996,49.23104125Q47.8965167875,49.58701325,47.8905400875,49.94396925Q47.8845634875,50.30092625,47.899816487500004,50.65760025Q47.9150714875,51.01428225,47.9515037875,51.36942625Q47.9879350875,51.72457125,48.0454136875,52.07691525Q48.1028936875,52.42926825,48.1812176875,52.77757225Q48.2595426875,53.12587725,48.358433687499996,53.46891025Q48.4573266875,53.81195025,48.5764366875,54.14849825Q48.695547687499996,54.48505025,48.8344546875,54.81392325Q48.9733616875,55.14279925,49.1315736875,55.46283325Q49.2897856875,55.78286725,49.4667436875,56.09292625Q49.6437016875,56.40299225,49.8387796875,56.70198825Q50.0338576875,57.00098425,50.2463656875,57.28785325L54.4322316875,62.93845325Q54.7211606875,63.32848325,54.9776416875,63.74057425Q55.2341246875,64.15266425,55.4564876875,64.58412525Q55.6788486875,65.01558725000001,55.8656366875,65.46360025Q56.052425687500005,65.91161325,56.2024196875,66.37324525Q56.3524126875,66.83487725,56.4646316875,67.30711325Q56.5768506875,67.77935025,56.6505626875,68.25910925Q56.7242736875,68.73886825,56.7589966875,69.22301525Q56.7937206875,69.70716125,56.789226687500005,70.19253125L56.7241286875,77.22436525Q56.720825687499996,77.58136025,56.7387486875,77.93791225Q56.7566716875,78.29447125,56.7957576875,78.64932225Q56.834846687500004,79.00418825,56.8949626875,79.35609425Q56.9550776875,79.70800825,57.0360066875,80.05571725Q57.1169356875,80.40342725,57.2183936875,80.74571225Q57.3198506875,81.08799725,57.441474687500005,81.42364525Q57.5631026875,81.75930025,57.7044676875,82.08712725Q57.8458326875,82.41495525,58.0064356875,82.73379525Q58.1670376875,83.05264325,58.3463116875,83.36136625Q58.5255846875,83.67008925,58.7228946875,83.96761325Q58.9202056875,84.26514425,59.1348556875,84.55041525Q59.3495026875,84.83568525,59.5807306875,85.10768925Q59.811958687499995,85.37969925,60.0589466875,85.63747425Q60.3059346875,85.89524825,60.5678116875,86.13788625Q60.829688687499996,86.38053125,61.1055276875,86.60717725Q61.381366687500005,86.83381625,61.670190687499996,87.04365525Q61.9590146875,87.25349425,62.259803687499996,87.44580125Q62.5605886875,87.63809225,62.872276687500005,87.81217225Q63.1839656875,87.98625225,63.5054516875,88.14149525Q63.8269366875,88.29673725,64.1570816875,88.43259425Q64.4872286875,88.56845125,64.8248656875,88.68444825Q65.1625046875,88.80043025,65.5064396875,88.89614125Q65.8503776875,88.99185925,66.1993956875,89.06695525Q66.5484156875,89.14205925,66.9012796875,89.19627425Q67.2541466875,89.25048825,67.6096096875,89.28363025Q67.9650726875,89.31677225,68.32187668750001,89.32872025Q68.6786846875,89.34067525,69.0355716875,89.33139025Q69.3924556875,89.32211325,69.7481576875,89.29162625Q70.1038626875,89.26114625,70.4571226875,89.20957225Q70.81038268750001,89.15800525,71.1599506875,89.08551025Q71.5095216875,89.01303125,71.8541676875,88.91990625Q72.1988106875,88.82676725,72.5373076875,88.71331025L79.2048606875,86.47844725Q79.6650846875,86.32418825,80.1362646875,86.20760325Q80.60744468749999,86.09101825,81.0864986875,86.01286325Q81.5655516875,85.93471525,82.0493586875,85.89551525Q82.5331646875,85.85630825,83.0185546875,85.85630825Q83.5039446875,85.85630825,83.9877436875,85.89550825Q84.4715496875,85.93471525,84.9506076875,86.01286325Q85.42966468750001,86.09101825,85.9008406875,86.20759625Q86.3720246875,86.32418825,86.8322486875,86.47844725L93.4997976875,88.71331025Q93.8382946875,88.82676725,94.1829416875,88.91990625Q94.5275806875,89.01303825,94.8771476875,89.08551825Q95.2267226875,89.15800525,95.5799786875,89.20957925Q95.9332426875,89.26114625,96.28894468749999,89.29162625Q96.64464968749999,89.32211325,97.0015336875,89.33139025Q97.35841768750001,89.34066725,97.71522168749999,89.32871225Q98.0720286875,89.31677225,98.4274976875,89.28363025Q98.7829626875,89.25048825,99.1358256875,89.19627425Q99.4886936875,89.14205925,99.83771168749999,89.06695525Q100.18672968749999,88.99185925,100.5306626875,88.89614125Q100.8746036875,88.80043025,101.2122416875,88.68444825Q101.5498766875,88.56845125,101.88001968750001,88.43259425Q102.2101666875,88.29673725,102.5316466875,88.14149525Q102.8531336875,87.98625225,103.1648256875,87.81217225Q103.4765166875,87.63809225,103.7773056875,87.44580125Q104.0780946875,87.25349425,104.3669126875,87.04365525Q104.6557386875,86.83381625,104.9315796875,86.60717725Q105.2074126875,86.38053125,105.4692836875,86.13788625Q105.7311626875,85.89524825,105.9781496875,85.63747425Q106.2251436875,85.37969925,106.4563746875,85.10768925Q106.6876066875,84.83568525,106.9022526875,84.55041525Q107.1168976875,84.26515225,107.3142086875,83.96762125Q107.5115206875,83.67009725,107.6908036875,83.36137425Q107.8700786875,83.05264325,108.0306776875,82.73379525Q108.1912836875,82.41495525,108.3326416875,82.08712725Q108.4740066875,81.75930025,108.5956266875,81.42364525Q108.7172546875,81.08799725,108.8187176875,80.74571225Q108.9201736875,80.40342725,109.0010986875,80.05571725Q109.0820316875,79.70800825,109.1421436875,79.35609425Q109.2022556875,79.00418825,109.2413406875,78.64932225Q109.2804416875,78.29447125,109.2983626875,77.93791225Q109.3162836875,77.58136025,109.3129806875,77.22436525L109.2478786875,70.19253125Q109.2433856875,69.70716125,109.2781066875,69.22301525Q109.3128276875,68.73886825,109.3865356875,68.25910925Q109.4602506875,67.77935025,109.5724716875,67.30711025Q109.6846926875,66.83487325,109.8346866875,66.37324125Q109.9846796875,65.91160925,110.1714626875,65.46360025Q110.3582536875,65.01559025,110.5806196875,64.58412924999999Q110.8029786875,64.15267225,111.0594636875,63.74057725Q111.3159486875,63.32848725,111.6048736875,62.93845725L115.7907406875,57.28784925Q116.0032496875,57.00098425,116.1983186875,56.70198825Q116.3934016875,56.40299225,116.5703506875,56.09292625Q116.7473146875,55.78286725,116.9055256875,55.46282925Q117.0637356875,55.14279925,117.2026366875,54.81392325Q117.3415526875,54.48504625,117.4606626875,54.14849825Q117.5797656875,53.81194725,117.6786496875,53.46891025Q117.7775496875,53.12587725,117.8558806875,52.77756925Q117.9342036875,52.42926025,117.9916836875,52.07691225Q118.0491636875,51.72456325,118.0855936875,51.36941925Q118.1220246875,51.01427425,118.1372756875,50.65759325Q118.1525346875,50.30091825,118.1465606875,49.94396225Q118.1405796875,49.58700525,118.1133876875,49.23103725Q118.0862046875,48.87506825,118.0379026875,48.52134725Q117.9896086875,48.16762525,117.9203566875,47.81739425Q117.8511196875,47.46717025,117.7611766875,47.12168125Q117.6712416875,46.77619125,117.5609206875,46.43665725Q117.4506076875,46.09712625,117.3202896875,45.76475125Q117.1899866875,45.43238025,117.0401386875,45.10833725Q116.8903046875,44.78429825,116.7214586875,44.46974025Q116.5526276875,44.155182249999996,116.3653866875,43.851215249999996Q116.1781466875,43.54725225,115.9731676875,43.254955249999995Q115.7681886875,42.962658250000004,115.5461956875,42.68306125Q115.3242036875,42.40346925,115.0859836875,42.137567250000004Q114.8477706875,41.871666250000004,114.5941616875,41.62039525Q114.3405606875,41.369125249999996,114.0724636875,41.133377249999995Q113.8043666875,40.89762725,113.5227276875,40.67823025Q113.2410966875,40.45883525,112.9469146875,40.256572250000005Q112.6527326875,40.05431025,112.3470456875,39.86989225Q112.0413586875,39.68547425,111.7252506875,39.51955625Q111.4091336875,39.35363725,111.0837176875,39.206802249999996Q110.7583086875,39.059971250000004,110.4247436875,38.93274325Q110.0911786875,38.80551525,109.7506406875,38.69834325L103.0428616875,36.587303250000005Z" fill-rule="evenodd" fill="#FFFFFF" fill-opacity="1"/></g></svg>