<svg xmlns="http://www.w3.org/2000/svg" xmlns:xlink="http://www.w3.org/1999/xlink" fill="none" version="1.1" width="338.57568359375" height="104" viewBox="0 0 338.57568359375 104"><g><path d="M7.45568369375,43.984001L8.03168369375,51.279999L21.85568459375,50L21.85568459375,53.327999L30.23968459375,53.327999L30.23968459375,49.167999L36.57568359375,48.528L35.67968559375,49.68C37.59968559375,50.512001,41.24768459375,53.007999,42.71968459375,54.287998C45.91968559375,50.575996,47.39168559375,45.391998,48.03168459375,40.335999L51.87168459375,40.335999L51.87168459375,53.584L60.25568759375,53.584L60.25568759375,40.335999L66.07968559375,40.335999L66.07968559375,33.167999L48.47968659375,33.167999L48.47968659375,32.848L48.47968659375,29.519997C54.43168659375,29.007999,60.63968659375,28.047997,65.63168759375,26.703999L61.85568659375,19.663998C56.09568759375,21.455997,47.77568459375,22.735996,40.35168459375,23.375999L40.35168459375,32.655998C40.35168459375,37.135998,40.09568359375,42.832001,37.21568659375,47.568001L37.21568659375,42.063999L30.23968459375,42.575996L30.23968459375,40.719997L38.43168659375,40.719997L38.43168659375,33.679996L30.23968459375,33.679996L30.23968459375,30.415997L21.85568459375,30.415997L21.85568459375,33.679996L17.43968359375,33.679996C18.65568459375,32.399998,19.87168359375,31.056,21.08768459375,29.584L38.17568559375,29.584L38.17568559375,22.799999L26.07968559375,22.799999L26.91168359375,21.519997L17.50368359375,19.471996C17.05568359375,20.559998,16.54368359375,21.711998,15.96768359375,22.799999L7.58368369375,22.799999L7.58368369375,29.584L11.61568399375,29.584L10.46368409375,31.056C9.18368389375,32.463997,8.09568379375,33.487999,6.87968369375,33.807999C7.83968379375,36.047997,9.18368389375,40.079998,9.63168379375,41.743999C10.207683993749999,41.104,12.83168409375,40.719997,15.32768459375,40.719997L21.85568459375,40.719997L21.85568459375,43.087997L7.45568369375,43.984001ZM23.19968459375,69.456001L49.75968559375,69.456001L49.75968559375,71.375999L23.19968459375,71.375999L23.19968459375,69.456001ZM23.19968459375,63.439999L23.19968459375,61.52L49.75968559375,61.52L49.75968559375,63.439999L23.19968459375,63.439999ZM14.43168449375,54.671997L14.43168449375,80.080002L23.19968459375,80.080002L23.19968459375,78.223999L49.75968559375,78.223999L49.75968559375,80.080002L58.97568559375,80.080002L58.97568559375,54.671997L14.43168449375,54.671997ZM97.37568659375,47.503998C100.25568359375,51.984001,104.35168459375,58.063999,106.14368359375,61.711998L114.39969359375,56.911999C112.35168359375,53.327999,107.99968359375,47.568001,105.05568359375,43.407997L97.37568659375,47.503998ZM86.81568859375,50L86.81568859375,59.984001L80.92768059375,59.984001L80.92768059375,50L86.81568859375,50ZM86.81568859375,41.935997L80.92768059375,41.935997L80.92768059375,32.335999L86.81568859375,32.335999L86.81568859375,41.935997ZM72.22368659375,24.079998L72.22368659375,73.360001L80.92768059375,73.360001L80.92768059375,68.239998L95.45568859375,68.239998L95.45568859375,24.079998L72.22368659375,24.079998ZM115.74368359375,19.727997L115.74368359375,30.543999L97.56768759375,30.543999L97.56768759375,39.759998L115.74368359375,39.759998L115.74368359375,68.047997C115.74368359375,69.328003,115.23169359375,69.776001,113.82368359375,69.776001C112.41568359375,69.776001,107.61568359375,69.776001,103.45568859375,69.584C104.79968359375,72.143997,106.27168359375,76.304001,106.65568359375,78.928001C113.05568359375,78.991997,117.79168359375,78.736,120.99168359375,77.264C124.19168359375,75.856003,125.21568359375,73.424004,125.21568359375,68.176003L125.21568359375,39.759998L131.03968359375,39.759998L131.03968359375,30.543999L125.21568359375,30.543999L125.21568359375,19.727997L115.74368359375,19.727997ZM139.03968359375,23.119999L139.03968359375,32.207996L158.49568359375,32.207996C158.36769359375,35.151997,158.23968359375,38.16,157.91967359375,41.039997L135.26368359375,41.039997L135.26368359375,50.192001L156.19168359375,50.192001C153.50369359375,59.152,147.55168359375,66.959999,134.04768359375,72.080002C136.47969359375,74.064003,139.03968359375,77.519997,140.31968359375,79.952003C154.27168359375,74.127998,161.05568359375,65.360001,164.51168359375,55.375999L164.51168359375,66.639999C164.51168359375,75.472,166.75167359375,78.416,175.71168359375,78.416C177.43968359375,78.416,182.11169359375,78.416,183.90368359375,78.416C191.45568359375,78.416,194.01568359375,75.344002,195.03968359375,64.015999C192.41568359375,63.375999,188.12768359375,61.776001,186.14367359375,60.175999C185.75969359375,68.112,185.37568359375,69.328003,183.07168359375,69.328003C181.85568359375,69.328003,178.20768359375,69.328003,177.11969359375,69.328003C174.68768359375,69.328003,174.36769359375,69.008003,174.36769359375,66.512001L174.36769359375,50.192001L194.33569359375,50.192001L194.33569359375,41.039997L167.45568359375,41.039997C167.77568359375,38.095997,167.96768359375,35.151997,168.09568359375,32.207996L190.94369359375,32.207996L190.94369359375,23.119999L139.03968359375,23.119999ZM229.79168359375,48.463997C231.64769359375,53.136002,233.95169359375,59.279999,234.91168359375,62.992001L243.29568359375,59.535999C242.14367359375,55.888,239.51968359375,49.935997,237.59968359375,45.519997L229.79168359375,48.463997ZM244.06369359375,19.919998L244.06369359375,33.103996L230.23968359375,33.103996L230.23968359375,42.063999L244.06369359375,42.063999L244.06369359375,69.648003C244.06369359375,70.671997,243.67968359375,71.056,242.52768359375,71.056C241.37568359375,71.056,237.98368359375,71.056,234.71968359375,70.928001C236.06369359375,73.360001,237.72769359375,77.456001,238.11169359375,80.015999C243.16769359375,80.015999,247.00769359375,79.632004,249.69568359375,78.160004C252.38368359375,76.688004,253.27969359375,74.255997,253.27969359375,69.648003L253.27969359375,42.063999L258.52768359375,42.063999L258.52768359375,33.103996L253.27969359375,33.103996L253.27969359375,19.919998L244.06369359375,19.919998ZM209.88768359375,19.279999L209.88768359375,26.127998L200.86367359375,26.127998L200.86367359375,34.383999L209.88768359375,34.383999L209.88768359375,39.183998L199.19967359375,39.183998L199.19967359375,47.568001L228.89569359375,47.568001L228.89569359375,39.183998L218.91168359375,39.183998L218.91168359375,34.383999L227.67968359375,34.383999L227.67968359375,26.127998L218.91168359375,26.127998L218.91168359375,19.279999L209.88768359375,19.279999ZM198.17569359375,68.624001L199.19967359375,77.776001C207.71168359375,76.688004,219.29568359375,75.344002,230.04768359375,74L229.72769359375,65.360001L218.91168359375,66.575996L218.91168359375,61.776001L228.38368359375,61.776001L228.38368359375,53.519997L218.91168359375,53.519997L218.91168359375,48.975998L209.88768359375,48.975998L209.88768359375,53.519997L200.41568359375,53.519997L200.41568359375,61.776001L209.88768359375,61.776001L209.88768359375,67.536003L198.17569359375,68.624001ZM288.22369359375,54.543999L295.96768359375,54.543999L295.96768359375,57.935997L288.22369359375,57.935997L288.22369359375,54.543999ZM288.22369359375,47.375999L288.22369359375,44.367996L295.96768359375,44.367996L295.96768359375,47.375999L288.22369359375,47.375999ZM288.22369359375,65.103996L295.96768359375,65.103996L295.96768359375,68.367996L288.22369359375,68.367996L288.22369359375,65.103996ZM263.45568359375,22.607998L263.45568359375,31.375999L286.23968359375,31.375999L285.59967359375,35.855999L265.95169359375,35.855999L265.95169359375,80.080002L274.91168359375,80.080002L274.91168359375,76.879997L309.66369359375,76.879997L309.66369359375,80.080002L319.13568359375,80.080002L319.13568359375,35.855999L295.45568359375,35.855999L296.86367359375,31.375999L321.95169359375,31.375999L321.95169359375,22.607998L263.45568359375,22.607998ZM274.91168359375,68.367996L274.91168359375,44.367996L279.96768359375,44.367996L279.96768359375,68.367996L274.91168359375,68.367996ZM309.66369359375,68.367996L304.28769359375,68.367996L304.28769359375,44.367996L309.66369359375,44.367996L309.66369359375,68.367996Z" fill="#FFFFFF" fill-opacity="1"/><path d="M3.61960458375,39.213024L2.07107739375,39.309376L2.47119279375,44.377514L3.44607229375,56.725979L9.43168449375,56.171757L9.43168449375,85.080002L28.19968459375,85.080002L28.19968459375,83.223999L44.75968559375,83.223999L44.75968559375,85.080002L63.97568559375,85.080002L63.97568559375,58.584L65.25568759375,58.584L65.25568759375,45.335999L67.22368659375,45.335999L67.22368659375,78.360001L85.92768059375,78.360001L85.92768059375,73.239998L99.69042159375,73.239998Q101.26087959375,76.59407,101.70838159375,79.652L102.32784259375,83.884979L106.60569359375,83.92775Q118.21729359375,84.043854,123.08121359375,81.80645Q127.69207359375,79.77816,129.32303359374998,74.678421L130.88705359375,75.95433Q133.82826359375,78.353729,135.89509359375,82.280731L138.02519359375,86.327934L142.24577359375,84.566132Q153.08369359375,80.042038,160.02392359375,72.547981Q160.85972359375,76.80233,163.05925359375,79.211342Q166.89828359375,83.416,175.71168359375,83.416L183.90368359375,83.416Q190.64950359375,83.416,194.42509359375,80.069611L194.79229359375,83.351532L223.75953359375,79.813156L232.69812359375,78.711075Q233.02125359375,79.786011,233.16700359375,80.757706L233.80575359375,85.015999L238.11169359375,85.015999Q247.58589359375,85.015999,252.09726359375,82.545479Q258.27969359375004,79.159866,258.27969359375004,69.648003L258.27969359375004,47.063999L260.95169359375,47.063999L260.95169359375,85.080002L279.91168359375,85.080002L279.91168359375,81.879997L304.66369359375,81.879997L304.66369359375,85.080002L324.13568359375,85.080002L324.13568359375,36.375999L326.95169359375,36.375999L326.95169359375,17.607998L258.45568359375,17.607998L258.45568359375,28.103996L258.27969359375004,28.103996L258.27969359375004,14.919998L239.06369359375,14.919998L239.06369359375,28.103996L232.67968359375,28.103996L232.67968359375,21.127998L223.91168359375,21.127998L223.91168359375,14.279999L204.88768359375,14.279999L204.88768359375,21.127998L195.94369359375,21.127998L195.94369359375,18.119999L134.03968359375,18.119999L134.03968359375,25.543999L130.21568359375,25.543999L130.21568359375,14.727997L110.74368359375,14.727997L110.74368359375,25.543999L100.45568859375,25.543999L100.45568859375,19.079998L67.22368659375,19.079998L67.22368659375,19.09384L64.31114959375,13.663687L60.37035359375,14.889713Q53.64288759375,16.982702,43.17568559375,18.083914L43.17568559375,17.799999L33.32961459375,17.799999L14.47492119375,13.695576L12.88029289375,17.568249Q12.83205889375,17.685389,12.78419779375,17.799999L2.5836836937500003,17.799999L2.5836836937500003,29.768291L-0.00006010625000030245,30.448223L2.28395959375,35.777596Q3.01049499375,37.472843,3.61960458375,39.213024ZM13.04014679375,40.826336C11.40487909375,40.981918,10.02959629375,41.301876,9.63168379375,41.743999C9.453356693749999,41.081642,9.13306329375,40.044083,8.75153159375,38.8937C8.72804119375,38.822872,8.70431849375,38.751617,8.680382693750001,38.679996C8.660675093750001,38.621025,8.64082289375,38.561806,8.62083629375,38.502373C8.44376469375,37.975819,8.25616879375,37.432449,8.065361993749999,36.89603C8.012795893749999,36.748249,7.95998599375,36.600998,7.90708539375,36.454769C7.66844769375,35.795124,7.42796249375,35.156326,7.19966749375,34.584C7.08965159375,34.308193,6.98246689375,34.047825,6.87968369375,33.807999C7.22126559375,33.718109,7.5527469937500005,33.57267,7.88122129375,33.378769C8.72208599375,32.882404,9.543243893749999,32.068481,10.46368409375,31.056L11.61568399375,29.584L7.58368369375,29.584L7.58368369375,22.799999L15.96768359375,22.799999C16.54368359375,21.711998,17.05568359375,20.559998,17.50368359375,19.471996L21.68746559375,20.382751L26.07968559375,21.338881L26.91168359375,21.519997L26.07968559375,22.799999L38.17568559375,22.799999L38.17568559375,29.584L21.08768459375,29.584C19.87168359375,31.056,18.65568459375,32.399998,17.43968359375,33.679996L21.85568459375,33.679996L21.85568459375,30.415997L30.23968459375,30.415997L30.23968459375,33.679996L38.43168659375,33.679996L38.43168659375,40.719997L30.23968459375,40.719997L30.23968459375,42.575996L32.21568659375,42.430969L34.14238759375,42.289562L35.23968459375,42.209026L37.21568659375,42.063999L37.21568659375,47.568001C37.31885159375,47.398354,37.41864759375,47.227474,37.51518659375,47.055466C37.53501159375,47.020145,37.55469159375,46.984776,37.57424159375,46.94936C37.79731759375,46.545242,38.00262859375,46.135029,38.19157459375,45.719997C38.24096259375,45.611515,38.28923059375,45.502705,38.33640659375,45.393589C38.64135359375,44.688259,38.90062759375,43.970146,39.12098659375,43.245457C39.77001559375,41.111012,40.08143959375,38.919502,40.22779859375,36.829479C40.28134559375,36.064816,40.31279759375,35.313732,40.33060459375,34.584C40.34676359375,33.921818,40.35168459375,33.277218,40.35168459375,32.655998L40.35168459375,23.375999C41.28123059375,23.295866,42.22482659375,23.205698,43.17568559375,23.105749C49.81902359375,22.407436,56.81689059375,21.231625,61.85568659375,19.663998L63.19953559375,22.169476L65.63168759375,26.703999C64.05341759375,27.128916,62.35360359375,27.515451,60.57875859375,27.86158C60.03550759375,27.967525,59.48522559375,28.069683,58.92924859375,28.167999C55.55638859375,28.764437,51.97392259375,29.219419,48.47968659375,29.519997L48.47968659375,33.167999L66.07968559375,33.167999L66.07968559375,40.335999L60.25568759375,40.335999L60.25568759375,53.584L51.87168459375,53.584L51.87168459375,40.335999L48.03168459375,40.335999C47.78533159375,42.2822,47.41569859375,44.247368,46.87168459375,46.140244C46.52246859375,47.355331,46.10139459375,48.540627,45.59494759375,49.671997C45.54144659375,49.791519,45.48698759375,49.910439,45.43156459375,50.028728C44.70569959375,51.577908,43.81367159375,53.01897,42.71968459375,54.287998C42.69496959375,54.266506,42.66963959375,54.244671,42.64371459375,54.222507C42.02326159375,53.692051,41.06199659375,52.973034,40.01327159375,52.252354C38.92376359375,51.503647,37.73986059375,50.753151,36.74562459375,50.210411C36.355361593750004,49.997372,35.99432159375,49.816341,35.67968559375,49.68L35.68591159375,49.671997L36.40862059375,48.742794L36.57568359375,48.528L36.160722593749995,48.569916L35.889408593750005,48.597321L30.23968459375,49.167999L30.23968459375,53.327999L21.85568459375,53.327999L21.85568459375,50L16.85568459375,50.462963L13.01084419375,50.818966L9.43168449375,51.150368L8.03168369375,51.279999L8.01107119375,51.018906L7.8492507937500005,48.969181L7.63813519375,46.295052L7.45568369375,43.984001L12.44672389375,43.673447L21.85568459375,43.087997L21.85568459375,40.719997L15.32768459375,40.719997C14.55597019375,40.719997,13.77202029375,40.756702,13.04014679375,40.826336ZM16.85568459375,54.671997L14.43168449375,54.671997L14.43168449375,80.080002L23.19968459375,80.080002L23.19968459375,78.223999L49.75968559375,78.223999L49.75968559375,80.080002L58.97568559375,80.080002L58.97568559375,54.671997L16.85568459375,54.671997ZM23.19968459375,61.52L23.19968459375,63.439999L49.75968559375,63.439999L49.75968559375,61.52L23.19968459375,61.52ZM23.19968459375,69.456001L23.19968459375,71.375999L49.75968559375,71.375999L49.75968559375,69.456001L23.19968459375,69.456001ZM72.22368659375,30.107275L72.22368659375,73.360001L80.92768059375,73.360001L80.92768059375,68.239998L95.45568859375,68.239998L95.45568859375,24.079998L72.22368659375,24.079998L72.22368659375,30.107275ZM100.10684159375,51.71405C99.15136759375,50.241581,98.21223459375,48.805294,97.37568659375,47.503998L100.45568859375,45.861328L101.80244459375,45.143059L102.52068359375,44.759998L105.05568359375,43.407997C105.36327359375,43.842632,105.68624359375,44.294735,106.02033359375,44.759998C107.49898359375,46.819176,109.19577359375,49.136116,110.74368359375,51.337467C111.06785359375,51.798485,111.38549359375,52.254433,111.69323359375,52.701881C112.65067359375,54.093998,113.51228359375,55.403847,114.17652359375,56.528149C114.25362359375,56.658653,114.32806359375,56.786655,114.39969359375,56.911999L110.74368359375,59.037582L110.47445359375,59.194115L106.14368359375,61.711998C105.54071359375,60.484509,104.67686359375,58.98167,103.68627159375,57.357082C102.69192459375,55.726337,101.56985459375,53.972927,100.45568859375,52.252201C100.33927159375,52.072403,100.22293059375,51.89296,100.10684159375,51.71405ZM100.45568859375,61.729671L100.45568859375,64.440216L101.94697559375,64.509048L101.65591459375,63.916519Q101.25024459375,63.090698,100.45568859375,61.729671ZM115.74368359375,61.914249L115.74368359375,68.047997C115.74368359375,69.328003,115.23169359375,69.776001,113.82368359375,69.776001C113.04844359375,69.776001,111.24488359375,69.776001,109.08602359375,69.74395C107.32395359375,69.717789,105.32519359375,69.670288,103.45568859375,69.584C104.18545559375,70.97403,104.95295359375,72.835793,105.56353359375,74.667244C106.07744359375,76.208748,106.48018359375,77.728783,106.65568359375,78.928001C113.05568359375,78.991997,117.79168359375,78.736,120.99168359375,77.264C123.50032359375,76.160202,124.67163359375,74.427071,125.06067359375,71.201241C125.10270359375,70.852745,125.13559359375,70.486832,125.16006359375,70.102402C125.19801359375,69.506149,125.21568359375,68.865372,125.21568359375,68.176003L125.21568359375,39.759998L131.03968359375,39.759998L131.03968359375,30.543999L125.21568359375,30.543999L125.21568359375,19.727997L115.74368359375,19.727997L115.74368359375,30.543999L97.56768759375,30.543999L97.56768759375,39.759998L115.74368359375,39.759998L115.74368359375,61.914249ZM136.03968359375,41.039997L135.26368359375,41.039997L135.26368359375,50.192001L156.19168359375,50.192001C155.67799359375,51.904316,155.04509359375,53.574554,154.26306359375,55.192001C151.50110359375,60.90443,146.87892359375,65.958351,139.07814359375,69.881493C137.52995359375,70.660103,135.85656359375,71.394165,134.04768359375,72.080002C135.30551359375,73.106125,136.59756359375,74.525986,137.72908359375,75.994293C138.78534359375,77.364952,139.70170359375,78.777824,140.31968359375,79.952003C149.40074359375,76.161278,155.44513359375,71.12336,159.51168359375,65.314705C161.69291359375,62.199036,163.30513359375,58.861626,164.51168359375,55.375999L164.51168359375,66.639999C164.51168359375,66.684601,164.51173359375,66.729057,164.51185359375,66.773361C164.53448359375,75.501663,166.79693359375,78.416,175.71168359375,78.416L183.90368359375,78.416C189.12860359375,78.416,191.96400359375,76.945541,193.55442359375,72.287819C194.26277359375,70.213348,194.72415359375,67.50663,195.03968359375,64.015999C194.92495359375,63.988014,194.80703359375,63.958199,194.68628359375,63.926624C193.60771359375,63.64463,192.30185359375,63.222641,191.00499359375,62.717819C189.12613359375,61.986446,187.26616359375,61.081223,186.14367359375,60.175999C186.02205359375,62.689831,185.90040359375,64.529388,185.71774359375,65.869606C185.32376359375,68.760361,184.64586359375,69.328003,183.07168359375,69.328003L177.11969359375,69.328003C174.68768359375,69.328003,174.36769359375,69.008003,174.36769359375,66.512001L174.36769359375,50.192001L194.33569359375,50.192001L194.33569359375,41.039997L167.45568359375,41.039997C167.63684359375,39.373329,167.77699359375,37.706665,167.88771359375,36.039997C167.97256359375,34.762665,168.04014359375,33.485329,168.09568359375,32.207996L190.94369359375,32.207996L190.94369359375,23.119999L139.03968359375,23.119999L139.03968359375,32.207996L158.49568359375,32.207996C158.42361359375,33.865795,158.35153359375,35.543892,158.24516359375,37.207996C158.16264359375,38.499088,158.05948359375,39.781757,157.91967359375,41.039997L136.03968359375,41.039997ZM199.33569359375,39.183998L199.19967359375,39.183998L199.19967359375,47.568001L228.89569359375,47.568001L228.89569359375,39.183998L218.91168359375,39.183998L218.91168359375,34.383999L227.67968359375,34.383999L227.67968359375,26.127998L218.91168359375,26.127998L218.91168359375,19.279999L209.88768359375,19.279999L209.88768359375,26.127998L200.86367359375,26.127998L200.86367359375,34.383999L209.88768359375,34.383999L209.88768359375,39.183998L199.33569359375,39.183998ZM230.23968359375,34.183998L230.23968359375,42.063999L244.06369359375,42.063999L244.06369359375,69.648003C244.06369359375,70.671997,243.67968359375,71.056,242.52768359375,71.056C242.09416359375,71.056,241.34340359375,71.056,240.40162359375,71.049179C238.89650359375,71.038277,236.90344359375,71.009949,234.93763359375,70.936356C234.86494359375,70.933632,234.79228359375,70.930847,234.71968359375,70.928001C234.79663359375,71.067245,234.87463359375,71.211952,234.95338359375,71.361511C235.64236359375,72.66996,236.38865359375,74.349968,236.99113359375,75.999329C237.52252359375,77.454063,237.94203359375,78.884949,238.11169359375,80.015999C243.16769359375,80.015999,247.00769359375,79.632004,249.69568359375,78.160004C252.38368359375,76.688004,253.27969359375,74.255997,253.27969359375,69.648003L253.27969359375,42.063999L258.52768359375,42.063999L258.52768359375,33.103996L253.27969359375,33.103996L253.27969359375,19.919998L244.06369359375,19.919998L244.06369359375,33.103996L230.23968359375,33.103996L230.23968359375,34.183998ZM265.95169359375,36.375999L265.95169359375,80.080002L274.91168359375,80.080002L274.91168359375,76.879997L309.66369359375,76.879997L309.66369359375,80.080002L319.13568359375,80.080002L319.13568359375,35.855999L295.45568359375,35.855999L296.86367359375,31.375999L321.95169359375,31.375999L321.95169359375,22.607998L263.45568359375,22.607998L263.45568359375,31.375999L286.23968359375,31.375999L285.59967359375,35.855999L265.95169359375,35.855999L265.95169359375,36.375999ZM239.57333359375,61.0704L243.29568359375,59.535999C242.41836359375,56.757839,240.68733359375,52.643425,239.06369359375,48.888813C238.79528359375,48.268158,238.52983359375,47.65733,238.27163359375,47.063999C238.04080359375,46.533524,237.81578359375,46.017033,237.59968359375,45.519997L234.47088359375,46.699707L233.89569359375,46.916584L233.50473359375,47.063999L229.79168359375,48.463997C229.79908359375,48.482639,229.80651359375,48.501308,229.81393359375,48.519997C230.31750359375,49.788368,230.85341359375,51.163548,231.38606359375,52.568001C231.45654359375,52.753822,231.52694359375,52.940159,231.59723359375,53.126827C232.22319359375,54.789482,232.83809359375,56.47855,233.38368359375,58.067127C233.39840359375,58.110016,233.41308359375,58.152832,233.42772359375,58.195572C233.62173359375,58.762466,233.80667359375,59.316036,233.97982359375,59.850452C234.21000359375,60.560833,234.41940359375,61.237373,234.60173359375,61.866386C234.71624359375,62.261471,234.82008359375,62.637806,234.91168359375,62.992001L239.06369359375,61.280487L239.57333359375,61.0704ZM228.38368359375,58.882519L228.38368359375,53.519997L218.91168359375,53.519997L218.91168359375,48.975998L209.88768359375,48.975998L209.88768359375,53.519997L200.41568359375,53.519997L200.41568359375,61.776001L209.88768359375,61.776001L209.88768359375,67.536003L203.15513359375,68.16143L199.51854359375,68.499252L198.17569359375,68.624001L198.62303359375,72.622231L198.64367359375,72.806747L198.73175359375,73.593872L199.19967359375,77.776001C200.75851359375,77.576752,202.42036359375,77.368919,204.16128359375,77.154068C211.92662359375,76.19574,221.26474359375,75.09787,230.04768359375,74L230.00048359375,72.725815L229.91327359375,70.370636L229.78013359375,66.776001L229.74134359375,65.728935L229.72769359375,65.360001L227.29829359375,65.633125L226.15205359375,65.761993L224.74501359375,65.920181L223.91168359375,66.01387L218.91168359375,66.575996L218.91168359375,61.776001L228.38368359375,61.776001L228.38368359375,58.882519ZM195.41568359375,58.95248L195.41568359375,55.192001L187.92843359375,55.192001L189.28242359375,56.283928Q191.20260359375,57.832451,195.41568359375,58.95248ZM181.37898359375,55.192001L179.36769359375,55.192001L179.36769359375,64.328003L180.86181359375,64.328003Q181.01332359375,62.749161,181.14952359375,59.934353L181.37898359375,55.192001ZM148.48242359375,55.192001L130.26368359375,55.192001L130.26368359375,44.759998L130.21568359375,44.759998L130.21568359375,68.185577L132.27507359375,67.404762Q143.41638359375,63.180569,148.48242359375,55.192001ZM81.81568859375,41.935997L80.92768059375,41.935997L80.92768059375,32.335999L86.81568859375,32.335999L86.81568859375,41.935997L81.81568859375,41.935997ZM290.96768359375,47.375999L295.96768359375,47.375999L295.96768359375,44.367996L288.22369359375,44.367996L288.22369359375,47.375999L290.96768359375,47.375999ZM274.91168359375,63.367996L274.91168359375,68.367996L279.96768359375,68.367996L279.96768359375,44.367996L274.91168359375,44.367996L274.91168359375,63.367996ZM304.66369359375,68.367996L304.28769359375,68.367996L304.28769359375,44.367996L309.66369359375,44.367996L309.66369359375,68.367996L304.66369359375,68.367996ZM86.81568859375,59.984001L86.81568859375,50L80.92768059375,50L80.92768059375,59.984001L86.81568859375,59.984001ZM290.96768359375,54.543999L288.22369359375,54.543999L288.22369359375,57.935997L295.96768359375,57.935997L295.96768359375,54.543999L290.96768359375,54.543999ZM290.96768359375,65.103996L288.22369359375,65.103996L288.22369359375,68.367996L295.96768359375,68.367996L295.96768359375,65.103996L290.96768359375,65.103996Z" fill-rule="evenodd" fill="#FFB73A" fill-opacity="1"/></g></svg>