<svg xmlns="http://www.w3.org/2000/svg" xmlns:xlink="http://www.w3.org/1999/xlink" fill="none" version="1.1" width="776" height="392" viewBox="0 0 776 392"><defs><clipPath id="master_svg0_1_4628"><rect x="776" y="0" width="776" height="392" rx="0"/></clipPath></defs><g transform="matrix(-1,0,0,1,1552,0)" clip-path="url(#master_svg0_1_4628)"><g><rect x="1131" y="94" width="170" height="153" rx="0" fill="#E93B66" fill-opacity="1"/></g><g><rect x="1332" y="128" width="140" height="125" rx="0" fill="#E93B66" fill-opacity="1"/></g><g><rect x="1511" y="163" width="459" height="94" rx="0" fill="#E93B66" fill-opacity="1"/></g><g><rect x="2001" y="86" width="459" height="94" rx="0" fill="#E93B66" fill-opacity="1"/></g><g><rect x="825" y="273" width="417" height="11" rx="0" fill="#E93B66" fill-opacity="1"/></g><g><rect x="2052" y="60" width="221" height="73" rx="0" fill="#3D3D3D" fill-opacity="1"/></g><g><rect x="1866" y="97" width="297" height="146" rx="0" fill="#3D3D3D" fill-opacity="1"/></g><g><rect x="1673" y="170" width="297" height="48" rx="0" fill="#3D3D3D" fill-opacity="1"/></g><g><rect x="1432" y="73" width="59" height="60" rx="0" fill="#3D3D3D" fill-opacity="1"/></g><g><rect x="1157" y="0" width="59" height="60" rx="0" fill="#3D3D3D" fill-opacity="1"/></g><g><rect x="1081" y="133" width="501" height="60" rx="0" fill="#3D3D3D" fill-opacity="1"/></g><g><rect x="1462" y="243" width="120" height="42" rx="0" fill="#3D3D3D" fill-opacity="1"/></g><g><rect x="1565" y="222" width="220" height="42" rx="0" fill="#3D3D3D" fill-opacity="1"/></g><g><rect x="1242" y="224" width="73" height="168" rx="0" fill="#3D3D3D" fill-opacity="1"/></g><g><rect x="1150" y="110" width="262" height="168" rx="0" fill="#3D3D3D" fill-opacity="1"/></g><g><rect x="776" y="185" width="262" height="32" rx="0" fill="#3D3D3D" fill-opacity="1"/></g><g><rect x="1695" y="163" width="58" height="168" rx="0" fill="#3D3D3D" fill-opacity="1"/></g><g><rect x="2215" y="201" width="181" height="65" rx="0" fill="#3D3D3D" fill-opacity="1"/></g><g><rect x="1822" y="220" width="181" height="65" rx="0" fill="#3D3D3D" fill-opacity="1"/></g></g></svg>