<svg xmlns="http://www.w3.org/2000/svg" xmlns:xlink="http://www.w3.org/1999/xlink" fill="none" version="1.1" width="70.537109375" height="207.6357421875" viewBox="0 0 70.537109375 207.6357421875"><ellipse cx="55.037109375" cy="28.129806518554688" rx="15.5" ry="15.5" fill="#000000" fill-opacity="1"/><g transform="matrix(0.31604623794555664,-0.9487437605857849,0.24780043959617615,0.9688581824302673,-29.830224190142644,8.443392098583445)"><path d="M137.916489375,167.0171586958008Q137.916489375,162.6894836958008,136.304659375,158.51952569580078L136.303819375,158.51985169580078Q136.242859375,158.36215169580078,136.170239375,158.2094746958008Q136.097629375,158.0567946958008,136.013759375,157.90999569580077Q135.929869375,157.7631946958008,135.835219375,157.62310569580077Q135.740569375,157.48301269580077,135.635669375,157.35042369580077Q135.530759375,157.21783469580078,135.416199375,157.09349069580077Q135.301649375,156.9691466958008,135.178099375,156.85375069580078Q135.054519375,156.73835369580078,134.922639375,156.6325566958008Q134.790759375,156.5267596958008,134.651309375,156.43115969580077Q134.511869375,156.33555969580078,134.365629375,156.25069269580078Q134.219419375,156.16582869580077,134.067229375,156.09217869580078Q133.915039375,156.01852769580077,133.757749375,155.9565046958008Q133.600459375,155.89448169580078,133.438969375,155.84444069580078Q133.277469375,155.7943976958008,133.112689375,155.75661669580077Q132.947889375,155.71883769580077,132.780729375,155.69353069580077Q132.613559375,155.66822469580077,132.444969375,155.65553469580078Q132.276369375,155.6428446958008,132.107299375,155.6428446958008Q131.996849375,155.6428446958008,131.88653937499998,155.64826569580077Q131.77621937499998,155.6536846958008,131.666309375,155.66451069580077Q131.556399375,155.67533469580079,131.447139375,155.69154169580077Q131.337889375,155.70774869580077,131.229559375,155.72929369580078Q131.12122937499998,155.75084069580078,131.014099375,155.77767769580078Q130.90696937500002,155.80451369580078,130.80127937499998,155.83657469580078Q130.695589375,155.86863469580078,130.591589375,155.90584369580077Q130.487599375,155.9430506958008,130.385559375,155.98531769580077Q130.283519375,156.0275836958008,130.183679375,156.0748066958008Q130.083839375,156.12202669580077,129.986439375,156.17409169580077Q129.889019375,156.22615469580077,129.794289375,156.28293369580078Q129.699559375,156.33971569580078,129.607709375,156.40107769580078Q129.515889375,156.46243869580078,129.427169375,156.5282326958008Q129.338459375,156.59402469580078,129.253089375,156.66409069580078Q129.16770937500002,156.73415769580077,129.085879375,156.80832869580078Q129.004039375,156.88250169580078,128.92593937499998,156.9605996958008Q128.847839375,157.03869669580078,128.773669375,157.1205326958008Q128.69949937500002,157.20236969580077,128.629439375,157.2877466958008Q128.55935937499999,157.3731216958008,128.493569375,157.4618296958008Q128.427769375,157.55054269580077,128.366409375,157.64237569580078Q128.305049375,157.7342086958008,128.24827937499998,157.82894169580078Q128.191489375,157.9236756958008,128.13942937500002,158.02108169580077Q128.087359375,158.11848869580078,128.040149375,158.21833069580077Q127.992919375,158.3181726958008,127.950649375,158.4202116958008Q127.908389375,158.52225069580078,127.871179375,158.62624369580078Q127.833969375,158.7302336958008,127.801919375,158.83592569580077Q127.769849375,158.94161569580078,127.743019375,159.04875169580077Q127.716189375,159.1558896958008,127.694639375,159.26421369580078Q127.673099375,159.37253969580078,127.656889375,159.48179069580078Q127.640689375,159.59104169580078,127.629869375,159.70095869580078Q127.619029375,159.81087269580078,127.613619375,159.92118469580078Q127.608199375,160.0314976958008,127.608199375,160.1419446958008Q127.608199375,160.9812146958008,127.910789375,161.7640396958008L127.909949375,161.7643646958008Q128.916489375,164.36837369580078,128.916489375,167.0171586958008Q128.916489375,178.43835069580078,112.437089375,187.16251369580078Q94.550926375,196.6314166958008,68.976791375,196.6314166958008Q43.402671375,196.6314166958008,25.516508375,187.16251769580077Q9.037109375,178.4383546958008,9.037109375,167.01717369580078Q9.037109375,155.59596669580077,25.516510375,146.8718036958008Q43.402671375,137.40290069580078,68.976799375,137.40290069580078L68.976799375,137.40200089580077Q69.087249375,137.40200089580077,69.197555375,137.3965816958008Q69.307876375,137.3911618958008,69.417793375,137.3803367958008Q69.527710375,137.36951069580078,69.636955375,137.3533048958008Q69.746200375,137.33709859580077,69.854522375,137.3155517958008Q69.962844375,137.29400439580078,70.069984375,137.26716799580078Q70.177124375,137.2403316958008,70.282821375,137.20827099580077Q70.388504375,137.17621039580078,70.492500375,137.1390018958008Q70.596481375,137.10179329580077,70.698524375,137.0595268958008Q70.800567375,137.0172605958008,70.900406375,136.97003889580077Q71.000251375,136.92281679580077,71.097656375,136.87075279580077Q71.195060375,136.8186883958008,71.289795375,136.76190759580078Q71.384529375,136.70512629580077,71.476364375,136.64376549580078Q71.568191375,136.58240459580077,71.656906375,136.51661159580078Q71.745620375,136.45081849580077,71.831001375,136.38075209580077Q71.916374375,136.31068519580077,71.998207375,136.23651389580078Q72.080047375,136.16234229580078,72.158142375,136.08424469580078Q72.236236375,136.0061471958008,72.310402375,135.9243115958008Q72.384567375,135.8424758958008,72.454643375,135.75709959580078Q72.524704375,135.67172289580077,72.590492375,135.5830111958008Q72.656288375,135.49429969580078,72.717651375,135.40246649580078Q72.779014375,135.3106336958008,72.835800375,135.21590019580077Q72.892578375,135.12116689580077,72.944641375,135.0237617958008Q72.996704375,134.9263562958008,73.043930375,134.82651369580077Q73.091156375,134.7266709958008,73.133422375,134.6246315958008Q73.175689375,134.52259209580077,73.212890375,134.41860179580078Q73.250106375,134.31461129580077,73.282165375,134.20892049580078Q73.314224375,134.10322949580078,73.341064375,133.9960927958008Q73.367897375,133.88895606580078,73.389442375,133.7806315458008Q73.410995375,133.67230701580078,73.427200375,133.56305575580078Q73.443405375,133.45380449580077,73.454231375,133.34388962580078Q73.465057375,133.23397475580077,73.470474375,133.12366107580078Q73.475891375,133.01334740580077,73.475898375,132.90290069580078Q73.475891375,132.7924539858008,73.470474375,132.68214031580078Q73.465057375,132.5718266358008,73.454239375,132.46191176580078Q73.443405375,132.3519968958008,73.427200375,132.2427456358008Q73.410995375,132.13349437580078,73.389442375,132.02516984580078Q73.367897375,131.91684532580078,73.341064375,131.80970859580077Q73.314224375,131.7025718958008,73.282165375,131.59688089580078Q73.250106375,131.4911900958008,73.212890375,131.38719979580077Q73.175682375,131.2832092958008,73.133415375,131.18116979580077Q73.091148375,131.07913039580077,73.043930375,130.9792876958008Q72.996704375,130.87944509580078,72.944641375,130.78203959580077Q72.892578375,130.6846344958008,72.835792375,130.5899011958008Q72.779014375,130.49516769580077,72.717651375,130.40333489580078Q72.656288375,130.31150169580079,72.590500375,130.22278999580078Q72.524704375,130.1340784958008,72.454643375,130.04870179580078Q72.384567375,129.96332549580077,72.310402375,129.8814899958008Q72.236236375,129.79965419580077,72.158142375,129.72155669580079Q72.080047375,129.64345909580078,71.998207375,129.56928749580078Q71.916366375,129.4951161958008,71.830993375,129.4250492958008Q71.745620375,129.3549828958008,71.656906375,129.28918979580078Q71.568191375,129.22339699580078,71.476364375,129.1620361958008Q71.384529375,129.10067529580078,71.289795375,129.04389449580077Q71.195068375,128.98711349580077,71.097664375,128.9350490958008Q71.000259375,128.8829850958008,70.900413375,128.8357629958008Q70.800567375,128.78854079580077,70.698524375,128.74627499580077Q70.596481375,128.70400909580079,70.492500375,128.66680049580077Q70.388504375,128.6295918958008,70.282821375,128.5975303958008Q70.177124375,128.56546969580077,70.069984375,128.5386333958008Q69.962844375,128.51179699580078,69.854522375,128.49024959580078Q69.746200375,128.4687027958008,69.636963375,128.45249699580077Q69.527710375,128.43629069580078,69.417793375,128.42546509580077Q69.307876375,128.41463949580077,69.197563375,128.40921969580077Q69.087249375,128.4038004958008,68.976799375,128.4038004958008L68.976799375,128.40290069580078Q41.167335375,128.40290069580078,21.305603375,138.91766739580078Q0.037109375,150.1771676958008,0.037109375,167.01717369580078Q0.037109375,183.8571586958008,21.305605375,195.11665769580077Q41.167328375,205.6314166958008,68.976791375,205.6314166958008Q96.786255375,205.6314166958008,116.647999375,195.1166456958008Q137.916489375,183.8571476958008,137.916489375,167.0171586958008Z" fill-rule="evenodd" fill="#272727" fill-opacity="1"/></g><g transform="matrix(0.31604623794555664,-0.9487437605857849,0.24780043959617615,0.9688581824302673,-30.70253083505918,6.48362094227241)"><path d="M135.916489375,165.0171586958008Q135.916489375,160.6894836958008,134.304659375,156.51952569580078L134.303819375,156.51985169580078Q134.242859375,156.36215169580078,134.170239375,156.2094746958008Q134.097629375,156.0567946958008,134.013759375,155.90999569580077Q133.929869375,155.7631946958008,133.835219375,155.62310569580077Q133.740569375,155.48301269580077,133.635669375,155.35042369580077Q133.530759375,155.21783469580078,133.416199375,155.09349069580077Q133.301649375,154.9691466958008,133.178099375,154.85375069580078Q133.054519375,154.73835369580078,132.922639375,154.6325566958008Q132.790759375,154.5267596958008,132.651309375,154.43115969580077Q132.511869375,154.33555969580078,132.365629375,154.25069269580078Q132.219419375,154.16582869580077,132.067229375,154.09217869580078Q131.915039375,154.01852769580077,131.757749375,153.9565046958008Q131.600459375,153.89448169580078,131.438969375,153.84444069580078Q131.277469375,153.7943976958008,131.112689375,153.75661669580077Q130.947889375,153.71883769580077,130.780729375,153.69353069580077Q130.613559375,153.66822469580077,130.444969375,153.65553469580078Q130.276369375,153.6428446958008,130.107299375,153.6428446958008Q129.996849375,153.6428446958008,129.88653937499998,153.64826569580077Q129.77621937499998,153.6536846958008,129.666309375,153.66451069580077Q129.556399375,153.67533469580079,129.447139375,153.69154169580077Q129.337889375,153.70774869580077,129.229559375,153.72929369580078Q129.12122937499998,153.75084069580078,129.014099375,153.77767769580078Q128.90696937500002,153.80451369580078,128.80127937499998,153.83657469580078Q128.695589375,153.86863469580078,128.591589375,153.90584369580077Q128.487599375,153.9430506958008,128.385559375,153.98531769580077Q128.283519375,154.0275836958008,128.183679375,154.0748066958008Q128.083839375,154.12202669580077,127.986439375,154.17409169580077Q127.889019375,154.22615469580077,127.794289375,154.28293369580078Q127.699559375,154.33971569580078,127.607709375,154.40107769580078Q127.515889375,154.46243869580078,127.427169375,154.5282326958008Q127.338459375,154.59402469580078,127.253089375,154.66409069580078Q127.167709375,154.73415769580077,127.085879375,154.80832869580078Q127.004039375,154.88250169580078,126.925939375,154.9605996958008Q126.847839375,155.03869669580078,126.773669375,155.1205326958008Q126.699499375,155.20236969580077,126.629439375,155.2877466958008Q126.559359375,155.3731216958008,126.493569375,155.4618296958008Q126.427769375,155.55054269580077,126.366409375,155.64237569580078Q126.305049375,155.7342086958008,126.248279375,155.82894169580078Q126.191489375,155.9236756958008,126.139429375,156.02108169580077Q126.087359375,156.11848869580078,126.040149375,156.21833069580077Q125.992919375,156.3181726958008,125.950649375,156.4202116958008Q125.908389375,156.52225069580078,125.871179375,156.62624369580078Q125.833969375,156.7302336958008,125.801919375,156.83592569580077Q125.769849375,156.94161569580078,125.743019375,157.04875169580077Q125.716189375,157.1558896958008,125.694639375,157.26421369580078Q125.673099375,157.37253969580078,125.656889375,157.48179069580078Q125.640689375,157.59104169580078,125.629869375,157.70095869580078Q125.619029375,157.81087269580078,125.613619375,157.92118469580078Q125.608199375,158.0314976958008,125.608199375,158.1419446958008Q125.608199375,158.9812146958008,125.910789375,159.7640396958008L125.909949375,159.7643646958008Q126.916489375,162.36837369580078,126.916489375,165.0171586958008Q126.916489375,176.43835069580078,110.437089375,185.16251369580078Q92.550926375,194.6314166958008,66.976791375,194.6314166958008Q41.402671375,194.6314166958008,23.516508375,185.16251769580077Q7.037109375,176.4383546958008,7.037109375,165.01717369580078Q7.037109375,153.59596669580077,23.516510375,144.8718036958008Q41.402671375,135.40290069580078,66.976799375,135.40290069580078L66.976799375,135.40200089580077Q67.087249375,135.40200089580077,67.197555375,135.3965816958008Q67.307876375,135.3911618958008,67.417793375,135.3803367958008Q67.527710375,135.36951069580078,67.636955375,135.3533048958008Q67.746200375,135.33709859580077,67.854522375,135.3155517958008Q67.962844375,135.29400439580078,68.069984375,135.26716799580078Q68.177124375,135.2403316958008,68.282821375,135.20827099580077Q68.388504375,135.17621039580078,68.492500375,135.1390018958008Q68.596481375,135.10179329580077,68.698524375,135.0595268958008Q68.800567375,135.0172605958008,68.900406375,134.97003889580077Q69.000251375,134.92281679580077,69.097656375,134.87075279580077Q69.195060375,134.8186883958008,69.289795375,134.76190759580078Q69.384529375,134.70512629580077,69.476364375,134.64376549580078Q69.568191375,134.58240459580077,69.656906375,134.51661159580078Q69.745620375,134.45081849580077,69.831001375,134.38075209580077Q69.916374375,134.31068519580077,69.998207375,134.23651389580078Q70.080047375,134.16234229580078,70.158142375,134.08424469580078Q70.236236375,134.0061471958008,70.310402375,133.9243115958008Q70.384567375,133.8424758958008,70.454643375,133.75709959580078Q70.524704375,133.67172289580077,70.590492375,133.5830111958008Q70.656288375,133.49429969580078,70.717651375,133.40246649580078Q70.779014375,133.3106336958008,70.835800375,133.21590019580077Q70.892578375,133.12116689580077,70.944641375,133.0237617958008Q70.996704375,132.9263562958008,71.043930375,132.82651369580077Q71.091156375,132.7266709958008,71.133422375,132.6246315958008Q71.175689375,132.52259209580077,71.212890375,132.41860179580078Q71.250106375,132.31461129580077,71.282165375,132.20892049580078Q71.314224375,132.10322949580078,71.341064375,131.9960927958008Q71.367897375,131.88895606580078,71.389442375,131.7806315458008Q71.410995375,131.67230701580078,71.427200375,131.56305575580078Q71.443405375,131.45380449580077,71.454231375,131.34388962580078Q71.465057375,131.23397475580077,71.470474375,131.12366107580078Q71.475891375,131.01334740580077,71.475898375,130.90290069580078Q71.475891375,130.7924539858008,71.470474375,130.68214031580078Q71.465057375,130.5718266358008,71.454239375,130.46191176580078Q71.443405375,130.3519968958008,71.427200375,130.2427456358008Q71.410995375,130.13349437580078,71.389442375,130.02516984580078Q71.367897375,129.91684532580078,71.341064375,129.80970859580077Q71.314224375,129.7025718958008,71.282165375,129.59688089580078Q71.250106375,129.4911900958008,71.212890375,129.38719979580077Q71.175682375,129.2832092958008,71.133415375,129.18116979580077Q71.091148375,129.07913039580077,71.043930375,128.9792876958008Q70.996704375,128.87944509580078,70.944641375,128.78203959580077Q70.892578375,128.6846344958008,70.835792375,128.5899011958008Q70.779014375,128.49516769580077,70.717651375,128.40333489580078Q70.656288375,128.31150169580079,70.590500375,128.22278999580078Q70.524704375,128.1340784958008,70.454643375,128.04870179580078Q70.384567375,127.96332549580077,70.310402375,127.88148999580078Q70.236236375,127.79965419580078,70.158142375,127.72155669580079Q70.080047375,127.64345909580078,69.998207375,127.56928749580078Q69.916366375,127.49511619580078,69.830993375,127.42504929580078Q69.745620375,127.35498289580079,69.656906375,127.28918979580078Q69.568191375,127.22339699580078,69.476364375,127.16203619580078Q69.384529375,127.10067529580078,69.289795375,127.04389449580079Q69.195068375,126.98711349580078,69.097664375,126.93504909580078Q69.000259375,126.88298509580078,68.900413375,126.83576299580078Q68.800567375,126.78854079580078,68.698524375,126.74627499580077Q68.596481375,126.70400909580079,68.492500375,126.66680049580079Q68.388504375,126.62959189580079,68.282821375,126.59753039580079Q68.177124375,126.56546969580079,68.069984375,126.53863339580079Q67.962844375,126.51179699580078,67.854522375,126.49024959580078Q67.746200375,126.46870279580078,67.636963375,126.45249699580079Q67.527710375,126.43629069580078,67.417793375,126.42546509580077Q67.307876375,126.41463949580078,67.197563375,126.40921969580079Q67.087249375,126.40380049580078,66.976799375,126.40380049580078L66.976799375,126.40290069580078Q39.167335375,126.40290069580078,19.305603375,136.91766739580078Q-1.962890625,148.1771676958008,-1.962890625,165.01717369580078Q-1.962890625,181.8571586958008,19.305605375,193.11665769580077Q39.167328375,203.6314166958008,66.976791375,203.6314166958008Q94.786255375,203.6314166958008,114.647999375,193.1166456958008Q135.916489375,181.8571476958008,135.916489375,165.0171586958008Z" fill-rule="evenodd" fill="#FFFFFF" fill-opacity="1"/></g></svg>