<svg xmlns="http://www.w3.org/2000/svg" xmlns:xlink="http://www.w3.org/1999/xlink" fill="none" version="1.1" width="114" height="114" viewBox="0 0 114 114"><defs><clipPath id="master_svg0_8_2856"><rect x="0" y="0" width="114" height="114" rx="0"/></clipPath></defs><g clip-path="url(#master_svg0_8_2856)"><g><path d="M21.5,5L14,16.5L21.5,27L81,27L81,59L22,59L22,32L0,32L0,105L22,105L22,81L81,81L81,105L103,105L103,5L21.5,5Z" fill-rule="evenodd" fill="#E93B66" fill-opacity="1"/></g><g><path d="M32.5,10L25,21.5L32.5,32L92,32L92,64L33,64L33,37L11,37L11,110L33,110L33,86L92,86L92,110L114,110L114,10L32.5,10Z" fill-rule="evenodd" fill="#FFFFFF" fill-opacity="1"/><path d="M20.157632800000002,21.602547L28.298672,33L7,33L7,114L37,114L37,90L88,90L88,114L118,114L118,6L30.333206,6.000000200000001L20.157632800000002,21.602547ZM92,64L92,32L32.5,32L25,21.5L32.5,10L114,10L114,110L92,110L92,86L33,86L33,110L11,110L11,37L33,37L33,64L92,64ZM37,60L37,36L88,36L88,60L37,60Z" fill-rule="evenodd" fill="#E93B66" fill-opacity="1"/></g></g></svg>